<svg id="Layer_1" data-name="Layer 1" xmlns="http://www.w3.org/2000/svg" xmlns:xlink="http://www.w3.org/1999/xlink" viewBox="0 0 425 425"><defs><style>.cls-1{fill:#e6e6e6;}.cls-2{fill:#ccc;opacity:0.5;}.cls-15,.cls-3,.cls-4{fill:#695c4e;}.cls-11,.cls-12,.cls-16,.cls-19,.cls-20,.cls-3,.cls-4{stroke:#231f20;}.cls-13,.cls-20,.cls-3{stroke-linecap:round;}.cls-13,.cls-16,.cls-20,.cls-3{stroke-linejoin:round;}.cls-16,.cls-19,.cls-20,.cls-3,.cls-4{stroke-width:1.45px;}.cls-11,.cls-12,.cls-19,.cls-4{stroke-miterlimit:10;}.cls-5{fill:url(#radial-gradient);}.cls-16,.cls-6{fill:#231f20;}.cls-7{fill:#3a3635;}.cls-8{fill:#cb4827;}.cls-9{fill:#f06022;}.cls-10{fill:#6d6e70;}.cls-11,.cls-12,.cls-13{stroke-width:0.48px;}.cls-11{fill:url(#radial-gradient-2);}.cls-12{fill:url(#radial-gradient-3);}.cls-13,.cls-19,.cls-20{fill:none;}.cls-13{stroke:#fff;}.cls-14{fill:#fff;opacity:0.1;}.cls-17{fill:#232121;}.cls-18{fill:#151414;}</style><radialGradient id="radial-gradient" cx="204.18" cy="173.75" r="69.64" gradientTransform="translate(0 -129.96) scale(1 1.75)" gradientUnits="userSpaceOnUse"><stop offset="0" stop-color="#3a3635"/><stop offset="1" stop-color="#272423"/></radialGradient><radialGradient id="radial-gradient-2" cx="-391.77" cy="7.68" r="4.17" gradientTransform="matrix(-0.01, 1.4, -1.94, -0.02, 191.8, 632.45)" gradientUnits="userSpaceOnUse"><stop offset="0" stop-color="#404041"/><stop offset="1" stop-color="#231f20"/></radialGradient><radialGradient id="radial-gradient-3" cx="-338.27" cy="142.41" r="4.64" gradientTransform="matrix(1.39, 0.1, -0.17, 1.26, 743.01, -60.82)" xlink:href="#radial-gradient-2"/></defs><title>atticus</title><rect class="cls-1" width="425" height="425"/><ellipse class="cls-2" cx="211.54" cy="372.04" rx="64.79" ry="13.08"/><path class="cls-3" d="M229.62,358.63c6.38,1.06,18,6.2,21.6,7.68a9.17,9.17,0,0,1,4.79,5.28,42.39,42.39,0,0,1-4.57-2.18,32.74,32.74,0,0,0-5.22-2.17,35,35,0,0,1,4.24,2.29c2.53,1.87,4.82,6,4.82,6a60,60,0,0,0-6.6-4c-2-.85-4.59-2-4.59-2A44.23,44.23,0,0,1,248,372a18.29,18.29,0,0,1,2.6,3.25L245.18,373c-1.27-.53-18.41-9.13-18.41-9.13s-2,.19-5.38-1.5c-.34-.17-1.07-1.17-2.17-2.17a11.92,11.92,0,0,0-3.39-1.67c-1.26-.46-2.61-.44-2.66-.63s1.26-.61,2.79-.48c1.78.15,3.8.79,3.88.52.26-.82,1.15-.61.74-1-.7-.72,6.25-1.65,7.41-.69S227.34,358.25,229.62,358.63Z"/><path class="cls-3" d="M246.23,367.24l-13-5.49c-1.52-.64-4-1.34-4-1.34"/><path class="cls-3" d="M244.1,369.57,231,363.25A14,14,0,0,0,227.6,362"/><path class="cls-3" d="M196.76,357.63c-6.23,1.74-18.72,6.33-22.31,7.81s-4.29,6.15-4.29,6.15a20.66,20.66,0,0,1,4.06-3.05,32.74,32.74,0,0,1,5.22-2.17,35,35,0,0,0-4.24,2.29c-2.53,1.87-4.13,6.24-4.13,6.24s3.9-3.39,5.91-4.24,4.59-2,4.59-2a44.27,44.27,0,0,0-3.88,2.45c-1.06.85-1.88,4.39-1.88,4.39a53,53,0,0,1,5-3C182.06,372,199,363,199,363a12.93,12.93,0,0,0,6.86-2c1.17-.78.82-1.37,2.05-2,1.51-.81,3-.85,3.1-1.07s-1.81-.81-3.08-.61-2.28.64-2.33.41a10.85,10.85,0,0,1-.31-1.69c-.05-.61-6.49-1.64-7.65-.69S198.12,357.25,196.76,357.63Z"/><path class="cls-4" d="M222.14,342c.45-7.23,2.58-12.56,1.61-13.36s4.51-3.54,5.8-2.25,4.2,1.85,3.22,3.22-1.77,1.77-2.9,6.76-3.22,12.56-3.22,16.1,1.64,3.54.9,4.51-3.31,1.65-4.76,1.55-2.58-1.23-2.09-2S222,344.58,222.14,342Z"/><path class="cls-4" d="M193.52,332.65s4.06,13.64,4.49,18-1.38,6.22,0,7.17,2.59.78,4.32.69,3.45-1.55,2.94-2.59-.14-4.6-.74-7.45-3-15.52-3.57-20.18a11.83,11.83,0,0,1,.95-7.17c.09-.43-5.61-6.91-10.1-1.47S190.76,326.17,193.52,332.65Z"/><path class="cls-5" d="M217.37,329.18c-1.55,0-3.15,0-4.77-.08s-3.17.08-4.72.08c-20,0-36.42-4.72-51.77-14.86-11.83-7.82-20.58-21.4-25.3-39.29a122.47,122.47,0,0,1-2.4-48.3c3.64-23.35,14.58-52.78,21.83-72.26,1.77-4.77,3.3-8.88,4.4-12.05,1.54-4.44,3.43-9.63,5.42-15.13,4.94-13.59,10.53-29,11.09-33.83.4-3.45.79-6.22,1.17-8.9s.7-5,1-7.61c.21-1.88,2.34-18.43,13.53-21.46,9.57-2.59,14-3.5,25.77-3.5s16.49,1,25.77,3.5c11.19,3.06,13.32,19.59,13.53,21.46.29,2.64.63,5.05,1,7.6s.77,5.45,1.17,8.9c.56,4.82,6.15,20.23,11.09,33.83,2,5.5,3.88,10.69,5.42,15.13,1.1,3.17,2.63,7.29,4.4,12.05,7.24,19.48,18.19,48.92,21.83,72.26a122.5,122.5,0,0,1-2.4,48.3c-4.72,17.89-13.46,31.47-25.3,39.29-15.34,10.14-31.79,14.86-51.77,14.86Z"/><path class="cls-6" d="M212.63,52.72c11.82,0,16.33.94,25.58,3.47s12.41,15.48,13,20.84,1.38,9.7,2.17,16.51,11,33.22,16.55,49.11,21.67,55.1,26.2,84.19-1.77,70-27.38,86.87c-17.5,11.56-34.81,14.74-51.37,14.74q-2.38,0-4.74-.08h0q-2.36.08-4.74.08c-16.56,0-33.87-3.18-51.37-14.74-25.61-16.92-31.91-57.78-27.38-86.87s20.69-68.3,26.2-84.19,15.76-42.3,16.55-49.11S173.46,82.4,174,77s3.63-18.3,13-20.84,13.76-3.47,25.58-3.47m0-1.45c-11.89,0-16.32.91-26,3.52C175,57.95,172.82,74.95,172.61,76.87c-.29,2.63-.63,5-1,7.58s-.77,5.46-1.17,8.92c-.55,4.74-6.13,20.1-11,33.66-2,5.5-3.88,10.7-5.43,15.14-1.1,3.16-2.63,7.27-4.4,12-7.26,19.51-18.22,49-21.87,72.41a123.23,123.23,0,0,0,2.42,48.59c4.76,18.06,13.62,31.79,25.6,39.71,15.47,10.22,32,15,52.17,15,1.54,0,3.13,0,4.74-.08s3.2.08,4.74.08c20.12,0,36.7-4.76,52.17-15,12-7.92,20.83-21.65,25.6-39.71a123.24,123.24,0,0,0,2.42-48.59c-3.65-23.42-14.61-52.9-21.87-72.41-1.77-4.76-3.3-8.87-4.4-12-1.54-4.45-3.43-9.64-5.43-15.14-4.92-13.56-10.5-28.92-11.05-33.66-.4-3.46-.79-6.24-1.17-8.92s-.7-5-1-7.58c-.21-1.92-2.41-18.89-14.06-22.08-9.35-2.56-14-3.53-26-3.53Z"/><path class="cls-7" d="M162.91,134.13c1.29.79,7.79-11.59,8.37-12.45-.48,2.31-4.73,14.92-3.51,15.21s8.18-12.24,9-14.44c-.45,2.24-4.33,15.8-2.87,16.19,1.13.3,5.63-12.59,6.06-14.66-.13,3.13-2.09,16.63-.63,16.67a3.32,3.32,0,0,0,3.26-2.62c-.58,5.75,6.59,7.2,6.45,2.22h47.2c-.14,5,7,3.53,6.45-2.22a3.23,3.23,0,0,0,4.16,2.43c1.07-.45-.65-15.32-.75-17.79.44,2.11,4.2,16.3,5.36,16,1.43-.43-.52-14.08-1-16.28.75,2,5.49,14.72,6.73,14.6s-2.58-13.65-3.1-16.13c.59.86,7,14.12,8.25,13.33,1-.63.63-2.88.06-4.76l-.94-2.6h0c-4.93-13.6-10.66-29.15-11.22-34-.73-6.29-1.45-10.29-2-15.24s-3.35-16.87-12-19.24-12.71-3.21-23.61-3.21-15,.87-23.61,3.21-11.46,14.29-12,19.24-1.27,9-2,15.24c-.6,5.15-7.05,22.44-12.16,36.6C162.28,131.25,161.88,133.5,162.91,134.13Z"/><path class="cls-8" d="M172.91,168.09c0,1-1.17,6.07.73,6.4,1.26.22,2.15-1.39,2.55-2.06-.08,1.41-.84,5.76,1.3,5.77s2.27-1.9,2.45-3.77c0,1.18-1.32,6.08,2,6.08s3.19-1.37,3.52-2.62c0,1.39-1.18,6,1.69,6s3.51-2.54,3.57-3.89c0,1.82-1.83,8.88,2.27,8.88s4-4.43,4.31-6c.37,2.75-2.2,9.9,1.05,9.9s4.78-5.3,5.17-8.51c-.35,2.7-1.85,11,2.54,11s5.41-9.15,5.74-9.53c0,0-.33,11.75,4.53,11.75s4.88-11.75,4.88-11.75c.33.39,1.35,9.53,5.74,9.53s2.89-8.26,2.54-11c.4,3.22,1.92,8.51,5.17,8.51s.68-7.15,1.05-9.9c.27,1.57.21,6,4.31,6s2.24-7.07,2.27-8.88c.06,1.36.7,3.89,3.57,3.89s1.73-4.59,1.69-6c.34,1.25.24,2.62,3.52,2.62s1.93-4.9,2-6.08c.18,1.87.31,3.78,2.45,3.77s1.39-4.36,1.3-5.77c.4.67,1.29,2.28,2.55,2.06,1.9-.33,1.34-5.39,1-6.42,0,0-20.14-44.07-28-53.55s-30-18.5-43.79,13.39S172.91,168.09,172.91,168.09Z"/><path class="cls-8" d="M171.9,73.58c-.45-.54-1-2.14-.36-2.71s1.88.31,2.57.5c.35-.7.19-1.6,1.06-1.56s2.47,2,3,2.61c-.09-.55-.6-2.58.26-2.74.62-.12,1.55,1.6,1.83,2,.56-1.29.6-2.67,2.21-3.15a9.74,9.74,0,0,1,.8,4.11c.42-.87,1.22-2.88,2.29-3-.53,2.45-.27,7.77-2.92,7.7-3.47-.1-4.53.26-6.87-.61A9,9,0,0,1,171.9,73.58Z"/><path class="cls-9" d="M171.9,74.06c-.45-.54-1-2.14-.36-2.71s2.53,1.38,3.22,1.57c.35-.7-.46-2.67.41-2.64s2.7,2.47,3.2,3.12c-.09-.55-.82-3.09,0-3.25.62-.12,1.45,2.84,1.73,3.25.56-1.29.7-3.91,2.3-4.4a14.11,14.11,0,0,1,.53,5c.42-.87,1.5-3.79,2.56-3.93-.53,2.45-.27,7.77-2.92,7.7-3.47-.1-4.53.26-6.87-.61A9,9,0,0,1,171.9,74.06Z"/><path class="cls-8" d="M255.49,75.57c.4-.48.84-1.9.31-2.42s-1.64.28-2.25.44c-.3-.62-.17-1.42-.92-1.4s-2.16,1.74-2.59,2.32c.08-.49.52-2.3-.23-2.44-.54-.1-1.35,1.42-1.59,1.79-.49-1.15-.53-2.38-1.93-2.81a8.85,8.85,0,0,0-.7,3.66c-.36-.78-1.07-2.57-2-2.69.47,2.18.24,6.93,2.56,6.87,3-.08,4,.24,6-.53A7.92,7.92,0,0,0,255.49,75.57Z"/><path class="cls-9" d="M255.49,76c.4-.48.84-1.9.31-2.42s-2.5,1.65-3.1,1.82c-.3-.62.69-2.8-.07-2.77s-2.38,2.19-2.82,2.77c.08-.49.74-2.75,0-2.89-.54-.1-1.63,2.53-1.87,2.89-.49-1.15-.25-3.48-1.65-3.92a14,14,0,0,0-.5,4.67c-.36-.78-1.27-3.58-2.2-3.7.47,2.18.24,6.93,2.56,6.87,3-.08,4,.24,6-.53A7.92,7.92,0,0,0,255.49,76Z"/><path class="cls-10" d="M177.45,99.27a5.14,5.14,0,0,1-.7,0c-4.21-.58-6.91-6.36-6-12.9.85-6.18,4.53-10.85,8.57-10.85a5.14,5.14,0,0,1,.7,0c4.21.58,6.91,6.36,6,12.9C185.17,94.61,181.48,99.27,177.45,99.27Z"/><path class="cls-6" d="M179.3,76.2a4.43,4.43,0,0,1,.6,0c3.82.52,6.24,5.93,5.4,12.08-.8,5.82-4.24,10.22-7.85,10.22a4.43,4.43,0,0,1-.6,0c-3.82-.52-6.24-5.93-5.4-12.08.8-5.82,4.24-10.22,7.85-10.22m0-1.45h0c-4.4,0-8.39,4.93-9.29,11.47-1,7,1.95,13.07,6.64,13.71a5.9,5.9,0,0,0,.8.05c4.4,0,8.39-4.93,9.29-11.47,1-7-1.95-13.07-6.64-13.71a5.9,5.9,0,0,0-.8-.05Z"/><ellipse class="cls-11" cx="178.16" cy="87.24" rx="9.03" ry="5.77" transform="translate(67.5 251.88) rotate(-82.19)"/><path class="cls-10" d="M249.86,94.58c-2.93,0-5.49-3.63-6-8.43-.48-5,1.53-9.17,4.57-9.46l.33,0c2.93,0,5.49,3.63,6,8.43.48,5-1.53,9.17-4.57,9.46Z"/><path class="cls-6" d="M248.81,77.4c2.5,0,4.81,3.39,5.23,7.78.44,4.54-1.32,8.42-3.92,8.67h-.26c-2.5,0-4.81-3.39-5.23-7.78-.44-4.54,1.32-8.42,3.92-8.67h.26m0-1.45-.4,0c-1.8.17-3.32,1.44-4.28,3.57a13.4,13.4,0,0,0-.94,6.68c.5,5.18,3.36,9.09,6.67,9.09l.4,0c1.8-.17,3.32-1.44,4.28-3.57a13.41,13.41,0,0,0,.94-6.68c-.5-5.18-3.36-9.09-6.67-9.09Z"/><ellipse class="cls-12" cx="249.61" cy="85.75" rx="3.8" ry="5.97" transform="matrix(1, -0.1, 0.1, 1, -7.04, 24.21)"/><path class="cls-13" d="M249.41,80.9c.78-.26,2,1.3,2.16,1.68"/><path class="cls-13" d="M173.16,86.77a14.48,14.48,0,0,1,4.45-7.39"/><path class="cls-9" d="M172.91,168.09c0,1-1.17,4.62.73,5,1.26.22,9.61-14,10-14.71-.08,1.41-8.3,18.42-6.16,18.42s9.32-15.2,9.49-17.07c0,1.18-8.37,19.38-5.09,19.38s8.71-17.61,9-18.86c0,1.39-6.7,22.21-3.83,22.21s8.46-22.21,8.52-23.57c0,1.82-6.78,28.56-2.68,28.56s9.43-24.64,9.69-26.21c.37,2.75-7.59,30.1-4.33,30.1s8.08-27.67,8.47-30.89c-.35,2.7-5.15,33.34-.76,33.34s6.79-31.8,7.12-32.19c0,0-1.71,34.41,3.15,34.41s2.27-33.79,2.27-33.79c.33.39,4,31.57,8.35,31.57s1-31.57.63-34.28c.4,3.22,3.82,31.82,7.08,31.82s-2.06-29.7-1.68-32.45c.27,1.57,2.94,28.56,7,28.56s-2.28-23.2-2.25-25c.06,1.36,5.22,20,8.09,20s-2.63-17.18-2.67-18.56c.34,1.25,4.61,15.21,7.89,15.21s-3-15.17-3-16.35c.18,1.87,5.25,14.05,7.39,14S251,159.43,250.89,158c.4.67,7.17,15.25,8.43,15,1.9-.33,1.34-4.29,1-5.17,0,0-20.07-45.32-27.94-54.79s-30-18.5-43.79,13.39S172.91,168.09,172.91,168.09Z"/><path class="cls-14" d="M188.56,126.47c-13.82,31.89-15.65,41.62-15.65,41.62,0,1-1.17,4.62.73,5,1.26.22,9.61-14,10-14.71-.08,1.41-8.3,18.42-6.16,18.42,1.74,0,6.8-10,8.73-14.79-2,5.16-7,17.1-4.33,17.1,3.28,0,8.71-17.61,9-18.86,0,1.39-6.7,22.21-3.83,22.21s8.46-22.21,8.52-23.57c0,1.82-6.78,28.56-2.68,28.56s9.43-24.64,9.69-26.21c.37,2.75-7.59,30.1-4.33,30.1,3.1,0,7.61-25,8.38-30.24-.74,5.16-4.84,32.7-.67,32.7,4.39,0,6.79-31.8,7.12-32.19,0,0-1.71,34.41,3.15,34.41V104.35C207.17,103.34,196.5,108.15,188.56,126.47Zm-1.65,33.6a2.58,2.58,0,0,0,.08-.38A1.61,1.61,0,0,1,186.92,160.07Z"/><path class="cls-15" d="M214.3,121.52c-6-.28-14.63-6.82-14.63-16.42,0-5.24,10.64-31.2,14.66-31.2S229,99.87,229,105.1c0,9.6-8.66,16.14-14.62,16.42h-.07Z"/><path class="cls-6" d="M214.33,74.63c3.06,0,13.93,24.61,13.93,30.47,0,9.18-8.4,15.43-13.93,15.7-5.54-.26-13.93-6.51-13.93-15.7,0-5.86,10.88-30.47,13.93-30.47m0-1.45c-.87,0-3.18,0-9.44,13.89-2.74,6.09-5.95,14.47-5.95,18,0,10,9.07,16.85,15.32,17.14h.14c6.24-.29,15.32-7.12,15.32-17.14,0-3.56-3.2-11.94-5.95-18-6.26-13.89-8.57-13.89-9.44-13.89Z"/><path class="cls-14" d="M214.33,74.63V120.8c-5.53-.26-13.93-6.51-13.93-15.7C200.4,99.24,211.27,74.63,214.33,74.63Z"/><path class="cls-16" d="M200.61,109.2a37.79,37.79,0,0,0,13.72,2.68c6-.11,13.62-3.09,13.93-3.34a16.55,16.55,0,0,1-13.93,7.19C204.63,115.77,200.61,109.2,200.61,109.2Z"/><path class="cls-17" d="M288.48,195.4c-.36,3.91-1,7.82-3.79,8.25-3.68.56-7.29-18.72-9.28-25,.66,4.16,3.86,32-2.36,32.29-4.28.23-10.33-20.67-10.75-24,.54,5.61,4.26,27.91-1.52,27.78s-7.71-19.28-9.31-24.28c-.3,6.06,3,27.66-2.77,27.47s-7.29-19.78-8.5-25.72c1.65,7.66-1.51,27.05-5.83,27.69-3.84.57-9.81-20.7-9.78-25.94,0,5.54.72,30.86-4.86,30.73s-6.87-27.53-7.1-32.48c-.23,5-1.51,32.35-7.1,32.48s-6.15-25.19-6.14-30.73c0,5.24-4.66,26.51-8.5,25.94-4.32-.64-8-24-6.36-31.62-1.2,5.94-2.19,29.46-8,29.65s-4.4-21.84-4.7-27.9c-1.61,5-1.6,24.59-7.38,24.72s-3.64-25.22-3.1-30.83c-.41,3.31-4.89,27.27-9.17,27-6.22-.33-2.41-31.62-1.75-35.78-2,6.26-6.21,29-9.89,28.48-3-.46-3.54-4.16-3.74-8.43a267.7,267.7,0,0,0-7.95,33.31s-2.42,20.84-.81,24.91c4.13,8.73,14.65,15.34,22.38,20.45a88.79,88.79,0,0,0,52.34,14.42l9.84-14.5c16.27.56,31.39,17.75,48.73,6.3,5.3-3.5,31.73-15.56,35.3-20.94,1.59-5.61.36-24.91.36-24.91S293.24,209.08,288.48,195.4Z"/><path class="cls-18" d="M297.45,247c-.4,4.09-2,7.53-5.16,8-4.07.59-8.06-19.58-10.26-26.12.73,4.35,4.26,33.41-2.61,33.76-4.73.24-11.42-21.61-11.88-25.08.59,5.87,4.7,29.18-1.68,29s-8.52-20.16-10.3-25.39c-.33,6.34,3.33,28.92-3.06,28.72s-8.06-20.68-9.39-26.89c1.82,8-1.67,28.29-6.45,29-4.24.59-10.84-21.64-10.81-27.12,0,5.8.8,32.27-5.37,32.14s-7.59-28.78-7.84-34c-.25,5.18-1.67,33.83-7.85,34S198,250.67,198,244.88c0,5.48-5.15,27.72-9.39,27.12-4.78-.67-8.85-25.06-7-33.06-1.33,6.21-2.42,30.8-8.81,31s-4.87-22.84-5.2-29.18c-1.77,5.23-1.77,25.71-8.16,25.85s-4-26.37-3.43-32.24c-.46,3.47-5.41,28.52-10.14,28.28-6.87-.35-2.67-33.06-1.94-37.41C141.7,231.78,137,255.6,133,255c-3.34-.48-4.92-4.39-5.14-8.85-.74,25.41,7.14,54.89,28.69,68.36,19.17,12,38.13,14.45,56.11,13.86h0c18,.58,36.94-1.88,56.11-13.86C290,301.2,298,272.23,297.45,247Z"/><path class="cls-3" d="M179.44,366.37l13.63-5.76a25.44,25.44,0,0,1,3-1"/><path class="cls-3" d="M181.57,368.69l8.69-4.2,5.32-2.57c1.12-.54,3-1.2,3-1.2"/><path class="cls-19" d="M198.17,351.83a10.3,10.3,0,0,0,6.36,0"/><path class="cls-19" d="M197.13,347.5c1.7-.1,5.44.32,6.72-1.09"/><path class="cls-19" d="M196,341.26c1.71.76,5.11.83,6.72-.16"/><path class="cls-19" d="M195.14,336.9a14.74,14.74,0,0,0,6.77-1"/><path class="cls-19" d="M192.95,331c1.72,0,6.66.68,7.91-.67"/><path class="cls-20" d="M221.63,352.75a4,4,0,0,0,4.69-.12"/><path class="cls-20" d="M221.8,347.28a7.66,7.66,0,0,0,4.8.12"/><path class="cls-20" d="M222.09,342.58c1.57,0,4,.49,5.44-.29"/><path class="cls-20" d="M223.36,336.87a10.61,10.61,0,0,0,6.48-.29"/><path class="cls-20" d="M224.12,331.91c1.72.25,5.39,1.43,6.83,0"/></svg>