<svg id="Layer_1" data-name="Layer 1" xmlns="http://www.w3.org/2000/svg" xmlns:xlink="http://www.w3.org/1999/xlink" viewBox="0 0 425 425"><defs><style>.cls-1{fill:#e6e6e6;}.cls-2{fill:#42352a;}.cls-3{fill:#b79f7d;}.cls-4{fill:#b2633b;}.cls-5{fill:url(#linear-gradient);}.cls-6{fill:#897052;}.cls-11,.cls-7,.cls-8{fill:#e2d3c3;}.cls-7{stroke:#42352a;stroke-width:3px;}.cls-12,.cls-7,.cls-9{stroke-miterlimit:10;}.cls-12,.cls-9{fill:none;stroke-width:0.5px;}.cls-9{stroke:#706051;}.cls-10{fill:#706051;}.cls-11{opacity:0.2;}.cls-12{stroke:#e2d3c3;stroke-linecap:round;}.cls-13{fill:#fff;}</style><linearGradient id="linear-gradient" x1="209.18" y1="386.93" x2="209.18" y2="153.55" gradientUnits="userSpaceOnUse"><stop offset="0.5" stop-color="#706051"/><stop offset="1" stop-color="#5e5146"/></linearGradient></defs><title>jaime</title><rect class="cls-1" width="425" height="425"/><path class="cls-2" d="M210.77,389.3a1.49,1.49,0,0,1-1-.42l-.76-.73c-8.81-8.43-16.07-22.09-20.44-38.45-3.24-12.13-4.71-25.09-4.08-35.61-4.53,6-6.88,15.68-7.95,21.52l-.09.49a1.5,1.5,0,0,1-1.15,1.2,1.53,1.53,0,0,1-.32,0,1.5,1.5,0,0,1-1.22-.63l-.29-.41c-4.15-5.86-7.65-29.3-8.88-38.42-4.14,3.82-6.24,9.23-6.24,22.57v1.3a1.5,1.5,0,0,1-1.26,1.48l-.24,0a1.5,1.5,0,0,1-1.42-1L155,321c-.86-2.59-1.7-4.94-2.51-7.22-3.23-9-5.67-15.83-4.88-25.22-5.41,6.2-7.23,16.37-7.25,16.48l-.16,1a1.5,1.5,0,0,1-1.41,1.25h-.07a1.5,1.5,0,0,1-1.45-1.12l-.25-.94c-.25-1-6.22-24.12-5.1-38.16.88-11,7.61-29,14.73-48,2-5.4,4.11-11,6.05-16.39,0-8.81.11-16.57.16-19.24a24.2,24.2,0,0,1-3.65-2.63c-.31.25-.61.51-.91.78-3.63,3.25-5.88,7-5.88,8.54a1.5,1.5,0,0,1-1.5,1.5h-.42a1.5,1.5,0,0,1-1.5-1.5c0-3.32,3.53-8,7-11.08l.79-.68a21,21,0,0,1-1.89-2.68,33.55,33.55,0,0,1-3.61-11.74c-5.25,1.05-9.15,3.8-10.29,6.07a1.5,1.5,0,0,1-2,.67l-.38-.19a1.5,1.5,0,0,1-.67-2c1.83-3.65,7.24-6.89,13.19-8A27.65,27.65,0,0,1,145,146.73a40.19,40.19,0,0,0-8.83-.92c-1.5,0-3.07.07-4.66.21h-.13a1.5,1.5,0,0,1-1.49-1.37l0-.42a1.5,1.5,0,0,1,1.36-1.62c1.69-.15,3.36-.22,5-.22a42.51,42.51,0,0,1,10.94,1.34q.45-.56.91-1.06a26,26,0,0,1,3.41-3.14c0-.69,0-1.43-.06-2.24v-.11c-.33-11-.95-31.11,12.71-46.64-7.73-3.16-11.65-6.79-11.65-10.82,0-6.32,10-12,26.75-15.33V47.19a7.67,7.67,0,0,1,2.49-5.66c5.43-5.27,18.48-5.84,23.84-5.84l1.42,0h0A141.22,141.22,0,0,1,237.61,39c8.5,2,18.63,6,18.63,13.52V67.33c11.83,4.3,19.13,10.68,19.13,16.79,0,4.44-3.76,7.76-11.47,10.14,10.61,14.93,10.06,33,9.75,42.91,0,.84,0,1.63-.06,2.34a26,26,0,0,1,3.41,3.15c.3.34.61.69.91,1.06a42.53,42.53,0,0,1,10.94-1.34c1.6,0,3.26.07,5,.22a1.5,1.5,0,0,1,1.36,1.62l0,.42a1.5,1.5,0,0,1-1.49,1.37h-.13c-1.59-.14-3.15-.21-4.65-.21a40.25,40.25,0,0,0-8.85.92,27.67,27.67,0,0,1,3.87,13.71c5.95,1.1,11.36,4.34,13.19,8a1.5,1.5,0,0,1-.67,2l-.38.19a1.5,1.5,0,0,1-2-.67c-1.14-2.27-5-5-10.28-6.07a33.35,33.35,0,0,1-3.55,11.64,21.14,21.14,0,0,1-2,2.77l.8.69c3.5,3.13,7,7.77,7,11.09a1.5,1.5,0,0,1-1.5,1.5h-.42a1.5,1.5,0,0,1-1.5-1.5c0-1.58-2.25-5.29-5.88-8.54-.3-.26-.6-.53-.92-.78a24.28,24.28,0,0,1-3.64,2.63c0,3,.19,12.33.15,22.22,1.39,9.75,5.37,27.63,8.06,34.68,5.73,15.05,6.06,35.67,6.23,46.75.25,16-8.24,37.08-15,41.82l-.43.3a1.5,1.5,0,0,1-2.33-1.53l.11-.52c1.1-5.28-.69-10.31-5.61-15.64-.87,10.37-8.44,27.08-11.88,29.67a2.75,2.75,0,0,1-1.66.62,2.12,2.12,0,0,1-1-.26c-1.35-.73-1.44-2.45-1.35-4,.32-5.48-2.28-10.76-4.52-14.22-.68-1.05-1.37-2-2-2.83-.61,12.3-8.19,27-19.19,36.4l-.9.77a1.5,1.5,0,0,1-2.29-1.87l.58-1c3.32-5.91,4.06-16.39.2-20.19a4.81,4.81,0,0,0-3.55-1.38,14.06,14.06,0,0,0-6.76,2.28c-7.81,4.55-6.75,17.93-4.49,28.35a137.07,137.07,0,0,0,7.22,22.51l.42,1a1.5,1.5,0,0,1-1.37,2.1Z"/><path class="cls-2" d="M205.5,37.2l1.36,0a139.91,139.91,0,0,1,30.4,3.21c11.43,2.73,17.48,6.9,17.48,12.06V68.39c12.92,4.47,19.13,10.78,19.13,15.73,0,4-4.18,7.11-12.47,9.29,11.63,14.81,11.07,33.42,10.76,43.71,0,1.16-.07,2.21-.08,3.13a24.44,24.44,0,0,1,3.81,3.41c.5.55,1,1.15,1.45,1.77a39.91,39.91,0,0,1,11.5-1.56c1.52,0,3.13.07,4.82.22l0,.42c-1.68-.15-3.27-.21-4.78-.21a39.65,39.65,0,0,0-11.25,1.5,25.88,25.88,0,0,1,4.76,15.92c6.32.81,11.72,4.11,13.36,7.38l-.38.19c-1.58-3.17-6.83-6.36-13-7.15a31.18,31.18,0,0,1-3.52,12.7,19.63,19.63,0,0,1-2.8,3.64c.66.5,1.33,1,2,1.62,3.78,3.38,6.52,7.57,6.52,10h-.42c0-2.29-2.68-6.35-6.38-9.65-.66-.59-1.33-1.14-2-1.63a22.49,22.49,0,0,1-5.07,3.73c0,1.17.21,11.83.17,23.23h0c1.39,9.81,5.43,27.92,8.15,35.07,5.63,14.81,6,35.26,6.14,46.25.24,15.25-8,36.12-14.38,40.57l-.43.3.11-.52c1.38-6.66-1.35-12.9-8.61-19.58,1.22,8.63-7.68,29.43-11.25,32.11a1.3,1.3,0,0,1-.75.31.64.64,0,0,1-.31-.08c-.48-.26-.66-1.1-.57-2.64.35-5.88-2.39-11.47-4.76-15.12a42.81,42.81,0,0,0-4.85-6.16c1.2,12.6-6.53,29.07-18.59,39.41l-.9.77.58-1c3.59-6.4,4.37-17.64-.06-22a6.32,6.32,0,0,0-4.6-1.81,15.48,15.48,0,0,0-7.51,2.49c-8.58,5-7.57,19.06-5.2,30a138.78,138.78,0,0,0,7.31,22.79l.42,1-.76-.73c-8.61-8.25-15.73-21.66-20-37.75-3.66-13.71-5-28.36-3.66-39.34-6.78,5.4-10,18.16-11.3,25.37l-.09.49-.29-.41c-4.54-6.41-8.48-36.59-9-40.41-5.89,4.3-8.88,9.55-8.88,25.43v1.3l-.41-1.24c-.87-2.62-1.72-5-2.54-7.29-3.58-10-6.18-17.28-4.27-28.51-8.2,5.69-10.71,19.92-10.73,20.06l-.16,1-.25-.94c-.06-.24-6.17-23.76-5.05-37.65.86-10.8,7.56-28.68,14.64-47.61,2.06-5.51,4.19-11.2,6.15-16.65,0-10.25.15-19.26.17-20.36a22.48,22.48,0,0,1-5.08-3.74c-.67.5-1.33,1-2,1.63-3.7,3.31-6.38,7.37-6.38,9.65h-.42c0-2.4,2.74-6.59,6.52-10,.66-.59,1.32-1.12,2-1.62a19.6,19.6,0,0,1-2.79-3.63,31.22,31.22,0,0,1-3.52-12.72c-6.17.79-11.41,4-13,7.15l-.38-.19c1.63-3.27,7-6.56,13.36-7.38a25.88,25.88,0,0,1,4.76-15.92,39.58,39.58,0,0,0-11.23-1.5c-1.51,0-3.11.07-4.79.21l0-.42c1.7-.15,3.3-.22,4.82-.22a39.93,39.93,0,0,1,11.51,1.56c.47-.63,1-1.22,1.45-1.77a24.44,24.44,0,0,1,3.81-3.41c0-.92,0-2-.08-3.13-.34-11.12-1-31.93,13.81-47.2-8.27-3-12.74-6.58-12.74-10.22,0-5.38,9.6-10.88,26.75-14.09V47.19a6.22,6.22,0,0,1,2-4.58c5.14-5,18.47-5.42,22.81-5.42m0-3h0c-6.89,0-19.28.81-24.9,6.26a9.24,9.24,0,0,0-2.94,6.73v16c-17,3.55-26.75,9.53-26.75,16.55,0,4.32,3.59,8.14,10.7,11.39-12.69,15.72-12.09,35.27-11.76,46.11q0,.83,0,1.58a27.63,27.63,0,0,0-3,2.85l-.34.39a44.79,44.79,0,0,0-10.4-1.15c-1.64,0-3.35.08-5.08.23a3,3,0,0,0-2.73,3.25l0,.42a3,3,0,0,0,3,2.74h.26c1.55-.14,3.08-.2,4.53-.2a40.6,40.6,0,0,1,6.53.5,29.24,29.24,0,0,0-3,11.4c-6,1.37-11.15,4.69-13.08,8.55a3,3,0,0,0,1.34,4l.38.19a3,3,0,0,0,4-1.34c.85-1.7,3.83-3.78,7.68-4.89a35.55,35.55,0,0,0,3.49,10.47l.1.17q.52.88,1.13,1.71c-3.41,3.12-7.26,8-7.26,12a3,3,0,0,0,3,3h.42a3,3,0,0,0,3-3c0-.94,1.79-4.19,5.31-7.35a25.9,25.9,0,0,0,2.12,1.5c-.05,3.21-.15,10.24-.14,18.14-1.9,5.28-4,10.79-6,16.12-7.16,19.13-13.92,37.2-14.82,48.42-1.16,14.48,5.08,38.42,5.14,38.66l.25.94a3,3,0,0,0,2.9,2.24h.13a3,3,0,0,0,2.83-2.49l.16-1A43.61,43.61,0,0,1,146,293.51c.27,7.35,2.47,13.49,5.06,20.73.83,2.31,1.66,4.65,2.52,7.22l.41,1.24a3,3,0,0,0,5.85-.94v-1.3c0-10.69,1.46-15.92,3.7-19.16,1.59,11.16,4.8,30.36,8.7,35.88l.29.41a3,3,0,0,0,5.4-1.19l.09-.49a65.57,65.57,0,0,1,4.84-16.07,124.91,124.91,0,0,0,4.27,30.28c4.44,16.62,11.85,30.52,20.85,39.14l.76.73a3,3,0,0,0,4.82-3.37l-.42-1A135.57,135.57,0,0,1,206,363.42c-1.76-8.13-3.62-22.42,3.78-26.73a12.85,12.85,0,0,1,6-2.08,3.34,3.34,0,0,1,2.5.95c3,3,2.79,12.6-.46,18.38l-.58,1a3,3,0,0,0,4.57,3.75l.9-.77c10.27-8.81,17.48-21.6,19.31-33.35,2,3.27,4.22,8,3.94,12.78-.07,1.14-.25,4.18,2.15,5.46a3.64,3.64,0,0,0,1.73.43,4.2,4.2,0,0,0,2.56-.92c3.66-2.76,10-16.83,12-27.34,3,4,4,7.85,3.16,11.8l-.11.52A3,3,0,0,0,272,330.4l.43-.3c7.7-5.39,15.9-27.93,15.65-43.07-.18-11.17-.51-32-6.33-47.27-2.64-6.95-6.57-24.56-8-34.26,0-9.1-.08-17.64-.14-21.29a25.88,25.88,0,0,0,2.12-1.5c3.52,3.17,5.3,6.42,5.32,7.36a3,3,0,0,0,3,3h.42a3,3,0,0,0,3-3c0-3.94-3.86-8.85-7.27-12q.61-.84,1.14-1.72l.1-.17A35.51,35.51,0,0,0,285,165.75c3.84,1.11,6.82,3.18,7.68,4.89a3,3,0,0,0,4,1.34l.38-.19a3,3,0,0,0,1.34-4c-1.93-3.86-7.1-7.18-13.07-8.55a29.24,29.24,0,0,0-3-11.4,40.67,40.67,0,0,1,6.55-.51c1.45,0,3,.07,4.52.2h.26a3,3,0,0,0,3-2.74l0-.42a3,3,0,0,0-2.73-3.25c-1.73-.15-3.44-.23-5.08-.23A44.77,44.77,0,0,0,278.45,142l-.34-.39a27.62,27.62,0,0,0-3-2.85q0-.75,0-1.58c.3-9.71.83-27.18-8.9-42.17,7.05-2.57,10.62-6.23,10.62-10.93,0-6.68-7.11-13.27-19.13-17.84V52.48c0-6.81-6.66-11.85-19.78-15a143,143,0,0,0-31.05-3.29l-1.41,0Z"/><path class="cls-3" d="M214.91,63c16.81,0,29.92,2.27,39.45,5.53h0V52.48c0-11.53-30.28-15.06-47.67-15.06,0,0-26-.78-26,9.77v18.6A189.24,189.24,0,0,1,214.91,63Z"/><path class="cls-4" d="M206.71,50s-26-.78-26,9.77v6A189.24,189.24,0,0,1,214.91,63c16.81,0,29.92,2.27,39.45,5.53h0V65.11C254.39,53.58,224.1,50,206.71,50Z"/><path class="cls-5" d="M266.78,184.06l3.85,21.72c1.33,9.39,5.37,27.77,8.16,35.12,5.56,14.62,5.94,34.63,6.12,46.18.25,15.43-8.27,36.18-14.29,40.39,1.28-6.17-.72-12.62-9.14-20.19,2.24,10.38-13,41.79-12.35,30.29s-10.09-21.88-10.09-21.88c1.57,13.18-7,30-18.45,39.83,5.67-10.1,4.37-31.41-12.46-21.6s2,53,2,53c-19-18.23-26.37-56.38-23.56-77.41-6.45,4.77-10,16.21-11.78,25.8-4.77-6.73-9-40.67-9-40.67-5.61,4-9.26,8.69-9.26,25.8-4.74-14.3-9.24-22.16-6.72-36.18-8.7,5.61-11.23,20.47-11.23,20.47s-6.17-23.56-5-37.58,12.34-40.67,20.78-64.23l6.68-18s20.92-32.24,54.58-31.4S266.78,184.06,266.78,184.06Z"/><path class="cls-6" d="M259.69,94.23A47.16,47.16,0,0,0,244,81.67c-.12-.06-15-7.16-31.66-7.41-16.58.25-31.5,7.35-31.65,7.43A48.67,48.67,0,0,0,168,90.89l-.68.7-.92-.34c-.91-.33-1.81-.68-2.68-1l-.26-.11-1-.44-.49-.22-.9-.43-.55-.28-.78-.41-.48-.27c-.43-.25-.84-.5-1.24-.75l-.1-.06-.48-.31-.49-.35-.59-.44-.47-.38-.52-.46-.38-.36q-.36-.36-.67-.73l-.21-.26c-.2-.25-.38-.5-.55-.76l-.16-.28c-.15-.27-.27-.49-.37-.71s-.1-.24-.15-.36a6.24,6.24,0,0,1-.22-.71c0-.16-.06-.25-.08-.34a5.32,5.32,0,0,1,0-1.94l0-.2a6.14,6.14,0,0,1,.22-.85l0-.12a6.7,6.7,0,0,1,.3-.71l.1-.19a9,9,0,0,1,.47-.79l.07-.1c.15-.22.33-.45.52-.69l.14-.17c.22-.25.44-.5.68-.74l.11-.1c.22-.22.46-.43.7-.64l.19-.16c.28-.23.57-.46.88-.69l.12-.08L158,72l.22-.14q.52-.33,1.08-.66l.15-.08,1.11-.6.25-.13,1.28-.62.23-.1,1.28-.56.24-.1,1.49-.59.31-.12,1.44-.52.25-.09L169,67.1l.42-.13,1.61-.48.22-.06,1.87-.5.43-.11,1.91-.46.17,0,2.07-.45.54-.11,2.15-.42a190.66,190.66,0,0,1,34.5-2.8c15.42,0,29.22,1.94,39.94,5.61a55.76,55.76,0,0,1,10.4,4.68c.58.35,1.1.67,1.59,1l.13.08q.71.48,1.36,1l.11.08q.69.52,1.3,1a21.74,21.74,0,0,1,2.24,2.2l.07.08c.28.33.54.65.77,1l.13.18c.24.35.42.62.59.89l.2.35c.14.24.26.49.38.74s.12.25.18.39.19.48.27.72.1.29.13.39c.08.26.13.52.18.77s.05.26.07.35a7.61,7.61,0,0,1,.09,1.11,6.72,6.72,0,0,1-.09,1.1c0,.1,0,.2-.06.3a7,7,0,0,1-.2.76c0,.13-.1.26-.15.4s-.18.41-.28.61-.14.26-.22.39-.24.37-.36.55l-.27.37c-.16.19-.32.37-.49.55s-.37.38-.58.57-.33.3-.49.43l-.49.37-1-1.13.89,1.21-.36.26-.62.4-.41.24-.72.4-.34.17a32,32,0,0,1-4.63,1.85l-1.37.41-.12,0-1.41.38-.94.24Z"/><path class="cls-2" d="M214.91,63c16.81,0,29.92,2.27,39.45,5.53a54.17,54.17,0,0,1,10.11,4.55l0,0q.78.46,1.48.94l.12.08q.68.46,1.3.92l.1.08q.65.49,1.23,1h0a20.12,20.12,0,0,1,2.09,2h0c.28.32.53.63.76,1l.16.23c.17.24.33.48.48.72l.18.31q.18.32.33.64l.15.33c.09.21.16.41.23.61s.08.22.11.33.1.42.14.63,0,.19.06.28a6.15,6.15,0,0,1,.07.89,5.3,5.3,0,0,1-.07.86c0,.09,0,.18-.06.27a5.29,5.29,0,0,1-.15.55c0,.11-.08.21-.12.31s-.14.32-.22.48l-.17.32c-.09.15-.19.3-.3.44s-.14.2-.22.31-.27.31-.41.46-.32.33-.5.49-.28.26-.43.38l-.47.36-.37.27-.57.37-.37.22-.67.37-.32.16a30.24,30.24,0,0,1-4.4,1.75h0l-1.29.39-.11,0-1.38.37a48.34,48.34,0,0,0-16.19-13S229.54,73,212.36,72.76C195.18,73,180,80.34,180,80.34a49.92,49.92,0,0,0-13.14,9.51h0q-1.36-.49-2.6-1l-.24-.1-1-.43-.47-.21-.87-.42-.48-.25-.79-.41-.45-.26q-.62-.35-1.17-.71l-.54-.35-.5-.36-.5-.37-.43-.35-.47-.42-.34-.31q-.31-.31-.58-.63l-.18-.22a7.8,7.8,0,0,1-.46-.64l-.16-.27a5.71,5.71,0,0,1-.27-.52l-.12-.29a4.7,4.7,0,0,1-.17-.54c0-.08,0-.17-.06-.25a3.82,3.82,0,0,1,0-1.44l0-.16a4.7,4.7,0,0,1,.17-.65l0,0a5.74,5.74,0,0,1,.26-.61l.08-.16a6.94,6.94,0,0,1,.38-.65l.05-.07c.14-.2.29-.39.45-.59l.13-.15c.18-.22.38-.43.6-.65l.1-.1q.3-.29.63-.57l.17-.15c.26-.21.52-.42.81-.64l.16-.11.8-.55.21-.14q.49-.31,1-.62l.22-.12,1-.53.23-.12,1.23-.6L163,71l1.17-.51.25-.11,1.43-.57.35-.13,1.36-.49.24-.09,1.63-.53.42-.13,1.58-.47.22-.06,1.84-.49.48-.12,1.82-.44.17,0,2-.45.54-.11,2.13-.42h0A189.24,189.24,0,0,1,214.91,63m0-3a192,192,0,0,0-34.73,2.82h-.05l-2.16.43-.55.11-2.1.46-.13,0h-.05l-1.87.45-.12,0-.38.1-1.89.51-.16,0-.07,0-1.63.48-.13,0-.3.09-1.71.56-.16.06-.09,0-1.44.52,0,0-.32.12-1.5.6-.17.07-.1,0-1.24.55-.1,0-.2.09q-.68.32-1.32.65l-.17.09-.08,0-1.08.59-.06,0-.17.1c-.41.24-.78.47-1.15.7l-.17.11-.07,0q-.48.31-.92.63l0,0-.13.09c-.33.24-.65.49-1,.75l-.2.17c-.28.24-.53.47-.77.7l-.13.13c-.25.25-.51.53-.76.82l-.17.2c-.21.26-.4.51-.57.76l-.11.16a9.71,9.71,0,0,0-.53.9l-.11.22a9,9,0,0,0-.38.88h0l0,.09v.05a7.65,7.65,0,0,0-.27,1.06c0,.07,0,.17,0,.27a7.11,7.11,0,0,0-.09,1.09,7.19,7.19,0,0,0,.14,1.36c0,.12.05.25.09.39a8,8,0,0,0,.28.91c.06.15.12.3.19.45a8.58,8.58,0,0,0,.4.78l0,0,.2.33a10.89,10.89,0,0,0,.65.9l.24.3c.22.26.48.54.74.81l.36.34.07.06.57.51.52.42.58.43.08.06.5.36.49.32.12.07c.41.27.85.53,1.31.79l.14.08.36.2.83.43.09,0,.47.24.94.45.5.23,1,.46.19.08.07,0c.87.36,1.77.72,2.67,1h0l.08,0,1.81.65L169,91.94A47.19,47.19,0,0,1,181.37,83c.66-.31,15-7,31-7.27,15.95.25,30.31,6.94,31,7.27a45.64,45.64,0,0,1,15.17,12.14l1.21,1.52,1.88-.48,1.45-.39.07,0,.05,0,1.37-.41h.05a33.31,33.31,0,0,0,4.83-1.93l.08,0,.28-.14.78-.43.43-.26.69-.44.41-.29.05,0,0,0,.54-.41c.19-.15.36-.3.52-.46l.05,0c.23-.21.45-.42.65-.64s.39-.42.57-.64.19-.25.28-.37l0-.06c.16-.22.3-.44.44-.66s.17-.31.26-.47.24-.49.34-.74.13-.33.19-.49a8.14,8.14,0,0,0,.23-.86c0-.17.07-.31.09-.44a8.19,8.19,0,0,0,.11-1.33,9.06,9.06,0,0,0-.1-1.32c0-.12,0-.25-.07-.38-.06-.28-.12-.59-.21-.93,0-.13-.08-.26-.12-.38l0-.07c-.1-.31-.2-.58-.31-.83l-.2-.45c-.13-.27-.27-.55-.43-.83l-.22-.38c-.17-.28-.36-.58-.59-.9l0-.06-.17-.24c-.26-.35-.52-.68-.79-1h0l-.12-.14A22.84,22.84,0,0,0,271,74.09h0l-.27-.23c-.42-.36-.89-.73-1.37-1.1l-.1-.07c-.48-.36-1-.7-1.44-1l-.09-.06c-.57-.38-1.11-.72-1.64-1l0,0a57.27,57.27,0,0,0-10.69-4.82C244.47,62,230.49,60,214.91,60Z"/><path class="cls-7" d="M154.55,182.41s-.4,20.44,0,35.92c.42,16.19,3.62,38.57,7.76,53,4.37,15.19,10.43,25.25,18.8,27S190,294.08,188,292s-5,2.35-9.65-11.26c-1.72-5.06-7.28-41.11-7-61.61.33-21.6,2.16-32.65,2.16-32.65s-7.45-.05-12.46-1.55A31.83,31.83,0,0,1,154.55,182.41Z"/><path class="cls-7" d="M270.45,182.41s.4,20.44,0,35.92c-.42,16.19-3.62,38.57-7.77,53-4.37,15.19-10.43,25.25-18.8,27S235,294.08,237,292s5,2.35,9.65-11.26c1.72-5.06,7.28-41.11,7-61.61-.33-21.6-2.16-32.65-2.16-32.65s10.23-.36,15.29-2.45C268.94,183.17,270.45,182.41,270.45,182.41Z"/><path class="cls-2" d="M212.5,227.28c-12.15,0-20.76-15.88-27.06-27.48-2.47-4.54-4.59-8.47-6.24-10.11l-1-1,1-1.06c.62-.69,15.48-16.83,33.34-16.83s32.72,16.15,33.34,16.83l1,1.06-1,1c-1.64,1.64-3.77,5.56-6.24,10.11C233.26,211.4,224.65,227.28,212.5,227.28Z"/><path class="cls-2" d="M212.5,172.3c17.41,0,32.23,16.34,32.23,16.34-6.09,6.09-16.28,37.15-32.23,37.15s-26.14-31.06-32.23-37.15c0,0,14.82-16.34,32.23-16.34m0-3c-18.53,0-33.81,16.62-34.46,17.33l-1.92,2.12,2,2c1.49,1.49,3.67,5.51,6,9.76,6.47,11.93,15.34,28.26,28.38,28.26s21.9-16.34,28.38-28.26c2.31-4.26,4.49-8.28,6-9.76l2-2L247,186.62c-.64-.71-15.93-17.33-34.45-17.33Z"/><path class="cls-8" d="M221.8,181.76a14.19,14.19,0,0,0-18.61,0c-4.61,4-11.85,5.57-17.86,6.34h0a2.38,2.38,0,0,0,2.77,2.31c5.61-.52,16.54-1.14,24.4-1.14s18.79.63,24.4,1.14a2.38,2.38,0,0,0,2.77-2.31h0C233.65,187.33,226.41,185.76,221.8,181.76Z"/><line class="cls-9" x1="202.52" y1="182.32" x2="203.36" y2="189.49"/><line class="cls-9" x1="195.61" y1="185.9" x2="196.45" y2="189.84"/><line class="cls-9" x1="190.01" y1="187.35" x2="190.85" y2="190.25"/><line class="cls-9" x1="212.5" y1="178.29" x2="212.5" y2="189.27"/><line class="cls-9" x1="234.99" y1="187.35" x2="234.14" y2="190.25"/><line class="cls-9" x1="222.48" y1="182.32" x2="221.64" y2="189.49"/><line class="cls-9" x1="229.34" y1="185.9" x2="228.55" y2="189.84"/><path class="cls-8" d="M212.5,218a73.29,73.29,0,0,1-14.91-1.45c4.29,5.34,9.23,9.28,14.91,9.28s10.62-3.94,14.91-9.28A73.41,73.41,0,0,1,212.5,218Z"/><line class="cls-9" x1="202.52" y1="217.34" x2="203.36" y2="222.32"/><line class="cls-9" x1="212.5" y1="217.96" x2="212.5" y2="225.78"/><line class="cls-9" x1="222.48" y1="217.34" x2="221.67" y2="222.3"/><path class="cls-10" d="M251.51,188c-2.12,0-3.81-.12-4.85-.22l-1.43-.13c-6.67-.59-17.83-1.58-24.42-7.29a12.69,12.69,0,0,0-16.65,0c-6.59,5.71-17.75,6.7-24.42,7.29l-1.43.13c-1,.1-2.73.22-4.85.22-7.84,0-22-1.62-28.42-12.49-7.06-13.87-3-26,3.09-32.72a26.34,26.34,0,0,1,3.47-3.2c0-.74,0-1.56-.07-2.43-.43-14-1.32-43.26,27.94-58.17.66-.32,15.67-7.48,33-7.74,17.36.26,32.37,7.42,33,7.72,29.28,14.92,28.39,44.14,28,58.18,0,.88-.05,1.7-.07,2.44a26.3,26.3,0,0,1,3.47,3.2C283,149.54,287,161.65,280,175.43c-6.51,11-20.63,12.58-28.47,12.58Z"/><path class="cls-2" d="M212.5,72.76c17.18.26,32.32,7.58,32.32,7.58,30.93,15.76,27.15,48.45,27,60h0a24.55,24.55,0,0,1,3.87,3.46c5.49,6.05,9.75,17.49,2.92,30.94-6,10-19.13,11.76-27.13,11.76-1.93,0-3.56-.1-4.71-.21-5.94-.56-18.27-1.23-25-7.06a14.19,14.19,0,0,0-18.61,0c-6.73,5.83-19.06,6.5-25,7.06-1.15.11-2.78.21-4.71.21-8,0-21.17-1.73-27.13-11.76-6.84-13.45-2.58-24.89,2.91-30.94a24.56,24.56,0,0,1,3.87-3.46h0c-.1-11.57-3.89-44.25,27-60,0,0,15.14-7.31,32.32-7.58m0-3h0c-17.64.27-32.94,7.56-33.58,7.87h-.06c-13,6.62-21.69,16.89-25.87,30.53-3.43,11.17-3.1,21.91-2.88,29,0,.6,0,1.16,0,1.68a28,28,0,0,0-3.06,2.9c-6.45,7.11-10.72,19.85-3.37,34.32l0,.09.05.09c6.84,11.51,21.55,13.22,29.71,13.22,2.18,0,3.92-.12,5-.22l1.42-.13c6.85-.61,18.31-1.62,25.27-7.65a11.19,11.19,0,0,1,14.68,0c7,6,18.42,7,25.27,7.65l1.42.13c1.08.1,2.82.22,5,.22,8.16,0,22.87-1.72,29.71-13.22l.05-.09,0-.09c7.35-14.46,3.08-27.21-3.37-34.32a27.94,27.94,0,0,0-3.06-2.9c0-.52,0-1.08,0-1.68.22-7.11.54-17.85-2.88-29-4.19-13.64-12.89-23.92-25.87-30.53h-.06c-.64-.31-15.94-7.61-33.58-7.87Z"/><path class="cls-11" d="M252.36,140.51c6.5-4.77,14.52-2.36,19.83,3.49s11.11,16.06,4.5,29.07c-7.15,12-25,11.7-30.78,11.16s-17.66-2.87-24.16-8.51a13.72,13.72,0,0,0-18,0c-6.5,5.63-18.42,8-24.16,8.51s-23.62.87-30.77-11.16c-6.61-13-.81-23.22,4.5-29.07s13.33-8.26,19.83-3.49c0,0,16.86,14.38,39.21,14.41S252.36,140.51,252.36,140.51Z"/><circle class="cls-2" cx="266.38" cy="151.98" r="0.89"/><circle class="cls-2" cx="272.98" cy="162.64" r="0.89"/><circle class="cls-2" cx="265.79" cy="175" r="0.89"/><circle class="cls-2" cx="158.93" cy="175" r="0.89"/><circle class="cls-2" cx="151.73" cy="162.64" r="0.89"/><circle class="cls-2" cx="158.34" cy="151.98" r="0.89"/><circle class="cls-2" cx="160.13" cy="159.81" r="0.89"/><circle class="cls-2" cx="166.59" cy="157.23" r="0.89"/><circle class="cls-2" cx="160.13" cy="168.3" r="0.89"/><circle class="cls-2" cx="170.32" cy="164.43" r="0.89"/><circle class="cls-2" cx="166.59" cy="172.77" r="0.89"/><circle class="cls-2" cx="264.59" cy="159.81" r="0.89"/><circle class="cls-2" cx="258.13" cy="157.23" r="0.89"/><circle class="cls-2" cx="264.59" cy="168.3" r="0.89"/><circle class="cls-2" cx="254.4" cy="164.43" r="0.89"/><circle class="cls-2" cx="258.13" cy="172.77" r="0.89"/><path class="cls-2" d="M212.36,150.22c-7.89,0-6.16-7.95-8.41-7.95h16.82C218.52,142.28,220.25,150.22,212.36,150.22Z"/><path class="cls-12" d="M158.34,152c-4.72-5-13.56-8.85-27.13-7.67"/><path class="cls-12" d="M151.73,162.71c-9.55-3.07-20.05,1.77-22.41,6.49"/><path class="cls-12" d="M158.93,175c-8-.9-18.4,10.43-18.4,15"/><path class="cls-12" d="M266.38,152c4.72-5,13.56-8.85,27.13-7.67"/><path class="cls-12" d="M273,162.71c9.55-3.07,20.05,1.77,22.41,6.49"/><path class="cls-12" d="M265.79,175c8-.9,18.4,10.43,18.4,15"/><path class="cls-13" d="M184.05,134.06c-5.95,0-10.6-7.09-10.6-16.15s4.66-16.15,10.6-16.15,10.6,7.09,10.6,16.15S190,134.06,184.05,134.06Z"/><path class="cls-10" d="M184.05,103.26c5,0,9.1,6.56,9.1,14.65s-4.08,14.65-9.1,14.65-9.11-6.56-9.11-14.65,4.08-14.65,9.11-14.65m0-3c-6.79,0-12.1,7.75-12.1,17.64s5.32,17.65,12.1,17.65,12.1-7.75,12.1-17.65-5.32-17.64-12.1-17.64Z"/><path class="cls-13" d="M240.67,134.06c-5.95,0-10.61-7.09-10.61-16.15s4.66-16.15,10.61-16.15,10.6,7.09,10.6,16.15S246.61,134.06,240.67,134.06Z"/><path class="cls-10" d="M240.67,103.26c5,0,9.1,6.56,9.1,14.65s-4.08,14.65-9.1,14.65-9.11-6.56-9.11-14.65,4.08-14.65,9.11-14.65m0-3c-6.79,0-12.1,7.75-12.1,17.64s5.32,17.65,12.1,17.65,12.1-7.75,12.1-17.65-5.32-17.64-12.1-17.64Z"/><circle class="cls-2" cx="240.39" cy="119.65" r="2.75"/><circle class="cls-2" cx="184.33" cy="119.65" r="2.75"/></svg>