<svg id="Layer_1" data-name="Layer 1" xmlns="http://www.w3.org/2000/svg" xmlns:xlink="http://www.w3.org/1999/xlink" viewBox="0 0 340 340"><defs><style>.cls-1,.cls-14{fill:none;}.cls-2{fill:#e6e6e6;}.cls-3{fill:#f89e3e;}.cls-12,.cls-15,.cls-4{fill:#4b4a4a;}.cls-13,.cls-5{fill:#fff;}.cls-12,.cls-13,.cls-6{opacity:0.5;}.cls-7{clip-path:url(#clip-path);}.cls-8{clip-path:url(#clip-path-2);}.cls-9{fill:url(#linear-gradient);}.cls-10{fill:url(#linear-gradient-2);}.cls-11{fill:#a87c4f;}.cls-14,.cls-15{stroke:#fff;stroke-miterlimit:10;stroke-width:2.5px;}</style><clipPath id="clip-path"><circle class="cls-1" cx="170" cy="160.46" r="75.29"/></clipPath><clipPath id="clip-path-2"><circle class="cls-1" cx="170" cy="160.46" r="116.57"/></clipPath><linearGradient id="linear-gradient" x1="246.05" y1="11.12" x2="246.05" y2="137.18" gradientUnits="userSpaceOnUse"><stop offset="0" stop-color="#a87c4f"/><stop offset="1" stop-color="#8a5d3b"/></linearGradient><linearGradient id="linear-gradient-2" x1="163.43" y1="124.38" x2="163.43" y2="170.9" gradientUnits="userSpaceOnUse"><stop offset="0" stop-color="#dcc7a9"/><stop offset="1" stop-color="#c7b59a"/></linearGradient></defs><title>Artboard 4</title><rect class="cls-2" width="340" height="340"/><path class="cls-3" d="M242.86,256.22a2.5,2.5,0,0,1-2.42-3.13L255,197a2.5,2.5,0,0,1,2.42-1.87h63.14a2.5,2.5,0,0,1,2.22,3.65L308.5,226.27v27.44a2.5,2.5,0,0,1-2.5,2.5Z"/><path class="cls-4" d="M320.57,197.61,306,225.66v28.05H242.86l14.57-56.11h63.14m0-5H257.43a5,5,0,0,0-4.84,3.74L238,252.46a5,5,0,0,0,4.84,6.26H306a5,5,0,0,0,5-5V226.88l14-27a5,5,0,0,0-4.44-7.3Z"/><path class="cls-3" d="M242.86,256.22a2.5,2.5,0,0,1-2.42-3.13l2.77-10.68a2.5,2.5,0,0,1,2.42-1.87h31.23a2.5,2.5,0,0,1,.75,4.88l-34,10.68A2.5,2.5,0,0,1,242.86,256.22Z"/><path class="cls-4" d="M276.86,243l-34,10.68L245.63,243h31.23m0-5H245.63a5,5,0,0,0-4.84,3.74L238,252.46a5,5,0,0,0,6.34,6l34-10.68a5,5,0,0,0-1.5-9.77Z"/><path class="cls-3" d="M34,256.22a2.5,2.5,0,0,1-2.5-2.5V226.27L17.21,198.76a2.5,2.5,0,0,1,2.22-3.65H82.57A2.5,2.5,0,0,1,85,197l14.57,56.11a2.5,2.5,0,0,1-2.42,3.13Z"/><path class="cls-4" d="M82.57,197.61l14.57,56.11H34V225.66L19.43,197.61H82.57m0-5H19.43a5,5,0,0,0-4.44,7.3l14,27v26.83a5,5,0,0,0,5,5H97.14a5,5,0,0,0,4.84-6.26L87.41,196.35a5,5,0,0,0-4.84-3.74Z"/><path class="cls-3" d="M97.14,256.22a2.5,2.5,0,0,1-.75-.12l-34-10.68a2.5,2.5,0,0,1,.75-4.88H94.37a2.5,2.5,0,0,1,2.42,1.87l2.77,10.68a2.5,2.5,0,0,1-2.42,3.13Z"/><path class="cls-4" d="M94.37,243l2.77,10.68L63.14,243H94.37m0-5H63.14a5,5,0,0,0-1.5,9.77l34,10.68a5,5,0,0,0,6.34-6l-2.77-10.68A5,5,0,0,0,94.37,238Z"/><circle class="cls-4" cx="170" cy="160.46" r="121.43"/><circle class="cls-5" cx="170" cy="160.46" r="119"/><circle class="cls-4" cx="170" cy="160.46" r="116.57"/><circle class="cls-5" cx="170" cy="160.46" r="82.57"/><circle class="cls-4" cx="170" cy="160.46" r="80.14"/><path class="cls-4" d="M99.52,276.13a2.62,2.62,0,0,1-1.86,1.18,3.47,3.47,0,0,1-1.63-.23,4.84,4.84,0,0,0-1.42-.33,1.38,1.38,0,0,0-.69.17,1.26,1.26,0,0,0-.41.39,2.28,2.28,0,0,0-.25.56,2.15,2.15,0,0,1-.23.53.73.73,0,0,1-.53.27,1,1,0,0,1-.72-.14l-.1-.07a.75.75,0,0,1-.36-.44.64.64,0,0,1,.11-.51,3.36,3.36,0,0,1,.45-.37,3,3,0,0,0,.73-.79l.26-.36.33-.48L94,274.2q.53-.82.92-1.5l.49-.85a2.09,2.09,0,0,0,.18-.4,1.5,1.5,0,0,1,.13-.31q.13-.2.55,0a13.94,13.94,0,0,1,2.09,1.15l.13.08a3.12,3.12,0,0,1,1.42,1.72,2.28,2.28,0,0,1-.33,1.94Zm-4.63-1.07a.51.51,0,0,0-.1.48,1.07,1.07,0,0,0,.42.41l.25.16.2.11a1.82,1.82,0,0,0,1.49.17,1.78,1.78,0,0,0,1.06-.82l.09-.11.08-.12,0-.06a1.66,1.66,0,0,0,.27-1.35,2,2,0,0,0-.9-1.14l-.15-.1-.25-.14q-.44-.28-.7-.07a11.26,11.26,0,0,0-1,1.47l-.11.16-.14.22-.08.11-.14.21-.11.16Z"/><path class="cls-4" d="M108.58,281a2.12,2.12,0,0,1-.67.76,4.12,4.12,0,0,1-1,.49,1.35,1.35,0,0,0-.81.53,5.94,5.94,0,0,0-.11,2,4.92,4.92,0,0,0,.17,1,1.46,1.46,0,0,1,.09.7l-.05.1q-.14.26-.51.06l-.13-.07a.91.91,0,0,1-.44-.71s-.05-.56-.13-1.53-.12-1.47-.13-1.51a1.21,1.21,0,0,0-.57-.79.89.89,0,0,0-.89,0,2.28,2.28,0,0,0-.67.89,2.75,2.75,0,0,0-.22.62,2.59,2.59,0,0,1-.18.55.54.54,0,0,1-.41.22,1,1,0,0,1-.67-.13,1,1,0,0,1-.45-.39.72.72,0,0,1,0-.71,1.35,1.35,0,0,1,.36-.35,2,2,0,0,0,.44-.44q.15-.21.84-1.5t1.11-2.13q.42-.85.63-1.24a3.55,3.55,0,0,0,.29-.65,2.72,2.72,0,0,1,.09-.29q.13-.24.57-.12a9.47,9.47,0,0,1,1.56.72l.35.19a3.7,3.7,0,0,1,1.76,1.65A2.18,2.18,0,0,1,108.58,281Zm-4.3,0,.2.11a2.5,2.5,0,0,0,1.72.33,1.84,1.84,0,0,0,1.24-1c0-.12.09-.21.13-.29a1.28,1.28,0,0,0,.06-1.06,1.64,1.64,0,0,0-.82-.91l-.36-.19a1.48,1.48,0,0,0-.75-.24q-.25,0-.5.5l-.1.16-.06.1-.06.11-.09.16-.06.11-.1.17-.09.16,0,.06-.15.27-.1.17-.29.54a.74.74,0,0,0-.13.47Q104,280.88,104.28,281Z"/><path class="cls-4" d="M119.19,288l-.06.14a6.16,6.16,0,0,1-1,1.64,3.66,3.66,0,0,1-2.77,1.41,3.79,3.79,0,0,1-1.57-.31,3.37,3.37,0,0,1-2-2,3.92,3.92,0,0,1-.16-1.63,5.41,5.41,0,0,1,.41-1.65l.17-.39a5.88,5.88,0,0,1,1-1.56,3.81,3.81,0,0,1,2.62-1.45,3.56,3.56,0,0,1,1.67.29l.14.06a3.32,3.32,0,0,1,2,2.19,4,4,0,0,1,.11,1.51A6,6,0,0,1,119.19,288Zm-5.83-2.34-.09.2a4.66,4.66,0,0,0-.43,2.51,2.27,2.27,0,0,0,.41,1,2,2,0,0,0,.84.67h0q1.57.68,2.88-1a5.52,5.52,0,0,0,.73-1.23l0,0,.18-.41,0,0a5.63,5.63,0,0,0,.39-1.37q.33-2.13-1.18-2.78a2.09,2.09,0,0,0-2,.2A4.87,4.87,0,0,0,113.36,285.64Z"/><path class="cls-4" d="M133.28,288.18q2.09.6,2.19,2a2.54,2.54,0,0,1-.12.85,2.12,2.12,0,0,1-1.21,1.36q-.26.13-.27.16a2,2,0,0,0,.33.44,2.22,2.22,0,0,1,.55,2.16l0,.15v0a2.22,2.22,0,0,1-.52.9,2.6,2.6,0,0,1-2.26.72,8.31,8.31,0,0,1-1.51-.31l-.58-.17a7.37,7.37,0,0,1-1.44-.51q-.26-.17-.21-.37a1.35,1.35,0,0,1,.2-.33,2.56,2.56,0,0,0,.24-.38q.07-.14.29-.93l.13-.44.08-.3.09-.29.09-.3.08-.3.51-1.77q.42-1.48.48-1.79a2.15,2.15,0,0,0,0-.63,1.52,1.52,0,0,1,0-.38q.07-.23.45-.21a6.48,6.48,0,0,1,1.25.27l.29.07.3.08.29.07Zm.26,6.79.09-.33a1.35,1.35,0,0,0-.23-1.26,2.28,2.28,0,0,0-1.22-.79l-.6-.17q-.65-.18-.81,0a6,6,0,0,0-.53,1.48l-.05.18a4.67,4.67,0,0,0-.29,1.39q.05.19.57.34l.17.06.06,0,.18.06h.06l.25.06.25.06a1.66,1.66,0,0,0,1.31-.13A1.58,1.58,0,0,0,133.54,295Zm-2.48-3.86q-.13.46.26.57l.09,0,.2.06h.16a2.34,2.34,0,0,0,1.59,0,1.44,1.44,0,0,0,.82-1l0-.17a1.31,1.31,0,0,0-.14-1.09,1.72,1.72,0,0,0-1-.71l-.46-.13-.15,0q-.48-.14-.62.05a3.15,3.15,0,0,0-.33.85l-.24.85-.05.16Z"/><path class="cls-4" d="M147.27,295.82l0,.14a6.19,6.19,0,0,1-.64,1.81,3.66,3.66,0,0,1-2.41,2,3.79,3.79,0,0,1-1.6,0,3.37,3.37,0,0,1-2.38-1.57,3.92,3.92,0,0,1-.51-1.56,5.42,5.42,0,0,1,0-1.7l.08-.42a5.89,5.89,0,0,1,.63-1.74,3.81,3.81,0,0,1,2.25-2,3.55,3.55,0,0,1,1.69-.07l.14,0a3.32,3.32,0,0,1,2.39,1.72,4,4,0,0,1,.42,1.45A6,6,0,0,1,147.27,295.82Zm-6.19-1.05,0,.21a4.66,4.66,0,0,0,.11,2.55,2.26,2.26,0,0,0,.62.92,2,2,0,0,0,1,.48h0q1.68.33,2.6-1.6a5.54,5.54,0,0,0,.45-1.35v0l.09-.44v0A5.63,5.63,0,0,0,146,294q-.13-2.15-1.75-2.47a2.08,2.08,0,0,0-2,.63A4.87,4.87,0,0,0,141.08,294.77Z"/><path class="cls-4" d="M158.19,301.47q-.38,0-.9-.85a24.48,24.48,0,0,1-1.3-2.45q-.78-1.64-1.28-2.51t-.75-.89q-.25,0-.66,4a6.48,6.48,0,0,0,0,.81c0,.32,0,.5,0,.54a1,1,0,0,1-.34.69.84.84,0,0,1-.67.23q-.55-.06-.52-.43A1.7,1.7,0,0,1,152,300a11.06,11.06,0,0,0,.6-3.16l0-.27.07-.56q.07-.56.15-1.38a5.19,5.19,0,0,0,0-1.33q-.08-.5-.08-.52,0-.25.37-.22l.2,0a2,2,0,0,1,1.27.93,30.2,30.2,0,0,1,1.87,3.17,11.36,11.36,0,0,0,1.4,2.33L158,299a19,19,0,0,0,.6-3.94,4.25,4.25,0,0,0,0-.67l0-.2,0-.18a1.38,1.38,0,0,1,0-.33.45.45,0,0,1,.2-.31.71.71,0,0,1,.52-.1.75.75,0,0,1,.53.28.65.65,0,0,1,.17.46,3,3,0,0,1-.24.73,13.93,13.93,0,0,0-.59,3.28,25.25,25.25,0,0,1-.42,3.07A.45.45,0,0,1,158.19,301.47Z"/><path class="cls-4" d="M171.8,297.7v.15a6.18,6.18,0,0,1-.31,1.9,3.66,3.66,0,0,1-2,2.36,3.78,3.78,0,0,1-1.57.31,3.37,3.37,0,0,1-2.62-1.12,3.93,3.93,0,0,1-.77-1.45,5.41,5.41,0,0,1-.25-1.68v-.43a5.88,5.88,0,0,1,.32-1.82,3.81,3.81,0,0,1,1.87-2.33,3.56,3.56,0,0,1,1.65-.36h.15a3.32,3.32,0,0,1,2.65,1.27,4,4,0,0,1,.67,1.35A6,6,0,0,1,171.8,297.7Zm-6.28.05V298a4.66,4.66,0,0,0,.56,2.49,2.27,2.27,0,0,0,.77.79,2,2,0,0,0,1,.3h0q1.71,0,2.27-2a5.52,5.52,0,0,0,.21-1.41v-.54a5.65,5.65,0,0,0-.16-1.42q-.5-2.1-2.16-2.12a2.08,2.08,0,0,0-1.82,1A4.87,4.87,0,0,0,165.52,297.75Z"/><path class="cls-4" d="M188.46,294.64a2.62,2.62,0,0,1-.7,2.09,3.47,3.47,0,0,1-1.41.85,4.85,4.85,0,0,0-1.31.65,1.38,1.38,0,0,0-.43.57,1.26,1.26,0,0,0-.07.57,2.27,2.27,0,0,0,.16.6,2.17,2.17,0,0,1,.16.56.74.74,0,0,1-.24.55,1,1,0,0,1-.65.34h-.12a.74.74,0,0,1-.55-.12.64.64,0,0,1-.24-.46,3.33,3.33,0,0,1,.12-.57,3,3,0,0,0,.06-1.07l0-.44-.05-.58-.17-1.55q-.11-1-.23-1.75l-.16-1a2.12,2.12,0,0,0-.12-.42,1.49,1.49,0,0,1-.1-.32q0-.24.41-.37a14,14,0,0,1,2.35-.43l.15,0a3.12,3.12,0,0,1,2.19.44,2.28,2.28,0,0,1,1,1.71Zm-4.26,2.09a.51.51,0,0,0,.22.43,1.06,1.06,0,0,0,.58.05l.3,0,.23,0a1.82,1.82,0,0,0,1.26-.81,1.78,1.78,0,0,0,.3-1.31v-.14l0-.15v-.07a1.66,1.66,0,0,0-.64-1.22,2,2,0,0,0-1.42-.31l-.18,0-.28.05q-.52.06-.59.39a11.31,11.31,0,0,0,.13,1.79l0,.2,0,.26V296l0,.25,0,.19Z"/><path class="cls-4" d="M198.44,292.72q0-.22-.11-.59a4.56,4.56,0,0,0-.19-.69A3.55,3.55,0,0,1,198,291q-.07-.38.62-.51a.61.61,0,0,1,.5.08.93.93,0,0,1,.4.55l0,.19a2,2,0,0,1,0,.58,2.86,2.86,0,0,0,0,.79q.05.38.35,1.91a15.63,15.63,0,0,1,.32,2.19,2.67,2.67,0,0,1-.26,1.25,2.4,2.4,0,0,1-.88,1,4.46,4.46,0,0,1-1.59.59,4.14,4.14,0,0,1-1.69,0,2.56,2.56,0,0,1-1.83-1.83,18.55,18.55,0,0,1-.59-2.43,8.87,8.87,0,0,0-.61-2.19,2.85,2.85,0,0,1-.3-.61.87.87,0,0,1,.18-.77,1,1,0,0,1,.57-.26.8.8,0,0,1,.63.07.63.63,0,0,1,.25.39v.45a6.43,6.43,0,0,0,.12.76l0,.21.09.44.1.45.09.46a10.87,10.87,0,0,0,1,3.3,1.7,1.7,0,0,0,1.87.68A1.93,1.93,0,0,0,199,297a14.24,14.24,0,0,0-.45-3.83Z"/><path class="cls-4" d="M206.48,288.24q2.09-.6,2.93.57a2.54,2.54,0,0,1,.35.78,2.12,2.12,0,0,1-.31,1.79c-.1.16-.15.26-.15.28a2,2,0,0,0,.52.2,2.22,2.22,0,0,1,1.61,1.54l0,.15v0a2.21,2.21,0,0,1,0,1,2.6,2.6,0,0,1-1.53,1.8,8.26,8.26,0,0,1-1.44.54l-.58.17a7.4,7.4,0,0,1-1.49.33q-.31,0-.37-.21a1.37,1.37,0,0,1,0-.39,2.52,2.52,0,0,0,0-.45q0-.16-.24-.94l-.12-.44-.08-.3-.08-.3-.09-.3-.09-.29-.51-1.77q-.42-1.48-.54-1.77a2.14,2.14,0,0,0-.31-.55,1.52,1.52,0,0,1-.21-.32q-.07-.23.27-.42a6.47,6.47,0,0,1,1.2-.43l.29-.1.29-.09.29-.09Zm-.34,3.66q.13.46.52.34l.1,0,.2-.05h0l.05,0h0a2.34,2.34,0,0,0,1.35-.84,1.44,1.44,0,0,0,.18-1.26l0-.17a1.31,1.31,0,0,0-.69-.86,1.72,1.72,0,0,0-1.26,0l-.46.13-.14.05q-.48.14-.5.37a3.14,3.14,0,0,0,.17.9l.24.85,0,.17Zm4.15,2-.09-.33a1.35,1.35,0,0,0-.86-.95,2.28,2.28,0,0,0-1.45,0l-.6.17q-.65.18-.69.42a6,6,0,0,0,.33,1.54l.05.18a4.67,4.67,0,0,0,.49,1.33q.15.13.66,0l.18,0,.06,0,.19,0,.06,0,.24-.08.24-.08a1.66,1.66,0,0,0,1-.8A1.58,1.58,0,0,0,210.29,293.87Z"/><path class="cls-4" d="M218.67,292.56a4.08,4.08,0,0,0,1-.28,3.69,3.69,0,0,0,.95-.46q.25-.2.49-.44a1.34,1.34,0,0,1,.37-.29q.41-.15.61.4a.76.76,0,0,1-.11.86,8.74,8.74,0,0,1-1.86.81l-.15,0-.46.16a19.49,19.49,0,0,1-1.93.65q-.65.15-.77-.18a1.3,1.3,0,0,1-.06-.43,3,3,0,0,0-.05-.54,6.3,6.3,0,0,0-.28-.87l-.37-1.06-.28-.76-.11-.31q-.84-2.25-1-2.49a1.73,1.73,0,0,0-.34-.46,1.24,1.24,0,0,1-.31-.44.53.53,0,0,1,.06-.47.85.85,0,0,1,.46-.36l.14-.05a1.26,1.26,0,0,1,.82-.07.68.68,0,0,1,.45.42,1.48,1.48,0,0,1,0,.44,3.27,3.27,0,0,0,0,.53,6.45,6.45,0,0,0,.28.87l.37,1.06,0,.15.11.31.21.61a9.89,9.89,0,0,0,1.12,2.48A.64.64,0,0,0,218.67,292.56Z"/><path class="cls-4" d="M224.45,285.19l-.37-.81a1.8,1.8,0,0,0-.72-.92,1,1,0,0,1-.47-.37.59.59,0,0,1,.18-.64,2.3,2.3,0,0,1,.76-.47l.11,0a1.23,1.23,0,0,1,.77-.09.35.35,0,0,1,.27.2l0,.08a.82.82,0,0,1,0,.34,1.89,1.89,0,0,0,0,.56,5,5,0,0,0,.35,1l.09.24.24.58.16.35.25.59.1.23.15.35q.87,2,1,2.17a1.17,1.17,0,0,0,.39.36.84.84,0,0,1,.35.36.45.45,0,0,1-.09.46,1.41,1.41,0,0,1-.59.44l-.22.1a1.46,1.46,0,0,1-1,.13.28.28,0,0,1-.2-.14l0-.08a1.2,1.2,0,0,1,0-.56,3.71,3.71,0,0,0-.41-1.77l-.27-.64-.15-.35-.16-.35-.1-.24-.1-.23,0-.11-.25-.57Z"/><path class="cls-4" d="M231.79,283.34a3.86,3.86,0,0,0,1.79,1.92,2.45,2.45,0,0,0,2.15-.18,3,3,0,0,0,1.08-1q.06-.09.27-.48a1.17,1.17,0,0,1,.41-.49q.2-.1.32.13a1,1,0,0,1,0,.65,2.11,2.11,0,0,1-.32.78,4.24,4.24,0,0,1-1.62,1.39l-.18.09a3.52,3.52,0,0,1-1.43.39,3.27,3.27,0,0,1-2.53-1,5.6,5.6,0,0,1-1.1-1.46l-.2-.37a5.27,5.27,0,0,1-.53-1.65,3.83,3.83,0,0,1,.65-3,4.33,4.33,0,0,1,1.48-1.21,3.62,3.62,0,0,1,1.72-.47,1.12,1.12,0,0,1,.6.23,1.34,1.34,0,0,1,.45.46q.23.44-.07.59a1,1,0,0,1-.6,0,2.36,2.36,0,0,0-1.76.18,2.51,2.51,0,0,0-.93.8Q230.57,281,231.79,283.34Z"/><path class="cls-4" d="M246.63,274.32l.08.12a6.19,6.19,0,0,1,.78,1.76,3.66,3.66,0,0,1-.39,3.08,3.79,3.79,0,0,1-1.14,1.13,3.37,3.37,0,0,1-2.81.5,3.91,3.91,0,0,1-1.44-.78,5.42,5.42,0,0,1-1.13-1.27l-.23-.36a5.88,5.88,0,0,1-.74-1.69,3.81,3.81,0,0,1,.28-3,3.55,3.55,0,0,1,1.18-1.21l.12-.08a3.32,3.32,0,0,1,2.91-.39,4,4,0,0,1,1.31.76A6,6,0,0,1,246.63,274.32Zm-5.22,3.5.12.18a4.66,4.66,0,0,0,1.83,1.77,2.27,2.27,0,0,0,1.08.24,2,2,0,0,0,1-.31h0q1.44-.92.78-2.95a5.53,5.53,0,0,0-.6-1.29l0,0-.24-.38,0,0a5.63,5.63,0,0,0-.92-1.1q-1.57-1.47-3-.59a2.09,2.09,0,0,0-1,1.8A4.87,4.87,0,0,0,241.41,277.82Z"/><g class="cls-6"><g class="cls-7"><path class="cls-5" d="M160.72,96.88l-13,0,.26.3a4.72,4.72,0,0,1-.62.41l13.86,0A1.26,1.26,0,0,1,160.72,96.88Z"/><path class="cls-5" d="M237.35,102.28h-9.16v.51l8.58-.06h.84a3,3,0,0,1-.32-.22C237.31,102.41,237.33,102.34,237.35,102.28Z"/><path class="cls-5" d="M182.27,103c0-.21,0-.45,0-.71h-3.62a3.78,3.78,0,0,0-.13.72Z"/><path class="cls-5" d="M168.63,96.87h-6.79a1.19,1.19,0,0,0-.32.75h6.79A1.31,1.31,0,0,1,168.63,96.87Z"/><path class="cls-5" d="M203.74,96.92a1.56,1.56,0,0,1,.23.26,1.07,1.07,0,0,1-.46.42h2.15l9.78,0a.83.83,0,0,1,.23-.6l-10,0Z"/><path class="cls-5" d="M222.07,102.83l5,0a4.51,4.51,0,0,1,.18-.52H211.63l-.87.42a4.39,4.39,0,0,1-.2-.42h-5.31c-.41.6-.84.6-1.25,0h-4a.87.87,0,0,1-1.09.63v0s0,0,0,.05l6.77,0C211.35,102.92,216.85,102.87,222.07,102.83Z"/><path class="cls-5" d="M246.45,102.28a2.21,2.21,0,0,1-.2.36H247a1.05,1.05,0,0,0,.19-.35Z"/><path class="cls-5" d="M246,102.63v-.36h-.71l0,.07c0,.1,0,.2,0,.3Z"/><path class="cls-5" d="M238.83,102.71l3.64,0a2.81,2.81,0,0,1,0-.4h-3.28A1.79,1.79,0,0,1,238.83,102.71Z"/><path class="cls-5" d="M151.89,92.57l11.78,0a1,1,0,0,1-.31-.57.14.14,0,0,1,0-.09l-11.51,0h-5.3c0,.24,0,.49,0,.75Z"/><path class="cls-5" d="M134.34,92.59H145.2l-.41-.75H131.37v.26c-.78,1-1.09.19-1.52-.26h-.7c-.31.23-.59.55-.91.77Z"/><path class="cls-5" d="M138.89,86.92c-.07.14-.16.29-.26.45h5.64a2.9,2.9,0,0,0-.06-.48Z"/><path class="cls-5" d="M137.86,86.92h-3.92c0,.14,0,.28,0,.42h4.2A2.44,2.44,0,0,1,137.86,86.92Z"/><path class="cls-5" d="M236.77,107l-6,0q0,.37-.06.75l6,0,7,0a2.57,2.57,0,0,1,.17-.58Z"/><path class="cls-5" d="M215.51,187.88a2.8,2.8,0,0,1-.11.78H218a4.28,4.28,0,0,1,.17-.78Z"/><path class="cls-5" d="M216.59,97.06a1.15,1.15,0,0,1-.23.49l20.41-.08,4.38,0c-.07-.13-.14-.26-.21-.38l-4.17,0L216.56,97A.16.16,0,0,1,216.59,97.06Z"/><path class="cls-5" d="M230.21,112.08a3.92,3.92,0,0,1,1,.68h.62a4.54,4.54,0,0,1,.8-.67Z"/><path class="cls-5" d="M198.89,102.87a.16.16,0,0,0,0,0,.15.15,0,0,1,0,0Z"/><path class="cls-5" d="M164.51,92.53H169a.63.63,0,0,1-.64-.63h-4A.85.85,0,0,1,164.51,92.53Z"/><path class="cls-5" d="M132.44,143l1.9,0c5.69-.06,11.57-.08,17.55-.09l9,0L170,143l18.12.13,17.55.06h19.61a2.43,2.43,0,0,0-.29-.79H205.66l-17.55.06-18.12.13-9.09.07-9,0c-6,0-11.86,0-17.55-.09l-2.32,0a2.62,2.62,0,0,1,.48.31Z"/><path class="cls-5" d="M236.77,157.62l-14.7-.06c-5.22,0-10.72,0-16.41,0l-17.55,0-18.12.06-30.35.08a4,4,0,0,1-.12.45l30.47.09,16.29,0a1.22,1.22,0,0,1,.79,0h1l17.55,0c5.69,0,11.19,0,16.41,0h2.77c.57-.82,1.21-.74,1.91-.18,0,.06,0,.12,0,.17l10.07,0,7.38-.05a2,2,0,0,0,.25-.51Z"/><path class="cls-5" d="M170,152.49H103.23c-2.28,0-4.46,0-6.53,0l-3.23,0c.91.25,2.08-.22,3.28.54l-.28.17h.23c2.07,0,4.26,0,6.53,0H237c0-.25,0-.51,0-.78H170Z"/><path class="cls-5" d="M121.5,122.36h-2a1.08,1.08,0,0,1,.39.34h1.39A2.12,2.12,0,0,1,121.5,122.36Z"/><path class="cls-5" d="M134.34,138.32l35.66.09,35.66-.09c5.69,0,11.19-.05,16.41-.09l7.34-.06a2.82,2.82,0,0,0,.64-.5H119.13a.22.22,0,0,1,.06.14,1.19,1.19,0,0,1-.18.43C123.91,138.27,129,138.32,134.34,138.32Z"/><path class="cls-5" d="M189.29,183.09c0,.08,0,.16,0,.25,5.57,0,11.05,0,16.37.09l7,.06a6.94,6.94,0,0,0-.76-.54l-6.21.06C200.35,183.06,194.86,183.08,189.29,183.09Z"/><path class="cls-5" d="M176.35,177.9a1.13,1.13,0,0,1-.25.51l11,.08-.66-.66-10.14.07Z"/><path class="cls-5" d="M165.78,178.34l4.22,0,5.2,0a.86.86,0,0,1,.14-.5l-5.34,0h-1.1a.9.9,0,0,1-1.24,0H166a3.22,3.22,0,0,0-.21.36Z"/><path class="cls-5" d="M169.09,96.87a5.07,5.07,0,0,1,1,.78l33.07,0a1,1,0,0,1-.46-.42,1.46,1.46,0,0,1,.23-.26l-33,0Z"/><path class="cls-5" d="M225.66,162.83l-35.18-.1h0c-.41.59-.84.59-1.25,0h0L170,162.68l-18.11-.06-17.55,0H121.27l-.34.77c4.31,0,8.8,0,13.41,0l17.55,0L170,163.3l55.8-.16A1,1,0,0,1,225.66,162.83Z"/><path class="cls-5" d="M236.77,112.75l4.42,0-.61-.61h-6.42a2.6,2.6,0,0,1,.3.25,1.48,1.48,0,0,1-.22.41Z"/><path class="cls-5" d="M117.93,107.7c5.22,0,10.72-.08,16.41-.12s11.57-.08,17.55-.09l9,0,7,.05.21-.4-7.18.05-9,0c-6,0-11.86,0-17.55-.09h-.57v.25l-.18-.25c-5.42,0-10.67-.12-15.66-.12h-2.84a1.67,1.67,0,0,0-.68.69Z"/><path class="cls-5" d="M139.89,112a.54.54,0,0,1,.08.77l11.92,0,18.11-.13,9.09-.07,9,0c6,0,11.86,0,17.55.09l3.8,0a2.41,2.41,0,0,1-.28-.48l-3.52,0c-5.69.06-11.57.08-17.55.09l-9,0-9.09-.07-18.11-.13Z"/><path class="cls-5" d="M134.34,97.6h10.39a5.39,5.39,0,0,1-.91-.7h-9.47l-5.9,0,.73.63Z"/><path class="cls-5" d="M170,107.58l18.12.13,17.55.06h23.43c.13-.18.16-.39-.06-.72l-.11,0H205.66l-17.55.06-18.12.13h-.61v.42Z"/><path class="cls-5" d="M111.28,97.51a2.15,2.15,0,0,0-1,0Z"/><path class="cls-5" d="M127.61,96.95,113.26,97a.74.74,0,0,1-.32.51l14.17.05A1.64,1.64,0,0,0,127.61,96.95Z"/><path class="cls-5" d="M173.4,86.82a.86.86,0,0,1-.67.64h5a4.38,4.38,0,0,1-.3-.67Z"/><path class="cls-5" d="M127.35,87.34h4.2v-.41H127.6A1.49,1.49,0,0,0,127.35,87.34Z"/><path class="cls-5" d="M199,102.28h-15.6a1.53,1.53,0,0,1,.25.7l14.3,0,1-.08A1,1,0,0,1,199,102.28Z"/><path class="cls-5" d="M93.15,87.05H91.87c0,.06,0,.12,0,.18h1.26C93.15,87.18,93.15,87.11,93.15,87.05Z"/><path class="cls-5" d="M107.31,87,94.44,87c0,.07,0,.13,0,.2l12.78,0A1.31,1.31,0,0,1,107.31,87Z"/><path class="cls-5" d="M108.54,91.95l.1-.08-5.41,0-2.45,0a2.29,2.29,0,0,0,0,.24l.76.35h1.65l5.31,0Z"/><path class="cls-5" d="M147.11,87.39l22.89.06h2.58c-.13-.07-.31-.27-.29-.35a1.35,1.35,0,0,1,.1-.29H170l-15.33,0-.15.49v-.49l-7.73,0A3.27,3.27,0,0,0,147.11,87.39Z"/><path class="cls-5" d="M248.76,102.6h.43l3.21,0c0-.09,0-.18,0-.27h-3.83A1.63,1.63,0,0,0,248.76,102.6Z"/><path class="cls-5" d="M114.88,102.28h-1.42c.18.17.34.35.51.53h.84A1,1,0,0,1,114.88,102.28Z"/><path class="cls-5" d="M249.19,107.12l-3.27,0a2.89,2.89,0,0,1-.21.55l3.48,0,8.35-.09a1.81,1.81,0,0,1,.16-.33Z"/><path class="cls-5" d="M169.46,91.89a4,4,0,0,1-.3.63H170l64.4-.18a.63.63,0,0,1,.12-.26L170,91.89Z"/><path class="cls-5" d="M242,97.44h1.65l0-.34H242Z"/><path class="cls-5" d="M118.05,138.23a.79.79,0,0,1,.27-.56H106.13l.21.47,11.59.09Z"/><path class="cls-5" d="M108,132.89a1,1,0,0,1,.26-.47l-4.19,0a1,1,0,0,1,.51.42l0,0Z"/><path class="cls-5" d="M249.19,112.17l-6.64,0a4,4,0,0,0-.59.6c2.57,0,5,0,7.23,0h.91a.9.9,0,0,1,0-.41.16.16,0,0,1,.05-.08Z"/><path class="cls-5" d="M103.23,147.48l-12.42.09-9.58.1-4.37.06a.84.84,0,0,1,.27.19l4.11.06,9.58.1,12.42.09c4.55,0,9.48.06,14.7.06h16.41l17.55-.06L170,148l9.09-.07,9,0h2.38v-.25h-2.38l-9,0-9.09-.07-18.11-.13-16.8-.06a1.61,1.61,0,0,1-1,0H117.93C112.72,147.42,107.78,147.45,103.23,147.48Z"/><path class="cls-5" d="M109.05,132.89l19.77.07c0-.21,0-.42,0-.63l-19.67.07A.91.91,0,0,1,109.05,132.89Z"/><path class="cls-5" d="M109.26,122.4h-3.37c0,.09,0,.18,0,.26h3.39Z"/><path class="cls-5" d="M103.23,112.77c4,0,8.33.05,12.87.06a1.55,1.55,0,0,1,.41-.79c-4.69,0-9.14,0-13.28.06l-4.3,0a4.62,4.62,0,0,1-.17.62Z"/><path class="cls-5" d="M96.7,117.86c2.07,0,4.26,0,6.53,0H120c0-.27.07-.54.08-.78H103.23c-2.28,0-4.46,0-6.53,0h-1a1.6,1.6,0,0,1-.33.73Z"/><path class="cls-5" d="M118.93,122.37l-8.31,0-.36.29,8.48,0A2.22,2.22,0,0,1,118.93,122.37Z"/><path class="cls-5" d="M126.25,128c0-.26.06-.52.09-.78h-5.69c.31.26.41.51.28.77Z"/><path class="cls-5" d="M236.22,122.23H233.8a4.69,4.69,0,0,1-.84.65l3.81,0H237A4.12,4.12,0,0,1,236.22,122.23Z"/><path class="cls-5" d="M176.63,103a4.88,4.88,0,0,1-.44-.72H133.77v.65h.57l28.27.07.06,0a1.42,1.42,0,0,1,1.35,0h6Z"/><path class="cls-5" d="M209.53,117.09h-87a2.47,2.47,0,0,1,0,.78h86.84A.55.55,0,0,1,209.53,117.09Z"/><path class="cls-5" d="M139.34,112.81a.54.54,0,0,1,.08-.77l-5.08,0H116.82a1,1,0,0,1,.57.79h16.94Z"/><path class="cls-5" d="M114.82,87.3a2.66,2.66,0,0,1,0-.31l-5.41,0,.14.28Z"/><path class="cls-5" d="M227.94,112.77c.23-.25.47-.46.67-.69h-6.55c-3.75,0-7.64,0-11.64.08,0,.16,0,.33,0,.51,4,0,7.9.08,11.65.08Z"/><path class="cls-5" d="M116.07,87.31l10.8,0a4.12,4.12,0,0,0-.49-.38L116.1,87C116.1,87.09,116.08,87.2,116.07,87.31Z"/><path class="cls-5" d="M126.33,91.81h-3.87a.87.87,0,0,1-.77.77c-.1,0-.4-.27-.37-.37a1.24,1.24,0,0,1,.16-.39h-3.55l-7.16,0c.15.1.31.2.48.33l-1.1.35,7.79,0c2.87,0,5.84,0,8.87,0A1.16,1.16,0,0,1,126.33,91.81Z"/><path class="cls-5" d="M117.86,102.83a1.45,1.45,0,0,1-.06-.56h-1.89a.91.91,0,0,1-.39.54Z"/><path class="cls-5" d="M119.71,102.28a3.69,3.69,0,0,1-.35.57l10.87.07v-.64Z"/><path class="cls-5" d="M205.66,122.15l-17.55,0h-1.67a3.57,3.57,0,0,1,.88.6l-.15.13h.94l17.55,0c5.69,0,11.19,0,16.41,0l10.17,0a1.26,1.26,0,0,1-.24-.66l-9.93,0C216.85,122.13,211.35,122.16,205.66,122.15Z"/><path class="cls-5" d="M237.42,127.47,170,127.28l-18.11-.06-17.55,0h-3.5c.32.26.41.51.28.77h3.22l17.55,0,18.11-.05,67.3-.19A1.12,1.12,0,0,1,237.42,127.47Z"/><path class="cls-5" d="M230.6,138.16l5.43,0a2,2,0,0,1-.19-.45h-5.48Z"/><path class="cls-5" d="M239.62,137.78a2,2,0,0,1-.21.32l7.83-.09c0-.11,0-.23,0-.34h-7.92Z"/><path class="cls-5" d="M238.39,127.48a.83.83,0,0,1-.05.24l6.59,0,0-.2Z"/><path class="cls-5" d="M145.18,122.3l-23,.06a1.87,1.87,0,0,1,.22.36l22.55.06C145,122.63,145.08,122.47,145.18,122.3Z"/><path class="cls-5" d="M128.59,128h1.76c-.13-.26,0-.52.28-.77H128.9A1.4,1.4,0,0,1,128.59,128Z"/><path class="cls-5" d="M146,122.78l14.75,0a4.57,4.57,0,0,1,.33-.57l-15.36,0A2.24,2.24,0,0,1,146,122.78Z"/><path class="cls-5" d="M161.86,122.83l8.14,0,13.72,0v-.71l-13.72,0-8.45,0A2.84,2.84,0,0,1,161.86,122.83Z"/><path class="cls-5" d="M205.66,132.31,170,132.26l-35.66.05-4.24,0c0,.21,0,.43,0,.64l4.24,0L170,133l35.66-.05,27.78-.11c0-.07,0-.14.08-.22l.39-.24Z"/><path class="cls-5" d="M247.06,127.69l20.06-.06v-.08L247,127.5Z"/><path class="cls-5" d="M236.77,132.43h-.23a4.23,4.23,0,0,1,.6.43l21.63-.15,8.35-.07-8.35-.06Z"/><path class="cls-5" d="M248.36,138h.84l9.58-.13,8.35-.11v-.08h-19A3,3,0,0,1,248.36,138Z"/><path class="cls-5" d="M249.19,142.51l-12.42-.09-8.4,0-.24.77,8.64,0,12.42-.09,9.58-.1,8.35-.12v-.08l-8.35-.12Z"/><path class="cls-5" d="M251.12,112.19v.4l.07.07,7.58-.07,8.35-.12v-.08l-8.35-.12Z"/><path class="cls-5" d="M249.19,122.32l-11.29-.08c0,.19,0,.39-.06.6l11.36-.08,9.58-.09,8.35-.1v-.08l-8.35-.09Z"/><path class="cls-5" d="M249.19,147.57c-3.7,0-7.87,0-12.42-.07l-10,0-.21.69c3.56,0,7,0,10.18,0h1.49l.55-.53a2.14,2.14,0,0,1,2.08.52c3,0,5.75,0,8.3-.05l9.58-.09,8.35-.12v-.08l-8.35-.13Z"/><path class="cls-5" d="M251,112.66h.15v-.07l-.21-.18C250.94,112.5,251,112.58,251,112.66Z"/><path class="cls-5" d="M258.59,107.21a.48.48,0,0,1,.15.31h0l8.35-.11v-.08l-8.35-.11Z"/><path class="cls-5" d="M249.19,117.19l-5.89-.09c-2.07,0-4.26,0-6.53,0H209.92a.55.55,0,0,1,.14.78h26.71c2.28,0,4.46,0,6.53,0l5.89-.09,9.58-.15,8.35-.15-8.35-.15Z"/><path class="cls-5" d="M249.19,183c-3.7,0-7.87,0-12.42-.06s-9.48,0-14.7,0H218a1.42,1.42,0,0,1,.08.64h4c5.22,0,10.15,0,14.7,0s8.73,0,12.42-.07l9.58-.09,8.35-.12v-.08l-8.35-.12Z"/><path class="cls-5" d="M249.19,177.9l-12.42-.09c-4.55,0-9.48-.06-14.7-.06H205.66l-17.39.06a3.23,3.23,0,0,0-.88.68h.72l17.55.06h10a5.4,5.4,0,0,1,4.31,0h2.1c5.22,0,10.15,0,14.7-.06l12.42-.09,9.58-.1,8.35-.11v-.08l-8.35-.12Z"/><path class="cls-5" d="M249.19,188l-5.89-.09c-2.07,0-4.26,0-6.53,0H219.58a3.26,3.26,0,0,1,.68.78h16.51c2.28,0,4.46,0,6.53,0l5.89-.09,9.58-.15,8.35-.15-8.35-.15Z"/><path class="cls-5" d="M249.19,193.1,236.77,193l-14.7-.06H220.3a.39.39,0,1,1-.77,0h-2.78c0,.25,0,.51,0,.78h5.31l14.7-.07,12.42-.09,9.58-.09,8.35-.1v-.08l-8.35-.09Z"/><path class="cls-5" d="M249.19,157.71l-3.54,0a1.89,1.89,0,0,1-.51.5l4.05,0,9.58-.09,8.35-.1v-.08l-8.35-.1Z"/><path class="cls-5" d="M134.55,173.71l31.12.08a2.66,2.66,0,0,1,.94-.33,2.33,2.33,0,0,1,.47.33H170l35.66-.09c5.69,0,11.19-.05,16.41-.09l14.7-.11c4.55,0,8.73-.08,12.42-.13l9.58-.13,8.35-.11v-.08h-133A2.23,2.23,0,0,1,134.55,173.71Z"/><path class="cls-5" d="M226.63,163.14l40.49-.11v-.08l-40.35-.11Z"/><path class="cls-5" d="M249.19,152.58l-5.89-.09c-1.49,0-3,0-4.64,0a2.12,2.12,0,0,1,.78.78c1.32,0,2.61,0,3.85,0l5.89-.09,9.58-.15,8.35-.15-8.35-.15Z"/><path class="cls-5" d="M236.77,167.83l-31.11-.12-28,0a4.13,4.13,0,0,1-.44.75l28.46,0,31.11-.12,22-.15,8.35-.06-8.35-.06Z"/><path class="cls-5" d="M224.38,198.46a1.46,1.46,0,0,1,0-.23L170,198.07l-10.12,0v.05a1.19,1.19,0,0,0,.42.63l9.7,0,53.7-.15a1,1,0,0,1,.66-.07s0,0,0,.07l42.74-.12v-.08l-41.87-.12A.91.91,0,0,1,224.38,198.46Z"/><path class="cls-5" d="M90.81,117.77l3.92.06a1.63,1.63,0,0,1-.32-.7l-3.59.06-9.58.15-8.35.14,8.35.14Z"/><path class="cls-5" d="M102.08,122.42l-29.2.08v.08l29.27.08A1.37,1.37,0,0,1,102.08,122.42Z"/><path class="cls-5" d="M90.81,107.62c3.7,0,7.87,0,12.42.06,3.44,0,7.09,0,10.92,0-.11-.23-.23-.46-.36-.69-3.7,0-7.23,0-10.56,0-4.55,0-8.73,0-12.42.06l-9.58.09-8.35.12v.08l8.35.12Z"/><path class="cls-5" d="M90.81,127.82l12.42.09,14.7.06h2.23c-.13-.25,0-.51.28-.77h-2.51l-14.7.06-12.42.09-9.58.09-8.35.1v.08l8.35.1Z"/><path class="cls-5" d="M90.81,112.68l7.3.05a1,1,0,0,1-.49-.6l-6.81,0-9.58.1-8.35.12v.08l8.35.12Z"/><path class="cls-5" d="M103.23,132.87h.14v0a1,1,0,0,1,.5-.42h-.63c-9.11,0-16.69.12-22,.15l-8.35.06,8.35.07C86.54,132.75,94.13,132.84,103.23,132.87Z"/><path class="cls-5" d="M90.81,143c3.7,0,7.87,0,12.42.06s9.48,0,14.7,0c3.91,0,8,0,12.16-.08a3,3,0,0,1,.71-.49c-4.44,0-8.74-.09-12.87-.09s-8.08,0-11.81,0a2.89,2.89,0,0,0-.5.09v-.08h-2.4c-4.55,0-8.73,0-12.42.07l-9.58.09-8.35.12v.08l8.35.12Z"/><path class="cls-5" d="M76.45,147.73l-3.57,0v.08l3.33,0A.87.87,0,0,1,76.45,147.73Z"/><path class="cls-5" d="M90.81,138c3.7.05,7.87.11,12.42.13l2.4,0v-.47H72.88v.08l8.35.11Z"/><path class="cls-5" d="M103.23,97.48l5.53,0-.39-.39.17-.09-5.31,0c-9.11,0-16.69.12-22,.15l-8.35.07,8.35.06C86.54,97.36,94.13,97.44,103.23,97.48Z"/><path class="cls-5" d="M238.14,86.85a2.93,2.93,0,0,1,.2.6l10.85-.08,9.58-.09,8.35-.09v-.08l-8.35-.1-9.58-.09Z"/><path class="cls-5" d="M239.55,92.32l27.57-.08v-.08l-27.69-.08Z"/><path class="cls-5" d="M246,97.1l0,.31,12.73-.09,8.35-.06-8.35-.07Z"/><path class="cls-5" d="M180.14,86.8a1.38,1.38,0,0,0,.42.68l7.55,0,17.55,0c5.69,0,11.19,0,16.41,0l13.86-.06a1.77,1.77,0,0,0,0-.57l.09-.06-13.93-.06c-5.22,0-10.72,0-16.41,0l-17.55,0Z"/><path class="cls-5" d="M90.81,92.42l6.75,0c0-.18,0-.36.06-.54l-5.22,0a1.87,1.87,0,0,0-.51.43V92H90.81l-9.58.09-8.35.1v.08l8.35.1Z"/><path class="cls-5" d="M253.8,102.53l5-.07,8.35-.11v-.08H253.89Z"/><path class="cls-5" d="M90.81,102.59c3.7.05,7.87.11,12.42.13l9.09.07a4.78,4.78,0,0,1,.09-.52H72.88v.08l8.35.11Z"/><path class="cls-5" d="M90.63,87.06l-17.75.05v.08l17.77,0Z"/><path class="cls-5" d="M222.07,147.49c-5.22,0-10.72.08-16.41.12-4.12,0-8.34.07-12.62.08a1.71,1.71,0,0,1,0,.26c4.28,0,8.49,0,12.61.08,5.69,0,11.19.12,16.41.12h.16a2.65,2.65,0,0,1,.3-.67Z"/><path class="cls-5" d="M103.23,163.3l14.7.06h1.38c0-.26.08-.51.13-.76h-1.5l-14.7.06-4.73,0c0,.2,0,.38,0,.55Z"/><path class="cls-5" d="M89.73,153.15l1.07,0h.49c0-.2,0-.4,0-.6h-.54l-1.37,0Z"/><path class="cls-5" d="M156.95,183.52l13.05-.09,2.19,0a.63.63,0,0,0-.52,0,3.07,3.07,0,0,1,.23-.37H170l-12.8-.09A1.56,1.56,0,0,1,156.95,183.52Z"/><path class="cls-5" d="M98.7,158l18.09.05a1.21,1.21,0,0,1,0-.32l-18.41.05A1.94,1.94,0,0,1,98.7,158Z"/><path class="cls-5" d="M117.8,158.1l20.83.06a2.23,2.23,0,0,1-.09-.45l-21.06.06A.82.82,0,0,1,117.8,158.1Z"/><path class="cls-5" d="M173.59,183.4l4.16,0,0-.31-4,0A1.84,1.84,0,0,1,173.59,183.4Z"/><path class="cls-5" d="M127.17,188.66h2.34a1.26,1.26,0,0,0-.12-.41A3.46,3.46,0,0,0,127.17,188.66Z"/><path class="cls-5" d="M236.77,203.22l-31.11-.12H200a.58.58,0,0,1-1,0l-29,0h-4.16a4.47,4.47,0,0,1,.35.73l-.1,0H170l35.66-.05,31.11-.12,22-.15,8.35-.06-8.35-.06Z"/><path class="cls-5" d="M162,187.88a2.27,2.27,0,0,1,0,.78h51a3.09,3.09,0,0,1-.2-.78H162Z"/><path class="cls-5" d="M130.89,223.27h-2.64a1.51,1.51,0,0,1-2.54,0v0H103.23c-2.28,0-4.46,0-6.53,0l-5.89.09-9.58.15-8.35.14,8.35.15,9.58.15,5.89.09c2.07,0,4.26,0,6.53,0H131A3.69,3.69,0,0,1,130.89,223.27Z"/><path class="cls-5" d="M160.84,187.88H129.41a3,3,0,0,1,.1.33l2.3.17a2.33,2.33,0,0,1,0,.28h29.33Z"/><path class="cls-5" d="M97.06,157.83l-12.57,0,.13.14,12.07,0A2.89,2.89,0,0,1,97.06,157.83Z"/><path class="cls-5" d="M117.93,218.21c-5.22,0-10.15,0-14.7.06l-12.42.09-9.58.1-8.35.12v.08l8.35.12,9.58.1,12.42.09c4.55,0,9.48.06,14.7.06h20.38a9.29,9.29,0,0,1-1.14-.78H117.93Z"/><path class="cls-5" d="M161.27,203.06l-15.49,0c-.08.2-.17.4-.28.62a4.07,4.07,0,0,1-.35-.61l-10.82,0-31.11.12c-9.11,0-16.69.12-22,.15l-8.35.07,8.35.06c5.31,0,12.9.12,22,.15l31.11.12,27,0Z"/><path class="cls-5" d="M205.66,229.1c5.69,0,11.19,0,16.41,0l14.7-.06h.36a1.64,1.64,0,0,1,.08-.61h-.44l-14.7-.06c-5.22,0-10.72,0-16.41,0l-17.55,0-18.12.05-97.12.27v.08L170,229l18.12.05Z"/><path class="cls-5" d="M73,168h0l8.26.06c5,0,12.08.11,20.53.15a1.63,1.63,0,0,1,.91-.43c-8.85,0-16.24.12-21.44.15Z"/><path class="cls-5" d="M84.12,157.86H82.35l0,.13H84Z"/><path class="cls-5" d="M78.54,157.88h-.87l-.1.1h1.09Z"/><path class="cls-5" d="M75.58,157.89h-2.7V158h2.8Z"/><path class="cls-5" d="M129.39,188.24h.14v0h-.15Z"/><path class="cls-5" d="M258.55,233.84l8.57,0v-.08l-8.57,0Z"/><path class="cls-5" d="M249.19,228.5l-10.92-.08a.79.79,0,0,1,0,.6l11-.08,9.58-.09,8.35-.1v-.08l-8.35-.09Z"/><path class="cls-5" d="M256.44,233.71,170,233.46l-18.11-.06-17.55,0c-5.69,0-11.19,0-16.41,0l-14.7.06-12.42.09-9.58.09-8.35.09v.08l8.35.09,9.58.09,12.42.09,14.7.06c5.22,0,10.72,0,16.41,0l17.55,0,18.11-.06,86.44-.24Z"/><path class="cls-5" d="M74.85,163l6.37.07,9.58.09,6.93,0,.34-.54-7.27.05-9.58.09-6.45.07.08.08S74.85,163,74.85,163Z"/><path class="cls-5" d="M249.19,213.3l-12.42-.09c-4.55,0-9.48-.06-14.7-.06H205.66l-17.55.06-18.12.13-9.09.07-9,0c-6,0-11.86,0-17.55-.09s-11.19-.12-16.41-.12-10.15,0-14.7,0-8.73,0-12.42.07l-9.58.09-8.35.13v.08l8.35.12,9.58.09c3.7,0,7.87,0,12.42.06s9.48,0,14.7,0,10.72-.08,16.41-.12,11.57-.08,17.55-.09l9,0,9.09.07,18.12.13,17.55.06h16.41c5.22,0,10.15,0,14.7-.06l12.42-.09,9.58-.1,8.35-.11v-.08l-8.35-.12Z"/><path class="cls-5" d="M73,152.88l8.26.14,6.38.1a2.14,2.14,0,0,1-.19-.48l-6.19.1-8.26.14Z"/><path class="cls-5" d="M96.7,187.89l-5.89.09-9.58.15-8.35.14,8.35.15,9.58.15,5.89.09c2.07,0,4.26,0,6.53,0h22.49a2.4,2.4,0,0,1,0-.78H103.23C101,187.89,98.77,187.86,96.7,187.89Z"/><path class="cls-5" d="M249.19,218.35c-3.7,0-7.87,0-12.42-.06s-9.48,0-14.7,0-10.72.08-16.41.12-11.57.08-17.55.09l-9,0-9.09-.07-18.11-.13-5.54,0c-.92.47-1.26.47-1.93,0h-2.83c-.34.16-.76.33-1.27.55a1.19,1.19,0,0,1-.47-.56h-1.5V219l13.54,0,18.11-.13,9.09-.07,9,0c6,0,11.86,0,17.55.09s11.19.12,16.41.12,10.15,0,14.7,0,8.73,0,12.42-.06l9.58-.09,8.35-.12v-.08l-8.35-.12Z"/><path class="cls-5" d="M249.19,223.37l-5.89-.09c-2.07,0-4.26,0-6.53,0H131.86v.78H236.77c2.28,0,4.46,0,6.53,0l5.89-.09,9.58-.15,8.35-.15-8.35-.15Z"/><path class="cls-5" d="M141.5,208.46H72.88v.08l8.35.11,9.58.13c3.7.05,7.87.11,12.42.13l14.7.11c4.17,0,8.53.07,13,.09,0-.12.28-.34.36-.32a1,1,0,0,1,.59.33h2.44l35.66.09,35.66-.09c5.69,0,11.19-.05,16.41-.09l14.7-.11c4.55,0,8.73-.08,12.42-.13l9.58-.13,8.35-.11v-.08H144.25A5.37,5.37,0,0,1,141.5,208.46Z"/><path class="cls-5" d="M180,183.35l8.09,0h.3l-.14-.24h-.16l-7.94,0A1.49,1.49,0,0,1,180,183.35Z"/><path class="cls-5" d="M205.66,193.71h9.24a16.73,16.73,0,0,0-1.82-.78h-7.41l-17.55,0L170,193l-97.12.27v.08l97.12.27,18.12.06Z"/><path class="cls-5" d="M151.89,198l-17.55,0c-5.69,0-11.19,0-16.41,0l-14.7.06-12.42.09-9.58.09-8.35.1v.08l8.35.1,9.58.09,12.42.09,14.7.06c5.22,0,10.72,0,16.41,0l17.55,0,5.38,0a7.55,7.55,0,0,0-.38-.7Z"/><path class="cls-5" d="M151.89,182.87l-17.55-.06H117.93c-5.22,0-10.15,0-14.7.06L90.81,183l-9.58.1-8.35.12v.08l8.35.12,9.58.1,12.42.09c4.55,0,9.48.06,14.7.06h16.41l17.55-.06,4,0c-.29-.13-.57-.26-.78-.15a2.61,2.61,0,0,1,.32-.48Z"/><path class="cls-5" d="M72.88,178.12v.08l8.35.12,8.81.08a3.48,3.48,0,0,1,0-.49l-8.79.08Z"/><path class="cls-5" d="M160.91,178l-9,0c-6,0-11.86,0-17.55-.09s-11.19-.12-16.41-.12-10.15,0-14.7,0c-3.84,0-7.41,0-10.65,0a3.32,3.32,0,0,1,0,.54c3.24,0,6.8,0,10.63,0,4.55,0,9.48,0,14.7,0s10.72-.08,16.41-.12,11.57-.08,17.55-.09l9,0h1.89a2.36,2.36,0,0,1-.31-.27l0,0Z"/><path class="cls-5" d="M170,168.43h7a4.1,4.1,0,0,1-.44-.76H170l-35.66.05-31.11.12h-.35a1.64,1.64,0,0,1,.93.44l30.54.12Z"/><path class="cls-5" d="M72.88,173.06v.08l8.35.11,9.58.13c3.7.05,7.87.11,12.42.13l14.7.11c4.93,0,10.13.08,15.49.09a2.25,2.25,0,0,1,.46-.65Z"/></g></g><g class="cls-8"><path class="cls-5" d="M149.85,175.9c-5.48,0-11.55-.3-18.57-.92a6.86,6.86,0,0,1-1.62-13.33c14-4.74,17.63-14.35,20.83-22.83l.12-.31c5.31-14.05,16.47-19.1,25.14-19.13q1.18,0,2.32.08A7.62,7.62,0,0,1,179,117c3.23-5.92,10.84-19.8,12.45-21.86,1.8-2.32,9.16-9.53,15.74-15.41,6.79-6.07,90.45-70.65,91.15-71.18a11.64,11.64,0,0,1,6.95-2.42,8.5,8.5,0,0,1,6,2.37,9,9,0,0,1,1,12l-.24.34-.08.08L301.5,34.42c-19.56,25.37-56,72.59-60.78,78.57a93.88,93.88,0,0,1-15.29,15.35c-2,1.44-17.13,10.27-21.73,12.94l-.25.14-.26.11a7.91,7.91,0,0,1-1.48.48,26.09,26.09,0,0,1-5.22,18.53l-.11.15-.12.14a41.48,41.48,0,0,1-6.85,6.13c-9.06,6-21.79,8.89-39,8.94Z"/><path class="cls-5" d="M305.26,11.12a3.52,3.52,0,0,1,2.53.93,4,4,0,0,1,.39,5.52c-.13.13-65,84.31-71.36,92.29a88.56,88.56,0,0,1-14.37,14.46c-1.88,1.38-21.26,12.63-21.26,12.63a2.59,2.59,0,0,1-1,.24,1.77,1.77,0,0,1-1.74-1.41,18.49,18.49,0,0,0-4.88-8.74,19.7,19.7,0,0,0-9-4.88c-1.6-.44-1.94-1.49-1.22-2.73,0,0,10.49-19.26,12-21.22s8.52-8.85,15.13-14.76,89.2-69.69,90.81-70.9a6.76,6.76,0,0,1,4-1.42M175.84,124.38c5.6,0,10.89,1.53,14.87,5.48a21.05,21.05,0,0,1,1.81,27.65,37.49,37.49,0,0,1-5.89,5.3c-8.19,5.4-20,8.05-36.2,8.1h-.58c-5.37,0-11.33-.3-18.14-.9a1.86,1.86,0,0,1-.44-3.62c16.43-5.56,20.63-17.16,24-26.11,4.86-12.86,14.86-15.87,20.48-15.89h.08M305.26,1.12a16.69,16.69,0,0,0-10,3.46h0c-2.61,2-84.35,65.07-91.43,71.41-6.1,5.45-14.09,13.15-16.36,16.08-.48.62-2,2.57-12.78,22.33-10.18.43-22.76,6.47-28.75,22.33l-.12.32c-3.08,8.16-6,15.88-17.74,19.86A11.86,11.86,0,0,0,130.89,180c7.11.63,13.33.93,19,.93h.62c18.16,0,31.79-3.24,41.66-9.75h0a46.07,46.07,0,0,0,7.81-7l.25-.28.23-.3a31,31,0,0,0,6.37-18.35c8.94-5.19,19.67-11.48,21.54-12.86a96.08,96.08,0,0,0,16.25-16.26c4.81-6,41.12-53.08,60.63-78.38l10.44-13.53.16-.16.49-.69A13.92,13.92,0,0,0,314.86,5l0,0,0,0a13.47,13.47,0,0,0-9.56-3.82Z"/><path class="cls-4" d="M305.26,11.12a3.52,3.52,0,0,1,2.53.93,4,4,0,0,1,.39,5.52c-.13.13-65,84.31-71.36,92.28a88.56,88.56,0,0,1-14.37,14.46c-1.88,1.38-21.26,12.63-21.26,12.63a2.59,2.59,0,0,1-1,.24,1.77,1.77,0,0,1-1.74-1.41,18.49,18.49,0,0,0-4.88-8.74,19.7,19.7,0,0,0-9-4.88c-1.6-.44-1.94-1.49-1.22-2.73,0,0,10.49-19.26,12-21.22s8.52-8.85,15.13-14.76,89.2-69.69,90.81-70.9a6.76,6.76,0,0,1,4-1.42M175.84,124.38c5.6,0,10.89,1.53,14.87,5.48a21.05,21.05,0,0,1,1.81,27.65,37.49,37.49,0,0,1-5.89,5.3c-8.19,5.4-20,8.05-36.2,8.1h-.58c-5.37,0-11.33-.3-18.14-.9a1.86,1.86,0,0,1-.44-3.62c16.43-5.56,20.63-17.16,24-26.11,4.86-12.86,14.86-15.87,20.48-15.89h.08M305.26,6.12a11.67,11.67,0,0,0-7,2.44c-.67.5-84.33,65.08-91.12,71.15-6.57,5.88-13.93,13.08-15.74,15.42-1.6,2-9.21,15.93-12.44,21.85a7.62,7.62,0,0,0-.9,2.47q-1.09-.07-2.22-.07h-.09c-8.68,0-19.84,5.08-25.15,19.13l-.12.31c-3.2,8.48-6.82,18.09-20.81,22.83A6.86,6.86,0,0,0,131.3,175c7,.61,13.06.91,18.55.91h.6c17.16,0,29.9-3,38.93-8.92a41.63,41.63,0,0,0,6.87-6.15l.12-.14.11-.15A26.08,26.08,0,0,0,201.71,142a8,8,0,0,0,1.48-.48l.26-.11.25-.14c4.6-2.67,19.77-11.49,21.72-12.93A94,94,0,0,0,240.72,113c4.78-6,41.07-53,60.56-78.3l10.64-13.8.08-.08.25-.35a9,9,0,0,0-.94-11.95,8.51,8.51,0,0,0-6.07-2.39Z"/><path class="cls-9" d="M308.18,17.58c-.13.13-65,84.31-71.36,92.28a88.56,88.56,0,0,1-14.37,14.46c-1.88,1.38-21.26,12.63-21.26,12.63a1.85,1.85,0,0,1-2.77-1.17,18.49,18.49,0,0,0-4.88-8.74,19.7,19.7,0,0,0-9-4.88c-1.6-.44-1.94-1.49-1.22-2.73,0,0,10.49-19.26,12-21.22s8.52-8.85,15.13-14.76,89.2-69.69,90.81-70.9c2.11-1.6,5-2,6.49-.5A4,4,0,0,1,308.18,17.58Z"/><path class="cls-10" d="M175.77,124.38c-5.63,0-15.62,3-20.48,15.89-3.37,8.95-7.58,20.55-24,26.11a1.86,1.86,0,0,0,.44,3.62c7.05.62,13.19.92,18.71.9,16.18,0,28-2.7,36.2-8.1a37.49,37.49,0,0,0,5.89-5.3,21.05,21.05,0,0,0-1.81-27.65C186.72,125.89,181.39,124.36,175.77,124.38Z"/><path class="cls-11" d="M184.56,122.15a19.75,19.75,0,0,1,8.91,4.81l114.6-114.6c-.09-.11-.18-.22-.28-.32-1.49-1.47-4.37-1.11-6.49.5-1.62,1.21-84.21,65-90.81,70.9s-13.61,12.8-15.13,14.76-12,21.22-12,21.22C182.61,120.67,183,121.72,184.56,122.15Z"/><path class="cls-11" d="M228,119.46c.89-.86,1.85-1.81,2.86-2.86Z"/><path class="cls-12" d="M193.18,142.2c1,5.44-2.72,12.09-6.53,15.87-4.17,4.12-11.51,6.88-17.51,7.82,0,0,9.66-3.61,14.81-10S192.55,138.8,193.18,142.2Z"/><path class="cls-13" d="M155.28,140.27c-3.37,8.95-7.58,20.55-24,26.11a1.86,1.86,0,0,0-1.25,2c8.49.73,26,.73,37.22-7.79s18.87-14.85,23.47-30.73c-4-4-9.32-5.49-14.95-5.48S160.14,127.41,155.28,140.27Z"/><path class="cls-13" d="M178,126.82c-9.42-1.41-15.92,5-18.62,13.29-1.48,4.53-2.06,6.66-3.76,9.24s4-.74,7.36-9.49C166.78,129.88,183.87,127.7,178,126.82Z"/></g><path class="cls-4" d="M170,43.89A116.57,116.57,0,1,0,286.57,160.46,116.57,116.57,0,0,0,170,43.89ZM170,243a82.57,82.57,0,1,1,82.57-82.58A82.57,82.57,0,0,1,170,243Z"/><path class="cls-5" d="M82.54,100.15,82,100c-.12,0-.15-.11-.08-.2l3.35-4.6a.17.17,0,0,1,.24-.05l1.48.82a.13.13,0,0,1,0,.21l-2.28,3.13,4.07,3,.74-1,.18-.56c0-.12.11-.15.2-.08l1.73,1.26c.09.07.09.15,0,.22l-.48.34-.74,1,5.09,3.71.58.19c.12,0,.15.11.08.2l-1.26,1.73c-.07.09-.15.09-.22,0l-.36-.49Z"/><path class="cls-5" d="M92.48,86.77a.25.25,0,0,1,.21-.09l1.15,0a.25.25,0,0,1,.22.07l10.22,9.38a.25.25,0,0,1,.09.21l0,1.15a.25.25,0,0,1-.07.22l-2.57,2.8a.25.25,0,0,1-.21.09l-1.15,0a.25.25,0,0,1-.22-.07L90,91.15a.25.25,0,0,1-.09-.21l0-1.15a.25.25,0,0,1,.07-.22Zm.88,2L92,90.29l8.9,8.17L102.26,97Z"/><path class="cls-5" d="M109.89,92.11c.11.06.12.14,0,.22l-1.62,1.4c-.09.08-.17.05-.21-.06l-.23-.55-9.55-11-.52-.32c-.11-.06-.12-.14,0-.22l3.77-3.27a.25.25,0,0,1,.22-.07l1.15.08a.25.25,0,0,1,.21.1l4.47,5.16a.25.25,0,0,1,.07.22l-.09,1.28,4.59,4,.74.47c.11.06.12.14,0,.22l-1.6,1.39c-.11.09-.19.07-.23,0l-.18-.46L106,86.39l-.76.66,4.12,4.76ZM104,85.53l1.53-1.33-3.3-3.81-1.53,1.33Z"/><path class="cls-5" d="M115.61,74.69l.9,4a.18.18,0,0,1-.08.22l-.54.36a.18.18,0,0,1-.23,0l-3.4-2.39,5.5,8.29.46.36c.1.07.1.16,0,.22L116.43,87c-.1.06-.17,0-.2-.09l-.15-.57L108,74.17l-.48-.38c-.1-.07-.1-.16,0-.22l1.61-1.07a.18.18,0,0,1,.23,0l4.56,3.29-1.28-5.47a.18.18,0,0,1,.08-.22L114.35,69c.1-.06.17,0,.2.09l.17.59,8.07,12.16.46.36c.1.07.1.16,0,.22l-1.79,1.19c-.1.06-.17,0-.2-.09l-.15-.57Z"/><path class="cls-5" d="M128.65,62.58l-.38-.45c-.06-.1,0-.18.06-.22L133,60.09a.25.25,0,0,1,.23,0l1.06.46a.25.25,0,0,1,.16.16l5,12.92a.25.25,0,0,1,0,.23L139,74.93a.25.25,0,0,1-.16.16l-4.65,1.82c-.11,0-.18,0-.2-.12l0-.61ZM131,63l4.4,11.25,1.87-.73-4.4-11.25Z"/><path class="cls-5" d="M149.77,71.67c0,.12,0,.18-.14.21l-5.5,1.45c-.11,0-.18,0-.16-.15l0-.61-3.71-14.11L140,58c-.07-.1,0-.18.07-.21l5.5-1.45c.11,0,.17,0,.22.11l.63,1.57a.13.13,0,0,1-.09.19l-3.74,1L143.83,64,145,63.7l.52-.33c.1-.07.18,0,.21.07l.55,2.07c0,.11,0,.18-.15.16l-.61,0-1.22.32,1.28,4.87,3.74-1a.13.13,0,0,1,.18.12Z"/><path class="cls-5" d="M158.18,57.43l.26.53c.06.11,0,.18-.09.2l-2.12.3c-.12,0-.17,0-.17-.16l.11-.58L156,56.47l-2,.28.64,4.5,3.45.87a.31.31,0,0,1,.18.12l.62.73a.33.33,0,0,1,.1.2l.84,5.84a.25.25,0,0,1-.06.22l-.69.92a.25.25,0,0,1-.19.12l-3.76.54a.25.25,0,0,1-.22-.06l-.95-.69a.25.25,0,0,1-.12-.19l-.3-2.12-.26-.53c0-.11,0-.19.11-.2l2.12-.3c.12,0,.17,0,.14.17l-.11.58.18,1.25,2-.28-.65-4.5-3.42-.88a.31.31,0,0,1-.18-.12l-.65-.73a.33.33,0,0,1-.1-.2l-.84-5.86a.25.25,0,0,1,.06-.22l.72-.93a.25.25,0,0,1,.19-.12l3.76-.54a.25.25,0,0,1,.22.06l.92.69a.26.26,0,0,1,.12.19Z"/><path class="cls-5" d="M166.73,68.94l.21.55c.05.11,0,.19-.11.19l-2.14.1c-.12,0-.17-.06-.13-.18l.16-.57-.67-14.58-.21-.57c-.05-.11,0-.19.11-.19l2.14-.1c.12,0,.17.06.13.18l-.16.59Z"/><path class="cls-5" d="M172.52,69.64a.25.25,0,0,1-.2-.1l-.78-.86a.25.25,0,0,1-.08-.21l.68-13.86a.25.25,0,0,1,.1-.21l.86-.77a.25.25,0,0,1,.21-.08l3.8.19a.25.25,0,0,1,.2.1l.78.86a.25.25,0,0,1,.08.21l-.11,2.14.16.57c0,.12,0,.19-.13.18L176,57.7c-.12,0-.16-.08-.11-.19l.21-.55.06-1.26-2-.1-.59,12.06,2,.1.2-4-.42,0c-.09,0-.14-.05-.16-.15l-.29-1.72c0-.12,0-.18.15-.18l2.89.14c.12,0,.16.08.11.19l-.22.57-.3,6.17a.25.25,0,0,1-.1.2l-.85.77a.25.25,0,0,1-.21.08Z"/><path class="cls-5" d="M184.29,70l.09.58c0,.12,0,.18-.15.16l-2.11-.36c-.12,0-.15-.1-.08-.2l.28-.52,2.42-14.39-.09-.61c0-.12,0-.18.15-.16l1.91.32a.15.15,0,0,1,.14.17l.54,8.86,1.33-7.91-.09-.61c0-.12,0-.18.15-.16l2.11.36c.12,0,.15.1.08.2l-.28.54-2.42,14.39.09.58c0,.12,0,.18-.15.16l-1.91-.32a.15.15,0,0,1-.14-.17l-.54-8.86Z"/><path class="cls-5" d="M209.08,61.49,205.6,75.66l-.06.93c0,.13-.07.17-.18.13l-2-.76c-.13-.05-.15-.13-.06-.22l.32-.38,1-3.52-1.46.29-1.28,2.56,0,.49c0,.13-.07.17-.18.13l-2-.77c-.11,0-.13-.12,0-.22l.58-.73,6.88-12.87,0-.39c0-.13.07-.17.18-.13l2,.77c.11,0,.13.12,0,.22ZM204.23,70l.95-.19,1-3.8Z"/><path class="cls-5" d="M223.7,69.29l-8.17,11.64-.1.58c0,.12-.09.16-.19.11l-1.9-1c-.1-.05-.11-.14,0-.23l.15-.13,3.32-8.32-5,7.41,0,.2c0,.12-.09.16-.21.1l-1.87-1c-.1-.05-.11-.14,0-.23L210,78l5.06-13.28.2-1.13c0-.12.09-.16.19-.11l1.9,1c.1.05.11.14,0,.22l-.28.28-3.26,8.14,4.89-7.2.08-.46c0-.12.09-.16.19-.11l1.94,1c.1.05.11.14,0,.22l-.33.33L217.43,75l4.93-7.26.07-.38c0-.12.09-.16.19-.11l1.9,1c.1.05.11.14,0,.22Z"/><path class="cls-5" d="M231.72,73.8l-6.8,12.91-.28.89c0,.12-.11.15-.2.09l-1.74-1.21c-.11-.08-.11-.16,0-.23l.4-.29,1.8-3.18-1.49-.07-1.86,2.17-.15.46c0,.12-.11.15-.2.09l-1.76-1.23c-.09-.07-.09-.15,0-.22l.74-.57L230,72.57l.12-.37c0-.12.11-.15.2-.09L232,73.34c.1.07.09.15,0,.22ZM225,80.86l1,0,1.92-3.44Z"/><path class="cls-5" d="M229.55,91.62c0,.12-.12.14-.21.06l-1.61-1.42c-.09-.08-.08-.16,0-.22l.51-.3,9.64-11,.24-.56c0-.12.12-.14.21-.06l3.74,3.3a.25.25,0,0,1,.1.21l.07,1.15a.25.25,0,0,1-.07.22l-4.51,5.13a.25.25,0,0,1-.21.1l-1.28.08-3.33,5.08-.36.8c0,.12-.12.14-.21.06l-1.59-1.4c-.1-.09-.09-.18,0-.23l.43-.24L234.69,87l-.75-.66-4.16,4.72Zm5.71-6.77,1.52,1.34,3.33-3.78-1.52-1.34Z"/><path class="cls-5" d="M247,87.25l.29-.51c.07-.1.15-.11.23,0l3.34,3.71a.25.25,0,0,1,.07.22l-.06,1.15a.25.25,0,0,1-.09.21l-10.31,9.28a.25.25,0,0,1-.22.07l-1.15-.06a.25.25,0,0,1-.21-.09l-3.34-3.71c-.08-.09-.06-.17,0-.23l.56-.25Zm.42,2.35-9,8.08,1.34,1.49,9-8.08Z"/><path class="cls-5" d="M256.33,103l-.35.48c-.07.11-.15.11-.22,0l-1.24-1.75c-.07-.1,0-.17.07-.22l.56-.17,1-.73L255,99l-3.71,2.63.8,3.46a.31.31,0,0,1,0,.21l-.37.89a.32.32,0,0,1-.13.18l-4.81,3.41a.25.25,0,0,1-.22,0l-1.14-.19a.25.25,0,0,1-.2-.12l-2.2-3.1a.25.25,0,0,1,0-.23l.18-1.16a.25.25,0,0,1,.12-.2l1.75-1.24.35-.48c.08-.09.17-.09.23,0l1.24,1.75c.07.09,0,.17-.08.2l-.56.17-1,.73,1.16,1.64L250,105l-.79-3.44a.31.31,0,0,1,0-.21l.35-.91a.33.33,0,0,1,.13-.18l4.83-3.43a.25.25,0,0,1,.22,0L256,97a.25.25,0,0,1,.2.12l2.2,3.1a.25.25,0,0,1,0,.23l-.19,1.14a.25.25,0,0,1-.12.2Z"/><path class="cls-5" d="M154.35,262.15c.12,0,.15.1.08.2l-.28.52-.56,3.07c0,.11-.08.15-.19.13l-5.62-1c-.11,0-.15-.08-.13-.19l1.4-7.64a.25.25,0,0,1,.13-.19l1-.66a.25.25,0,0,1,.22-.05l2.87.53.91-5-2-.37-.23,1.24.08.58c0,.12,0,.18-.15.16l-2.11-.39c-.11,0-.15-.1-.08-.2l.28-.52.39-2.11a.25.25,0,0,1,.13-.19l1-.68a.25.25,0,0,1,.22-.05l3.74.69a.25.25,0,0,1,.19.13l.65,1a.25.25,0,0,1,.05.22l-1.23,6.7a.25.25,0,0,1-.13.19l-.95.66a.25.25,0,0,1-.22.05l-2.87-.53-.91,4.93,2,.37.23-1.24-.08-.58c0-.12,0-.18.15-.16Z"/><path class="cls-5" d="M167.54,251.2a.25.25,0,0,1,.2.1l.78.85a.25.25,0,0,1,.08.21L168,266.22a.25.25,0,0,1-.1.2l-.85.78a.25.25,0,0,1-.21.08l-3.8-.18a.25.25,0,0,1-.2-.1l-.78-.85a.25.25,0,0,1-.08-.21l.65-13.86a.25.25,0,0,1,.1-.2l.85-.78a.25.25,0,0,1,.21-.08Zm-1,2-2-.09L164,265.15l2,.09Z"/><path class="cls-5" d="M178.19,266.24l.22.57c0,.11,0,.19-.13.19l-2.14.14c-.12,0-.17-.06-.13-.18l.15-.59-.83-12.82-.81.05c-.12,0-.17-.06-.15-.18l.51-2.23a.18.18,0,0,1,.18-.15l2-.13c.12,0,.17,0,.17.15Z"/><path class="cls-5" d="M192,264.3l.29.54c.07.11,0,.18-.08.2l-2.11.39c-.11,0-.17,0-.15-.16l.08-.61-1.13-6.17L186,259a.25.25,0,0,1-.22-.05l-.95-.66a.25.25,0,0,1-.13-.19L183.45,251l-.29-.54c-.07-.11,0-.18.08-.2l2.11-.39c.11,0,.17,0,.17.16l-.08.61,1.13,6.19,2-.36-1.13-6.19-.29-.54c-.07-.11,0-.18.08-.2l2.11-.39c.11,0,.17,0,.15.16l-.08.61Z"/><path class="cls-14" d="M80.75,116.27a99.64,99.64,0,0,0,54.69,137.6"/><path class="cls-14" d="M204,254.06a99.65,99.65,0,0,0,55.46-137.3"/><circle class="cls-15" cx="80.75" cy="116.27" r="2.91"/><circle class="cls-15" cx="135.45" cy="253.87" r="2.91"/><circle class="cls-15" cx="259.49" cy="116.76" r="2.91"/><circle class="cls-15" cx="204.03" cy="254.06" r="2.91"/><path class="cls-3" d="M63.14,245.53a2.5,2.5,0,0,1-2.42-1.86L46.15,188.53a2.5,2.5,0,0,1,2.42-3.14H291.43a2.5,2.5,0,0,1,2.42,3.14l-14.57,55.14a2.5,2.5,0,0,1-2.42,1.86Z"/><path class="cls-4" d="M291.43,187.89,276.86,243H63.14L48.57,187.89H291.43m0-5H48.57a5,5,0,0,0-4.83,6.28l14.57,55.14A5,5,0,0,0,63.14,248H276.86a5,5,0,0,0,4.83-3.72l14.57-55.14a5,5,0,0,0-4.83-6.28Z"/><path class="cls-4" d="M92.9,215V228H85.6V201.47h5.69L102,215V201.47h7.3V228h-5.8Z"/><path class="cls-4" d="M125.1,228.27a11.5,11.5,0,0,1-5.18-1.16,13,13,0,0,1-4-3.05,13.87,13.87,0,0,1-2.58-4.32,14.1,14.1,0,0,1-.92-5,13.74,13.74,0,0,1,1-5.05,13.44,13.44,0,0,1,2.68-4.29,13.15,13.15,0,0,1,4.06-3,11.93,11.93,0,0,1,5.15-1.1,11.51,11.51,0,0,1,5.18,1.16,12.8,12.8,0,0,1,4,3.07,13.82,13.82,0,0,1,2.57,4.34,14.27,14.27,0,0,1,.9,5,13.59,13.59,0,0,1-1,5,13.83,13.83,0,0,1-2.64,4.27,12.86,12.86,0,0,1-4,3A11.86,11.86,0,0,1,125.1,228.27Zm-5.28-13.48a10.5,10.5,0,0,0,.32,2.6,6.79,6.79,0,0,0,1,2.23,5.32,5.32,0,0,0,1.68,1.57,5,5,0,0,0,4.75,0,5.07,5.07,0,0,0,1.65-1.61,7.54,7.54,0,0,0,1-2.26,10.68,10.68,0,0,0,.32-2.58,10,10,0,0,0-.34-2.6,7.15,7.15,0,0,0-1-2.21,5,5,0,0,0-1.66-1.53,4.65,4.65,0,0,0-2.36-.58,4.52,4.52,0,0,0-2.38.6,5.14,5.14,0,0,0-1.65,1.59,7.29,7.29,0,0,0-1,2.25A10.38,10.38,0,0,0,119.82,214.79Z"/><path class="cls-4" d="M161.15,228V214l-4.45,9.85H152.8L148.34,214v14H141V201.47h8l5.73,12.5,5.77-12.5h7.94V228Z"/><path class="cls-4" d="M173,228V201.47h7.3V228Z"/><path class="cls-4" d="M192.18,215V228h-7.3V201.47h5.69L201.24,215V201.47h7.3V228h-5.8Z"/><path class="cls-4" d="M232,221.68V228H213.11V201.47h18.6v6.36h-11.3v3.74h9.66v5.91h-9.66v4.19Z"/><path class="cls-4" d="M254.4,221.68V228H235.45V201.47h18.61v6.36h-11.3v3.74h9.66v5.91h-9.66v4.19Z"/></svg>