<svg id="Layer_1" data-name="Layer 1" xmlns="http://www.w3.org/2000/svg" viewBox="0 0 425 465.18"><defs><style>.cls-1{fill:#1b75bb;}.cls-2{fill:none;}.cls-3{fill:#fff;}.cls-4{fill:#ffdb00;}.cls-5{fill:#15284b;}</style></defs><title>Artboard 7</title><rect class="cls-1" width="425" height="465.18"/><path class="cls-2" d="M249.59,320.76c-2.37-1.68-6-.34-5.46,2.81.17,1,.65,2.4,1.71,2.83a5.21,5.21,0,0,0,2.9,0,2.94,2.94,0,0,0,1.79-1c.44-.73-.27-1.18-.45-1.88S250.37,321.35,249.59,320.76Z"/><path class="cls-2" d="M318.21,300.31c-.73-.9-2.3,0-3.17.29a3.67,3.67,0,0,0-2.06,5.27,2.11,2.11,0,0,0,2.61,1.19,16.83,16.83,0,0,0,2.83-1l.25-.16c.57-.42.46-1,.14-1.74C318.37,303.09,318.86,301.14,318.21,300.31Z"/><path class="cls-2" d="M206.77,317.34a1.17,1.17,0,0,0-.83-.45c-.44,0-.77.38-1.42.47a5.1,5.1,0,0,0-3.45,1.94,4,4,0,0,0,0,4.85c1.69,1.87,3.66-.05,5.43-.52.24-.06.55-.06.82-.11a.73.73,0,0,0,.56-.41c.25-.59-.53-1.51-.69-2C206.86,319.84,207.13,318.35,206.77,317.34Z"/><path class="cls-3" d="M327.83,263.88a24.88,24.88,0,0,0-4.15-3.75,7.9,7.9,0,0,1-.83-.89,7.78,7.78,0,0,0-2.3-1.43,12.87,12.87,0,0,1-3.57-2.94c-.41-.42-.9-1.07-1.53-1l-.22,0c-1.59.4-2,3.75-2.69,4.94-.5.84-1.17,1.65-1.64,2.49a4.07,4.07,0,0,1-2.5,2,13.45,13.45,0,0,1-3.91.89,11.7,11.7,0,0,1-1.6-.36,17.42,17.42,0,0,0-2.3-.48,8.17,8.17,0,0,1-5-2.09c-.34-.28-2.6-2.35-1.88-2.83,0-.08,3.11-1,3.4-1a8.88,8.88,0,0,0,2.12-.38,9.7,9.7,0,0,1,1.93-.86,11.71,11.71,0,0,0,2.29-.47,14.92,14.92,0,0,1,3.2-1,29.5,29.5,0,0,0,3.24-.85c.62-.16,1.51-.35,1.93-.4a12.43,12.43,0,0,1,1.74-.15c.52,0,1,.32,1.52.25a.55.55,0,0,0,.15,0c.56-.16.72-.87,1.08-1.26s.87-.49.79-1.23c-.11-1-.48-1.94-.61-2.93a33,33,0,0,0-3.1-9.1,8.32,8.32,0,0,0-1.23-1.84c-.55-.68-1.06-1.37-1.63-2a12.69,12.69,0,0,0-3-2.83c-1.34-.83-2.42-2.3-4-2.66a12.58,12.58,0,0,1-1.69-.37,9.12,9.12,0,0,0-1.91-.64,34.69,34.69,0,0,0-5.46-.58c-.91,0-1.79.18-2.68.19s-1.5-.11-2.25,0a15.38,15.38,0,0,0-4.66,1.54c-1.13.56-2.23,1.19-3.38,1.71s-2,1.59-3.06,2.32a9.65,9.65,0,0,0-1.87,1.29c-.52.53-.9,1.16-1.42,1.68a17.45,17.45,0,0,0-2.7,3.13,23.34,23.34,0,0,0-1.72,3.69,14.84,14.84,0,0,0-1,5.34c0,1.49,0,3-.08,4.48a18.13,18.13,0,0,0,.39,3.63c.12.89-.1,1.76.09,2.67.45,2,1.65,4,1.93,6s1.83,4.46,3.12,6.12c.65.83,1.27,1.64,2,2.52a11.55,11.55,0,0,0,4.49,3.9c1.75.73,3.69,1,5.35,2A12.39,12.39,0,0,0,291.6,282c.85.1,1.72-.06,2.6.07s1.51.38,2.28.49a35.93,35.93,0,0,0,4.74.35,45.43,45.43,0,0,0,10.28-1.95,22.44,22.44,0,0,0,10.07-5.42c.29-.29.69-.48,1-.76a15.39,15.39,0,0,0,3.06-3.68c.49-.85,1.07-2.73,2.26-2.77.49,0,.9.18,1.28-.26C330.39,266.64,328.71,264.9,327.83,263.88Zm-2.43,3.28a10,10,0,0,1-1.68,2.31,13.87,13.87,0,0,0-1.72,1.48,13.78,13.78,0,0,1-3.5,3.4,22.14,22.14,0,0,1-4.8,2.7c-1.26.51-2.59.77-3.9,1.16s-2.58.91-3.91,1.21a17.7,17.7,0,0,1-3.8.25c-1.1,0-2.35.42-3.43.14-3.58-.91-7.29-.84-10.69-2.51-1.2-.59-2.46-.81-3.67-1.36a20.84,20.84,0,0,1-4.24-2.88,11.14,11.14,0,0,1-3.28-4.25,13.13,13.13,0,0,0-1.17-2.29,12,12,0,0,1-2-4.64c-.16-1.15-.75-2.44-.91-3.63a25.69,25.69,0,0,1-.51-5.72c.1-1.08.28-2.14.35-3.22a12.39,12.39,0,0,1,.57-3.24c.39-1.15,1.12-2.24,1.58-3.41a10.63,10.63,0,0,1,1.94-3.42,20.9,20.9,0,0,1,10.3-7.24c.71-.24,1.46-.27,2.18-.48a26.75,26.75,0,0,1,6.7-.74,9.54,9.54,0,0,1,2.85.53c1.07.28,2.16.44,3.21.82a17.26,17.26,0,0,1,7.29,5.3,18.56,18.56,0,0,1,3.3,5.24,16.93,16.93,0,0,1,.94,3.41,8.23,8.23,0,0,1,.2,2.83c-.25,1.19-1.16,1.24-2.18,1.64a30.06,30.06,0,0,1-5.19,1.7c-1.54.31-3,.94-4.6,1.16-2,.27-3.71,1.41-5.66,1.75a40.2,40.2,0,0,0-4,.51,4,4,0,0,0-1.68.8c-.52.7.26,1.45.35,2.16.22,1.59,1.65,3,2.45,4.37a4.28,4.28,0,0,0,1.9,1.88c1,.36,1.94.65,2.9,1a21.34,21.34,0,0,0,3.49.77,16.46,16.46,0,0,0,3.58.6,14.62,14.62,0,0,0,3-.53c.88-.22,1.81-.28,2.67-.58,1.42-.5,2.39-2.23,3.08-3.47a27.13,27.13,0,0,1,2.46-4.18c.64-.09,1.79.78,2.33,1.1l.75.36c1.64.83,2.69,2.35,4,3.54C324.38,264.44,326.18,265.7,325.39,267.16Z"/><path class="cls-3" d="M293.84,248.08c.52,0,.87-.55,1.27-.8a5.71,5.71,0,0,1,1.57-.55,19.66,19.66,0,0,0,3.56-1.41c1.51-.78,3.36-2.12,1.48-3.81a15.16,15.16,0,0,1-2-1.75c-.45-.54-1-1.39-1.83-1.27-.12,0-.21-.21-.37-.22a3.81,3.81,0,0,0-.4.06c-.3,0-.62.08-.93.13a3.9,3.9,0,0,0-.9.47c0,.15-.54.09-.65.16s-.45.54-.47.55a9,9,0,0,0-1,.95,7.52,7.52,0,0,0-.67,1.34c-.15.41,0,.89-.19,1.29-.46,1.15-1,1.94-.59,3.2A2.2,2.2,0,0,0,293.84,248.08Zm1-4.37c.27,0,.3-1.42.81-1.49a1.88,1.88,0,0,1,1-.54c.89-.23,2.43.35,2.48,1.15.16.46-2.16.85-2.41.89s-.93.54-1.28.59-.3-.1-.56-.06C294.78,244.27,294.71,243.73,294.82,243.71Z"/><path class="cls-3" d="M272.53,279.61c-.34-.39-.46-.83-.87-1.19s-1.13-.59-1.61-1-1-.93-1.53-1.36a11.24,11.24,0,0,0-1.89-1.15,49.7,49.7,0,0,1-5.7-4.21c-.82-.64-1.62-1.3-2.38-2-1-.9-2.27-3.39-3.83-3-.79.16-1,.67-1.47,1.23a13.75,13.75,0,0,1-3.33,2.65,6.27,6.27,0,0,1-5.12,1c-2.09-.67-2.32-2.53-2.58-4.43-.18-1.32.95-2.79,1.87-3.56,1.42-1.19,2.8-.73,4.42-.38.21-.08,1,.43,1.06.66s0,.57.11.81a1.35,1.35,0,0,0,1.62.88c1.44-.2,2.14-2.41,2.85-3.44s1.53-2.34,2.37-3.46c1.63-2.18,4-4.11,5.26-6.52a9.8,9.8,0,0,1,.95-1.7c.65-.77,1.72-.91,1.79-2.07,0-.29-.47-1.71-.39-1.82-.18,0-.46-.49-.55-.48-.36.05-2.2-2.13-2.46-2.38-.66-.69-1.18-.69-2-1.19s-.93-1.26-1.62-1.78a22,22,0,0,0-7.67-3.2,15.87,15.87,0,0,0-4-.61,42.55,42.55,0,0,0-4.45.48c-.28,0-1.09.29-1.6.36-.7.1-1,.42-1.64.5-1.19.17-1.68.78-2.88,1a5.73,5.73,0,0,0-1.33.72,30.84,30.84,0,0,0-6.73,4.77c-.51.49-1,.82-1.54,1.3s-1,1.44-1.6,2a8.65,8.65,0,0,0-1.4,1.43c-.9,1.4-2,2.69-2.92,4.11a10.63,10.63,0,0,0-1.38,2c-.32.93-.52,1.89-.88,2.8a14,14,0,0,0-1,2.68,18.39,18.39,0,0,0-.15,3.1,12.88,12.88,0,0,0,.08,3.76c.23.78.43,1.49.61,2.35a31.41,31.41,0,0,0,2.11,5.54,24.42,24.42,0,0,0,3.33,5.93c.54.65,1.1,1.3,1.59,2a23.13,23.13,0,0,1,1.56,2.29c.6,1,1.77,1.54,2.36,2.56a7.23,7.23,0,0,0,2.38,2.48,26.08,26.08,0,0,0,3.31,2.19,24,24,0,0,0,3.4,1.8,11.14,11.14,0,0,0,1.75.2,12.14,12.14,0,0,0,1.55.47c1.88.06,3.68.47,5.61.46a30.15,30.15,0,0,0,6.64-.28,35.66,35.66,0,0,0,5.07-1.49,5.19,5.19,0,0,1,.84-.39,3,3,0,0,0,.9-.14,34.58,34.58,0,0,0,3.5-2,25,25,0,0,0,4.85-3.82c1-1.13,2.22-2.11,3.36-3.13.77-.7,2.43-1.85,2.47-3C273.69,279.92,272.82,279.94,272.53,279.61Zm-3.9,2.45c-1.69,1.2-2.84,3.3-4.49,4.61a15.6,15.6,0,0,1-2.54,1.91c0,.35-5.07,2.5-5.61,2.67a28.09,28.09,0,0,0-3.34.92c-1.83.82-4.28.73-6.23.62-1.69-.11-3.39-.26-5.09-.37a6,6,0,0,1-3.67-.92c-1.35-.94-3-1.4-4.36-2.28a19.57,19.57,0,0,1-2.5-2.14,18.9,18.9,0,0,1-2-2.12,14.27,14.27,0,0,1-1.17-1.33,22,22,0,0,0-1.12-2.1c-.49-.63-1-1.2-1.51-1.85a21.89,21.89,0,0,1-2.23-3.54c-.51-1.08-.82-2.26-1.33-3.35a14,14,0,0,1-.84-2.12,19.55,19.55,0,0,1-1-2.5c-.18-1.3-.54-1.88-.7-3.05a16.32,16.32,0,0,1,1.44-8.19,27,27,0,0,1,3-5,19.59,19.59,0,0,1,3.45-4.16,18.91,18.91,0,0,0,1.71-1.9c.57-.63,1.33-.94,1.91-1.52.36-.37.46-.63.94-.89.95-.52,2-.84,2.89-1.42a17.24,17.24,0,0,1,2.71-1.66,18.77,18.77,0,0,1,4.22-1.3,31.8,31.8,0,0,1,3.8-.09,21,21,0,0,1,2.8-.25,7,7,0,0,1,2.37.74c.87.41,1.88.51,2.74,1s1.6,1.13,2.49,1.6a18.84,18.84,0,0,1,2.3,1.22,3.49,3.49,0,0,1,1,.88c.23.37.24.85.52,1.19a2.66,2.66,0,0,0,.8.47c2.45,1.25-.67,4.08-1.45,5.41a39.12,39.12,0,0,1-3.09,3.82c-1.15,1.51-2.29,3-3.49,4.5-.39.48-.21.89-.95,1-.92.15-.88-.59-1.41-.9a5.53,5.53,0,0,0-5.19,0,8.91,8.91,0,0,0-4.09,3.47,7.73,7.73,0,0,0-.42,2.93,7.18,7.18,0,0,0,.38,3.51c.32.71,1,1.11,1.51,1.72a5.2,5.2,0,0,0,5,2.21l1.81-.25a5.38,5.38,0,0,0,3.18-1.5,10.61,10.61,0,0,1,1.27-.86c.31-.24.6-.66,1-.71.11,0,.51-.41.69-.51a1.47,1.47,0,0,1,.65-.23c1.21,0,2.19,1.32,2.77,2.21,1.14,1.76,3.25,2.66,5,3.68A20.55,20.55,0,0,1,267.8,279a11.44,11.44,0,0,1,1.75,1.81C269.42,280.87,268.78,282,268.63,282.06Z"/><path class="cls-3" d="M217.81,280.06c-.42-.52-1-.86-1.49-1.34a26.44,26.44,0,0,0-3.24-3,9.55,9.55,0,0,1-.94-.91c-1.06-1.07-2.67-1.52-3.79-2.56l-1.85-1.7c-.22-.2-1.29-.92-1.35-1.22,0-.12-.57-.13-.76-.1s-.23.24-.46.35c-1,.51-1.25,2-1.56,2.94a6.66,6.66,0,0,1-.58,1.57,16.92,16.92,0,0,1-1.15,1.9c-.44.55-.69,1.24-1.14,1.76-1.59,1.8-5,1.95-7.24,1.54-.76-.14-1.34-.32-2-.48-2.06-.49-3.73-.5-5.4-2-.32-.29-2.52-2.5-1.87-2.93.15.35,7.91-2.32,8.62-2.54a61.47,61.47,0,0,1,10.08-2.58c.7-.1,1.89.27,2.68.17a1,1,0,0,0,.51-.2c1.53-1.2,1.09-2.69.93-4.31a23.64,23.64,0,0,0-7.7-15.59,19,19,0,0,0-5.16-3.63,23.68,23.68,0,0,0-8.15-1.66c-3.72,0-7-.12-10.45,1.5a29.38,29.38,0,0,0-5.66,3.2c-.84.67-2.16,1.19-2.77,2a39.12,39.12,0,0,1-2.9,3.27,13,13,0,0,0-1.62,2.82,21.29,21.29,0,0,0-1.41,2.62,15.28,15.28,0,0,0-1,4.09,50.08,50.08,0,0,0,.32,10.32,32.81,32.81,0,0,0,.63,3.55,25.51,25.51,0,0,0,1.14,3.25,32,32,0,0,0,2.35,5.46,31.6,31.6,0,0,0,4.64,6.11c2.05,2,4.27,2.45,6.87,3.37,1.09.4,2,1.08,3.13,1.45a13.24,13.24,0,0,0,3.25.56c1.43.1,2.83.45,4.24.66a19.94,19.94,0,0,0,6.08.37,20.58,20.58,0,0,1,2.25-.12,26,26,0,0,0,4.77-1.21c1.71-.47,3.46-.84,5.12-1.46a32.58,32.58,0,0,0,3.77-2.17,10.23,10.23,0,0,0,3.3-2.27c.85-1,1.93-1.59,2.72-2.66s1.2-2.27,1.95-3.31c.29-.4.72-1,1.23-1.23s1.08.22,1.51-.11a2.69,2.69,0,0,0,.66-1.82,1.21,1.21,0,0,0-.15-.45A7.58,7.58,0,0,0,217.81,280.06Zm-2.95,2.06a17.94,17.94,0,0,1-2.93,3.66,30.72,30.72,0,0,1-2.87,2.69,27.15,27.15,0,0,1-10.49,5.39,31.93,31.93,0,0,1-10.42,1.21,38.55,38.55,0,0,1-7.16-1c-2.29-.55-4.27-1.75-6.52-2.38a11.56,11.56,0,0,1-1.86-.79,16.15,16.15,0,0,1-5.33-4.45,13.43,13.43,0,0,1-1.1-1.59c-.54-1.15-.93-2.27-1.59-3.37-.46-.73-.72-1.52-1.11-2.27a5.24,5.24,0,0,1-.7-2c-.16-1.15-.75-2.44-.91-3.63s-.21-2.5-.38-3.77a10,10,0,0,1-.13-1.91c.12-1.2.26-2.39.31-3.61,0-.47.27-.84.33-1.33a6.39,6.39,0,0,1,.6-2.42c1-1.86,1.47-3.76,2.82-5.46A22.4,22.4,0,0,1,168,252a9.94,9.94,0,0,1,1.09-1c1-.61,2-1.19,3-1.84a18.34,18.34,0,0,1,3.6-1.7,11.43,11.43,0,0,1,3.59-1,13.23,13.23,0,0,0,1.51,0,26.25,26.25,0,0,1,4.12-.36,13.2,13.2,0,0,1,3.88.83,4,4,0,0,0,1.19.14,4,4,0,0,1,1.79.7c.66.36,1.34.67,2,1a12,12,0,0,1,2.35,1.71,5,5,0,0,1,1.07,1,5.23,5.23,0,0,0,1.15,1.38,13.58,13.58,0,0,1,2.1,3A8.54,8.54,0,0,1,202,259.5c.05.37.35.81.45,1.23.3,1.21.82,3.85-.42,4.71a15.53,15.53,0,0,1-2.9,1.06c-2.21.79-4.53,1.09-6.73,1.88-1.57.57-3.33.85-4.95,1.32a24.3,24.3,0,0,1-3.44,1,14.45,14.45,0,0,0-3.54.54c-1.55.64-.83,1.52-.66,2.76a8.82,8.82,0,0,0,1.77,3.25,9.13,9.13,0,0,0,2.11,2.72,11.52,11.52,0,0,0,4.66,1.84,31.91,31.91,0,0,0,5.36.78,19.69,19.69,0,0,0,4.13-.72,6.5,6.5,0,0,0,2.71-.9,10.43,10.43,0,0,0,1.7-2.14c1.18-1.55,1.89-3.45,3.12-5,.94-.13,2.34,1.23,3.16,1.7a22.84,22.84,0,0,1,3.42,2.87c.89.77,2.76,1.79,2.94,3.07A2.14,2.14,0,0,1,214.87,282.12Z"/><path class="cls-4" d="M122,231.3l.44.09.61.12.54-.09a9.5,9.5,0,0,1,3.32.17h.15a17.86,17.86,0,0,1,2.17.11,25,25,0,0,1,6.44,1.71,27.8,27.8,0,0,1,6.6,4.09c.46.35.91.7,1.37,1a19.84,19.84,0,0,1,6.63,9.24q2.86,1.11,5.78,2a12.35,12.35,0,0,1,1.14-1.49q.48-.55,1-1a18.73,18.73,0,0,0,1.44-1.63,12.64,12.64,0,0,1,3.91-3.35l.34-.2A35.57,35.57,0,0,1,171,238a22.3,22.3,0,0,1,6.54-1.91,44.11,44.11,0,0,1,6.13-.31h1c.52,0,1.06,0,1.57,0a32.14,32.14,0,0,1,9.37,2.11,23.46,23.46,0,0,1,7,4.61l.45.39a28.45,28.45,0,0,1,5.9,7.17c1.29-.38,2.57-.8,3.83-1.27l.4-.51.11-.13c.59-.9,1.18-1.7,1.72-2.41.38-.51.78-1,1.13-1.57a12.76,12.76,0,0,1,2.29-2.59,14.22,14.22,0,0,1,1.87-2.28c.43-.4.87-.77,1.32-1.12l.25-.2a37.15,37.15,0,0,1,8.16-5.83,10.23,10.23,0,0,1,3.53-1.61,12.58,12.58,0,0,1,2.71-.91,10.23,10.23,0,0,1,2.14-.6l.16,0,.2-.06a41.76,41.76,0,0,0,7.08-22.78,63.45,63.45,0,0,0-1.12-13.86c-.46,10.45-8.28,18.41-17.59,22.25-7.52,3.09-15.15,2.91-21.44,8.58-6,5.39-10.8,10.38-19.23,9.74l-.85-.07c-8.84-1-16.61-5.56-23.31-11.21,5.53-2,16.47-8.47,8.65-17-6.67,3.21-11.9,13.64-18.39,19.63-2.63-9.88,4.13-18.74,9.41-26.69-.3-.5-4.38-4.11-5-5.1,6.64.8,10.35-4.94,12.29-9.51-11.52-4.45-21.68-14.48-23.26-27-2.93-22.55,13.79-48.3,38.25-47-7-2.27-19.66-6.33-34.73-.43C112.74,122.91,93.35,161,109.64,207.1A100.78,100.78,0,0,0,122,231.3ZM140.3,181c-1.17,1.4-2.89,1.57-3.87.44a3.84,3.84,0,0,1,.28-4.65c1.14-1.44,2.84-1.64,3.84-.46A3.81,3.81,0,0,1,140.3,181Zm-14.37-9.85c2.71-7.72,12-13.78,17.5-8.11,4.19,4.63-1.63,2.55-8.32,7.46-9.21,8-9.23,19.47-9.23,19.47A29.29,29.29,0,0,1,125.92,171.19Z"/><path class="cls-3" d="M182.86,261.13c.4-.05.37.17.87.1s1.49-.85,2-.92,4-.66,3.78-1.38c-.09-1.25-2.49-2.18-3.9-1.82a2.87,2.87,0,0,0-1.6.87c-.82.11-.87,2.26-1.29,2.32C182.57,260.32,182.69,261.15,182.86,261.13Z"/><path class="cls-3" d="M158.63,289c-.32-2-1.11-3.93-1.38-5.92a38.42,38.42,0,0,0-2.3-7.58,8.19,8.19,0,0,1-.71-2.43c0-1.63,1.93-6.27-.45-7-1.09-.32-1.43.44-2.09,1-2.07,1.77-6.48,1.16-9,1.47-3.84.46-7.76.7-11.57,1.23a40.08,40.08,0,0,1-7,.16l-1.28-.07c-1.25-.07-2.47.24-3.67.18-.93-.05-2.18-.93-3.07-.4a6.14,6.14,0,0,0-1.23,2.52c-.17,1,.44,1.08.88,1.88.72,1.33.61,3.75.83,5.22.14,1,.29,2,.44,3,.19,1.24-.26,2.51,0,3.72s1.54,2.32,2.69,1.85c.62-.24,1-.7,1.7-.91a15.06,15.06,0,0,1,2.44-.45,22.77,22.77,0,0,1,2.76-.62c2.11,0,.11,1.86-.61,2.22a15.52,15.52,0,0,1-3.16,1,11.7,11.7,0,0,1-5.34-.07c-1.38-.33-2.74-.94-4.11-1.34-2.11-.63-3.25-2.35-4.89-3.6a7.69,7.69,0,0,1-1.94-1.92,18.34,18.34,0,0,1-2.56-9.77,9.12,9.12,0,0,1,2.8-7.36c.92-.94,1.69-2,2.62-2.91a14.17,14.17,0,0,1,3.26-2.07,7.31,7.31,0,0,1,3.49-.54,10,10,0,0,1,3.49.49c1.19.46,4,2.91,3.86,4.35-.11,1-1.62,1.38-1.21,2.57a1.74,1.74,0,0,0,1.91.89,1.09,1.09,0,0,0,.23,0,13.39,13.39,0,0,0,3.16-1.61c1.08-.67,2.17-1.29,3.28-1.92,2-1.13,4-2.26,6-3.28.89-.42,1.82-.76,2.71-1.2.67-.34,1.32-1.27,2.13-1.2.85-.12,1.41,1.72,2.55.84,1.93-1.48.15-5.55-.51-7.23-1.08-2.73-2.1-5.51-4.56-7.29-2-1.46-4-3.27-6.33-4.22a17.55,17.55,0,0,0-4.45-1.19c-.74-.09-1.47-.06-2.2-.09s-1.53-.24-2.31-.3-1.62,0-2.44,0-1.84-.31-2.78-.29a48.59,48.59,0,0,0-12,2,36.87,36.87,0,0,0-5.89,2.36c-2.61,1.25-5.44,2.22-7.88,3.81a14.2,14.2,0,0,0-2.28,2.27c-1.2,1.25-2.18,2.71-3.32,4.05a26.2,26.2,0,0,0-1.69,2.69,17.29,17.29,0,0,0-2.87,7,18.69,18.69,0,0,0,.07,2.8c0,.12-.74,7.76-.66,7.78-.31,0-.37,7.65-.38,7.86a14.29,14.29,0,0,0,.73,6c.83,2,1.32,4.22,2.28,6.22a20.7,20.7,0,0,0,2.78,4.2c1.07,1.28,1.75,2.84,2.85,4.09A15.84,15.84,0,0,0,94,304.59a15.5,15.5,0,0,0,5.47,2.34c3.79.66,7.43,1.71,11.32,1.22a44,44,0,0,1,5.07-.12,17.3,17.3,0,0,0,4.5-.8c3.18-1,6.59-1.11,9.72-2.34,1.2-.48,1.91-1.41,3-2a8.89,8.89,0,0,0,4.46-6.35c0-.38.24-1.41.69-1.47.23,0,.81-.47.89.08.05.36.1.71.15,1.08.16,1.11-.54,2.48-.55,3.65,0,1.6.73,4.39-1,5.27-.61.29-1.44.9-1,1.65a2.12,2.12,0,0,0,1.69.81,11.44,11.44,0,0,0,4.33-1.29c4.26-1.91,9.21-2.68,13.78-3.57a4.1,4.1,0,0,1,1.74.05,2.38,2.38,0,0,0,2.49-1.58c.31-1.21-.85-2.08-1.06-3.21C159.06,295,159.1,292,158.63,289Zm-1.84,2.57c0,.52-.18,1.33-.17,1.79,0,.25,0,.84,0,.9,0,.35-.09.33,0,.68s.08,1.2.1,1.71c0,.88.65,2.18.1,3-.73,1.08-2.36.44-3.36.84a12.79,12.79,0,0,1-2.11.57c-1.73.41-3.41,1.1-5.15,1.54a31,31,0,0,0-3.44.92,3.72,3.72,0,0,1-.71.23c-.55.08-.45.26-.53-.39a3.18,3.18,0,0,1,.07-1.46,25.34,25.34,0,0,0,.19-3.57,13.6,13.6,0,0,0-.08-3.48c-.16-1.16.65-1.84-.74-2.48a3.84,3.84,0,0,0-2.62-.06c-.42.13-.29.45-.93.57-1.19.22-1.9-.49-2.34,1a19.57,19.57,0,0,0-.09,2.55,5.32,5.32,0,0,1-1.29,2.82c-2.35,2.53-5.29,3.25-8.47,4a14.49,14.49,0,0,1-1.84.53,31.11,31.11,0,0,0-3.21.58,28.75,28.75,0,0,1-3.7.91c-1.43.2-2.89-.08-4.31.15a16.35,16.35,0,0,1-3,.2,38.06,38.06,0,0,1-9.17-1.25c-.53-.16-1-.42-1.52-.61s-1.08-.15-1.59-.34a5.84,5.84,0,0,1-1.15-.69,21.32,21.32,0,0,1-2-1.66,20.05,20.05,0,0,1-3.43-4.4c-.83-1.45-1.88-2.78-2.75-4.21a16,16,0,0,1-1.3-3.26,15.19,15.19,0,0,1-1-3.12c-.12-1.1,0-2.19-.12-3.27s-.39-2.35-.42-3.54a57.8,57.8,0,0,1,.36-6.94c.17-1.74.29-3.48.45-5.22s.2-3.62.51-5.37a9.64,9.64,0,0,1,1.71-3.54c.26-.42.36-1,.6-1.45a25.3,25.3,0,0,1,1.34-2.45,28.76,28.76,0,0,1,2.58-2.94,21.41,21.41,0,0,1,3.6-2.59c1.33-.89,2.67-1.77,4.06-2.56,1-.57,2-1.15,3.07-1.62a26.71,26.71,0,0,1,5-1.39c3.57-.84,7.05-1,10.66-1.52a19.3,19.3,0,0,1,2,.14c1.76.18,3.47.21,5.24.28a21.08,21.08,0,0,1,3.63.68,21.62,21.62,0,0,1,6.19,2.86c2.27,1.31,4.94,4.29,5.31,7,.06.43,1,3.07.57,3.14-.05.1-.05.14,0,.13a1.61,1.61,0,0,1-.83.39c-.38.05-.78.5-1.12.67s-.85.31-1.26.52c-.59.29-1.16.67-1.75,1-1.32.69-2.56,1.55-3.94,2.14-2,.84-5.63,4.36-7.41,1.8-.68-1-1-2.36-2-3.08-3.25-2.33-7.19-2.21-10.94-1.31-2.21.54-3.8,2.16-5.5,3.54a21.68,21.68,0,0,0-1.67,1.63,20.77,20.77,0,0,0-2.17,3,10.05,10.05,0,0,0-1.32,2.6,36.63,36.63,0,0,0,1,10.25c.95,2.47,2.14,5.33,4.05,7.22.88.88,2,1.13,3,1.86a14.33,14.33,0,0,0,4.56,2.41,21.28,21.28,0,0,0,8.16,1,12.83,12.83,0,0,0,5.24-1.6,7.27,7.27,0,0,0,2.18-1.65c.27-.33.83-1.93,1.17-2s.86-1.25.81-1.61c-.11-.21-.58-1.42-.88-1.38,0-.43-1.59-.05-1.85,0l-.88.12c-.43.06-.44-.08-.88,0l-4,.55c-.53.07-1.34.32-1.65.37-.49.07-1.52.35-1.83.11-.63-.47-.32-2.66-.29-3.11a7.64,7.64,0,0,0-.25-1.81,7.13,7.13,0,0,1-.29-1.11c0-1.3-.79-2.68-.55-4s1.48-1.35,2.66-1.51a20.24,20.24,0,0,1,4.17-.44c2.3.25,4.67-.25,7-.29,2.6-.06,5.23,0,7.82-.23s4.88-.4,7.3-.68a9.16,9.16,0,0,0,3.06-.48c.51-.28.82-.61,1,.24a73.34,73.34,0,0,0,2.71,9.62,44.62,44.62,0,0,1,1.21,4.37A27.33,27.33,0,0,1,156.79,291.53Z"/><path class="cls-5" d="M135.1,170.54c6.69-4.91,12.51-2.83,8.32-7.46-5.49-5.66-14.79.39-17.5,8.11a29.29,29.29,0,0,0-.05,18.82S125.9,178.54,135.1,170.54Z"/><path class="cls-5" d="M136.7,176.83a3.84,3.84,0,0,0-.28,4.65c1,1.13,2.71,1,3.87-.44a3.81,3.81,0,0,0,.25-4.67C139.54,175.19,137.84,175.4,136.7,176.83Z"/><path class="cls-5" d="M359.64,305.84c-1.14-3.07-2.25-6.11-3.22-9.23-.3-1-.27-1.46-1.41-1a8,8,0,0,0-1.89,1.13c-.88.6-2.89.82-3.2,2-.51,2,1.34,4.62,1.91,6.43a67.52,67.52,0,0,0,2,6.8c.72,1.63,2,.59,3.21.1.94-.38,1.88-.73,2.8-1.13.39-.18,1.47-1,1.75-1.06C361,309.92,359.86,306.43,359.64,305.84Z"/><path class="cls-5" d="M345.22,303.89a4.13,4.13,0,0,0-.74-.22,11.11,11.11,0,0,0-3,.25,10.19,10.19,0,0,1-2.86.27,2.69,2.69,0,0,1-2.83-3.13,2.45,2.45,0,0,1,2-1.81,2.36,2.36,0,0,1,1.39,0c.35.14.59.79,1.09.59.65-.24,1.19-1.21,1.62-1.72a8.16,8.16,0,0,1,2-1.88c-.07,0-1.67-1.31-1.82-1.4a6.94,6.94,0,0,0-6.76-.92,7,7,0,0,0-4.19,8.82,8.15,8.15,0,0,0,3.88,4.74,10.83,10.83,0,0,0,3.15,1c1.18.17,2.5.08,3.55.74,1.81,1.15.58,5-1.74,4.25-1-.31-1-.61-1.82.27-.38.42-.86.71-1.26,1.15-.66.71-1.78,1.13-1.18,2.2a5.13,5.13,0,0,0,3,2.28c2.37.5,5-.77,6.87-2,1.69-1.14,3.57-2.56,4.24-4.56.74-2.22-.45-5.26-2-6.94A7.51,7.51,0,0,0,345.22,303.89Z"/><path class="cls-5" d="M331.76,275.9c.15-.21.29-.41.41-.62s.33-.16.51-.26a8.92,8.92,0,0,0,4.27-5.83,8.44,8.44,0,0,0-1.13-7.49,24.4,24.4,0,0,0-3.92-4.59c-.38-.39-.78-.77-1.15-1.16a10.4,10.4,0,0,0-1.25-1.16l-.21-.59-2.22-1.44-.45-.3c-.45-.31-1-.69-1.72-1.08,0-.4,0-.77-.05-1.08a16.88,16.88,0,0,0-.5-2.65,3.92,3.92,0,0,1-.13-.55,39.75,39.75,0,0,0-3.71-11.22,15.69,15.69,0,0,0-2.26-3.51l-.47-.6c-.45-.57-.89-1.13-1.38-1.69l-.31-.34a18.5,18.5,0,0,0-4.47-4c-.15-.09-.54-.4-.83-.63-.51-.41-1.13-.93-1.86-1.41A10.86,10.86,0,0,0,304.4,222a13,13,0,0,0-3.28-1c-.8-.11-1.5-.15-2-.17-.15,0-.3,0-.44,0a20.32,20.32,0,0,0-5.16-.47l-.86.09-.75.12a16,16,0,0,0-3.18,0l-.37,0a22.62,22.62,0,0,0-6.75,2.21c-.58.27-1.15.57-1.71.87s-1,.54-1.55.78a15,15,0,0,0-3.7,2.55c-.15.13-.29.26-.38.33l-.25.15a11.63,11.63,0,0,0-4.32,3.88l-.06.08a16.7,16.7,0,0,0-3.95,4.86,10.9,10.9,0,0,0-1.81-1.19,11.19,11.19,0,0,0-1.7-1.65A28.66,28.66,0,0,0,251.8,229a26.82,26.82,0,0,0-4.17-.79,52.19,52.19,0,0,0,3.1-7.11c2.83-9.77,4-15.14,2.29-27.12-.89-6.44-3.5-8.31-7.56-10.21-12-1.39-12.23,20.86-22.69,25.89-18.26,7.75-36.92.39-50.19-12.47,5.62-4.11,8.31-15.21,2.34-18.33-22-11.62-29.27-36.9-10-54.06,8-6.89,21.34-4.91,25.74-11,8.51-12.62-17.05-18-28.32-16.5-39.64,5.93-81.29,50.26-60.77,113.48,3.5,10.78,6.45,17.07,8.88,21q-2.88.53-5.94,1.39a49.56,49.56,0,0,0-8.23,3.37c-1.32.64-2.55,1.23-3.75,1.73a10.61,10.61,0,0,0-1.42.7,14.43,14.43,0,0,0-5.76,4.35l-.35.38a39.24,39.24,0,0,0-2.59,3.08c-.35.45-.7.9-1,1.31a16.18,16.18,0,0,0-1.94,2.9c-.1.18-.2.37-.31.54A25.22,25.22,0,0,0,75.05,262a19.42,19.42,0,0,0,0,3.25,1.19,1.19,0,0,1,0,.23c0,.29-.07.71-.11,1.2-.1,1.17-.25,2.69-.34,3.91-.06.66-.1,1.23-.15,1.65,0,.19,0,.39,0,.58a21.74,21.74,0,0,0-.29,3.2c-.07,1.6-.1,3.47-.11,4.44v.41a21.83,21.83,0,0,0,1.29,9.29c.25.61.49,1.35.75,2.13a36.85,36.85,0,0,0,1.73,4.52,28.08,28.08,0,0,0,3.83,5.82,13.25,13.25,0,0,1,.74,1.12,23.48,23.48,0,0,0,2.2,3.08,22.75,22.75,0,0,0,5.25,4.26,23,23,0,0,0,8.27,3.41c.76.13,1.51.27,2.25.43a34.56,34.56,0,0,0,11.33.85,21.2,21.2,0,0,1,2.64-.08c.51,0,1,0,1.57,0a19,19,0,0,0,2.38-.19,29,29,0,0,0,4.26-.95c1-.28,2.13-.5,3.37-.72a45.08,45.08,0,0,0,5.42-1.27,9.84,9.84,0,0,0,7.17,2.71,15.67,15.67,0,0,0,1.62-.13,20.42,20.42,0,0,0,5.74-1.84A48.85,48.85,0,0,1,156,310.68l1.22-.24a.07.07,0,0,0,.06,0,9.37,9.37,0,0,0,2.51,0,10.1,10.1,0,0,0,8.36-7.28,9.37,9.37,0,0,0,.29-2.14c.9.37,1.78.66,2.59.93.39.12.79.26,1.17.4a5.73,5.73,0,0,1,.6.3,18.83,18.83,0,0,0,2.64,1.19,20.66,20.66,0,0,0,5.18,1,12.14,12.14,0,0,1,1.28.18,52,52,0,0,0-5.24.78,6.29,6.29,0,0,0-1.07.3c-.5.29-.27.22-.37.77s-.06,1.12-.18,1.69c-.37,2.32-.78,4.56-.94,6.83a48.6,48.6,0,0,1-1.06,5.07,7,7,0,0,1-.52,2.54c-.42.53-.71.4-1.18.08a4.59,4.59,0,0,0-1-.59c-.11,0-.55-.38-.61-.48-.17-1.24-1.2-2.24-2-3.15s-1.21-2.08-2.07-3c-.15-1.11-1.29-1.8-1.47-3.1-.12-.88-.74-.36-1.45-.14a7.21,7.21,0,0,0-1.42.66s-3.4,1.63-3.79,1.79c-.65.28-1.22.7-1.86,1a10,10,0,0,0-1.94.91c-.36.05-1.47.41-1.57.68.45.16.52.76.78,1.17s.63.78.88,1.23c.54.94,1.47,1.8,2.09,2.71.86,1.24,1.67,2.53,2.59,3.72s1.84,2.47,2.78,3.68a35.41,35.41,0,0,0,5.12,6.11,16,16,0,0,1,2.25,2.47c.13.16,1,1.38,1.15,1.36.31.38.43,1,.75,1.41.74,1,4.8-1.67,5.74-2.15a2,2,0,0,0,.67-.33,14.57,14.57,0,0,1,2.59-1.39c.8-.42,2.06-1,2.84-1.34a10.67,10.67,0,0,0,2.83-1.44c.87-.89-.13-2.32.41-3.32,0,0,.66-6.28.64-6.92,0-1.22.65-2.26.5-3.33.06-.38.1-.76.14-1.12.1-.76.18-1.48.27-2.2a39,39,0,0,0,.72-6.22c0-1.26,0-2,0-3.1a23,23,0,0,0,0-2.77,19.14,19.14,0,0,0,4.45,0l.39-.07h.33l1.26,0c.35,0,.7-.07,1.06-.12a23.65,23.65,0,0,0,4.14-1l1.08-.33c.42-.11.85-.23,1.29-.33a43.86,43.86,0,0,0,4.53-1.36,20.06,20.06,0,0,0,3.84-2.06c.29-.19.57-.38.86-.55l.4-.21a16.23,16.23,0,0,0,5-3.75c.14-.15.31-.28.47-.41a17.19,17.19,0,0,0,2.66-2.75,18,18,0,0,0,1.12-1.75c.34.34.64.63.89.84a14.61,14.61,0,0,0,4.24,4.31l.64.46a24.66,24.66,0,0,0,3.72,2.36c.22.11.42.25.63.37a16.21,16.21,0,0,0,3.89,1.88,11.27,11.27,0,0,0,2.45.44,10.18,10.18,0,0,0,2.88.56,18.09,18.09,0,0,1,1.89.18,34.13,34.13,0,0,0,3.95.28l1.34,0,1.79,0c.07,1.11.22,2.22.31,3.34.11,1.68-.15,3.32-.15,5a21.44,21.44,0,0,1,0,2.51c-.14,1.39-.62,1.06-1.78.74a14.39,14.39,0,0,0-2.32-.46,7.34,7.34,0,0,0-4.54.92,8.61,8.61,0,0,0-2.7,2.53c-.53.78-1.46,2.28-1.32,3.28a9.62,9.62,0,0,0-.31,2.75c.14,2.68.63,5.65,2.65,7.58a11.24,11.24,0,0,0,5.83,2.81,8.06,8.06,0,0,0,1.61-.22,10.24,10.24,0,0,0,4.77-2.3,4,4,0,0,0,1-.83c.12-.21.33-.91.56-1,1-.46,1.27,1.16,1.17,1.71s.1,5.08.86,5c.5-.07.87.11,1.41-.05s1-.52,1.59-.72c1-.38,2.37-.48,3.24-1.14,1.12-.84.23-2.25.15-3.35a22,22,0,0,0-.51-3.41,117.46,117.46,0,0,1-1.64-14.6,94.14,94.14,0,0,0-.92-10.15,7.43,7.43,0,0,1-.07-1.39c.87-.27,1.75-.56,2.6-.9l.09,0a8.33,8.33,0,0,0,2.22-.75,39.43,39.43,0,0,0,4.3-2.45,32.19,32.19,0,0,0,6.31-5.07,23.21,23.21,0,0,1,1.81-1.71l1-.88.26-.21a15.66,15.66,0,0,0,3.21-3.46c.62.22,1.21.41,1.74.57a13.19,13.19,0,0,1,1.6.56c1.63.94,5.71,3,10,2.7l.36.08a15.93,15.93,0,0,0,1.91.38,42.3,42.3,0,0,0,5.82.43,24.76,24.76,0,0,0,3.06-.23c.77-.1,1.52-.25,2.29-.38.54-.1,1.07-.2,1.63-.28a27.48,27.48,0,0,0,4-.93c.39-.12.79-.25,1.19-.34a24.13,24.13,0,0,0,7.13-2.82l.64-.42c.62-.39,1.2-.76,1.65-1a13.75,13.75,0,0,0,3.92-2.89c.25-.19.6-.44,1-.77A25.5,25.5,0,0,0,331.76,275.9Zm-81.22,49.42a2.94,2.94,0,0,1-1.79,1,5.21,5.21,0,0,1-2.9,0c-1.07-.43-1.54-1.79-1.71-2.83-.55-3.15,3.09-4.49,5.46-2.81.78.59.28,1.86.49,2.68S251,324.58,250.54,325.31ZM149.59,108.49c15.07-5.89,27.77-1.84,34.73.43-24.45-1.31-41.18,24.44-38.25,47,1.57,12.56,11.73,22.58,23.26,27-1.94,4.57-5.64,10.31-12.29,9.51.59,1,4.67,4.6,5,5.1-5.28,8-12,16.81-9.41,26.69,6.49-6,11.73-16.42,18.39-19.63,7.83,8.54-3.12,15-8.65,17,6.7,5.66,14.47,10.18,23.31,11.21l.85.07c8.42.64,13.26-4.35,19.23-9.74,6.28-5.67,13.91-5.49,21.44-8.58,9.31-3.85,17.12-11.8,17.59-22.25a63.45,63.45,0,0,1,1.12,13.86A41.76,41.76,0,0,1,238.8,229l-.2.06-.16,0a10.23,10.23,0,0,0-2.14.6,12.58,12.58,0,0,0-2.71.91,10.23,10.23,0,0,0-3.53,1.61A37.15,37.15,0,0,0,221.9,238l-.25.2c-.44.35-.89.71-1.32,1.12a14.22,14.22,0,0,0-1.87,2.28,12.76,12.76,0,0,0-2.29,2.59c-.35.54-.74,1.07-1.13,1.57-.53.7-1.13,1.5-1.72,2.41l-.11.13-.4.51c-1.26.48-2.53.89-3.83,1.27a28.45,28.45,0,0,0-5.9-7.17l-.45-.39a23.46,23.46,0,0,0-7-4.61,32.14,32.14,0,0,0-9.37-2.11c-.51,0-1.05,0-1.57,0h-1a44.11,44.11,0,0,0-6.13.31A22.3,22.3,0,0,0,171,238a35.57,35.57,0,0,0-7.12,4.09l-.34.2a12.64,12.64,0,0,0-3.91,3.35,18.73,18.73,0,0,1-1.44,1.63q-.49.5-1,1a12.35,12.35,0,0,0-1.14,1.49q-2.93-.89-5.78-2a19.84,19.84,0,0,0-6.63-9.24c-.46-.34-.91-.69-1.37-1a27.8,27.8,0,0,0-6.6-4.09,25,25,0,0,0-6.44-1.71,17.86,17.86,0,0,0-2.17-.11H127a9.5,9.5,0,0,0-3.32-.17l-.54.09-.61-.12-.44-.09a100.78,100.78,0,0,1-12.4-24.21C93.35,161,112.74,122.91,149.59,108.49Z"/><g id="_Group_" data-name="&lt;Group&gt;"><path class="cls-5" d="M289.59,228.27c.74-.07,1.49.05,2.25,0s1.78-.18,2.67-.2a36.07,36.07,0,0,1,5.46.58,8.79,8.79,0,0,1,1.92.65,13.18,13.18,0,0,0,1.69.37c1.6.37,2.68,1.82,4,2.66a12.69,12.69,0,0,1,3,2.83c.58.65,1.08,1.34,1.63,2a8.21,8.21,0,0,1,1.24,1.83,33.13,33.13,0,0,1,3.1,9.1c.14,1,.51,2,.62,2.92.07.75-.38.79-.8,1.24s-.52,1.11-1.07,1.27l-.15,0c-.53.08-1-.25-1.52-.24a13.06,13.06,0,0,0-1.75.14c-.41.06-1.3.25-1.92.41a32.48,32.48,0,0,1-3.24.85,14.73,14.73,0,0,0-3.2,1,11.66,11.66,0,0,1-2.29.47,9.58,9.58,0,0,0-1.92.86,9,9,0,0,1-2.13.38c-.29.05-3.4.94-3.4,1-.72.49,1.54,2.55,1.88,2.83a8.21,8.21,0,0,0,5,2.1,15.75,15.75,0,0,1,2.3.48,10.67,10.67,0,0,0,1.61.35,13.2,13.2,0,0,0,3.9-.88,4.07,4.07,0,0,0,2.5-2c.46-.85,1.14-1.66,1.64-2.5.73-1.19,1.09-4.54,2.69-4.94l.12,0,.1,0c.62-.06,1.11.59,1.53,1a12.58,12.58,0,0,0,3.56,2.94,7.93,7.93,0,0,1,2.31,1.43,6.92,6.92,0,0,0,.83.9,24.69,24.69,0,0,1,4.14,3.75c.89,1,2.58,2.74,1.35,4.15-.38.44-.79.25-1.29.26-1.19.05-1.77,1.93-2.26,2.78a15,15,0,0,1-3.06,3.68c-.3.28-.7.47-1,.76a22.42,22.42,0,0,1-10.07,5.43c-1.41.34-2.91.92-4.35,1.12a45,45,0,0,1-5.93.83,39.72,39.72,0,0,1-4.74-.35c-.77-.12-1.51-.39-2.29-.5s-1.74,0-2.6-.07a12.25,12.25,0,0,1-4.57-1.66c-1.66-1-3.59-1.26-5.35-2a11.57,11.57,0,0,1-4.49-3.9c-.7-.88-1.32-1.69-2-2.51-1.28-1.66-2.82-4-3.11-6.12s-1.49-4-1.94-6c-.2-.91,0-1.78-.1-2.67a18.37,18.37,0,0,1-.39-3.63c.08-1.5.12-3,.08-4.48a14.83,14.83,0,0,1,1-5.34,22.43,22.43,0,0,1,1.72-3.68,17.05,17.05,0,0,1,2.7-3.13c.52-.53.9-1.16,1.42-1.69a9.36,9.36,0,0,1,1.88-1.29c1.08-.73,1.86-1.76,3.05-2.33s2.26-1.15,3.38-1.7A15.53,15.53,0,0,1,289.59,228.27Z"/></g><g id="_Group_2" data-name="&lt;Group&gt;"><path class="cls-5" d="M263.58,245c.08,0,.36.45.54.48-.08.11.42,1.53.39,1.82-.07,1.17-1.14,1.3-1.79,2.08a10.32,10.32,0,0,0-.95,1.7c-1.29,2.41-3.63,4.35-5.26,6.52-.83,1.12-1.56,2.31-2.37,3.46s-1.41,3.24-2.85,3.44a1.35,1.35,0,0,1-1.62-.88c-.09-.23,0-.58-.11-.81a1.53,1.53,0,0,0-1.06-.67c-1.62-.35-3-.8-4.41.38-.93.78-2.06,2.23-1.88,3.56.26,1.91.49,3.75,2.58,4.43a6.28,6.28,0,0,0,5.12-1,13.47,13.47,0,0,0,3.33-2.65c.43-.57.68-1.07,1.47-1.23,1.57-.35,2.87,2.14,3.83,3,.76.7,1.57,1.36,2.39,2a49.71,49.71,0,0,0,5.69,4.2,11.32,11.32,0,0,1,1.9,1.15c.53.43,1,.93,1.54,1.36s1.12.58,1.6,1,.52.8.87,1.19,1.16.31,1.13,1.21c-.05,1.15-1.71,2.3-2.48,3-1.14,1-2.33,2-3.36,3.14a24.59,24.59,0,0,1-4.85,3.82,33.94,33.94,0,0,1-3.49,2,2.67,2.67,0,0,1-.9.14,6.4,6.4,0,0,0-.84.39,35.72,35.72,0,0,1-5.07,1.48A30.18,30.18,0,0,1,246,295c-1.92,0-3.73-.41-5.61-.46a12.88,12.88,0,0,1-1.55-.48,10.66,10.66,0,0,1-1.75-.19,23.93,23.93,0,0,1-3.39-1.81,24.53,24.53,0,0,1-3.32-2.2,7.22,7.22,0,0,1-2.38-2.47c-.59-1-1.76-1.57-2.37-2.56a21.08,21.08,0,0,0-1.55-2.29c-.49-.67-1-1.31-1.6-2a24.46,24.46,0,0,1-3.32-5.94,31.78,31.78,0,0,1-2.12-5.54c-.18-.85-.38-1.57-.61-2.35a12.83,12.83,0,0,1-.08-3.75,18.43,18.43,0,0,1,.15-3.1,14.08,14.08,0,0,1,1-2.68c.36-.92.56-1.88.88-2.8a11,11,0,0,1,1.38-2c.91-1.42,2-2.71,2.93-4.1a9.15,9.15,0,0,1,1.4-1.44c.64-.59,1-1.44,1.6-2s1-.82,1.54-1.3a30.61,30.61,0,0,1,6.73-4.77,5.76,5.76,0,0,1,1.33-.72c1.2-.16,1.7-.78,2.89-1,.59-.08.93-.4,1.62-.5.52-.07,1.33-.38,1.61-.36a42.49,42.49,0,0,1,4.44-.48,16.29,16.29,0,0,1,4,.61,21.84,21.84,0,0,1,7.67,3.2c.69.52.86,1.34,1.62,1.78s1.38.5,2,1.2C261.37,242.89,263.21,245.07,263.58,245Z"/></g><g id="_Group_3" data-name="&lt;Group&gt;"><path class="cls-5" d="M205.15,269.31c.06.3,1.14,1,1.36,1.22l1.85,1.7c1.12,1,2.74,1.49,3.79,2.56a10.15,10.15,0,0,0,.93.92,24.73,24.73,0,0,1,3.24,3,18.77,18.77,0,0,1,1.49,1.33,7.25,7.25,0,0,1,.9,1.24,1.24,1.24,0,0,1,.15.45,2.66,2.66,0,0,1-.66,1.82c-.43.34-1,0-1.51.12s-.95.83-1.24,1.23c-.75,1-1.18,2.28-1.94,3.31s-1.87,1.69-2.72,2.66a10.37,10.37,0,0,1-3.31,2.28,33.41,33.41,0,0,1-3.76,2.16c-1.67.63-3.41,1-5.12,1.47a25.74,25.74,0,0,1-4.77,1.21,21.56,21.56,0,0,0-2.26.12,19.76,19.76,0,0,1-6.07-.37c-1.43-.21-2.82-.56-4.25-.66a13.31,13.31,0,0,1-3.25-.56c-1.09-.37-2-1-3.12-1.45-2.61-.92-4.82-1.37-6.88-3.36a27.93,27.93,0,0,1-7-11.58,25.38,25.38,0,0,1-1.15-3.25,33.07,33.07,0,0,1-.62-3.54,50.2,50.2,0,0,1-.32-10.32,15.43,15.43,0,0,1,1-4.09,23.48,23.48,0,0,1,1.41-2.62,13.24,13.24,0,0,1,1.62-2.83,37.55,37.55,0,0,0,2.9-3.27c.61-.83,1.93-1.35,2.77-2A29.29,29.29,0,0,1,174.3,245c3.46-1.62,6.73-1.47,10.45-1.51a23.81,23.81,0,0,1,8.16,1.67,19.1,19.1,0,0,1,5.16,3.63,23.68,23.68,0,0,1,7.7,15.58c.15,1.62.59,3.11-.94,4.31a1.05,1.05,0,0,1-.51.2c-.78.1-2-.27-2.67-.17a61.9,61.9,0,0,0-10.08,2.58c-.71.23-8.46,2.9-8.62,2.54-.66.43,1.55,2.65,1.87,2.94,1.67,1.51,3.34,1.53,5.39,2,.71.16,1.29.34,2,.49,2.21.41,5.65.26,7.25-1.55.45-.51.7-1.21,1.15-1.75a17,17,0,0,0,1.15-1.91,6.88,6.88,0,0,0,.58-1.57c.32-.93.56-2.42,1.57-2.95.23-.11.17-.3.45-.35h0C204.59,269.18,205.14,269.19,205.15,269.31Z"/></g><g id="_Group_4" data-name="&lt;Group&gt;"><path class="cls-5" d="M159.64,298c.21,1.12,1.38,2,1.06,3.2a2.36,2.36,0,0,1-2.48,1.58,4,4,0,0,0-1.74,0c-4.57.89-9.52,1.66-13.79,3.57a11.17,11.17,0,0,1-4.33,1.28,2.12,2.12,0,0,1-1.7-.81c-.45-.75.39-1.36,1-1.65,1.77-.88,1-3.67,1-5.27,0-1.18.71-2.54.56-3.65l-.15-1.08c-.08-.56-.67-.12-.9-.09-.44.07-.64,1.1-.69,1.48a8.88,8.88,0,0,1-4.45,6.35c-1.12.61-1.83,1.53-3,2-3.13,1.23-6.54,1.37-9.71,2.34a17.36,17.36,0,0,1-4.5.8,43.22,43.22,0,0,0-5.07.12c-3.89.49-7.54-.56-11.32-1.22A15.5,15.5,0,0,1,94,304.58a15.86,15.86,0,0,1-3.55-2.81c-1.09-1.25-1.78-2.8-2.85-4.09a20.64,20.64,0,0,1-2.78-4.19c-.95-2-1.44-4.17-2.28-6.22a14.24,14.24,0,0,1-.73-6c0-.22.07-7.82.38-7.86-.08,0,.66-7.66.66-7.78a17.82,17.82,0,0,1-.07-2.79,17.35,17.35,0,0,1,2.87-7,25.85,25.85,0,0,1,1.69-2.69c1.14-1.34,2.12-2.8,3.31-4.06a14.48,14.48,0,0,1,2.29-2.26c2.44-1.59,5.27-2.56,7.87-3.81a37.77,37.77,0,0,1,5.89-2.36,48.17,48.17,0,0,1,12-2c.93,0,1.85.24,2.78.29s1.64,0,2.45.05,1.53.25,2.3.3,1.46,0,2.2.09a18.06,18.06,0,0,1,4.46,1.19c2.34,1,4.3,2.76,6.33,4.22,2.46,1.78,3.48,4.57,4.56,7.3.66,1.68,2.43,5.75.5,7.22-1.14.88-1.7-1-2.54-.84-.81-.07-1.47.86-2.14,1.2-.89.44-1.82.78-2.7,1.2-2,1-4,2.16-6,3.29-1.11.63-2.21,1.26-3.27,1.93a13.47,13.47,0,0,1-3.16,1.61l-.23,0a2.73,2.73,0,0,1-.55,0,1.54,1.54,0,0,1-1.36-.9c-.42-1.2,1.1-1.56,1.21-2.58.16-1.44-2.67-3.89-3.86-4.34a9.85,9.85,0,0,0-3.49-.5,7.39,7.39,0,0,0-3.49.54,14.11,14.11,0,0,0-3.26,2.08c-.93.91-1.71,2-2.63,2.91a9.14,9.14,0,0,0-2.8,7.37,18.38,18.38,0,0,0,2.56,9.76,7.48,7.48,0,0,0,1.95,1.91c1.63,1.25,2.78,3,4.88,3.6,1.37.4,2.73,1,4.11,1.34a11.64,11.64,0,0,0,5.34.08,14.87,14.87,0,0,0,3.15-1c.72-.36,2.74-2.24.62-2.21a23.43,23.43,0,0,0-2.76.62,15.35,15.35,0,0,0-2.44.45c-.69.21-1.08.67-1.71.91-1.15.46-2.45-.65-2.7-1.85s.2-2.48,0-3.72c-.15-1-.3-2-.44-3-.21-1.47-.11-3.89-.83-5.22-.44-.81-1-.89-.88-1.89a6.21,6.21,0,0,1,1.23-2.51c.89-.54,2.14.34,3.07.4,1.2.06,2.43-.26,3.67-.18l.69,0,.58,0a40.39,40.39,0,0,0,7-.17c3.82-.53,7.74-.77,11.58-1.23,2.53-.31,6.95.31,9-1.47.66-.56,1-1.32,2.09-1,2.37.68.45,5.32.45,7a8.26,8.26,0,0,0,.71,2.44,37.68,37.68,0,0,1,2.3,7.57c.27,2,1.07,3.92,1.38,5.91C159.1,292,159.06,295,159.64,298Z"/></g><g id="_Group_5" data-name="&lt;Group&gt;"><path class="cls-3" d="M299.74,239.77c-.44-.55-1-1.39-1.83-1.27-.12,0-.2-.2-.37-.22a3.15,3.15,0,0,0-.41.06,7.63,7.63,0,0,0-.93.13,3.89,3.89,0,0,0-.9.46c0,.15-.54.09-.65.16s-.45.55-.48.55a8.17,8.17,0,0,0-1,1,7.48,7.48,0,0,0-.67,1.34c-.15.41,0,.89-.19,1.3-.46,1.15-1,1.94-.59,3.21a2.21,2.21,0,0,0,2.08,1.67c.52,0,.87-.55,1.27-.8a5.57,5.57,0,0,1,1.57-.55,19.57,19.57,0,0,0,3.56-1.41c1.52-.78,3.36-2.12,1.48-3.81A15.41,15.41,0,0,1,299.74,239.77Zm23.59,23.75c1,.93,2.85,2.19,2.06,3.64a10.17,10.17,0,0,1-1.66,2.31,13.76,13.76,0,0,0-1.73,1.48,13.52,13.52,0,0,1-3.51,3.41A21.65,21.65,0,0,1,313.7,277c-1.27.51-2.6.78-3.9,1.17s-2.59.91-3.91,1.21a17.89,17.89,0,0,1-3.8.26c-1.1,0-2.35.42-3.44.14-3.57-.91-7.29-.84-10.69-2.51-1.2-.6-2.46-.82-3.66-1.37a20.64,20.64,0,0,1-4.23-2.88,11.08,11.08,0,0,1-3.28-4.25,13.65,13.65,0,0,0-1.18-2.29,12,12,0,0,1-2-4.64c-.16-1.15-.75-2.44-.92-3.62a26.35,26.35,0,0,1-.5-5.72c.1-1.08.28-2.15.35-3.22a12.73,12.73,0,0,1,.57-3.24c.39-1.15,1.12-2.24,1.58-3.4a10.79,10.79,0,0,1,1.94-3.42,20.93,20.93,0,0,1,10.3-7.24c.71-.24,1.47-.27,2.17-.48a26.34,26.34,0,0,1,6.71-.74,9.33,9.33,0,0,1,2.84.53c1.08.28,2.17.44,3.22.82a17.38,17.38,0,0,1,7.29,5.3,18.94,18.94,0,0,1,3.3,5.24,16.89,16.89,0,0,1,.94,3.42,7.94,7.94,0,0,1,.2,2.83c-.25,1.19-1.16,1.24-2.17,1.64a30.52,30.52,0,0,1-5.2,1.7c-1.54.31-3,.94-4.6,1.16-2,.28-3.7,1.41-5.65,1.75a39.13,39.13,0,0,0-4,.51,4,4,0,0,0-1.68.8c-.52.71.26,1.45.36,2.16.22,1.59,1.65,3,2.45,4.36A4.29,4.29,0,0,0,295,264.9c1,.36,1.95.65,2.91,1a21.86,21.86,0,0,0,3.49.77,16.59,16.59,0,0,0,3.58.61,14.9,14.9,0,0,0,3-.53c.87-.22,1.8-.28,2.67-.58,1.42-.5,2.38-2.23,3.08-3.47a27.14,27.14,0,0,1,2.45-4.18c.64-.09,1.79.79,2.33,1.1.21.11.45.21.76.36C320.94,260.8,322,262.33,323.33,263.52Z"/></g><path class="cls-5" d="M329.26,306.91c-3.53-2.88-3.54-9-2.3-12.9.23-.73,1.23-1.67.24-2.09a6.26,6.26,0,0,0-2.37.1c-.91.06-1.81.11-2.72.13-.6,0-2.28-.18-2.23.69,0,.57.84.75.71,1.46a1.71,1.71,0,0,1-1.55,1.14c-.58,0-.42-.78-.59-1.07-.74-1.33-4.62-.49-5.71-.2-2.47.66-4.07,2.08-5.82,3.82a9.41,9.41,0,0,0-1.8,2.31,11.24,11.24,0,0,0-1.1,2.63,9.72,9.72,0,0,0,.11,3,10.28,10.28,0,0,0,3.85,7.42c3.64,2.67,9.73,1.82,11.91-2.5.21-.42.22-1.24.89-1.17,1.23.13,1.34,4.52,2.95,3.73a14.84,14.84,0,0,0,3.57-3c.51-.51,1-1,1.57-1.45.16-.13,1.32-.9,1.34-1C330.28,307.55,329.43,307.05,329.26,306.91Zm-10.58-1.07-.25.16a16.83,16.83,0,0,1-2.83,1,2.11,2.11,0,0,1-2.61-1.19A3.67,3.67,0,0,1,315,300.6c.86-.24,2.44-1.19,3.17-.29s.17,2.78.61,3.8C319.13,304.83,319.24,305.42,318.67,305.85Z"/><path class="cls-5" d="M295.45,244.31c.35-.05.94-.54,1.28-.59s2.57-.42,2.41-.89c-.06-.8-1.59-1.39-2.48-1.15a1.88,1.88,0,0,0-1,.54c-.51.07-.54,1.45-.81,1.49-.11,0,0,.56.07.54C295.15,244.21,295.13,244.36,295.45,244.31Z"/><path class="cls-5" d="M302.31,310.89c-.42-.67-.41-2-.64-2.8a25.84,25.84,0,0,0-3.15-7.36,16.55,16.55,0,0,1-1.08-2.53,12.07,12.07,0,0,1-1.08-3,18.32,18.32,0,0,0-.39-2.59c-.37-1.13-1.43-.31-2.19-.07l-2.86.9c-1.47.45-4.07.32-4.06,2.23,0,1.63-.11,7.87-3.27,6.09-1.35-.76-1.62-3.23-1.78-4.62,0-.25-1.68.3-1.83.32a18.43,18.43,0,0,0-2.38.52,6.48,6.48,0,0,1-2.56.31c-.58,0-1.43-.45-1.79.22a4.24,4.24,0,0,0,0,2,22.21,22.21,0,0,0,1.18,4,7.32,7.32,0,0,0,5.45,5,15.85,15.85,0,0,0,2.72.05c2.29.07,5.94-1,6.6-3.56.18-.59.15-2,.61-2.46,1.19-1.11,1.65,2.07,1.93,2.64a9.56,9.56,0,0,1,.84,1.6c.58,2,1.23,3.74.55,5.78s-2.74,3.44-4.68,1.93c-.3,0-1.34-1.15-1.4-1.44-.21-1.52-1.57.08-2,.41s-1.16.87-1.73,1.33a17.14,17.14,0,0,0-3.81,3.59c-.43.68-.19.81.29,1.39.27.33.42.73.68,1.06a11.81,11.81,0,0,0,4.52,3.34c1.51.65,3.94,1.5,5.58,1.18,2.61-.53,5-.82,7.33-2.29a10.3,10.3,0,0,0,3.58-3.64,11,11,0,0,0,1.19-5.13c0-.59.07-1.49,0-2.15A14.74,14.74,0,0,1,302.31,310.89Z"/><path class="cls-5" d="M273.91,323.56a4.24,4.24,0,0,0-.17-.47c-1.11-2.9-2.12-5.8-3.05-8.76-.3-1-.3-1.46-1.48-1a10.47,10.47,0,0,0-2,1.22c-.9.58-2.39.62-2.95,1.65s.35,2.82.75,3.91c.53,1.4,1.12,2.77,1.51,4.22.26,1,1.09,6.35,2.41,6.36a8.49,8.49,0,0,0,2.49-1l2.79-1.09c.17-.06,1.79-1,1.65-1C274.8,327.11,274.31,324.88,273.91,323.56Z"/><g id="_Group_6" data-name="&lt;Group&gt;"><path class="cls-3" d="M249.48,259.68a5.53,5.53,0,0,0-5.19,0,8.85,8.85,0,0,0-4.08,3.46,7.48,7.48,0,0,0-.42,2.93,7.14,7.14,0,0,0,.38,3.51c.31.71,1,1.11,1.51,1.71a5.19,5.19,0,0,0,5,2.21l1.81-.25a5.33,5.33,0,0,0,3.17-1.5,11.05,11.05,0,0,1,1.27-.87c.31-.23.6-.66,1-.71.11,0,.51-.42.69-.51a1.51,1.51,0,0,1,.66-.23c1.2,0,2.19,1.32,2.77,2.21,1.14,1.76,3.25,2.66,5,3.68A20.41,20.41,0,0,1,267.8,279a11.44,11.44,0,0,1,1.75,1.81c-.13,0-.77,1.2-.92,1.22-1.69,1.2-2.85,3.29-4.49,4.6a14.94,14.94,0,0,1-2.54,1.91c0,.36-5.07,2.5-5.62,2.67a28.82,28.82,0,0,0-3.33.92c-1.83.82-4.28.73-6.23.62-1.7-.11-3.39-.26-5.08-.37a6,6,0,0,1-3.68-.93c-1.35-.94-3-1.4-4.35-2.28a18.68,18.68,0,0,1-2.5-2.15,19.55,19.55,0,0,1-2-2.12,13.27,13.27,0,0,1-1.17-1.33,23.54,23.54,0,0,0-1.12-2.1c-.49-.64-1-1.2-1.51-1.86a21.9,21.9,0,0,1-2.23-3.54c-.51-1.08-.83-2.25-1.34-3.34a14.14,14.14,0,0,1-.84-2.12,18.14,18.14,0,0,1-1-2.5c-.18-1.3-.54-1.89-.7-3.05a16.33,16.33,0,0,1,1.44-8.19,27.27,27.27,0,0,1,3-5,19.57,19.57,0,0,1,3.45-4.16,19.59,19.59,0,0,0,1.71-1.89c.57-.63,1.33-.94,1.9-1.52.36-.37.46-.63.94-.89.94-.51,2-.83,2.89-1.42a17.62,17.62,0,0,1,2.7-1.65,19.16,19.16,0,0,1,4.22-1.31,34.16,34.16,0,0,1,3.81-.08,22.15,22.15,0,0,1,2.79-.25,6.94,6.94,0,0,1,2.38.74c.87.42,1.89.51,2.74,1s1.6,1.13,2.48,1.6a19.31,19.31,0,0,1,2.31,1.22,3.39,3.39,0,0,1,1,.89c.23.37.24.85.53,1.19a2.44,2.44,0,0,0,.79.47c2.46,1.26-.67,4.08-1.45,5.42a40.71,40.71,0,0,1-3.09,3.82c-1.15,1.51-2.29,3-3.49,4.49-.39.49-.21.9-.95,1C250,260.73,250,260,249.48,259.68Z"/></g><path class="cls-5" d="M265.49,309.6c1.13-.86,2.37-2.34,2.31-3.87a4.39,4.39,0,0,0-2.92-4c-2-.54-3.44,1.32-4,3s.53,4.7,2.34,5.3A2.43,2.43,0,0,0,265.49,309.6Z"/><path class="cls-5" d="M237,316.09c1.16-.79,1.59-2.41,2.56-3.41s1.16-1.4.6-2.63a3.21,3.21,0,0,0-.21-.44,2.31,2.31,0,0,0-.82-.85,10.77,10.77,0,0,0-4.22-1.51c-2.55-.2-6.3,2.17-7.25,4.58-.15.39,0,1-.38,1.34-1.62,1.32-1.59-4.35-1.86-4.64-.69-.74-3.39,1.36-4,1.75s-1.86.48-2.3,1c-.57.74.36,2.33.6,3.11.64,2.15,1.38,4.29,2,6.45.39,1.45.73,2.94,1,4.45.26,1.27.48,2.53.67,3.78.23,1.48.25,3,.48,4.45s.47,1.93,1.94,1.22a10.87,10.87,0,0,1,2.75-1c.48-.09,1.86,0,2-.58a9.15,9.15,0,0,0-.21-1.48,62,62,0,0,0-.69-6.19c-.58-2.89-1.4-7.23,1.5-9.27a4.6,4.6,0,0,1,3.15-.68,14.29,14.29,0,0,0,2.51.58A.57.57,0,0,0,237,316.09Z"/><g id="_Group_7" data-name="&lt;Group&gt;"><path class="cls-3" d="M214.92,281.49a2.33,2.33,0,0,1,0,.62,18.12,18.12,0,0,1-2.94,3.67,31.66,31.66,0,0,1-2.87,2.69,27.17,27.17,0,0,1-10.49,5.39,32,32,0,0,1-10.42,1.21,38.35,38.35,0,0,1-7.17-1c-2.29-.55-4.27-1.75-6.52-2.39a11.48,11.48,0,0,1-1.85-.79,16.21,16.21,0,0,1-5.33-4.45,14.94,14.94,0,0,1-1.1-1.59c-.55-1.15-.94-2.27-1.6-3.37-.46-.73-.72-1.52-1.11-2.27a5.14,5.14,0,0,1-.7-2c-.16-1.15-.75-2.44-.92-3.62s-.2-2.5-.38-3.77a10.56,10.56,0,0,1-.13-1.91c.13-1.2.27-2.38.32-3.6,0-.47.27-.84.32-1.33a6.48,6.48,0,0,1,.6-2.42c1-1.86,1.48-3.77,2.82-5.47A22.65,22.65,0,0,1,168,252a10.89,10.89,0,0,1,1.09-1c1-.61,2-1.19,3-1.85a19,19,0,0,1,3.6-1.7,11.28,11.28,0,0,1,3.59-1,15.07,15.07,0,0,0,1.52,0,25.92,25.92,0,0,1,4.11-.37,13.26,13.26,0,0,1,3.88.83,4,4,0,0,0,1.19.14,4,4,0,0,1,1.8.7c.65.36,1.34.67,2,1a11.65,11.65,0,0,1,2.36,1.71,5,5,0,0,1,1.07,1,5.39,5.39,0,0,0,1.16,1.39,13.3,13.3,0,0,1,2.1,3,8.48,8.48,0,0,1,1.56,3.64c.05.37.34.81.44,1.24.31,1.21.83,3.84-.42,4.7a15.77,15.77,0,0,1-2.9,1.07c-2.22.78-4.52,1.09-6.73,1.87-1.57.57-3.33.85-4.94,1.32a23.55,23.55,0,0,1-3.45,1,14.63,14.63,0,0,0-3.54.55c-1.55.64-.83,1.52-.66,2.76a8.83,8.83,0,0,0,1.77,3.25,9,9,0,0,0,2.11,2.71,11.45,11.45,0,0,0,4.66,1.85,31.51,31.51,0,0,0,5.36.79,19.71,19.71,0,0,0,4.13-.73,6.41,6.41,0,0,0,2.72-.9,10.17,10.17,0,0,0,1.7-2.14c1.17-1.55,1.89-3.45,3.12-5,.94-.13,2.34,1.23,3.17,1.7a23.26,23.26,0,0,1,3.41,2.87C212.87,279.19,214.74,280.21,214.92,281.49ZM185.75,260.3c.39-.05,4-.66,3.78-1.38-.09-1.25-2.5-2.19-3.9-1.83a3,3,0,0,0-1.6.87c-.82.12-.87,2.26-1.29,2.33-.17,0-.06.86.12.84.4-.06.37.17.87.1S185.22,260.38,185.75,260.3Z"/></g><path class="cls-5" d="M219.14,324.72c-3.72-3.08-3.93-9.51-2.84-13.76.09-.35.23-.75.34-1.09.22-.69,1.68-2,.17-1.95-1.94,0-3.87.26-5.82.26-.58,0-1.93-.34-2.33.28s-.09,3.45-1,3.4c-.65,0-.48-.87-.66-1.19-.36-.61-2-.67-2.71-.68a12.67,12.67,0,0,0-1.56-.13,14.38,14.38,0,0,0-6.13,2.6,13.48,13.48,0,0,0-1.85,1.49c-1.74,1.85-3.56,4.1-3.93,6.67a6.81,6.81,0,0,0,0,1.85c.56,3.91,1.55,7.55,5.06,9.86a8.59,8.59,0,0,0,9.65-.13,13.62,13.62,0,0,0,2.67-2.46c.41-.48.49-2,1.37-1.93s1.11,1.87,1.41,2.47,1.16,2.08,1.94,1.7c1.34-.54,2.68-2.28,3.74-3.24.85-.75,2.34-2.66,3.52-2.83a.23.23,0,0,0,0-.09C220.17,325.38,219.31,324.88,219.14,324.72Zm-11.24-1.61a.73.73,0,0,1-.56.41c-.27.05-.58.05-.82.11-1.76.47-3.74,2.39-5.43.52a4,4,0,0,1,0-4.85,5.1,5.1,0,0,1,3.45-1.94c.65-.09,1-.46,1.42-.47a1.17,1.17,0,0,1,.83.45c.36,1,.08,2.49.43,3.74C207.38,321.61,208.15,322.53,207.9,323.12Z"/><g id="_Group_8" data-name="&lt;Group&gt;"><path class="cls-3" d="M156.78,291.54c0,.52-.17,1.33-.16,1.79,0,.25,0,.85,0,.9,0,.35-.1.33-.05.68s.09,1.2.1,1.71c0,.88.65,2.18.1,3-.73,1.08-2.36.44-3.36.84a13.38,13.38,0,0,1-2.11.57c-1.73.4-3.41,1.09-5.15,1.54a28.56,28.56,0,0,0-3.44.92,3.8,3.8,0,0,1-.72.23c-.55.08-.44.26-.53-.39a3.05,3.05,0,0,1,.07-1.46,24.29,24.29,0,0,0,.19-3.57,12.92,12.92,0,0,0-.08-3.48c-.16-1.16.66-1.84-.74-2.49a3.9,3.9,0,0,0-2.63-.06c-.42.13-.29.46-.93.57-1.19.22-1.9-.49-2.34,1a19.93,19.93,0,0,0-.09,2.55,5.31,5.31,0,0,1-1.29,2.82c-2.34,2.53-5.28,3.25-8.46,4a16.34,16.34,0,0,1-1.84.53,28.73,28.73,0,0,0-3.2.58,30.92,30.92,0,0,1-3.71.92c-1.43.19-2.88-.09-4.31.14a16.05,16.05,0,0,1-3,.2,38.48,38.48,0,0,1-9.17-1.25c-.53-.16-1-.43-1.51-.62s-1.09-.15-1.6-.34a5.83,5.83,0,0,1-1.15-.7,20.88,20.88,0,0,1-2-1.66,20.29,20.29,0,0,1-3.42-4.39c-.84-1.46-1.88-2.79-2.75-4.21a16.07,16.07,0,0,1-1.31-3.26,15.51,15.51,0,0,1-1-3.11c-.12-1.1,0-2.19-.12-3.26a35.17,35.17,0,0,1-.42-3.56,55.85,55.85,0,0,1,.36-6.94c.17-1.74.29-3.47.44-5.22s.2-3.61.51-5.36a9.83,9.83,0,0,1,1.72-3.54c.26-.42.36-1,.6-1.44a23.37,23.37,0,0,1,1.34-2.46,27.13,27.13,0,0,1,2.58-2.94,21,21,0,0,1,3.6-2.59c1.33-.89,2.66-1.78,4.06-2.56,1-.57,2-1.15,3.07-1.63a26.82,26.82,0,0,1,5-1.39c3.57-.84,7.06-1,10.66-1.52a16.76,16.76,0,0,1,2,.14c1.76.18,3.47.2,5.24.28a20,20,0,0,1,3.62.68,21.57,21.57,0,0,1,6.19,2.86c2.28,1.31,4.94,4.29,5.31,7,.06.43,1,3.07.57,3.14-.05.11-.05.15,0,.14a1.67,1.67,0,0,1-.83.39c-.38.05-.78.51-1.11.68s-.86.31-1.27.52c-.59.29-1.16.67-1.75,1-1.31.7-2.56,1.56-3.94,2.15-2,.84-5.62,4.35-7.41,1.8-.69-1-1-2.37-2-3.08-3.26-2.34-7.2-2.21-10.94-1.31-2.21.54-3.79,2.16-5.5,3.54a17,17,0,0,0-3.84,4.65,10.48,10.48,0,0,0-1.32,2.61,18.72,18.72,0,0,0,0,3.28,18.45,18.45,0,0,0,1,7c.94,2.47,2.14,5.33,4.05,7.23.88.88,2,1.13,3,1.86a14.27,14.27,0,0,0,4.55,2.41,21.37,21.37,0,0,0,8.16,1,12.84,12.84,0,0,0,5.23-1.61,7.38,7.38,0,0,0,2.19-1.65c.27-.33.83-1.93,1.17-2s.86-1.25.81-1.61c-.11-.21-.59-1.42-.88-1.38,0-.43-1.59-.06-1.85,0l-.88.12c-.43.06-.44-.08-.88,0l-4,.55c-.53.08-1.35.33-1.66.37-.48.07-1.52.35-1.83.12-.63-.48-.32-2.67-.29-3.11a7.36,7.36,0,0,0-.25-1.81,6.3,6.3,0,0,1-.29-1.12c-.05-1.3-.79-2.68-.55-4s1.48-1.35,2.67-1.52a20.32,20.32,0,0,1,4.17-.44c2.31.25,4.67-.25,7-.29,2.61-.06,5.24.05,7.83-.23,2.43-.26,4.88-.4,7.3-.68a9.19,9.19,0,0,0,3.06-.48c.51-.28.82-.61,1,.24a72.9,72.9,0,0,0,2.71,9.62,44.93,44.93,0,0,1,1.21,4.38A27,27,0,0,1,156.78,291.54Z"/></g></svg>