<svg id="Layer_1" data-name="Layer 1" xmlns="http://www.w3.org/2000/svg" viewBox="0 0 425.2 425.2"><defs><style>.cls-1{fill:#6d2750;}</style></defs><title>Artboard 1</title><path class="cls-1" d="M234.4,396.85H201.21c-22,0-39.75-17.06-39.75-39s17.8-39,39.75-39H234.4a7.6,7.6,0,1,0,0-15.17H218.5C144,303.64,83.34,240.52,83.34,166S144,28.35,218.5,28.35H234c48.44,0,87.85,40.29,87.85,88.51s-39.23,88.51-87.45,88.51H217.11c-22,0-39.75-17.06-39.75-39s17.8-39,39.75-39H234.4a7.66,7.66,0,0,0,8-7.59c0-4.31-3.82-7.59-8.35-7.59H218.5c-30.69,0-55.65,23.87-55.65,54.55s25,54.55,55.65,54.55h15.9c48.22,0,87.45,39.57,87.45,87.79S282.62,396.85,234.4,396.85Z"/></svg>