<svg id="Layer_1" data-name="Layer 1" xmlns="http://www.w3.org/2000/svg" xmlns:xlink="http://www.w3.org/1999/xlink" viewBox="0 0 800 200"><defs><style>.cls-1{fill:none;}.cls-2{fill:#c04848;}.cls-3{clip-path:url(#clip-path);}.cls-4{opacity:0.5;}.cls-5{fill:#ef7575;}.cls-5,.cls-6{fill-rule:evenodd;}.cls-6{fill:#8c3434;}.cls-7{fill:#fff;}.cls-8{fill:#dbd6d1;}</style><clipPath id="clip-path"><rect class="cls-1" x="205.47" y="0.41" width="389.06" height="199.59"/></clipPath></defs><title>Artboard 1</title><rect class="cls-2" width="800" height="200"/><g class="cls-3"><g class="cls-4"><path class="cls-5" d="M461.47,58.93c-.46-3,1.9-4.44,2.5-6.93.4-1.6,2.75-1.48,2.75-3a27.79,27.79,0,0,0,3.88,1.45c2.33.69,1.87,1.71,3.1,3.21.58.7,2.15,1.39,2.33,2.34a7.51,7.51,0,0,1-1.06,5.3c-1.06,1.83-5,2.2-7.08,1.67-.85-.21-2.65-1-4.07-.58a2.76,2.76,0,0,1,.07-1.25c.14-1.18-.85,0-1.23-.49q0-.58,0-1.16c-.33-.26-1.29.18-1.18-.58"/><path class="cls-5" d="M518.52,95c-1.14.74-2.17-1.2-3.58-1.09-.53.05-1.73-3.16-2.1-4-.86-2.06-.58-5.59-2.48-7.12a12.45,12.45,0,0,1,1.74-3.49,9,9,0,0,1,1.17-1.16V77c.39,0,.79,0,1.16,0a14.81,14.81,0,0,0,0-1.76c1.5,0,4.62.25,5,2.22.23,1.44,1.37,0,1.55,1.07a19.31,19.31,0,0,0,.86,3.6c1,2.68,2.66,5.46,1,8.19-.65,1.08-1.41,2-2,3.08-.49.81-2,1-2.19,1.64"/><path class="cls-5" d="M483.6-50.5c3.33,0,4.19-.27,6.17,1.71.37.37.58-.77.9,0a1.63,1.63,0,0,0,2.24,1.18c-.39,1.53.46,2.31,1.16,3.49a33.92,33.92,0,0,1,2.24,4.16c.32.69.53,3.7,1.55,3.21,1.29-.58.71,1,1.16,1.85s0,1.82,1.07,2.4,1.9,1.13,1.27,2.57c-1,2.36-1.34,5.09.35,7.21.37.46,1.21,0,1.67.3a13.61,13.61,0,0,1,.79,3.38,13.72,13.72,0,0,1-.11,1.69c-.18,1.75.67,1.66,1.64,2.93s1.2,3.15,2.06,4.62c.67,1.11,0,2.11-.25,3.23-.21.86.79,2.55,1.22,3.4,1,1.92.6,2.54.65,4.56A1.88,1.88,0,0,1,508.62,3c.86.9.39,2,.14,3-.6,2.34,1.51,5.85-.46,8-.39.4-.35.76.09,1,.93,1.14-.3.49-.35,1.34,0,.37-.3,1.62-.39,2a17.16,17.16,0,0,1-1.41,3c-.41.86-.28,3.84-.74,4.23-1.25,1.06-1,.51-1.67,2.1-1.06,2.31.76,1.3,1.9,2.68.69.83,1.6.16,2.12.86a2,2,0,0,0,.67.85c1.06.51.85.92,1.41,2.19.44,1,3.45,4.25,3.35,4.83-.25,1.43,1.21,2.54,1.2,3.95s-.51,3.65.55,4.77c0,.11,4.64,2,5.25,1.74-.69,2.11,3.6,2.7,2.33,4.67,2.71-.26.55.56,2.66,1.27,2.75.92,1.9,3,3.16,5.13.77,0,1.13.51,1.55,1.06.92,1.16,1.57.16,2,1.48.55,1.6,3.08,1.11,2.84,3.28,4,3,6.4,8.76,6.4,13.52V90.59A11.25,11.25,0,0,1,540.06,95c-.32.65-1.39.74-1.41,1.6,0,1.36-.37.58-1.41,1.59a10.75,10.75,0,0,0-1.83,3.21c-2.11-.79-1.6.6-2.63,1.62a34.08,34.08,0,0,1-11.31,6.77,15.63,15.63,0,0,1-9.25.23c-1.94-.58-3.77,1.13-6.13.92a9.32,9.32,0,0,1-5.6-2c1-2.33-2.26-1-1.76-2.91-2.54.21-6.4,1.27-8.35-.79-.83-.86-1.67-1.76-2.55-2.59s-2-.44-2.8-1.22c-.42-.42-.88.64-1.06.85-.76.9-1.94.11-2.77-.25s-5.41-2.89-5.74-1.83c1.66.3,0,1.53,0,2.33a8.41,8.41,0,0,0,.55,1.85c.6,2.31-1,.19-1.13,1.66a12.61,12.61,0,0,1-1.71,3.72c-1,1.66-.92,3.89-1.87,5.09-1.71,2.11-3,7.75-2.24,9.94.48,1.41-.35,2,.58,2.79s.64,3.37.53,4.18c-.16,1.41-1.66,4.35-.81,5.48.53.69-.55,2.89-.56,3.89a6.92,6.92,0,0,1-.32,2.15c.76.41.85,1.46,1,2.19.2,1.09.92,1.45,1.11,3.1.11,1,1.5,1.71,2.31,2,.48.14,1.18,2.75,1.16,3.4a12.64,12.64,0,0,1-.34,2.15c.6.83,1.39,1.5,2,2.31.48.64.33,1.45.79,2,1,1.27,1-.79,1.38,1.36.51,3.07,3.61,4.26,4.05,7.38.21,1.53,2.4,1.64,3.44,3.21.07,1.5,1.62,2.78,2.33,4.07.35.63,1.48,2.8,1.16,3.51,1.74,1.53,3.82,2.27,4,4.69.14,1.62,1.59,2.73,2.19,4.23.4,1,1.06,3.7,2.1,4,1.37.42,1.44,6,2.47,5.5,1.52-.7.23,1.22,1.18,1.76.69.42.48,1.81.85,2.5s1.13,1.06,1.5,1.76a23.67,23.67,0,0,0,5.48,7c-.32,1,.9,1.64,1.16,2.33.56,1.39.58,3.42,1.16,4.65.27.55.79-.86.62.55-.16,1.22.9,2.34,1.13,3.54.39,2,.93,6.06-.18,7.59-.34.44-.92.37-1.34.63s-.6,2.4-.69,2.94c-.37,2.2-.39,4.74-2.45,6.27-2.89.32-5.3,1.89-8.07,2.64-1-.14-1.48.23-1.55,1.13s-.19,1.07-.85.9c-1-.19-1.64,1.16-2.34,1.74-2.59-.44-4.34.65-6.66,1.48-.58.21-4-.25-3.81-1.48-1.27,1.32-4.83-.19-5.25-1.74,0-.05-2.52-1.5-2.91-1.74-1.27-.81-1.62-2.33-3.49-1.74a2.45,2.45,0,0,0-1.13-2.77c-1.5-1-1.37-.85-1.52-2.29s-2.24-.77-2-1.94c.12-1.59-.9-2.71-1.13-4.21s-1.6-1.51-2.84-2.7c-.67-.63-3.21-2.08-3.08-2.92.3-2.17-.72-.35-1.59-1.57-.74-1,0-2.52-1.38-3.15-2.36-1.13-.07-4.72-2.54-5.69-.69-.28-3.4-4.11-3.33-5.48.07-1.69-1.6-1.83-3-2.82a14,14,0,0,0-2-1.27c-1.73-.83-1-1-1.66-2.64-.39-.93-4.81-7-5.36-5.94,2.29,2.13,1.73,6.2,4.09,8.14.37.3.62,3.35,1,4.09a31.42,31.42,0,0,1,1.84,4.83c.26.85,2.34,6,2.18,6.11-1.6,1.23-.37,1.14.33,2.68,1,2.15-.19,4.72,1.15,6.61,1.07,1.5.9,1.8,1.34,3.56.18.67.58,3,1.23,3.37.85.44,1.11,3,1.9,3.91,1.73,2,1.58,3,2.5,5.36,1.62,4.26,3.08,7.67,3.26,12.28,0,.83-.83,1.37-.71,2.43.12,1.27.28,2.54-1.44,1.81.19,1.43.85,2.56.58,4.07-1.64.32-1.67,2.33-2.34,3.49a14.94,14.94,0,0,0-4.21,1.36,1.78,1.78,0,0,0-1.53,1c-1.08.76-.05,1.07-.65,1.67q-.58,0-1.16,0a19.26,19.26,0,0,1-1.89,1.5c-.83.56-2.82,2-3.91,1.78-1.29-.25-1.6.79-3,1.18-.81.23-3-.63-3.44.21,0-.86-4.37-2.7-5.23-2.92a3.56,3.56,0,0,1,0,.6c0-.05-7.08-1.23-7-1.18q0-.58,0-1.16c-.39,0-.78,0-1.16,0a25.21,25.21,0,0,1-3.5-3.49v-1.16c-.39,0-.77,0-1.16,0-1.41-1.23-.7-1-.58-1.74.13-.58-.63-.71-1-.83-1.11-.32-.62-.92-.92-1.9-.37-1.29-1.09-2.27-1-3.66-.05-.92-1.23-.58-1.64-1.16a8.71,8.71,0,0,1-1.81-3.54c-.07-.86-.49-2.18-1.45-2.34-1.37-.21-1.3-2-1.64-3.07a36.42,36.42,0,0,1-1-3.86c.26-.81-1.34,0-1.22-1.15.23-1.78-2.82-4.67-3.26-6.8-.37-1.89-.16-1-1.35-2s-1.06-1.85-1.51-3.29a27.22,27.22,0,0,1-1.29-3.72c-.21-1.27-1.3-1.55-1.27-2.87-1.18.42-1.28-.12-1.9-.88-.93-1.13.2-1.53.16-2a1,1,0,0,0-.81-.83c-.78-.4-.88-2.27-1.08-3-.37-1.39-1.23-2.29-1.6-3.74a42.44,42.44,0,0,0-1.43-4.11c-.64-1.73-2.72.74-3.56,1.06-1.6.58-1-1.57-2.91,0s-1.27-.58-3-.16a1.1,1.1,0,0,1-1.29-.26,4,4,0,0,1-2.22,1.27c-1.73.55-4.23,2.13-5.92.48-.27,1.44-4.35,3.07-5.62,3.07-2.17,0-3.24-.34-5.71.76-4.21,1.87-7.91,1.37-12.4,1.6-2.19.12-2.8.37-4.27,1.8a3.49,3.49,0,0,1-1.69.93c-.72.35-.33-1-.58-1.18-.4-.19-2.48,1.59-2.85.9-1.23-2.27-.77.9-2.75.18s-3.45-.07-5.41.77-1,1.43-.37,3.15c.44,1.27.93,2.54,1.43,3.79,1.34,3.37,2.2,7.4,5.55,8.86.64.26,1.29,4.05,1.66,4.88.7,1.51,1.06,4.51,2.7,5.07,1.39.48,1.07,2.06,1.92,3,.69.79,1.85,1.15,2.54,2.22.25.39,1.46,2,1.43,2.08a3.52,3.52,0,0,0,1.52,2.2c.39.18.48.51.23,1-.32,1.76.7.4,1.16,1.44a10.62,10.62,0,0,1,.46,5.39c-.23,1.66-.64,2.47.11,4a30.6,30.6,0,0,1,1.48,3.4,3.23,3.23,0,0,1-.07,2.68c-.85,1.94.42,0,.35,1.39,0,.12-.76-.33-.76.48,0,1,.83,2,.76,3h-.58c-.56.55.39,1.69,0,2.33-1.9-.7-2.22,2.57-3.61,3.47s-1.07.32-1.68,1.75a6.26,6.26,0,0,1-2.48,2.8,54.59,54.59,0,0,1-5.16,2.64,37,37,0,0,0-5.53,2.43c-.81.53-4.26-.39-5.53-.46-.51,0-2.84,0-2.78-.69.09-.86-1.8-.18-2.33-.32s-2.34-1.41-2.94-1.18c-2,.81-.54-.3-2.31-.83-2.06-.63-2.63-5.78-5.22-6.13-.49,1.37-1.32,3-1,4.48.23,1.09,1.34.92.72,2-.34.58-.69,1.55,0,2.06,1.13.79,1.85,2.8.58,3.47s.3,1.8.26,1.92c-.32,1.39-1.11,2.8-2.18,2.89-.9.07-.14,1.23-.72,1.78-1.71-.74-1.29.83-2.35,1.16-.79.27-1.73-.74-2.75.07-.47.39.21,1.83-.65,1.85-1.34.05-2.54.67-4,.74-1.76.11-3.42.11-4.77,1.41-1.16,0-1.78-1.09-3.14-.56a.4.4,0,0,0-.35.56h-4.81c-1.73,0-2.19-.9-4-1.07s-3.72-1.37-5.3-2.29-2.06-.74-2.22-2.4a4.45,4.45,0,0,0-.93-2.38c-1.73-2.26-3.74-4.55-4.84-7.17A17.15,17.15,0,0,1,270,289.5a36.58,36.58,0,0,1-.09-3.93c0-1.59-.63-1.66-.55-3.14-1.48.49-1.41-2.8-1.74-3.51-.16-.34-.6.44-.71-.35a10.84,10.84,0,0,1,.09-2.82c.09-.77.65-4.3-.26-4.79.11.05-.25-3.21-.28-3.67-.18-2,0-3.35-.8-5.23a5.55,5.55,0,0,1,.12-2.13c-1.41-1.16-.48-3.22-.37-4.9a43.69,43.69,0,0,0-.05-4.81c-.12-2.06-.65-.51-1.23-1.55-.41-.7.25-.88.77-1,.92-.23-.19-1.23-.32-1.8-.53-2.61-2.19.67-3.37.49v-1.16c-.39-.44-1.3.32-1.74,0a.8.8,0,0,0,.35.93c.74.71-.53,1.3-.35,2A12.4,12.4,0,0,0,261,250.4a21.6,21.6,0,0,1,2,5.13c.16.49.74,2.17.42,2.45a1.17,1.17,0,0,0-.26,1.58c1.29,2.34-.14,2.63-2.08,3.49-1.44.65-2.69,2-4.24.55-.35-.35-1.69-2.36-2-1,.4,0,.6,2.24.6,2.91,0,.88-.86,1.34-.12,2.66.53,1-.12,1.74-.8,2.32a1.36,1.36,0,0,0-.53,1.36c-.26,2.77-.44.32-1.48,1.22-.53.46-.56,2.36-.71,3.08-.07.32-3.1,1.13-3.7,1.5-1.92,1.2-2.87.32-4.67-.58-1.34-.69-.37-1.66-1.85-2.36s-1.92-1.34-.71-2.8c-2-.14-4.12,1.73-5.8-.25-.21-.25-1,.6-1.69,0s-.69-1.25-1.46-1.66-1.66-3.54-2.11-4.49c.17-1.2,2.85-4.28.58-5.25-.11,1.13-1.48-.49-2.33,0-.18.86-1.59-1.27-2.29-1.23-1.23.07,1.24,3.21-2.45,2.43-.93-.19-.79-1.55-1-2.22a1,1,0,0,0-1.23-.7,7.9,7.9,0,0,1-2.13-2.85c-.81-2.34,1.37-3.23,1.55-5.3.32-1.87,1.67-.28,2.61-1,.69-.53,1.46-3.4,1.57-4.37.27-2.32,1.87-3.1,2.5-5.23.41-1.31,1.62-1.36,1.62-2.52,0-2.22,1.48-1.2,2-2.68,1.08-2.89-.3-6.13.34-8.86a10.52,10.52,0,0,0-.58-5,17.25,17.25,0,0,1-1.36-3c0-.79,1-.49,1.16-1.16-1.8-.58-.85-2.4-.56-3.68a4.17,4.17,0,0,0,0-2.13,3.16,3.16,0,0,0,1.73-2.15c.28-1.52-.35-3-.53-4.53-.21-2,1.06-4.21,1.34-6.2.09-.64-.48-2,.14-2.22.81-.32.69-4.81.72-5.76.09-1.78-.58-3.51,1.37-3.95,1.39-.32-.16-2.82,1.62-2.56.14-3.26,1-6.06.69-9.59a10.7,10.7,0,0,1,.35-4.3c.6-2.2.79-1.66,2.47-3a1.71,1.71,0,0,1,1.16-1.18,37.12,37.12,0,0,0,.8-4c.35-2.34.58-4.7,1-7,1.85,0,2.48-4.67,4.65-3.49-.53-1.48.46-1.71,1.39-2.45.42-.34.06-.78-.23-1,.9-1.29,2.47-1.78,3.49-2.91-1.39-.11.81-1.64.88-2.29.16-1.59,0-1.51,1.46-2.38,1.76-1,.93-1,1.37-2.54.09-.3,4.23-3.28,3.83-3.31,2.17.25,1.09-2.87,2.94-2.87.05.44,3,.46,3.4.32a7.41,7.41,0,0,0,2.52-1.55c.83-.77,1.52-.18,2.22-1.18.44-.6.86-1.6,1.74-1.66-.07-1.2-.05-2.85,1.18-3.51,1.57-1.62,4.48-.12,5.41-1.81.65-1.2,2.55-.92,3.65-1.41,2.13-1,.72-.25,2.41.88.44.3,4.81-1.06,5-1.41s4.07-1.5,4.86-1.8c1.74-.65,3.31-1.62,5.11-2.2,1.62-.51,3.14.81,4.19-.67.4-.56.79-1,1.37-.3a4.51,4.51,0,0,1,2.17.16c.6.67,1,.56,1.2-.3,1.27-.86,0-.83.7-1.6s1.81-.69,2.34-1.16c.9-.81,2.15-2,3.49-3.49,2.91,0,5.83-2.87,8.72-1.76.63-2.26,1.46-.79,2.91-1.74.23-.14.19-2,1.06-.92s1,1.36,2.15.05c.81-.93.48-1,.88-1.46.14-.18,1.89-.28,2.33-.58,1.41-.26,2,.64,3.14,1s2.82-1.07,4.05-1.48c5-1.62,9.5-3.37,14.73-5.5,1-.42,2.26-1.27,3.44-1.08.85.14,1.22.81,2,0a10.83,10.83,0,0,1,.58-7c.27-.53.85.88.6-.56-.19-1.08.85-.88,1.53-1.3.4-.25,1.3-2.29,1.81-2.91a8.88,8.88,0,0,0,1.3-2.2,4.9,4.9,0,0,0,2.15-.74,9.48,9.48,0,0,1,1.92-1,2,2,0,0,1-.07-1.58c.39-.81,1.34-1.06,2-1.55.88-.62-.18-1.43,1-1.8s1.11-2.18,1.18-3.21c1.32.48,4.16-2.1,3.49-3.51a13.88,13.88,0,0,0,2.7-.44c1.11-.49.42-2.1,2-1.89-1.25-1,1.85-6,2.89-6.52a3.36,3.36,0,0,0,1.62-1.11c.39-.65-.24-1.83.51-2.2,1.37-.69,3.21-1.29,2.55-3.54,1.41,1.48,3.61-1.53,4.65-1.74.58,0,1.57-4.7,2.66-5.44.81-.56-.86-.72-.34-1.55,1.53-.16,2.49-1.3,3.49-2.32s2.17-2.15,2.4-3.56a1.67,1.67,0,0,0-.65-1.69c-.39-.32.58-.69.58-.56-.18-2-1.32-4.19-2.12-6.06s-.42-2.15-1.76-3.74a8.68,8.68,0,0,1-2.13-3.82c-.76-4.56-4.16-9.06-2.85-12.92.35-1-.74-1.27-.37-1.94.55-1.06.4-1.46,0-2.73-.49-1.67.69-.35,1.06-1.39.32-.88-.65-1-.12-1.89.34-.53-.46-1.67.53-1.76.7-.07,1.83.16,1.34-1,.3-1.29-.39-2-.58-3.14-.18-1,1.66-1.66,2.38-2.71a3.75,3.75,0,0,1,3.12-1.62c.69-.07,1.45-.78,2.08-.69,1.06.16.33.93,1.66.09.93-.6,2.22-.53,3.28-.7,2-.37.9-.07,2.68.76,1.37.65,3.12.49,4.6.44-.35,2.18,3.4.6,2.91,2.91.83.32,2.31-1.09,2.84-.32.63,1,1.11.85,2.1,1.39s3.63,4.25,3.73,4.25c2-.28.35.44,1.23,1.09.42.32,2,.71,2.66,1.06s2,.32,2.57.69q0,.58,0,1.16c.28.39,1.43.42,1.83.48,2.57.44,4.76,2.89,7.49,2.43-.14.9,1.06,2.19,2,1.59a1.49,1.49,0,0,0,.35-1.59c1.25-.44,2-1.39,3.4-1.11.91.19,1.71,1,2.69.86,1.32-.23,3.05-1.8,4.2-1.67.6.07,1.71,1.25,2.06.46.63-1.45,1-.62,2.18-.28-.9-2.24,2.52-.21,2.34-1.74-.39,0-.77,0-1.18,0-.37-.39.63-1.8,1.2-1.75,1.13.12.92-3.74,1.15-4.67.48-1.88,1.27-3.42,1.16-5.43-.09-1.3-.39-2.59-.58-3.88a8.26,8.26,0,0,0,1.13-2.43c.88-3-.28-7.75,1.27-10.13a11.38,11.38,0,0,0,1.76-5,20.18,20.18,0,0,0,0-3.7c-.12-1.67.55-1.6.46-3.17.86.3,4.14-3.75,4.74-4.76.48-.81,3.68-1.59,4.64-1.66,1.73-.14,1.5-.92,2.48-2.31.72-1,2.7-2.31,2.7-3.49M441.1,17a4.29,4.29,0,0,0-1.94-.21c-1.59.35-1.07-1-2.71-1a8.12,8.12,0,0,0-1.53-2.54c-1-1.29-.78-2.54-2.34-2.56-2.26,0-7.91-3.77-7.17-6.54-2.64.83-5.06-.63-7.58-1.16a6.67,6.67,0,0,0-4.07-4.67C413.6-.05,412,.18,410.84.72c.07-.86-1-.67-1.5-.6-1.34.16-1.09.25-1.53-.86-.6-1.53-2.84-1.16-3.95-2a12.8,12.8,0,0,0-.16,5.5c.19,1.29.48,2.54.74,3.81a1.64,1.64,0,0,0-1.18,1.74c-.65.76-2.12.25-1.72,1.74,1.5,1.2,3.43,3.21,3.87,5.15s-1.13,3.67.44,4.93a15.92,15.92,0,0,1,3.91,4.71,28.47,28.47,0,0,1,1.66,3.84c.39.88-.62,1.57.55,2.06s0,.67.62,1.43c.39,0,.78,0,1.17,0V33.3c.86.69,2,.51,2.91,1.18a2.93,2.93,0,0,0,1.43,3.14c3.8,1.52,8.28,3.91,12,.35-1.51.12-3.66-3.89-4.78-4.9a7.51,7.51,0,0,1-1.29-1.2c-.86-1.25-1.37-1-2.87-1.62-.76-.32-1.48-.67-2.2-1.06-1.73-.88-.58-1-1.39-2.47-.6-1.07-1.48-1.73-1.64-3-.24-2.36-1.69-3.24-3.73-4.34-2.36-1.25-5.06-5.18-6.2-7.73a7.16,7.16,0,0,1-.6-3.93c.21-1.41,1.11-1,1.71-2.47.44-1.06,2.1.25,2.24-.79.19-1.36,2.52-1.62,3.66-1.85.93-.19,4,.55,4.87,1.64s2.45-.14,3.44,1.23S423,7.82,424.81,7.7c-.11.28,2.2,2.68,1.9,2.75,1.36-.35.88,1.16,2.56,1.2,1.48,0,2,1.59,3.68,1.29,0,2.8.77,2.32,3.08,3.63,1.46.83,1.34,2.64,2.73,3.37a.35.35,0,0,1,.39-.37c1.36.56,1,2.38,3.12,1,.23-1.55-1.66-1.8-1.18-3.51m41.92-53c-1.09-.19-2,.86-2.91,0a15.58,15.58,0,0,1-1,2.63c.32.28.65.56,1,.86-3.88,2.13-3.1,3.47-3,7.51a13,13,0,0,1-.18,2.19c-.37,2.15-.6.81-1.64,2.11-1.59,2-1.78,3-1.5,5.71.16,1.71.58,2.91-.07,4.6-.7,1.85-1.41,2.59-1.06,4.78s1.13,4.12,1.06,6.29c-.17,1.81-2.19,2-2.91,3.49,1.87,1,3.84.67,5.82,1.16.33,1.32.07,2.8.6,4.07a.93.93,0,0,1,.58,1.18c1.06-.16,1.06.67,1.73,1.14,1,.69,2,2.47,2.92,2.91.39-1.48-.71-3.68-.56-5.37.16-2,.53-4.09.88-6.1.16-1-.1-3.08.72-3.63,1.57-1-.33-3.22-.46-4.67-.23-2.34,1.37-4.69,1.74-7,.16-1-.65-1.89-.58-2.91,0-.69.63-1.36.72-2.1.21-1.6,1.22-2.8,1.29-4.48a18.4,18.4,0,0,0-.16-3.1c-.21-1.6.53-.25.48-1.39,0-.19-1.06,0-.51-1.29.35-.86.23-2.61.81-3.12,1.06-1,.85-3,2-3.52s2.5-.48,2.39-2c-1.71.23-1.13-1.2-2.32-1.74.72.32-2,.18-1.74,0,.11-.93-.62-3.51-1.68-1.69-.7,1.16-.85,3-2.39,3.44m-16.3,48.3c-.07-.56-2.76-1.2-3.22-1.09-1.41.35-1.9-.51-3.56-.42a11.17,11.17,0,0,0-4.62,1c-.93.39-1.68.12-2.55.51s-1.29,1.18-2.34,1.16c.62,1.67-.85,1.15-1.16,2.31,1.15.67,1,2.5,1.13,3.59.14,1.53.49,1.94.14,3.33-.21.85-.65,3.08.48,3.56-.58-2.2,3.21-.33,3.79-1.9,1-2.75,2.66-1.66,5-2.17a1.06,1.06,0,0,0,.56,1.16,2.37,2.37,0,0,1,4.37-1.74c.72.88,1.46.65,1.76.78.28.33.56.65.86,1,.19-1.71,1.29-2.82,2.33-4.07,1.45.21,4-1,3.37-2.78a3.27,3.27,0,0,0-1.06-1.29c-.78-.69-.28-1.36-1-2-1.34-1.22-2.31-2.29-4.21-.92M483,18.77c-2,4-4.9,9.3-9.32,11C470.8,31,466.17,31.17,463.23,31c-.49,1.71-1.16.81-2.7,1.14a11.32,11.32,0,0,0-1.53.49c-.74.26-1-.55-1.6-.48a10.34,10.34,0,0,0-2.33,1.16c-.44.56-2.18-.28-2.91.58-.51.63-2.19.53-2.91.6-3.12.32-3.49-.93-3.49,2.91-1.64.14-1.83,2.24-3.49,2.33-.19,0-1.76.58-1.76.58,2,.09,2.78,4.34,4.1,5.2a.65.65,0,0,0,1-.46,7.5,7.5,0,0,1,2.19.62c1.3.53,1.09,2.48.32,3.37,1.73.55,4.35.19,4.09,2.52-.35,3.15,1.52,1.73,1.39-.65,0-1,.74-1.73-.18-2.31s-1.9-.67-2.28-1.62c-.61-1.52.92-4.21,2-4.51,2.36-.62,3.93-2,6.57-1.57-.16-1.64,3.1-2.13,4.21-2.13,2.15,0,4.14.88,6.36.49,1.55-.26,3.89,1.14,5.13.48-.42,1.3,1.09,1.36,1.92,1.57,1.11.28.28,2,1.48,2,1.87,0,.72.88,1.71,2.15.33.42,1.06.72,1.3,1.22.34.7-.49,1.55.34,2.06a1.73,1.73,0,0,1,.85.74c.42,1.09.93,1.32,2,2.22.46.39,2.66,3.49,2,4.28-.18.21.25,1.78-.05,2.5-.76,1.83-.12,3.88-1,5.66,1.44.12,3.15-2.61,4.09-3.47a11.63,11.63,0,0,1,5.8-1.76c-.43-1.6.88-1.64,1.16-2.91-1.29,0-2.1-.92-3.49-.58.41-1.78-3.49-3.68-3.49-6.12,0-2.18-1.18-2-2.71-3.28-2.1-1.69-.39-2-.77-4-2.73-.14-.48-5-.07-6a4.18,4.18,0,0,1,1.62-2.45c1.11-.6,1-3.38,1.36-4.92-3.84-.28-2.71-5.62-4.07-8.14-.33-.62-1.15.21-1.57-1.16-.16-.49-.85-2.73-1.34-1.16.35,0,.69.07.58.58m21,32.58c.4-1.39,1.62-1.83,1.74-3.49-2,.25-2,2.26-3.36,2.4-1,.11-3.52-1.2-4.19-.05-.18-2.86-5.34-7.91-1.53-10.47a9.75,9.75,0,0,1,5-1.76c.21-1.34-1.76-1.78-.58-2.91-2.22.35-4.2-.86-6.42-.58-.56,2.33-2.5,4-2.91,6.4,2.68.35,1,1,1.16,2.91,2.29-.16,1.83,3.31,2.22,4.37,1.11,3.08,6,2.47,8.85,3.19m-90.8-7.56a6.11,6.11,0,0,1,0,1.16,8.89,8.89,0,0,0,1.16.58q0,.58,0,1.16c.6.72,1.64.11,2.15,1.15s.65,1.76,1.92,1.18c.23,1.64,2,1.87,2.91,2.92a11,11,0,0,0,.6-2.91c.21-2.59-.25-1.89-2.08-3a6.67,6.67,0,0,1-2-2.2c.39-1.15-.67-.67-1.16-1.16-.69-.69.56-.85-.71-1.62-.81-.51-1.46-.62-2.47-1.14-2.61-1.36-1.38,3.06-.32,3.93M477.78,81c-.85-1.41-2.92-2.68-4.33-3.52a7.35,7.35,0,0,1-2.2-1.69c-.78-1-.9,0-1.62-.62-.56-.46-.56-1.32-1.16-1.73s-1,.6-1.45-.58-1.69-.76-2.63-1.16a23.28,23.28,0,0,0-2.32-2.91c-.27.88-4.6-2-5.23-2.08-2.18-.28-4.23-5.57-6.54-6.54A21.77,21.77,0,0,1,448,59c-1.67-1-.65-1.25-1.25-2.84s-2.38-1.73-3.53-2.68a2.68,2.68,0,0,1-1-1.55,2.76,2.76,0,0,1-2.61-.86,3.9,3.9,0,0,0-2.06-.88c-.63.11.07,1.34-1.13,0-1-1.08-2.24-1.89-3.28-2.93C431.88,46,432,45.53,430,45.53c-.05,1-1.13,1.37-1.83,1.74-2,1.09.35,3,1.25,4.07a6.44,6.44,0,0,0,1.16,0,14.69,14.69,0,0,1,1.16,1.18v1.15q.58,0,1.16,0c1.23,1.09,2.22,2.47,3.49,3.51v1.16a6.28,6.28,0,0,0,1.16,0c.74.32.49,1.67,1.76,1.75.92.05,1.67,1.22,2.33,1.74,3.45,2.85,7.4,5.18,10.43,8.6.72.79,1.74.41,2.1,1.27.41,1.08,1.25.3,2,1.2a18.23,18.23,0,0,0,3.49,3.49,20.1,20.1,0,0,1,3.3,3.38c.92,1,2.82.65,3.42,1.62.48.77,3.42,2.22,3.17,3.44a18.64,18.64,0,0,1,3.49,2.63c1.38,1.57,3.23,2.17,4.81,3.33,1.08.79,1.9,1.48,3.35,1.32a30.65,30.65,0,0,0,.83-4.92c.14-1.66.18-3.33.34-5-1.55-.79-2.86-1.43-4.65-1.16m-2.34-28.51c0-4-5.5-3.28-7.14-3.93-.58-.23-1.2.26-1-.72s-.62-1.07-1.34-1c-1.27.14-3.22,1.8-4.49,1-.69,2.7-.93,5.5-1.73,8.16a5.16,5.16,0,0,0,.44,3.19c.52,1.27,2,1.74,2.17,2.94.19,1.5,2.27.76,2.06,2s1.36.35,1.14,1.18c2.89.26,6.4.28,8.72-1.74.37,1.11,1.07-.21,1.39-.58.85-1,1.27-1.06,1.29-2.71,0-1.5-.28-3-.39-4.48,0-.6.46-3,.41-3.08s-1,.16-1.53-.19M406.77,49.6c-.21.74-1.27.64-1.32,1.48-.16,1.69,1.54.88,1.36,2-.21,1.48,2.64,4.14,4,4.86.62.32,4.57,5.34,4.18,1.64-.18-1.5-.6-3.56-1.69-4.39-1.83-1.41-3-2-3-4.41-2.43.42-1.73-2.38-3.49-2.91-.21.76-.63,1.06,0,1.74M508,60.09c-.88.26-2.36.21-2.91,1.16,2.22.56-2.54,1.16-1.74.58q0,.58,0,1.16c-.58.58-.93-.4-1.67.64s-2.49,1-3.56,1.11c0,1-.78,1.46-1.53,1.88-1.39.76-1.07,1-1.39,2.2S493.54,70.89,493,72c-.72,1.57-1.67,1.6-1.83,3.24-.12,1.27-.92,2.29-1.13,3.54-.12.67-1.15,3.17-2.4,2.84-.26,2-.86,4.09-.21,6.32a3.74,3.74,0,0,0,1.37,1.83c.25,1.32.05,2.78.25,4.16.69,4.77,3.68.67,6.15,3.4,1.06-2,.3-4.19,0-6.31-.34-2.77,1.62-3.67,1.8-6.1.14-2,.85-3.1,1.76-4.81.77-1.45-.07-1.55,1.48-2.15,1.28-.51,1.41-2.47,1.88-3.65a14.17,14.17,0,0,1,4.14-5.83A22.47,22.47,0,0,1,511.47,65c1.92-.7,3.19-2.91,4.79-4.11.74-.56,3.4-.37,3.42-.85a32.56,32.56,0,0,1-4.14-1.69,9.07,9.07,0,0,0-2.27-.63,1.28,1.28,0,0,0-.44-1.11c-1.23-.71-1.62-1-2.13.49A5.85,5.85,0,0,1,508,60.09M405.61,63.58c.67.81.48,2.06,1.74,2.33-.18-1,1.29-.42,1.74-.72,1.29-.86-1-1.5-1.16-1.6V62.41c-.46-.39-1.18-.14-1.58-.58a3,3,0,0,1-.16-2.91c-1.67-.21-1.81,1.55-2.54-.46-.44-1.22-.81.32-1.29-.11s-3.75-1.62-3.75,0c2.33,1.73,5.09,3,7,5.23m60.53,28.53c-1.34-1.69-3.81-2.33-5.23-4.09-.48-.56-1.25,0-1.9-1.22s-2.4-.37-3.08-1.45-1.18-.42-1.62-1.73a4.51,4.51,0,0,0-2.12-2.34c-1.8-1.07-4.09-1.66-4.67-3.95-.46-1.74-3.86-4-5.67-5.06-1.53-.93-2.59-.7-3.54-2.2s-1.48-1.23-2.66-2.11c-.65-.48-.92-1.36-1.82-1.5-1.32-.23-1.46-1.23-2.52-2.24-1.46-1.39-2.7-3.08-4.74-3.56-.35,1.41-1.74,1.37-2.87,1.71-.63.19-1.57,1.78-2.08,2.33-1.87,2-3.67,4.58-5.67,6.73-1,1.11-1.9,1.11-2.26,2.84s-2,1.92-2.91,3.67a7.24,7.24,0,0,1-1.09,1.94c-.35.37-1.13-.18-1.16.58-.07,1.32-2.45.51-1.74,2.33-1.53-.37-1.13,1.85-2.91,1.16-.23,1.18-.6,2.33-.9,3.47-.39,1.5-1.27,1.39-1.71,2.87-.55,1.87-3.26,2.87-4.44,4.33-4.55,5.62,7,2.2,5.87,6.2,1.57-.19,3.56,0,4.09,1.74,2-.93,3.95-.14,6,.32,1.75.41,4.66.25,5.16,1.76.62,1.83,1.83,1.94,3,3.17,1,1.06,1.34.3,2.38,1.06,1.62,1.22,3.24,2.43,5.25,2.43,2.28,0,4.46-.62,5.94,1.34,1.73,2.26,1.65-.49,3.08-.18-.48,1.83,3.1,1.45,3.6,1.07,1.71-1.29,1.32-.42,3-.39,1.16,0,2.19-.56,3.33-.69-.13,1.07,1.83,2.41,2.75,1.67.72-.58-.42-2.45,1.32-1.67,1.89-.26,2.42,1.48,4.07,1.74,1.3-1.76,3.29.76,4.23-.26s1.89-.76,2.77-.27c.6.32,2-4.1,2-4.9s-.6-3.58.86-3.29-.09-2.36,1.74-1.76c.37-1.64-.51-2.2-1.16-3.49,1.62.55,1.11-2.08,1.69-3a5.1,5.1,0,0,0,.72-2.78c0-2-1.34-1-2.41-2.4M396.28,68.23c-.25,2.11,1.27,2.71,2.89,3.17.9.27.76.81.88,1.55.21,1.23,2.94,1,3.81,1.69a3.91,3.91,0,0,1,.58-2.91c-1.48-.05-.26-2.45-2-2.66a4.13,4.13,0,0,1-1.92-1.75c0,.35-2.73-2-2.49-2-1-.05-.25-.78-1.92-.85-1.29-.07-2.68.33-3.89-.32-.16,2.75,2.84,2.38,4.07,4.07m125.14,2.92a7.07,7.07,0,0,0-3.42.46,4.53,4.53,0,0,1-1.81.12,3.09,3.09,0,0,1-.67,1.94,14.63,14.63,0,0,1-5.87,4.25c-1.64.55-.83,1-1.34,2.45s-1.6.69-1.71,2.38A21.3,21.3,0,0,1,506,85.2c-.28,1.76-.28,1.66-2.06,1.66a56.2,56.2,0,0,1-.18,5.71,14.38,14.38,0,0,0,0,2c.12,1.32-.53,1.62-.67,2.86-.16,1.53.81,3.07.81,4.62.69,0,2.57,1.13,3.22.6,1.06-.86,2.12-.25,3.7-.05.83.09,2.64-.67,3.08-.37s2.7-.44,3.42-.53c2.27-.25,4.72.37,6.36-1.39.69-.72,3.75-1.48,3.91-2,.49-1.48,1-1.06,2.52-1.23.7-.07,2.08-3.28,2.55-4.05,1.76-2.75-.78-2.61-2.85-3.89a5.11,5.11,0,0,1-2.56-4.67c0-.7-.44-3.61-.09-3.91.74-.6-.18-2.34-.14-3.12.07-1.34,2.1-3.49,2.48-5-1.13.25-2.78-2.26-3.51-2.91-1.9-1.78-2.82,1.38-4.65,1.76m-124,6.4c-1.07.21-1.64-.62-2.15-1.41-.69-1.11-1.06-.76-2.18-1a10.55,10.55,0,0,1-1-2.41c-.28-1.43-.93-2.11-2.71-1.9-3.75.44-3.56,3.15-2.27,5.85.42.86,2.59,2.06,2.75,2.66.07.27-.71,1.06-.58,1.16,1,.92,1.59-.55,2.56,1.18.3.53,2,1.32,2.68,1.73,0-.39.16-.6.58-.58.34.18-.14,1.41.58,1.16a13.79,13.79,0,0,0,1.16-3.49,1.65,1.65,0,0,0,1.74-1.16,1.65,1.65,0,0,1-1.16-1.74M380,82.2c-1.25,1.5-1.57,2.13-3.4,1.16-1.34-.72.28,1.3.3,1.32,1,.79,1.89,1.64,2.91,2.36,2.49,1.74,6.1,2.31,8.35,4.48-.48-1.71,1.9-.88,1.75-2.34-2.71.18-2.84-2.57-4.72-3.67-2.06-1.22-1.55-4.63-4-5.06.12,1-.64,1.11-1.16,1.74m-11,11.07c0,1.22-.43,2.45.79,3.07.71.37.3,1.6,1,2.24s1.29,1.16,1.08,2.26c1.64.37,2.18-.51,3.49-1.16A16.29,16.29,0,0,0,380,97.92c.25-1.5-1.39-2.13-2.45-2.64s.35-1.74-1.32-1.44c-1.35.23-1.53-2.52-2.63-3.47a4.08,4.08,0,0,1-4.65,2.91m16.88,7.56c.12,1.83,1.08,3.38,1.52,5.13.49,1.94.23,2.5,2,3.59.21-.86,1.22.07,1.74,0,.72-.19.64-1.25,1.47-1.3,2.92-.25,3.63,3.72,4.42,5.55.69,1.6,3.63,0,4,1a7.35,7.35,0,0,1,6.42,3.49c2.11-1.09,5.43-.37,6.2,2.08.56,1.75-.05,3.17,2,3.07a14.66,14.66,0,0,0,3.17-.23c1.14-.28,5.27,3.17,6.63,1.48-.3.37,2.43.58,2,.58,1.09,0,2.31.25,2,1.76,2.4-.58,5.5-.32,7.19,1.53,1.32,1.41,3-.12,4.53,1.06,1,.83,1.45,2.27,2.87.92,1.8-1.73,2-.79,3.7.14a7.45,7.45,0,0,0,5,.42c1,1.41,3.6,2,4.71,1.06s3-1.3,4,.11c-.39-2.41.93-4.19,1.16-6.48.23-2.47-6.91-2.45-8.72-1.66-.39-1.22-1.76-1.46-2.75-1.92-1.2-.53-2.31.51-3.74.78a7.8,7.8,0,0,1-4.26-.23c-1.45-.32-1-1.5-2.06-2.13-.07,0-.85,1-1.17,0-.11-1-1.8-.55-2.33-.58-1.22,1-.78,3.19-2.91,2.91-1.57-.74-2.5-2.26-4.14-2.78-.63-.21-1.3.33-1.88.46-1.2.21-2.43-.9-3.47-1.41-1.9-.92-2.87-3.26-4.67-3.47-2-.23-5.52.76-6.26-1.18s-.92-2.38-3.4-2.31a5,5,0,0,0-2.36.81,2.93,2.93,0,0,0-2.91-1.16c.32-2.73-1-1.94-2.63-1.46a3.56,3.56,0,0,1-3.21-.28q-1.16-.61-2.33-1.16a2.54,2.54,0,0,0,.28-1.64c-.79-2.17-3-1.55-4.84-1.67-1.5-.11-3.24-2.59-3-4.26-1.39.39-1.23-.69-1.85-1.48-1-1.3-1.06,1.15-2.22.9m-26.2,18c-.48.74-3.14,1.59-1.75,2.33q-.05-.63.58-.58c.19,1.44,2.87,2.61,3.53,4.16.46,1.11.7,2.29,1.13,3.4-.16.78-1.11.7-1.57,1.15-1.22,1.16.86,3.33,1.6,4.07a5.35,5.35,0,0,1,.81,5.36c-1.06,2-1,2.85.4,4.69,1.78,2.31,2.13,3.31,1.59,5.92-.39,1.85,1.87,3.77,2.57,5.45a19.51,19.51,0,0,1,1,3.67c-.86.92-2,1.62-2.34,2.91,2.08.26,1.6,2.36,2.92,3.47,2.5,2.06-.09,5.78,1.08,7.95.4.79-.14,1.39.91,1.83,1.3.55,1.55.63.88,1.57-.25.35.56,1.15.67,1.43.32,1-1.38,3.19-1.8,4.1,1.3,0,1.64,1.32,2,2.27a1.11,1.11,0,0,0,.88,1c1.25.51.07.63.6,1.44s1.48.6,1.16,1.74c.32,1.34-.9,2.15-.58,3.49.09.76,1.18,1,1.39,1.89a27.41,27.41,0,0,1,.33,4.81c.07,1.32.65,2.06.9,3.21a14.65,14.65,0,0,1,.14,1.73c.13,1.37.74,0,1.3.6.79.79-1.27,1.39,1,1.39,1.5,0,2,.72,2.77-.46a13,13,0,0,1,2.64-2.94c1.08-.9,3.86,1.5,4.33-.3s-1.35-4.25.28-5.83c-.62,0-2-2.43-2.32-2.93a19.25,19.25,0,0,1-.23-7.58c.32-2.06-2.27-4.44-3.26-6.4,1.62-.42-.33-3.49,1.15-4.07-2.5.14-1.53-3-2.13-3.82-1.64-2.29,1-4-.18-6.06s-3.7-3.17-3.51-5.83c.09-.88,1.08-1.69.94-2.52-.26-1.71-1.67-1.82-2.43-3.07-1.64-2.7.44-3.72.9-6.08.3-1.57-.51-2.49-1.62-3.4-.7-.58-.56-1.73-1.43-2-1.45-.44-.88-.76-.44-1.94.56-1.53-.67-2.91-1.52-4.05-1.9-2.63-.79-8.16-.79-11.31-1.13.48-.74-1.16-1.69-1.37-1.71-.41-1-1-.63-2.31.26-1.08-1.36-2.13-1.75-3.29-.23-.69,1.11-.88.28-1.44-.49-.33-1.29-.83-.61-1.52.3-.3-.07-1.71-.25-2.27s-.9-.93-1.13-1.57c-.32-.9.44-1.08.6-1.89.37-1.9-.32-6.24-2.38-7,0,.3-3.79.62-4.51.64-1.89.07-4.85.79-4.51,3,.18,1.16.81,2.1.86,3.33s-.77,1.62-1.09,2.63c-.43,1.39,1.56,1.48,2.45,2.18,1.58,1.27.74,3.63-.19,5.08m17.46-11.07c-3.56.49,1,3.31-1.16,5.83.93,0,1.23.44.58,1.16.92-.16,1.17.49,2,.65,1.39.3,1.18,1.27,2.2,2.61s3.89,1.3,5.57,1.37c.63,0,4.42,1.83,4.26,2.91-.14.9,1.23,1.23,1.73,2.06.93,1.57,3.56.86,5.23.86.14,1.32,2.57,3.44,3.44,3.72a10,10,0,0,1,4.9,3.21c.74.76,4.28,1.73,5.69,1.85,2,.14,2.89,2.87,4.74,2.87,3,0,4.05-.07,6.18,2,1.25,1.22,3.87,3.26,5.51,1.57,1.18-1.22,3.14-.39,4,.93.65,1,1.39,2.36,2.77,2.47,1.32.32,1.13-.83,2.1-1.16,1.55-.55,3.79,2.64,5.48,2.93.76-.19,1.25-.81,2-1.06,1.25-.42,2.41,1.14,3.75,1.36a8.14,8.14,0,0,0,3.56-.3c0,1.09.8-.16,1.16,0,1,.4.46,1.81,2.22,1.62.81-.09,2-.67,1.85.69,1.09.18,1-.7,1.74-1.16.19,1,1.15,1.08,1.83,1.44,1.76,1,.44-1.32.28-1.83-.55-1.89-1.06-5.39.25-7,.3-.35,1-1,1-1.55a9.63,9.63,0,0,0-1.71-1c-.9.85-1.55,3.24-2.8,3.52,0-.14-1.85-1.37-2.15-1.83-.76-1.16-2.47-1.69-3-.07s-2.58.19-3.66.07c-1.32-.14-1.36.19-1.64-1.23-.16-.7-.31-1.55-1.22-1.59-.32,1.57-.93,1-1.37,2.13-.92,2.34-1.59.9-2.7-.39-.55-.62-.86-1.53-1.76-1.74-.51,1.09-2,1.18-3,1.2-1.9,0-3.89-1.41-3.4-3.52-1.74-.39-1,2.27-2.91,1.74.12-.56-.05-.88-.55-1-.67.7-1.15.44-1.37-.79-.74-1.06-1.82-3.6-3.31-1.73.41-.51-4.26.35-4.86.25-1.29-.19-.83-.93-2-1.3s-.28-1.13-.12-1.85c-3,.05-8.79,0-8.14-4.65a1.12,1.12,0,0,0-1.29.65c-.6.85-.85.25-1.66.16s-1.51-.11-2.29-.25a1.68,1.68,0,0,0-1.76-1.16c1-4.42-6-3.26-8.14-4.65-2.4-1.53-2.91-.72-2.91-4.07-1-1-3,.32-4.51-.79-2.11-1.55-3.88-2.91-4.44-5.6-.26-1.2-2.26-2.33-1.53-3.51-1.68.62-1.14-.85-2.33-1.16-.09,1.8-2.08,2.38-2.33,4.07m-30.85,0a16,16,0,0,1-1.73,1.74c-.72.48-1.82.44-2.34,1.18-.09-1.16-1.2.11-1.83-.25-1.48-.86-.51,1.22-1,2-1,1.62-1.9,2.27-.25,3.63a22.26,22.26,0,0,1,4.12,4.23c1.2,1.94-3.95,5.07-1.14,6.75,1.07.64,1.53,3,1.81,4.21.44,1.92-1.73,2.68-1.74,4.46,1.83-.12,1.36,2,2.34,2.91-.48.07,0,5.43-.11,6.36-.09,1.27,1,.23,1.27,1.37.37,1.73.44.55,1.78,1.53s1.94,4.62,2.34,6.1a13.5,13.5,0,0,1,.53,3.84c.07.74.93.55,1.16,1.16.33,1-.18,2,0,2.91s1.11,1.89,1.16,2.92c0,.88-.6,1.44-.58,2.33.83.07.88,1.11,1,1.71.3,1.69,2,2.13,1.35,4.32-.49,1.59-1.64,1.92-.51,3.42.86,1.13,3,3,2.82,4.51.48,1.78-1.48,1.07-1.75,2.33,1.85,1.9,2.61,4.58,3.49,7,.26,1.73-2,1.74-1.74,3.49,1.62,1.18,1,3.77,1.06,5.46,0,.93,2,4.4,1.27,5-.33.26.74.9.58,1.16,0,.78-1,.49-1.17,1.16,1.39.09.28,1.74,0,2.33,1.46-.09,2.63-1.09,4.07-1.16,1.13,1.22,3.14,1.23,4.65,1.16-.09-.86,1.53-2.54,2.13-3.1,1-1,2.54-.65,3.7-.39-.18-1.71-.72-3.37-.86-5.07a1.52,1.52,0,0,1,.28-1.34c.44-.35-.58-.58-.58-.56-.14-1.09-.92-2.4-.8-3.4.23-1.73.65-2-.69-3.3-1.71-1.73,2.08-4.76-1.11-6.59-1-.56-1.74-.46-2.08-1.87v-2.33c.65-.67,2.13-1.45,1.69-2.56s-.42-1.87-1.41-2.5a4,4,0,0,1-2-4.48c.16-1.6,1.25-4,.07-5.34a9.44,9.44,0,0,0-1.6-1.3c-1.41-1.08-.09-.9-.77-1.85s-.67,0-1.27-1.45c-.72-1.74.06-1.9.58-3.47,1.2-3.58-2.52-7.42-1.06-11.4-1.13.09-1.32-.83-1.16-1.74-1.32-.16-1.83-1.3-2.22-2.42-.58-1.67-.69-1.5.48-2.82.56-.63,1.66-1.3,1-2.33-.88-1.3-1.14-2.2-2.13-3.51-1.36-1.74-2.8-3.4-1.08-5.55,2.52-3.21-6.42-5-3-9.37,1.43-1.83,1-3.21-.74-4.76a7.71,7.71,0,0,1-1.76-3.28c-.67-1.74,1.13-1.5,1.37-3.22h-5.83m-16.3,7.56c-2.5.28-4.39-1-6.22,1.36-.78,1-5,2-6,1,.07,1.13-.83,1.32-1.75,1.16.21,2.08,1.5,3.52,2.5,5.25,1.41,2.4.51,3.6.32,6s2.2,1.16,2.42,2.77c1.13,1.87,2.75,4.28,1.16,6.4,1.3.12,2.94,2.29,3.1,3.61.21,2-.69,4.32.23,6.08,1,1.92,2.5,3.77,1.32,6,1.3.83,2.91,3.95,3.07,5.3.49,4.53.26,9.92,2.77,13.9-2,2.08.14,3.72,1.16,5.23,1.23,1.87.74,3.51,1.29,5.53.42,1.64,1.51,3,2,4.63s-.9,2.89-.46,4.11a9.74,9.74,0,0,1,.48,4.76c-.7,2.45,1.22,4,.8,6.31-.25,1.25.12,1.6.24,3s1.41,2.31,1.48,3.63c.11,2.06,4.07,1.22,5.24,2.33.56-3.6,4.07-3.17,6.11-1.71.53.37,1.27-1,2-.62a14.17,14.17,0,0,0,.16-5.45c-.17-1.78-.44-3.54-.6-5.3-.09-1-.14-1.94-.16-2.89,0-1.57-.65-1.8-.56-3.24-.53,0-.7-1.43-1.14-1.78-1.08-.85,1.18-3.38,1.73-4.62-2.87.16-2.24-5.52-2.5-7.16-.21-1.25-.86-3-.88-4,0-.63-.32-.85-.86-.81-1,.07.39-2.24.48-2.5.56-1.92-1.5-3.19-1.48-5.36-1.67-.21-2.13-.51-1.25-2.31a9,9,0,0,1,1.25-1.74,5,5,0,0,1-1.62-2.06,13.64,13.64,0,0,1-.7-6.68c-3.16-2.5-3.54-5.09-4.48-8.76-.39-1.48-2-6.85-3.31-7.19-2.19-.58.21-7.4.63-8.81.25-.85.76-3.65-.33-4.05-2.06-.81-.72-3,.51-4.37-1.74,0-.46-2.11-1.73-2.61-1-.4-1-1.37-1.76-2-.53-.46-1.43-.46-1.74-1.16,1.32-.44-1.71-2.34-1.75-2.33,0,.79-1,.49-1.18,1.15M299.67,226a14.68,14.68,0,0,1,1.35-4.21c.53-1.27,3-2.29,4.46-2.78.55.81,5.83,2.66,6.19,2.11-.55-.32-.48-.64.19-1,.32-.48.6-1,.88-1.46.85-1.41,1.78-1.39,3.28-1.27a18.87,18.87,0,0,1,3.43.42c1.36-.67,2.56-1.59,3.95-2.19a9,9,0,0,1,4.2-.72,10.08,10.08,0,0,1,.79-4.19,7.06,7.06,0,0,0,.67-3.59c-.3-1.76.79-1.43,1-2.94.25-2-2.66-2.47-3-4.41-.41-3,.4-5.5,1-8.42.3-1.48.41-2.4-.58-3.61s-3-3.14-2.34-4.79c.5-1.25,1-5.64-.07-6.38-2-1.3-2.47-6.34-3.37-8.67-.74-1.87-1.15-2.22-.21-4,.6-1.11-.58-1.92-1.5-2.11-2.47-.56-.23-7.35.11-9.16-1.16-.74-2.31-.69-3-2.1s.26-2.85-.39-4.11a19.23,19.23,0,0,1-2.24-6.19,4.81,4.81,0,0,0-2-3c-1.69-1.48-1-3.08-1.71-4.93-.48-1.3-1.67-1.59-.74-3,.37-.58-1.13-1.87-1.23-2.7-.33-2.36-1.35-4.17-3.84-4.76-.16,1.76-2.2.85-3.56,1.2-2.26.56-4.32,1.73-6.55,2.43-1.09.35-2.19.67-3.26,1a6.89,6.89,0,0,1-2.34,2.34c-1.55,0-3.21-.25-4.33.49-.85.55-1.16,1.37-2.06,1.83a27,27,0,0,1-8.14,2.32c-.81,1-1.57,1.92-2.38,2.86-1.6,1.85-2.2,1.8-4.62,1.8.11,1.73-2.55,1.85-3.47,2.89-1.13,1.29-2.11,1.06-2.26,2.78-.09,1.11-.86,1.87-.67,3-5.15-1.13-3.21,6-7.58,5.83.69,2.77.41,5-2.57,6.25-1.51.65-.35,1.11-1.09,2.59-.58,1.18-1.25,2-1,3.38-4.64-.71-4.05,10.48-5.16,13.09a9.91,9.91,0,0,0-1.2,4.32,4.87,4.87,0,0,1-.62,2.38c-1.53,2.38-.12,4.41-.58,7-.72,1.9-3.65,5-1.62,6.85,1.25,1.16.23,4.21-.7,5.37,1,.44,1,5.15.35,5.71s-1.66.23-1.52,1.27c1.46,1-.16,2.75,0,4.07.05.44.74-.76.62.55a2.91,2.91,0,0,0,.55,2.36c2.22-.46,4.83-1.06,7,0,.51-1,0-3.1,1.74-2.91-.25-1.78-1.11-3.4-1.16-5.23,0-.83,1.2-1.71.58-2.33-.86-.86.39-2.1.58-2.91a14.92,14.92,0,0,0,.14-5.8c-.23-1.8.86-3.45,2.18-4.69a7.12,7.12,0,0,1,0-4.49c.63-1.76,1-3.75,1.48-5.59.65-2.31.35-1-.34-2.73,1.61-1.11,4.81-6.84,7.19-4.72,1.62,1.43-.58,7.86-.05,8.07,1.6.6.35.67,1.34,2,.7.93,2.22,1.38,2,2.82-1.53,3.24-1.29,7.14,2.13,7.15.9,0-1.23,6.78-1.36,7.33-.63,2.93.72,5.94-.2,8.79a9.67,9.67,0,0,1,3.19,6.55,6.35,6.35,0,0,1-.28,2.77c1.09.21,1,1.46,1,2.29,0,.53-.1,1.29.61,1.32,1.34.05,0,.92.44,1.87,1.11,2.59.53,6,1.34,8.72a7.4,7.4,0,0,0,1.27,2.66c0,1.82-.3,3,.86,4.37a12.12,12.12,0,0,1,1.87,3.24,17.66,17.66,0,0,1,.78,2.29,12.34,12.34,0,0,1-.58,1.16c.16.32,1.39-.14,1.16.58-2.43,1.81-2.18,2.57-1.74,5.37A5.26,5.26,0,0,0,273,258c.09.12,1.69,1,1.39,1.13.32-.19.26-1,.6-1.25,1-.88.65,1,.88,1.13s.78-.69,1-.35c.8,1.06,2.15-.58,3.05-1.23,2.13-1.59,7-.23,8.24-2,.83-1.16,3.49-2.82,4.88-2.61.91.14,7.12,1.22,7.19,1-1.2-.16,0-1.9-.79-2.18-1.51-.55-1.11-.88-1.3-2.52-.14-1.23.65-1.66.92-2.89.41-1.85-1.37-4-2.08-5.66a4.7,4.7,0,0,1,.21-4.93c.56-1,.81-2.41,0-3.24a3.88,3.88,0,0,1,2.45-6.52m83.8-93.71c.05.12.56-.14.71.28.23.7.37,1.5.65,2.17s.32,1.67.83,1.94c1.34.7.09,1,.23,2,.12.85.88,1.46,1,2.31a1.23,1.23,0,0,1-.51,1.16,4,4,0,0,1,1.29,2c.44,1.46.28,3,.93,4.46.79,1.76,0,2.5,0,4.46,0,2.2,1.25,2.55,1,4.53-.05.35,2.43,3.89,2.66,4.35.62,1.27.74,2.77,1.57,3.91s.16,1.6.37,3.28-.27,4,1,5c-.93.65-.23,2.82-.05,3.35.4,1.23-.41,1.39.71,2,.76.44.83,1.55,1,2.31a14,14,0,0,0,1.27,2.78c-.56,1.36-.26,2.5-.09,3.91.37,2.8,3.28,4.26,3.08,7.36a14.32,14.32,0,0,1-1.55,5.87c-1.25,2.19,1.27,4.86,0,6.91-.3.51.42,3.24.6,4,.46,2.08,1.55,2.82,2.57,4.53-.09-.16-.79.37-.3.83a4,4,0,0,1,1.16,1.53c.16.42.83,4,.9,4.05.05.35,2.36-1.51,2.91-1.74a10,10,0,0,1,4.65-.74c.77,0,1.55.09,2.33.14a5.62,5.62,0,0,1,2.5-1.94c2-.63,1.85.7,3.08-1.3.51-.85,2-1.2,2.34-1.83,1.36-2.73,3.44-2.12,6-3.07,1-.37,1-1.34,2.26-1.59s2,1.2,2.82-.46c.49-1,1.41-2.48,2.77-1.92,2,.83,2-.65,1.59-2.47-.67-2.78-3.24-4.58-4.62-7-.55-.92-1.22-2.27-.55-3.26.3-.44,1.32-2.82.39-3.12-.21,1.3-1.23-1.29-1.76-1.64-2.1-1.41-.54-3.08-.33-5.2s-.37-3.84.53-5.6c.72-1.44,5-.19,6.22-.37.39,1.36,1.16-.33,1.16,1.46,0,1.62.56.41,1.41,1.41.35.42,3.26,2.1,4.19,2,1.62-.23,2-.49,2.48,1.25.27.91-.23,1.9-.42,2.78-.39,1.8,1.92,2.34,3.31,2.89,2.31.9,2.1,4.25,3,6.43.58,1.3,1.11,1.18,2.38,1.52,1.92.51,2.06-.23,3.38-1.07s2.78-.65,2.34-2.91c.71.11,1.34,0,1.53-.76.3-1.23.61-.74,1.37-1.57,1.45-1.6,3.33-1.37,5.27-2.2a10.41,10.41,0,0,0,4.28-2.75,7,7,0,0,1,2.31-1.74c1.46-.64.63-.64,1.16-2,.6-1.53,3.93-1.6,5-2.92-1.64-.3-.09-3.56-1.6-3.63-.78,0-3.31-4.81-3.82-5.85-.7-1.41-1.18-1-2.45-1.87-1.66-1.11-1.58-2.45-1.85-4.26a14.3,14.3,0,0,0-2.12-5.36c-1.18-1.6-1.81-2.29-4.12-2.57-2.64-.3-4.72.26-7.31-.56-1.34-.44-1-.92-2.5-.74a31.69,31.69,0,0,1-3.65.23,14.85,14.85,0,0,1-5.5-1c-.32-.16.35-.55-.41-.79a10,10,0,0,0-2.15-.34c-1.25-.12-2.08-.67-3.67-.58-1,.05-3-1-3.95-1.46-1.43-.65-2.36-2-3.81-2.64.28.12-.28,1.18-.58,1.16s0-2-1.16-1.16c-1.48-.88-1.32.88-2.33,1.16s-1-.69-2.2-.05-1.9-1-2.45-1.69-2,.9-1.74-.6c.07-.41-2.27-1.46-2.93-1.74-1.37-.55-1.9,0-3.42-.19a2.58,2.58,0,0,0-1.81.19,1.67,1.67,0,0,0-1.75-1.16c.69-1.76-1.53-1.36-1.16-2.91-1.73,0-3.46.51-4.23-.81-.37-.64-1.15-.93-1.59-1.52a13.56,13.56,0,0,0-3.65-2.82c-1.66-.51-1.11.48-2.08,1-.81.49-.92-1.37-1.85-1.71s0-.69-.16-1.27a6.32,6.32,0,0,0-2.75-1.06,5.56,5.56,0,0,0-.19.56c-.21.28-1.41-1.53-1.67-1.71-1.36-.91-2-2.22-3.36-2.41s-5.8-3-6.79-2.63c.18-.07.25,2.27.37,2.7m98.38,63.45c.07,3.54-2.31,4.05-5.25,4.05,0,1.66-4.58,2.57-5.87,2.86a14.18,14.18,0,0,0-4,3c-1.13,1.46-.14,2.71-2.27,2.84a2.67,2.67,0,0,0-2.38,1.81c2.54.41-.46,5.3,3.51,5.22.88,0,2.22-.12,2.89.6.65-.86,1.14-1.85,1.81-2.71a3.61,3.61,0,0,1,5.16-.19v-2.91c1.11.3,1.14-.49,1.46-1.25.46-1,2.94-.49,3.79-.49.67-.88.65-2.36,1.74-2.91,2.17,0,3,.42,3.73-1.8,1-3.15,5.53-.14,6.15-3.45-1.87-2.18-2.5-5.57-5.24-7-.71,2.63-3.28,1.74-5.24,2.34M253.09,223.07c.16.86,2.43,6.38,2.92,6.4,0-.25.14-.37.37-.37.05,0,2,2.73,2.06,3,.16.48.34,1,.48,1.45.44,1.76.23.23,1.16,1.16v1.16q.85.61,1.74,1.16c.42-1.46-.88-2.27-.69-3.38.27-1.67.79-1.69-.1-3.68-1.69-3.74-4.42-8.74-4.57-12.86-.07-2.17.34-4.3.34-6.47a12.5,12.5,0,0,0-.23-2.7c-1.37,0-1.64-.44-2,1.07-1,4.56-2.31,9.36-1.51,14.06M440.51,219c-1.18.35-5.07-1.62-4.67,1.73.21,1.81-1.94,2.36-3.35,2.85-1.6.56-4.07.83-5.36,2.42-.62.74-.85-.35-1.36,1-.34.9-2.84-.05-3.31-.39-1.43,1.48-1.46,5.57-4.88,4.6-2.52-.72-3.36.78-5.41.74-6.93-.09,1.29,5,1.57,6.87,2.34-1.3,4.56.81,7,.58-.19-1.57,1-2.26,1.3-3.65.16-.79,2.31-.42,2.8-.44,1.44,0,2.5.81,3.44,0,1.64-1.46,4.51-.25,5.16-1.32,1.18-1.92,2.87-4,5.34-2.71-.67-1.78,1.55-1.37,1.16-2.91,2.12-.07,2.84.58,2.94-2.61a11.25,11.25,0,0,0-2.36-6.71m60,1.74a35.71,35.71,0,0,1-3.51,2.34c-1,.72-.72,1.34-2.27,1.5s-1.64,0-2.89.88c-1.43,1-1,2.27-3,2.27-2.78,0-3,1-5.23,2.33-2.63,1.55-4.33-.63-5.23,3.49,1.57.18,1.5.46,2.7,1.07,1,.55,1.41,1.71,2.48,2.73s.67,2.06,2.45,2.08a7.38,7.38,0,0,0,4.58-1.22c1.27,1.8,4.62-.71,5.64-.92,1.34-.26.72-1.69,2.22-1.41.65.25,1,.05,1.18-.56.51-1.22.58-.16,1.45-.62.55-.28-.87-.78.55-.6a2.47,2.47,0,0,0,1.78-.56c-.63-1.83.09-3.7.86-5.39s1.81-3.51,1.81-5.48c0-3-3.3-1.94-5.59-1.94M316,222.48c-.09,1.73-3,2.77-4.65,3.49-1.39-1.66-4.76,1.18-6.42-.58a.89.89,0,0,1-1.16.58,5.91,5.91,0,0,1-1,1.71,3.51,3.51,0,0,0-.32,3.82c.49,1.09,1.08,2.2.34,3.3-.42.63-1.18,1.39-.64,2.17a9.33,9.33,0,0,1-.16,1.8c-.65,1.43-.81,1.34,0,3,.69,1.45,2.18,3.31,1.28,4.83-.67,1.14-.65,3.82,1.37,2.48a6.76,6.76,0,0,1,4.88-1c.93-.74.85-2.15,1.76-2.91,1.25.19,2.43-1.09,3.49,0a13.87,13.87,0,0,1,.88-3c1-1.62,2.29-.72,3.77-1.11-.3-1.27.34-1.8,1.48-2,1.85-.33,1.3-1.36,2.7-2.36,1.76-1.25,5.12-3,2.5-5.11-.7-.58,0-2.33-.42-3.28a30,30,0,0,0-1.6-3c-1.22-1.83-1.73-2.27-3.86-2.47-1.43-.14-2.86-.33-4.28-.44M246.7,258a5.73,5.73,0,0,1-.58-1.76c0-.3.72.12.58-.56-.19-1-.32-.28.23-1.78.14-.41.26-1.3.65-1.6.74-.55-.56-.72-.3-1.29s1.85.12,1.17-1.16c1.37.37,1.2-1.16,2.32-1.16.09.56,1.92,1.66,1.74.58-3.63-.16-2.13-7.84-.58-9.9-1,.05-.21-1.6-.92-2-1.29-.79-.23-1.37-1.94-1.62a10.4,10.4,0,0,0-3.54.18,3.1,3.1,0,0,0-2.58-1.55c-1.21-.21-2.45-.21-3.65-.51-1.44-.37-1.92,1.45-2.47,2.7s-1.85,5.25-3.52,4.62a9.37,9.37,0,0,1-1,3.35c-.58,1.6.32,3.21-1.2,4.39-.09.07-1.51,3.14-1.32,3.31,1.87.21,1.73-1.66,2.08-2.91.55-1.85,3.49-2.13,4.92-2.91.11,1.67,1.69,2.13,2.33,3.49.3.65-.46,1-.37,1.57,0,.16.86.48,1,.85.39,1.16.14,2.54.76,3.61.78,1.34,3.05.88,4.07,2,.78.88.62,4.51,1.16,6,.26.74.48,2.66,1.53,2.22-.4-2.7-.19-5.45-.58-8.14m83.82-12.81a4.44,4.44,0,0,0-1.18,0c-.6.32.85,1.45-.56,1.18s-4.14,2.55-5.25,3.47c-3.58-.42-4.83,6.84-8.14,4.65a8.94,8.94,0,0,1-4.7,2.1c-2,.41-5.64-.09-4.27,2.77.27.56,1.52,2.75,2.2,2.87.86.18-.05,1.69,1.74,2a.86.86,0,0,1,1,.79,23.5,23.5,0,0,0,3.73-1.15c1.9-.72,4.4-.88,6.15-1.76,0-.39,0-.78,0-1.16.37-.42,1.29.28,1.74,0,.28-.18,3.49-2.61,3.49-2.33a10.33,10.33,0,0,1,2.38-1.41c1.22-.28,1.41-2.2,2.29-2.1,1.08-.19,2,.86,2.91,0-.3-2.18.76-3.37,2.33-4.65-1.51-1.11-1.44-3.59-1.74-5.23-1.52-.81-2.59-.37-4.07,0m115.82,2.33c-1.22-.58-2.36.21-3.49-.58-.11,2.64-3.4,2.36-5.25,2.32,0,2-4.05,2.79-5.46,2.63-1.25-.14-1.8-.79-2.26.48a3,3,0,0,1-2,1.71c-1.57.56-5.22,1-3.49,3,1.9,2.2,2.71,5.15,3.29,7.93,1.92,1.11,3.37-1.45,5.64-.23,1.69.9,3,4.42,4.76,3.06,1.23-.92,1-1.71,2.61-1.29,1,.26,1.69-.28,2.71.19-.11-1.71,3.4-3.31,4.65-2.33-.3-2.31,2.4-3.14,3.35-4.79s.42-2.66.72-4.53c.05-.33,1.09.11.51-1.29a19.59,19.59,0,0,1-.79-2.7c-.41-1.5-1.71-2.57-2-4.16-1.3,0-2.12.9-3.49.58M301.41,265c-.77-.14-1-1-1.74-1.16-.18.69-1.08.65-1.6.63a27,27,0,0,0-4,.26c-1.38.18-1.48-.76-2.36.44-.78,1-1.25.92-2.4.74-1-.12-2-.05-3-.09s-3.31-.33-3.77-.39c-1.54-.16-.56,0-2.1.72-1.2.6-3.56,1.09-4.67,0-.26,2.71.76,5,.6,7.56,1.81-.44,4.12,1.87,5.07.42,1.85-2.77,4.41.16,6,1.34.18-1.15.53-2.5,1.74-2.93,1.11.25,1.67,1.23,2.91,1.16-.26-4.63,4.21-2.11,6.41-.58-.11-2.38,2.75-1.87,4.07-2.91.56-2.17-1.38-3.21-1.17-5.23M339.83,269c-1,.05-1.2,1.32-2.71,1.3-1.18,0-1.71-1.18-2.82-1.34-1.9-.26-1.44,2.59-2.61,3.52a4.43,4.43,0,0,1-2.47.3c-1.64-.39-.85,0-1.87.93-2,1.89-6,1.5-7.1,4.35-.49,1.29,1.35,2.26,2,3.42.85,1.69.76,3.72.74,5.55,2.26-.71,3.72,1.09,5.81,1.16a6.23,6.23,0,0,0,2.87-1c1.07-.49.76.71,1.8.41v-.58a6.4,6.4,0,0,1,1.16,0c.55-.26-.86-.79.55-.6s2.79-1.15,4.41-1.15c1.82,0,1.57-1.22,3.19-1.16a3.18,3.18,0,0,1,1.5-3.16c2.42-1.66,2-5.27,1.36-8-.56-2.24-1.83-5.36-4.6-5.16-.05.86-.3,1.13-1.16,1.16m-39,18.63c-2.18-.9-4.12-.7-6.4-.58a5.26,5.26,0,0,1-3.51-.58,2.76,2.76,0,0,1-2.1,1.57c-1.59.28-3.4-1.22-3.61.86-.19,1.89-4.26.56-5.34-.11-.05,1.69-.4,3.35-.35,5a2.53,2.53,0,0,0,.51,1.78c1,.86.65.55,1,1.9.14.6,1.2.41,1.6.56,1.08.48.63,1.37,1.18,2.2s.43,1.18,1.45,1.45c1.36.33.05.09,1-.12a.6.6,0,0,1,.58.58c1,.05,2,.05,3,0,.58,0,4.76-.49,4.81-.41.53.79,1.06.23,1.51-.21,1.13-1.09,3.08-.69,4.48-.72,1.15,0,2.38-.27,2.5-1.6.76,0,2,.21,2.63-.44.77-.83-.46-1.66-.46-2.63,0-2.64,2-9.36-1.59-10.32-.42,1.22-1.76,1.59-2.91,1.75"/><path class="cls-6" d="M461.47,57.93c-.46-3,1.9-4.44,2.5-6.93.4-1.6,2.75-1.48,2.75-3a27.79,27.79,0,0,0,3.88,1.45c2.33.69,1.87,1.71,3.1,3.21.58.7,2.15,1.39,2.33,2.34a7.51,7.51,0,0,1-1.06,5.3c-1.06,1.83-5,2.2-7.08,1.67-.85-.21-2.65-1-4.07-.58a2.76,2.76,0,0,1,.07-1.25c.14-1.18-.85,0-1.23-.49q0-.58,0-1.16c-.33-.26-1.29.18-1.18-.58"/><path class="cls-6" d="M518.52,94c-1.14.74-2.17-1.2-3.58-1.09-.53.05-1.73-3.16-2.1-4-.86-2.06-.58-5.59-2.48-7.12a12.45,12.45,0,0,1,1.74-3.49,9,9,0,0,1,1.17-1.16V76c.39,0,.79,0,1.16,0a14.81,14.81,0,0,0,0-1.76c1.5,0,4.62.25,5,2.22.23,1.44,1.37,0,1.55,1.07a19.31,19.31,0,0,0,.86,3.6c1,2.68,2.66,5.46,1,8.19-.65,1.08-1.41,2-2,3.08-.49.81-2,1-2.19,1.64"/><path class="cls-6" d="M483.6-51.5c3.33,0,4.19-.27,6.17,1.71.37.37.58-.77.9,0a1.63,1.63,0,0,0,2.24,1.18c-.39,1.53.46,2.31,1.16,3.49a33.92,33.92,0,0,1,2.24,4.16c.32.69.53,3.7,1.55,3.21,1.29-.58.71,1,1.16,1.85s0,1.82,1.07,2.4,1.9,1.13,1.27,2.57c-1,2.36-1.34,5.09.35,7.21.37.46,1.21,0,1.67.3a13.61,13.61,0,0,1,.79,3.38,13.72,13.72,0,0,1-.11,1.69c-.18,1.75.67,1.66,1.64,2.93s1.2,3.15,2.06,4.62c.67,1.11,0,2.11-.25,3.23-.21.86.79,2.55,1.22,3.4,1,1.92.6,2.54.65,4.56a1.88,1.88,0,0,1-.78,1.66c.86.9.39,2,.14,3-.6,2.34,1.51,5.85-.46,8-.39.4-.35.76.09,1,.93,1.14-.3.49-.35,1.34,0,.37-.3,1.62-.39,2a17.16,17.16,0,0,1-1.41,3c-.41.86-.28,3.84-.74,4.23-1.25,1.06-1,.51-1.67,2.1-1.06,2.31.76,1.3,1.9,2.68.69.83,1.6.16,2.12.86a2,2,0,0,0,.67.85c1.06.51.85.92,1.41,2.19.44,1,3.45,4.25,3.35,4.83-.25,1.43,1.21,2.54,1.2,3.95s-.51,3.65.55,4.77c0,.11,4.64,2,5.25,1.74-.69,2.11,3.6,2.7,2.33,4.67,2.71-.26.55.56,2.66,1.27,2.75.92,1.9,3,3.16,5.13.77,0,1.13.51,1.55,1.06.92,1.16,1.57.16,2,1.48.55,1.6,3.08,1.11,2.84,3.28,4,3,6.4,8.76,6.4,13.52V89.59A11.25,11.25,0,0,1,540.06,94c-.32.65-1.39.74-1.41,1.6,0,1.36-.37.58-1.41,1.59a10.75,10.75,0,0,0-1.83,3.21c-2.11-.79-1.6.6-2.63,1.62a34.08,34.08,0,0,1-11.31,6.77,15.63,15.63,0,0,1-9.25.23c-1.94-.58-3.77,1.13-6.13.92a9.32,9.32,0,0,1-5.6-2c1-2.33-2.26-1-1.76-2.91-2.54.21-6.4,1.27-8.35-.79-.83-.86-1.67-1.76-2.55-2.59s-2-.44-2.8-1.22c-.42-.42-.88.64-1.06.85-.76.9-1.94.11-2.77-.25s-5.41-2.89-5.74-1.83c1.66.3,0,1.53,0,2.33a8.41,8.41,0,0,0,.55,1.85c.6,2.31-1,.19-1.13,1.66a12.61,12.61,0,0,1-1.71,3.72c-1,1.66-.92,3.89-1.87,5.09-1.71,2.11-3,7.75-2.24,9.94.48,1.41-.35,2,.58,2.79s.64,3.37.53,4.18c-.16,1.41-1.66,4.35-.81,5.48.53.69-.55,2.89-.56,3.89a6.92,6.92,0,0,1-.32,2.15c.76.41.85,1.46,1,2.19.2,1.09.92,1.45,1.11,3.1.11,1,1.5,1.71,2.31,2,.48.14,1.18,2.75,1.16,3.4a12.64,12.64,0,0,1-.34,2.15c.6.83,1.39,1.5,2,2.31.48.64.33,1.45.79,2,1,1.27,1-.79,1.38,1.36.51,3.07,3.61,4.26,4.05,7.38.21,1.53,2.4,1.64,3.44,3.21.07,1.5,1.62,2.78,2.33,4.07.35.63,1.48,2.8,1.16,3.51,1.74,1.53,3.82,2.27,4,4.69.14,1.62,1.59,2.73,2.19,4.23.4,1,1.06,3.7,2.1,4,1.37.42,1.44,6,2.47,5.5,1.52-.7.23,1.22,1.18,1.76.69.42.48,1.81.85,2.5s1.13,1.06,1.5,1.76a23.67,23.67,0,0,0,5.48,7c-.32,1,.9,1.64,1.16,2.33.56,1.39.58,3.42,1.16,4.65.27.55.79-.86.62.55-.16,1.22.9,2.34,1.13,3.54.39,2,.93,6.06-.18,7.59-.34.44-.92.37-1.34.63s-.6,2.4-.69,2.94c-.37,2.2-.39,4.74-2.45,6.27-2.89.32-5.3,1.89-8.07,2.64-1-.14-1.48.23-1.55,1.13s-.19,1.07-.85.9c-1-.19-1.64,1.16-2.34,1.74-2.59-.44-4.34.65-6.66,1.48-.58.21-4-.25-3.81-1.48-1.27,1.32-4.83-.19-5.25-1.74,0-.05-2.52-1.5-2.91-1.74-1.27-.81-1.62-2.33-3.49-1.74a2.45,2.45,0,0,0-1.13-2.77c-1.5-1-1.37-.85-1.52-2.29s-2.24-.77-2-1.94c.12-1.59-.9-2.71-1.13-4.21s-1.6-1.51-2.84-2.7c-.67-.63-3.21-2.08-3.08-2.92.3-2.17-.72-.35-1.59-1.57-.74-1,0-2.52-1.38-3.15-2.36-1.13-.07-4.72-2.54-5.69-.69-.28-3.4-4.11-3.33-5.48.07-1.69-1.6-1.83-3-2.82a14,14,0,0,0-2-1.27c-1.73-.83-1-1-1.66-2.64-.39-.93-4.81-7-5.36-5.94,2.29,2.13,1.73,6.2,4.09,8.14.37.3.62,3.35,1,4.09a31.42,31.42,0,0,1,1.84,4.83c.26.85,2.34,6,2.18,6.11-1.6,1.23-.37,1.14.33,2.68,1,2.15-.19,4.72,1.15,6.61,1.07,1.5.9,1.8,1.34,3.56.18.67.58,3,1.23,3.37.85.44,1.11,3,1.9,3.91,1.73,2,1.58,3,2.5,5.36,1.62,4.26,3.08,7.67,3.26,12.28,0,.83-.83,1.37-.71,2.43.12,1.27.28,2.54-1.44,1.81.19,1.43.85,2.56.58,4.07-1.64.32-1.67,2.33-2.34,3.49a14.94,14.94,0,0,0-4.21,1.36,1.78,1.78,0,0,0-1.53,1c-1.08.76-.05,1.07-.65,1.67q-.58,0-1.16,0a19.26,19.26,0,0,1-1.89,1.5c-.83.56-2.82,2-3.91,1.78-1.29-.25-1.6.79-3,1.18-.81.23-3-.63-3.44.21,0-.86-4.37-2.7-5.23-2.92a3.56,3.56,0,0,1,0,.6c0-.05-7.08-1.23-7-1.18q0-.58,0-1.16c-.39,0-.78,0-1.16,0a25.21,25.21,0,0,1-3.5-3.49v-1.16c-.39,0-.77,0-1.16,0-1.41-1.23-.7-1-.58-1.74.13-.58-.63-.71-1-.83-1.11-.32-.62-.92-.92-1.9-.37-1.29-1.09-2.27-1-3.66-.05-.92-1.23-.58-1.64-1.16a8.71,8.71,0,0,1-1.81-3.54c-.07-.86-.49-2.18-1.45-2.34-1.37-.21-1.3-2-1.64-3.07a36.42,36.42,0,0,1-1-3.86c.26-.81-1.34,0-1.22-1.15.23-1.78-2.82-4.67-3.26-6.8-.37-1.89-.16-1-1.35-2s-1.06-1.85-1.51-3.29a27.22,27.22,0,0,1-1.29-3.72c-.21-1.27-1.3-1.55-1.27-2.87-1.18.42-1.28-.12-1.9-.88-.93-1.13.2-1.53.16-2a1,1,0,0,0-.81-.83c-.78-.4-.88-2.27-1.08-3-.37-1.39-1.23-2.29-1.6-3.74a42.44,42.44,0,0,0-1.43-4.11c-.64-1.73-2.72.74-3.56,1.06-1.6.58-1-1.57-2.91,0s-1.27-.58-3-.16a1.1,1.1,0,0,1-1.29-.26,4,4,0,0,1-2.22,1.27c-1.73.55-4.23,2.13-5.92.48-.27,1.44-4.35,3.07-5.62,3.07-2.17,0-3.24-.34-5.71.76-4.21,1.87-7.91,1.37-12.4,1.6-2.19.12-2.8.37-4.27,1.8a3.49,3.49,0,0,1-1.69.93c-.72.35-.33-1-.58-1.18-.4-.19-2.48,1.59-2.85.9-1.23-2.27-.77.9-2.75.18s-3.45-.07-5.41.77-1,1.43-.37,3.15c.44,1.27.93,2.54,1.43,3.79,1.34,3.37,2.2,7.4,5.55,8.86.64.26,1.29,4.05,1.66,4.88.7,1.51,1.06,4.51,2.7,5.07,1.39.48,1.07,2.06,1.92,3,.69.79,1.85,1.15,2.54,2.22.25.39,1.46,2,1.43,2.08a3.52,3.52,0,0,0,1.52,2.2c.39.18.48.51.23,1-.32,1.76.7.4,1.16,1.44a10.62,10.62,0,0,1,.46,5.39c-.23,1.66-.64,2.47.11,4a30.6,30.6,0,0,1,1.48,3.4,3.23,3.23,0,0,1-.07,2.68c-.85,1.94.42,0,.35,1.39,0,.12-.76-.33-.76.48,0,1,.83,2,.76,3h-.58c-.56.55.39,1.69,0,2.33-1.9-.7-2.22,2.57-3.61,3.47s-1.07.32-1.68,1.75a6.26,6.26,0,0,1-2.48,2.8,54.59,54.59,0,0,1-5.16,2.64,37,37,0,0,0-5.53,2.43c-.81.53-4.26-.39-5.53-.46-.51,0-2.84,0-2.78-.69.09-.86-1.8-.18-2.33-.32s-2.34-1.41-2.94-1.18c-2,.81-.54-.3-2.31-.83-2.06-.63-2.63-5.78-5.22-6.13-.49,1.37-1.32,3-1,4.48.23,1.09,1.34.92.72,2-.34.58-.69,1.55,0,2.06,1.13.79,1.85,2.8.58,3.47s.3,1.8.26,1.92c-.32,1.39-1.11,2.8-2.18,2.89-.9.07-.14,1.23-.72,1.78-1.71-.74-1.29.83-2.35,1.16-.79.27-1.73-.74-2.75.07-.47.39.21,1.83-.65,1.85-1.34.05-2.54.67-4,.74-1.76.11-3.42.11-4.77,1.41-1.16,0-1.78-1.09-3.14-.56a.4.4,0,0,0-.35.56h-4.81c-1.73,0-2.19-.9-4-1.07s-3.72-1.37-5.3-2.29-2.06-.74-2.22-2.4a4.45,4.45,0,0,0-.93-2.38c-1.73-2.26-3.74-4.55-4.84-7.17A17.15,17.15,0,0,1,270,288.5a36.58,36.58,0,0,1-.09-3.93c0-1.59-.63-1.66-.55-3.14-1.48.49-1.41-2.8-1.74-3.51-.16-.34-.6.44-.71-.35a10.84,10.84,0,0,1,.09-2.82c.09-.77.65-4.3-.26-4.79.11.05-.25-3.21-.28-3.67-.18-2,0-3.35-.8-5.23a5.55,5.55,0,0,1,.12-2.13c-1.41-1.16-.48-3.22-.37-4.9a43.69,43.69,0,0,0-.05-4.81c-.12-2.06-.65-.51-1.23-1.55-.41-.7.25-.88.77-1,.92-.23-.19-1.23-.32-1.8-.53-2.61-2.19.67-3.37.49v-1.16c-.39-.44-1.3.32-1.74,0a.8.8,0,0,0,.35.93c.74.71-.53,1.3-.35,2A12.4,12.4,0,0,0,261,249.4a21.6,21.6,0,0,1,2,5.13c.16.49.74,2.17.42,2.45a1.17,1.17,0,0,0-.26,1.58c1.29,2.34-.14,2.63-2.08,3.49-1.44.65-2.69,2-4.24.55-.35-.35-1.69-2.36-2-1,.4,0,.6,2.24.6,2.91,0,.88-.86,1.34-.12,2.66.53,1-.12,1.74-.8,2.32a1.36,1.36,0,0,0-.53,1.36c-.26,2.77-.44.32-1.48,1.22-.53.46-.56,2.36-.71,3.08-.07.32-3.1,1.13-3.7,1.5-1.92,1.2-2.87.32-4.67-.58-1.34-.69-.37-1.66-1.85-2.36s-1.92-1.34-.71-2.8c-2-.14-4.12,1.73-5.8-.25-.21-.25-1,.6-1.69,0s-.69-1.25-1.46-1.66-1.66-3.54-2.11-4.49c.17-1.2,2.85-4.28.58-5.25-.11,1.13-1.48-.49-2.33,0-.18.86-1.59-1.27-2.29-1.23-1.23.07,1.24,3.21-2.45,2.43-.93-.19-.79-1.55-1-2.22a1,1,0,0,0-1.23-.7,7.9,7.9,0,0,1-2.13-2.85c-.81-2.34,1.37-3.23,1.55-5.3.32-1.87,1.67-.28,2.61-1,.69-.53,1.46-3.4,1.57-4.37.27-2.32,1.87-3.1,2.5-5.23.41-1.31,1.62-1.36,1.62-2.52,0-2.22,1.48-1.2,2-2.68,1.08-2.89-.3-6.13.34-8.86a10.52,10.52,0,0,0-.58-5,17.25,17.25,0,0,1-1.36-3c0-.79,1-.49,1.16-1.16-1.8-.58-.85-2.4-.56-3.68a4.17,4.17,0,0,0,0-2.13,3.16,3.16,0,0,0,1.73-2.15c.28-1.52-.35-3-.53-4.53-.21-2,1.06-4.21,1.34-6.2.09-.64-.48-2,.14-2.22.81-.32.69-4.81.72-5.76.09-1.78-.58-3.51,1.37-3.95,1.39-.32-.16-2.82,1.62-2.56.14-3.26,1-6.06.69-9.59a10.7,10.7,0,0,1,.35-4.3c.6-2.2.79-1.66,2.47-3a1.71,1.71,0,0,1,1.16-1.18,37.12,37.12,0,0,0,.8-4c.35-2.34.58-4.7,1-7,1.85,0,2.48-4.67,4.65-3.49-.53-1.48.46-1.71,1.39-2.45.42-.34.06-.78-.23-1,.9-1.29,2.47-1.78,3.49-2.91-1.39-.11.81-1.64.88-2.29.16-1.59,0-1.51,1.46-2.38,1.76-1,.93-1,1.37-2.54.09-.3,4.23-3.28,3.83-3.31,2.17.25,1.09-2.87,2.94-2.87.05.44,3,.46,3.4.32a7.41,7.41,0,0,0,2.52-1.55c.83-.77,1.52-.18,2.22-1.18.44-.6.86-1.6,1.74-1.66-.07-1.2-.05-2.85,1.18-3.51,1.57-1.62,4.48-.12,5.41-1.81.65-1.2,2.55-.92,3.65-1.41,2.13-1,.72-.25,2.41.88.44.3,4.81-1.06,5-1.41s4.07-1.5,4.86-1.8c1.74-.65,3.31-1.62,5.11-2.2,1.62-.51,3.14.81,4.19-.67.4-.56.79-1,1.37-.3a4.51,4.51,0,0,1,2.17.16c.6.67,1,.56,1.2-.3,1.27-.86,0-.83.7-1.6s1.81-.69,2.34-1.16c.9-.81,2.15-2,3.49-3.49,2.91,0,5.83-2.87,8.72-1.76.63-2.26,1.46-.79,2.91-1.74.23-.14.19-2,1.06-.92s1,1.36,2.15.05c.81-.93.48-1,.88-1.46.14-.18,1.89-.28,2.33-.58,1.41-.26,2,.64,3.14,1s2.82-1.07,4.05-1.48c5-1.62,9.5-3.37,14.73-5.5,1-.42,2.26-1.27,3.44-1.08.85.14,1.22.81,2,0a10.83,10.83,0,0,1,.58-7c.27-.53.85.88.6-.56-.19-1.08.85-.88,1.53-1.3.4-.25,1.3-2.29,1.81-2.91a8.88,8.88,0,0,0,1.3-2.2,4.9,4.9,0,0,0,2.15-.74,9.48,9.48,0,0,1,1.92-1,2,2,0,0,1-.07-1.58c.39-.81,1.34-1.06,2-1.55.88-.62-.18-1.43,1-1.8s1.11-2.18,1.18-3.21c1.32.48,4.16-2.1,3.49-3.51a13.88,13.88,0,0,0,2.7-.44c1.11-.49.42-2.1,2-1.89-1.25-1,1.85-6,2.89-6.52a3.36,3.36,0,0,0,1.62-1.11c.39-.65-.24-1.83.51-2.2,1.37-.69,3.21-1.29,2.55-3.54,1.41,1.48,3.61-1.53,4.65-1.74.58,0,1.57-4.7,2.66-5.44.81-.56-.86-.72-.34-1.55,1.53-.16,2.49-1.3,3.49-2.32s2.17-2.15,2.4-3.56a1.67,1.67,0,0,0-.65-1.69c-.39-.32.58-.69.58-.56-.18-2-1.32-4.19-2.12-6.06s-.42-2.15-1.76-3.74a8.68,8.68,0,0,1-2.13-3.82c-.76-4.56-4.16-9.06-2.85-12.92.35-1-.74-1.27-.37-1.94.55-1.06.4-1.46,0-2.73-.49-1.67.69-.35,1.06-1.39.32-.88-.65-1-.12-1.89.34-.53-.46-1.67.53-1.76.7-.07,1.83.16,1.34-1,.3-1.29-.39-2-.58-3.14-.18-1,1.66-1.66,2.38-2.71a3.75,3.75,0,0,1,3.12-1.62c.69-.07,1.45-.78,2.08-.69,1.06.16.33.93,1.66.09.93-.6,2.22-.53,3.28-.7,2-.37.9-.07,2.68.76,1.37.65,3.12.49,4.6.44-.35,2.18,3.4.6,2.91,2.91.83.32,2.31-1.09,2.84-.32.63,1,1.11.85,2.1,1.39s3.63,4.25,3.73,4.25c2-.28.35.44,1.23,1.09.42.32,2,.71,2.66,1.06s2,.32,2.57.69q0,.58,0,1.16c.28.39,1.43.42,1.83.48,2.57.44,4.76,2.89,7.49,2.43-.14.9,1.06,2.19,2,1.59a1.49,1.49,0,0,0,.35-1.59c1.25-.44,2-1.39,3.4-1.11.91.19,1.71,1,2.69.86,1.32-.23,3.05-1.8,4.2-1.67.6.07,1.71,1.25,2.06.46.63-1.45,1-.62,2.18-.28-.9-2.24,2.52-.21,2.34-1.74-.39,0-.77,0-1.18,0-.37-.39.63-1.8,1.2-1.75,1.13.12.92-3.74,1.15-4.67.48-1.88,1.27-3.42,1.16-5.43-.09-1.3-.39-2.59-.58-3.88a8.26,8.26,0,0,0,1.13-2.43c.88-3-.28-7.75,1.27-10.13a11.38,11.38,0,0,0,1.76-5,20.18,20.18,0,0,0,0-3.7c-.12-1.67.55-1.6.46-3.17.86.3,4.14-3.75,4.74-4.76.48-.81,3.68-1.59,4.64-1.66,1.73-.14,1.5-.92,2.48-2.31.72-1,2.7-2.31,2.7-3.49M441.1,16a4.29,4.29,0,0,0-1.94-.21c-1.59.35-1.07-1-2.71-1a8.12,8.12,0,0,0-1.53-2.54c-1-1.29-.78-2.54-2.34-2.56-2.26,0-7.91-3.77-7.17-6.54-2.64.83-5.06-.63-7.58-1.16a6.67,6.67,0,0,0-4.07-4.67C413.6-1,412-.82,410.84-.27c.07-.86-1-.67-1.5-.6-1.34.16-1.09.25-1.53-.86-.6-1.53-2.84-1.16-3.95-2a12.8,12.8,0,0,0-.16,5.5c.19,1.29.48,2.54.74,3.81a1.64,1.64,0,0,0-1.18,1.74c-.65.76-2.12.25-1.72,1.74,1.5,1.2,3.43,3.21,3.87,5.15s-1.13,3.67.44,4.93a15.92,15.92,0,0,1,3.91,4.71,28.47,28.47,0,0,1,1.66,3.84c.39.88-.62,1.57.55,2.06s0,.67.62,1.43c.39,0,.78,0,1.17,0v1.16c.86.69,2,.51,2.91,1.18a2.93,2.93,0,0,0,1.43,3.14c3.8,1.52,8.28,3.91,12,.35-1.51.12-3.66-3.89-4.78-4.9a7.51,7.51,0,0,1-1.29-1.2c-.86-1.25-1.37-1-2.87-1.62-.76-.32-1.48-.67-2.2-1.06-1.73-.88-.58-1-1.39-2.47-.6-1.07-1.48-1.73-1.64-3-.24-2.36-1.69-3.24-3.73-4.34-2.36-1.25-5.06-5.18-6.2-7.73a7.16,7.16,0,0,1-.6-3.93c.21-1.41,1.11-1,1.71-2.47.44-1.06,2.1.25,2.24-.79.19-1.36,2.52-1.62,3.66-1.85.93-.19,4,.55,4.87,1.64s2.45-.14,3.44,1.23,1.78,2.38,3.56,2.26c-.11.28,2.2,2.68,1.9,2.75,1.36-.35.88,1.16,2.56,1.2,1.48,0,2,1.59,3.68,1.29,0,2.8.77,2.32,3.08,3.63,1.46.83,1.34,2.64,2.73,3.37a.35.35,0,0,1,.39-.37c1.36.56,1,2.38,3.12,1,.23-1.55-1.66-1.8-1.18-3.51m41.92-53c-1.09-.19-2,.86-2.91,0a15.58,15.58,0,0,1-1,2.63c.32.28.65.56,1,.86-3.88,2.13-3.1,3.47-3,7.51a13,13,0,0,1-.18,2.19c-.37,2.15-.6.81-1.64,2.11-1.59,2-1.78,3-1.5,5.71.16,1.71.58,2.91-.07,4.6-.7,1.85-1.41,2.59-1.06,4.78s1.13,4.12,1.06,6.29c-.17,1.81-2.19,2-2.91,3.49,1.87,1,3.84.67,5.82,1.16.33,1.32.07,2.8.6,4.07a.93.93,0,0,1,.58,1.18c1.06-.16,1.06.67,1.73,1.14,1,.69,2,2.47,2.92,2.91.39-1.48-.71-3.68-.56-5.37.16-2,.53-4.09.88-6.1.16-1-.1-3.08.72-3.63,1.57-1-.33-3.22-.46-4.67-.23-2.34,1.37-4.69,1.74-7,.16-1-.65-1.89-.58-2.91,0-.69.63-1.36.72-2.1.21-1.6,1.22-2.8,1.29-4.48a18.4,18.4,0,0,0-.16-3.1c-.21-1.6.53-.25.48-1.39,0-.19-1.06,0-.51-1.29.35-.86.23-2.61.81-3.12,1.06-1,.85-3,2-3.52s2.5-.48,2.39-2c-1.71.23-1.13-1.2-2.32-1.74.72.32-2,.18-1.74,0,.11-.93-.62-3.51-1.68-1.69-.7,1.16-.85,3-2.39,3.44m-16.3,48.3c-.07-.56-2.76-1.2-3.22-1.09-1.41.35-1.9-.51-3.56-.42a11.17,11.17,0,0,0-4.62,1c-.93.39-1.68.12-2.55.51s-1.29,1.18-2.34,1.16c.62,1.67-.85,1.15-1.16,2.31,1.15.67,1,2.5,1.13,3.59.14,1.53.49,1.94.14,3.33-.21.85-.65,3.08.48,3.56-.58-2.2,3.21-.33,3.79-1.9,1-2.75,2.66-1.66,5-2.17a1.06,1.06,0,0,0,.56,1.16,2.37,2.37,0,0,1,4.37-1.74c.72.88,1.46.65,1.76.78.28.33.56.65.86,1,.19-1.71,1.29-2.82,2.33-4.07,1.45.21,4-1,3.37-2.78a3.27,3.27,0,0,0-1.06-1.29c-.78-.69-.28-1.36-1-2-1.34-1.22-2.31-2.29-4.21-.92M483,17.77c-2,4-4.9,9.3-9.32,11C470.8,30,466.17,30.18,463.23,30c-.49,1.71-1.16.81-2.7,1.14a11.32,11.32,0,0,0-1.53.49c-.74.26-1-.55-1.6-.48a10.34,10.34,0,0,0-2.33,1.16c-.44.56-2.18-.28-2.91.58-.51.63-2.19.53-2.91.6-3.12.32-3.49-.93-3.49,2.91-1.64.14-1.83,2.24-3.49,2.33-.19,0-1.76.58-1.76.58,2,.09,2.78,4.34,4.1,5.2a.65.65,0,0,0,1-.46,7.5,7.5,0,0,1,2.19.62c1.3.53,1.09,2.48.32,3.37,1.73.55,4.35.19,4.09,2.52-.35,3.15,1.52,1.73,1.39-.65,0-1,.74-1.73-.18-2.31s-1.9-.67-2.28-1.62c-.61-1.52.92-4.21,2-4.51,2.36-.62,3.93-2,6.57-1.57-.16-1.64,3.1-2.13,4.21-2.13,2.15,0,4.14.88,6.36.49,1.55-.26,3.89,1.14,5.13.48-.42,1.3,1.09,1.36,1.92,1.57,1.11.28.28,2,1.48,2,1.87,0,.72.88,1.71,2.15.33.42,1.06.72,1.3,1.22.34.7-.49,1.55.34,2.06a1.73,1.73,0,0,1,.85.74c.42,1.09.93,1.32,2,2.22.46.39,2.66,3.49,2,4.28-.18.21.25,1.78-.05,2.5-.76,1.83-.12,3.88-1,5.66,1.44.12,3.15-2.61,4.09-3.47a11.63,11.63,0,0,1,5.8-1.76c-.43-1.6.88-1.64,1.16-2.91-1.29,0-2.1-.92-3.49-.58.41-1.78-3.49-3.68-3.49-6.12,0-2.18-1.18-2-2.71-3.28-2.1-1.69-.39-2-.77-4-2.73-.14-.48-5-.07-6a4.18,4.18,0,0,1,1.62-2.45c1.11-.6,1-3.38,1.36-4.92-3.84-.28-2.71-5.62-4.07-8.14-.33-.62-1.15.21-1.57-1.16-.16-.49-.85-2.73-1.34-1.16.35,0,.69.07.58.58m21,32.58c.4-1.39,1.62-1.83,1.74-3.49-2,.25-2,2.26-3.36,2.4-1,.11-3.52-1.2-4.19-.05-.18-2.86-5.34-7.91-1.53-10.47a9.75,9.75,0,0,1,5-1.76c.21-1.34-1.76-1.78-.58-2.91-2.22.35-4.2-.86-6.42-.58-.56,2.33-2.5,4-2.91,6.4,2.68.35,1,1,1.16,2.91,2.29-.16,1.83,3.31,2.22,4.37,1.11,3.08,6,2.47,8.85,3.19m-90.8-7.56a6.11,6.11,0,0,1,0,1.16,8.89,8.89,0,0,0,1.16.58q0,.58,0,1.16c.6.72,1.64.11,2.15,1.15s.65,1.76,1.92,1.18c.23,1.64,2,1.87,2.91,2.92a11,11,0,0,0,.6-2.91c.21-2.59-.25-1.89-2.08-3a6.67,6.67,0,0,1-2-2.2c.39-1.15-.67-.67-1.16-1.16-.69-.69.56-.85-.71-1.62-.81-.51-1.46-.62-2.47-1.14-2.61-1.36-1.38,3.06-.32,3.93M477.78,80c-.85-1.41-2.92-2.68-4.33-3.52a7.35,7.35,0,0,1-2.2-1.69c-.78-1-.9,0-1.62-.62-.56-.46-.56-1.32-1.16-1.73s-1,.6-1.45-.58-1.69-.76-2.63-1.16a23.28,23.28,0,0,0-2.32-2.91c-.27.88-4.6-2-5.23-2.08-2.18-.28-4.23-5.57-6.54-6.54A21.77,21.77,0,0,1,448,58c-1.67-1-.65-1.25-1.25-2.84s-2.38-1.73-3.53-2.68a2.68,2.68,0,0,1-1-1.55,2.76,2.76,0,0,1-2.61-.86,3.9,3.9,0,0,0-2.06-.88c-.63.11.07,1.34-1.13,0-1-1.08-2.24-1.89-3.28-2.93C431.88,45,432,44.54,430,44.54c-.05,1-1.13,1.37-1.83,1.74-2,1.09.35,3,1.25,4.07a6.44,6.44,0,0,0,1.16,0,14.69,14.69,0,0,1,1.16,1.18v1.15q.58,0,1.16,0c1.23,1.09,2.22,2.47,3.49,3.51v1.16a6.28,6.28,0,0,0,1.16,0c.74.32.49,1.67,1.76,1.75.92.05,1.67,1.22,2.33,1.74,3.45,2.85,7.4,5.18,10.43,8.6.72.79,1.74.41,2.1,1.27.41,1.08,1.25.3,2,1.2a18.23,18.23,0,0,0,3.49,3.49,20.1,20.1,0,0,1,3.3,3.38c.92,1,2.82.65,3.42,1.62.48.77,3.42,2.22,3.17,3.44a18.64,18.64,0,0,1,3.49,2.63c1.38,1.57,3.23,2.17,4.81,3.33,1.08.79,1.9,1.48,3.35,1.32a30.65,30.65,0,0,0,.83-4.92c.14-1.66.18-3.33.34-5-1.55-.79-2.86-1.43-4.65-1.16m-2.34-28.51c0-4-5.5-3.28-7.14-3.93-.58-.23-1.2.26-1-.72s-.62-1.07-1.34-1c-1.27.14-3.22,1.8-4.49,1-.69,2.7-.93,5.5-1.73,8.16a5.16,5.16,0,0,0,.44,3.19c.52,1.27,2,1.74,2.17,2.94.19,1.5,2.27.76,2.06,2s1.36.35,1.14,1.18c2.89.26,6.4.28,8.72-1.74.37,1.11,1.07-.21,1.39-.58.85-1,1.27-1.06,1.29-2.71,0-1.5-.28-3-.39-4.48,0-.6.46-3,.41-3.08s-1,.16-1.53-.19m-68.67-2.93c-.21.74-1.27.64-1.32,1.48-.16,1.69,1.54.88,1.36,2-.21,1.48,2.64,4.14,4,4.86.62.32,4.57,5.34,4.18,1.64-.18-1.5-.6-3.56-1.69-4.39-1.83-1.41-3-2-3-4.41-2.43.42-1.73-2.38-3.49-2.91-.21.76-.63,1.06,0,1.74M508,59.09c-.88.26-2.36.21-2.91,1.16,2.22.56-2.54,1.16-1.74.58q0,.58,0,1.16c-.58.58-.93-.4-1.67.64s-2.49,1-3.56,1.11c0,1-.78,1.46-1.53,1.88-1.39.76-1.07,1-1.39,2.2S493.54,69.89,493,71c-.72,1.57-1.67,1.6-1.83,3.24-.12,1.27-.92,2.29-1.13,3.54-.12.67-1.15,3.17-2.4,2.84-.26,2-.86,4.09-.21,6.32a3.74,3.74,0,0,0,1.37,1.83c.25,1.32.05,2.78.25,4.16.69,4.77,3.68.67,6.15,3.4,1.06-2,.3-4.19,0-6.31-.34-2.77,1.62-3.67,1.8-6.1.14-2,.85-3.1,1.76-4.81.77-1.45-.07-1.55,1.48-2.15,1.28-.51,1.41-2.47,1.88-3.65a14.17,14.17,0,0,1,4.14-5.83A22.47,22.47,0,0,1,511.47,64c1.92-.7,3.19-2.91,4.79-4.11.74-.56,3.4-.37,3.42-.85a32.56,32.56,0,0,1-4.14-1.69,9.07,9.07,0,0,0-2.27-.63,1.28,1.28,0,0,0-.44-1.11c-1.23-.71-1.62-1-2.13.49A5.85,5.85,0,0,1,508,59.09M405.61,62.58c.67.81.48,2.06,1.74,2.33-.18-1,1.29-.42,1.74-.72,1.29-.86-1-1.5-1.16-1.6V61.42c-.46-.39-1.18-.14-1.58-.58a3,3,0,0,1-.16-2.91c-1.67-.21-1.81,1.55-2.54-.46-.44-1.22-.81.32-1.29-.11s-3.75-1.62-3.75,0c2.33,1.73,5.09,3,7,5.23m60.53,28.53c-1.34-1.69-3.81-2.33-5.23-4.09-.48-.56-1.25,0-1.9-1.22s-2.4-.37-3.08-1.45-1.18-.42-1.62-1.73a4.51,4.51,0,0,0-2.12-2.34c-1.8-1.07-4.09-1.66-4.67-3.95-.46-1.74-3.86-4-5.67-5.06-1.53-.93-2.59-.7-3.54-2.2s-1.48-1.23-2.66-2.11c-.65-.48-.92-1.36-1.82-1.5-1.32-.23-1.46-1.23-2.52-2.24-1.46-1.39-2.7-3.08-4.74-3.56-.35,1.41-1.74,1.37-2.87,1.71-.63.19-1.57,1.78-2.08,2.33-1.87,2-3.67,4.58-5.67,6.73-1,1.11-1.9,1.11-2.26,2.84s-2,1.92-2.91,3.67a7.24,7.24,0,0,1-1.09,1.94c-.35.37-1.13-.18-1.16.58-.07,1.32-2.45.51-1.74,2.33-1.53-.37-1.13,1.85-2.91,1.16-.23,1.18-.6,2.33-.9,3.47-.39,1.5-1.27,1.39-1.71,2.87-.55,1.87-3.26,2.87-4.44,4.33-4.55,5.62,7,2.2,5.87,6.2,1.57-.19,3.56,0,4.09,1.74,2-.93,3.95-.14,6,.32,1.75.41,4.66.25,5.16,1.76.62,1.83,1.83,1.94,3,3.17,1,1.06,1.34.3,2.38,1.06,1.62,1.22,3.24,2.43,5.25,2.43,2.28,0,4.46-.62,5.94,1.34,1.73,2.26,1.65-.49,3.08-.18-.48,1.83,3.1,1.45,3.6,1.07,1.71-1.29,1.32-.42,3-.39,1.16,0,2.19-.56,3.33-.69-.13,1.07,1.83,2.41,2.75,1.67.72-.58-.42-2.45,1.32-1.67,1.89-.26,2.42,1.48,4.07,1.74,1.3-1.76,3.29.76,4.23-.26s1.89-.76,2.77-.27c.6.32,2-4.1,2-4.9s-.6-3.58.86-3.29-.09-2.36,1.74-1.76c.37-1.64-.51-2.2-1.16-3.49,1.62.55,1.11-2.08,1.69-3a5.1,5.1,0,0,0,.72-2.78c0-2-1.34-1-2.41-2.4M396.28,67.23c-.25,2.11,1.27,2.71,2.89,3.17.9.27.76.81.88,1.55.21,1.23,2.94,1,3.81,1.69a3.91,3.91,0,0,1,.58-2.91c-1.48-.05-.26-2.45-2-2.66a4.13,4.13,0,0,1-1.92-1.75c0,.35-2.73-2-2.49-2-1-.05-.25-.78-1.92-.85-1.29-.07-2.68.33-3.89-.32-.16,2.75,2.84,2.38,4.07,4.07m125.14,2.92a7.07,7.07,0,0,0-3.42.46,4.53,4.53,0,0,1-1.81.12,3.09,3.09,0,0,1-.67,1.94,14.63,14.63,0,0,1-5.87,4.25c-1.64.55-.83,1-1.34,2.45s-1.6.69-1.71,2.38A21.3,21.3,0,0,1,506,84.2c-.28,1.76-.28,1.66-2.06,1.66a56.2,56.2,0,0,1-.18,5.71,14.38,14.38,0,0,0,0,2c.12,1.32-.53,1.62-.67,2.86-.16,1.53.81,3.07.81,4.62.69,0,2.57,1.13,3.22.6,1.06-.86,2.12-.25,3.7-.05.83.09,2.64-.67,3.08-.37s2.7-.44,3.42-.53c2.27-.25,4.72.37,6.36-1.39.69-.72,3.75-1.48,3.91-2,.49-1.48,1-1.06,2.52-1.23.7-.07,2.08-3.28,2.55-4.05,1.76-2.75-.78-2.61-2.85-3.89a5.11,5.11,0,0,1-2.56-4.67c0-.7-.44-3.61-.09-3.91.74-.6-.18-2.34-.14-3.12.07-1.34,2.1-3.49,2.48-5-1.13.25-2.78-2.26-3.51-2.91-1.9-1.78-2.82,1.38-4.65,1.76m-124,6.4c-1.07.21-1.64-.62-2.15-1.41-.69-1.11-1.06-.76-2.18-1a10.55,10.55,0,0,1-1-2.41c-.28-1.43-.93-2.11-2.71-1.9-3.75.44-3.56,3.15-2.27,5.85.42.86,2.59,2.06,2.75,2.66.07.27-.71,1.06-.58,1.16,1,.92,1.59-.55,2.56,1.18.3.53,2,1.32,2.68,1.73,0-.39.16-.6.58-.58.34.18-.14,1.41.58,1.16a13.79,13.79,0,0,0,1.16-3.49,1.65,1.65,0,0,0,1.74-1.16,1.65,1.65,0,0,1-1.16-1.74M380,81.21c-1.25,1.5-1.57,2.13-3.4,1.16-1.34-.72.28,1.3.3,1.32,1,.79,1.89,1.64,2.91,2.36,2.49,1.74,6.1,2.31,8.35,4.48-.48-1.71,1.9-.88,1.75-2.34-2.71.18-2.84-2.57-4.72-3.67-2.06-1.22-1.55-4.63-4-5.06.12,1-.64,1.11-1.16,1.74m-11,11.07c0,1.22-.43,2.45.79,3.07.71.37.3,1.6,1,2.24s1.29,1.16,1.08,2.26c1.64.37,2.18-.51,3.49-1.16A16.29,16.29,0,0,0,380,96.93c.25-1.5-1.39-2.13-2.45-2.64s.35-1.74-1.32-1.44c-1.35.23-1.53-2.52-2.63-3.47a4.08,4.08,0,0,1-4.65,2.91m16.88,7.56c.12,1.83,1.08,3.38,1.52,5.13.49,1.94.23,2.5,2,3.59.21-.86,1.22.07,1.74,0,.72-.19.64-1.25,1.47-1.3,2.92-.25,3.63,3.72,4.42,5.55.69,1.6,3.63,0,4,1a7.35,7.35,0,0,1,6.42,3.49c2.11-1.09,5.43-.37,6.2,2.08.56,1.75-.05,3.17,2,3.07a14.66,14.66,0,0,0,3.17-.23c1.14-.28,5.27,3.17,6.63,1.48-.3.37,2.43.58,2,.58,1.09,0,2.31.25,2,1.76,2.4-.58,5.5-.32,7.19,1.53,1.32,1.41,3-.12,4.53,1.06,1,.83,1.45,2.27,2.87.92,1.8-1.73,2-.79,3.7.14a7.45,7.45,0,0,0,5,.42c1,1.41,3.6,2,4.71,1.06s3-1.3,4,.11c-.39-2.41.93-4.19,1.16-6.48.23-2.47-6.91-2.45-8.72-1.66-.39-1.22-1.76-1.46-2.75-1.92-1.2-.53-2.31.51-3.74.78a7.8,7.8,0,0,1-4.26-.23c-1.45-.32-1-1.5-2.06-2.13-.07,0-.85,1-1.17,0-.11-1-1.8-.55-2.33-.58-1.22,1-.78,3.19-2.91,2.91-1.57-.74-2.5-2.26-4.14-2.78-.63-.21-1.3.33-1.88.46-1.2.21-2.43-.9-3.47-1.41-1.9-.92-2.87-3.26-4.67-3.47-2-.23-5.52.76-6.26-1.18s-.92-2.38-3.4-2.31a5,5,0,0,0-2.36.81,2.93,2.93,0,0,0-2.91-1.16c.32-2.73-1-1.94-2.63-1.46a3.56,3.56,0,0,1-3.21-.28q-1.16-.61-2.33-1.16a2.54,2.54,0,0,0,.28-1.64c-.79-2.17-3-1.55-4.84-1.67-1.5-.11-3.24-2.59-3-4.26-1.39.39-1.23-.69-1.85-1.48-1-1.3-1.06,1.15-2.22.9m-26.2,18c-.48.74-3.14,1.59-1.75,2.33q-.05-.63.58-.58c.19,1.44,2.87,2.61,3.53,4.16.46,1.11.7,2.29,1.13,3.4-.16.78-1.11.7-1.57,1.15-1.22,1.16.86,3.33,1.6,4.07a5.35,5.35,0,0,1,.81,5.36c-1.06,2-1,2.85.4,4.69,1.78,2.31,2.13,3.31,1.59,5.92-.39,1.85,1.87,3.77,2.57,5.45a19.51,19.51,0,0,1,1,3.67c-.86.92-2,1.62-2.34,2.91,2.08.26,1.6,2.36,2.92,3.47,2.5,2.06-.09,5.78,1.08,7.95.4.79-.14,1.39.91,1.83,1.3.55,1.55.63.88,1.57-.25.35.56,1.15.67,1.43.32,1-1.38,3.19-1.8,4.1,1.3,0,1.64,1.32,2,2.27a1.11,1.11,0,0,0,.88,1c1.25.51.07.63.6,1.44s1.48.6,1.16,1.74c.32,1.34-.9,2.15-.58,3.49.09.76,1.18,1,1.39,1.89a27.41,27.41,0,0,1,.33,4.81c.07,1.32.65,2.06.9,3.21a14.65,14.65,0,0,1,.14,1.73c.13,1.37.74,0,1.3.6.79.79-1.27,1.39,1,1.39,1.5,0,2,.72,2.77-.46a13,13,0,0,1,2.64-2.94c1.08-.9,3.86,1.5,4.33-.3s-1.35-4.25.28-5.83c-.62,0-2-2.43-2.32-2.93a19.25,19.25,0,0,1-.23-7.58c.32-2.06-2.27-4.44-3.26-6.4,1.62-.42-.33-3.49,1.15-4.07-2.5.14-1.53-3-2.13-3.82-1.64-2.29,1-4-.18-6.06s-3.7-3.17-3.51-5.83c.09-.88,1.08-1.69.94-2.52-.26-1.71-1.67-1.82-2.43-3.07-1.64-2.7.44-3.72.9-6.08.3-1.57-.51-2.49-1.62-3.4-.7-.58-.56-1.73-1.43-2-1.45-.44-.88-.76-.44-1.94.56-1.53-.67-2.91-1.52-4.05-1.9-2.63-.79-8.16-.79-11.31-1.13.48-.74-1.16-1.69-1.37-1.71-.41-1-1-.63-2.31.26-1.08-1.36-2.13-1.75-3.29-.23-.69,1.11-.88.28-1.44-.49-.33-1.29-.83-.61-1.52.3-.3-.07-1.71-.25-2.27s-.9-.93-1.13-1.57c-.32-.9.44-1.08.6-1.89.37-1.9-.32-6.24-2.38-7,0,.3-3.79.62-4.51.64-1.89.07-4.85.79-4.51,3,.18,1.16.81,2.1.86,3.33s-.77,1.62-1.09,2.63c-.43,1.39,1.56,1.48,2.45,2.18,1.58,1.27.74,3.63-.19,5.08m17.46-11.07c-3.56.49,1,3.31-1.16,5.83.93,0,1.23.44.58,1.16.92-.16,1.17.49,2,.65,1.39.3,1.18,1.27,2.2,2.61s3.89,1.3,5.57,1.37c.63,0,4.42,1.83,4.26,2.91-.14.9,1.23,1.23,1.73,2.06.93,1.57,3.56.86,5.23.86.14,1.32,2.57,3.44,3.44,3.72a10,10,0,0,1,4.9,3.21c.74.76,4.28,1.73,5.69,1.85,2,.14,2.89,2.87,4.74,2.87,3,0,4.05-.07,6.18,2,1.25,1.22,3.87,3.26,5.51,1.57,1.18-1.22,3.14-.39,4,.93.65,1,1.39,2.36,2.77,2.47,1.32.32,1.13-.83,2.1-1.16,1.55-.55,3.79,2.64,5.48,2.93.76-.19,1.25-.81,2-1.06,1.25-.42,2.41,1.14,3.75,1.36a8.14,8.14,0,0,0,3.56-.3c0,1.09.8-.16,1.16,0,1,.4.46,1.81,2.22,1.62.81-.09,2-.67,1.85.69,1.09.18,1-.7,1.74-1.16.19,1,1.15,1.08,1.83,1.44,1.76,1,.44-1.32.28-1.83-.55-1.89-1.06-5.39.25-7,.3-.35,1-1,1-1.55a9.63,9.63,0,0,0-1.71-1c-.9.85-1.55,3.24-2.8,3.52,0-.14-1.85-1.37-2.15-1.83-.76-1.16-2.47-1.69-3-.07s-2.58.19-3.66.07c-1.32-.14-1.36.19-1.64-1.23-.16-.7-.31-1.55-1.22-1.59-.32,1.57-.93,1-1.37,2.13-.92,2.34-1.59.9-2.7-.39-.55-.62-.86-1.53-1.76-1.74-.51,1.09-2,1.18-3,1.2-1.9,0-3.89-1.41-3.4-3.52-1.74-.39-1,2.27-2.91,1.74.12-.56-.05-.88-.55-1-.67.7-1.15.44-1.37-.79-.74-1.06-1.82-3.6-3.31-1.73.41-.51-4.26.35-4.86.25-1.29-.19-.83-.93-2-1.3s-.28-1.13-.12-1.85c-3,.05-8.79,0-8.14-4.65a1.12,1.12,0,0,0-1.29.65c-.6.85-.85.25-1.66.16s-1.51-.11-2.29-.25a1.68,1.68,0,0,0-1.76-1.16c1-4.42-6-3.26-8.14-4.65-2.4-1.53-2.91-.72-2.91-4.07-1-1-3,.32-4.51-.79-2.11-1.55-3.88-2.91-4.44-5.6-.26-1.2-2.26-2.33-1.53-3.51-1.68.62-1.14-.85-2.33-1.16-.09,1.8-2.08,2.38-2.33,4.07m-30.85,0a16,16,0,0,1-1.73,1.74c-.72.48-1.82.44-2.34,1.18-.09-1.16-1.2.11-1.83-.25-1.48-.86-.51,1.22-1,2-1,1.62-1.9,2.27-.25,3.63a22.26,22.26,0,0,1,4.12,4.23c1.2,1.94-3.95,5.07-1.14,6.75,1.07.64,1.53,3,1.81,4.21.44,1.92-1.73,2.68-1.74,4.46,1.83-.12,1.36,2,2.34,2.91-.48.07,0,5.43-.11,6.36-.09,1.27,1,.23,1.27,1.37.37,1.73.44.55,1.78,1.53s1.94,4.62,2.34,6.1a13.5,13.5,0,0,1,.53,3.84c.07.74.93.55,1.16,1.16.33,1-.18,2,0,2.91s1.11,1.89,1.16,2.92c0,.88-.6,1.44-.58,2.33.83.07.88,1.11,1,1.71.3,1.69,2,2.13,1.35,4.32-.49,1.59-1.64,1.92-.51,3.42.86,1.13,3,3,2.82,4.51.48,1.78-1.48,1.07-1.75,2.33,1.85,1.9,2.61,4.58,3.49,7,.26,1.73-2,1.74-1.74,3.49,1.62,1.18,1,3.77,1.06,5.46,0,.93,2,4.4,1.27,5-.33.26.74.9.58,1.16,0,.78-1,.49-1.17,1.16,1.39.09.28,1.74,0,2.33,1.46-.09,2.63-1.09,4.07-1.16,1.13,1.22,3.14,1.23,4.65,1.16-.09-.86,1.53-2.54,2.13-3.1,1-1,2.54-.65,3.7-.39-.18-1.71-.72-3.37-.86-5.07a1.52,1.52,0,0,1,.28-1.34c.44-.35-.58-.58-.58-.56-.14-1.09-.92-2.4-.8-3.4.23-1.73.65-2-.69-3.3-1.71-1.73,2.08-4.76-1.11-6.59-1-.56-1.74-.46-2.08-1.87v-2.33c.65-.67,2.13-1.45,1.69-2.56s-.42-1.87-1.41-2.5a4,4,0,0,1-2-4.48c.16-1.6,1.25-4,.07-5.34a9.44,9.44,0,0,0-1.6-1.3c-1.41-1.08-.09-.9-.77-1.85s-.67,0-1.27-1.45c-.72-1.74.06-1.9.58-3.47,1.2-3.58-2.52-7.42-1.06-11.4-1.13.09-1.32-.83-1.16-1.74-1.32-.16-1.83-1.3-2.22-2.42-.58-1.67-.69-1.5.48-2.82.56-.63,1.66-1.3,1-2.33-.88-1.3-1.14-2.2-2.13-3.51-1.36-1.74-2.8-3.4-1.08-5.55,2.52-3.21-6.42-5-3-9.37,1.43-1.83,1-3.21-.74-4.76a7.71,7.71,0,0,1-1.76-3.28c-.67-1.74,1.13-1.5,1.37-3.22h-5.83m-16.3,7.56c-2.5.28-4.39-1-6.22,1.36-.78,1-5,2-6,1,.07,1.13-.83,1.32-1.75,1.16.21,2.08,1.5,3.52,2.5,5.25,1.41,2.4.51,3.6.32,6s2.2,1.16,2.42,2.77c1.13,1.87,2.75,4.28,1.16,6.4,1.3.12,2.94,2.29,3.1,3.61.21,2-.69,4.32.23,6.08,1,1.92,2.5,3.77,1.32,6,1.3.83,2.91,3.95,3.07,5.3.49,4.53.26,9.92,2.77,13.9-2,2.08.14,3.72,1.16,5.23,1.23,1.87.74,3.51,1.29,5.53.42,1.64,1.51,3,2,4.63s-.9,2.89-.46,4.11a9.74,9.74,0,0,1,.48,4.76c-.7,2.45,1.22,4,.8,6.31-.25,1.25.12,1.6.24,3s1.41,2.31,1.48,3.63c.11,2.06,4.07,1.22,5.24,2.33.56-3.6,4.07-3.17,6.11-1.71.53.37,1.27-1,2-.62a14.17,14.17,0,0,0,.16-5.45c-.17-1.78-.44-3.54-.6-5.3-.09-1-.14-1.94-.16-2.89,0-1.57-.65-1.8-.56-3.24-.53,0-.7-1.43-1.14-1.78-1.08-.85,1.18-3.38,1.73-4.62-2.87.16-2.24-5.52-2.5-7.16-.21-1.25-.86-3-.88-4,0-.63-.32-.85-.86-.81-1,.07.39-2.24.48-2.5.56-1.92-1.5-3.19-1.48-5.36-1.67-.21-2.13-.51-1.25-2.31a9,9,0,0,1,1.25-1.74,5,5,0,0,1-1.62-2.06,13.64,13.64,0,0,1-.7-6.68c-3.16-2.5-3.54-5.09-4.48-8.76-.39-1.48-2-6.85-3.31-7.19-2.19-.58.21-7.4.63-8.81.25-.85.76-3.65-.33-4.05-2.06-.81-.72-3,.51-4.37-1.74,0-.46-2.11-1.73-2.61-1-.4-1-1.37-1.76-2-.53-.46-1.43-.46-1.74-1.16,1.32-.44-1.71-2.34-1.75-2.33,0,.79-1,.49-1.18,1.15M299.67,225a14.68,14.68,0,0,1,1.35-4.21c.53-1.27,3-2.29,4.46-2.78.55.81,5.83,2.66,6.19,2.11-.55-.32-.48-.64.19-1,.32-.48.6-1,.88-1.46.85-1.41,1.78-1.39,3.28-1.27a18.87,18.87,0,0,1,3.43.42c1.36-.67,2.56-1.59,3.95-2.19a9,9,0,0,1,4.2-.72,10.08,10.08,0,0,1,.79-4.19,7.06,7.06,0,0,0,.67-3.59c-.3-1.76.79-1.43,1-2.94.25-2-2.66-2.47-3-4.41-.41-3,.4-5.5,1-8.42.3-1.48.41-2.4-.58-3.61s-3-3.14-2.34-4.79c.5-1.25,1-5.64-.07-6.38-2-1.3-2.47-6.34-3.37-8.67-.74-1.87-1.15-2.22-.21-4,.6-1.11-.58-1.92-1.5-2.11-2.47-.56-.23-7.35.11-9.16-1.16-.74-2.31-.69-3-2.1s.26-2.85-.39-4.11a19.23,19.23,0,0,1-2.24-6.19,4.81,4.81,0,0,0-2-3c-1.69-1.48-1-3.08-1.71-4.93-.48-1.3-1.67-1.59-.74-3,.37-.58-1.13-1.87-1.23-2.7-.33-2.36-1.35-4.17-3.84-4.76-.16,1.76-2.2.85-3.56,1.2-2.26.56-4.32,1.73-6.55,2.43-1.09.35-2.19.67-3.26,1a6.89,6.89,0,0,1-2.34,2.34c-1.55,0-3.21-.25-4.33.49-.85.55-1.16,1.37-2.06,1.83a27,27,0,0,1-8.14,2.32c-.81,1-1.57,1.92-2.38,2.86-1.6,1.85-2.2,1.8-4.62,1.8.11,1.73-2.55,1.85-3.47,2.89-1.13,1.29-2.11,1.06-2.26,2.78-.09,1.11-.86,1.87-.67,3-5.15-1.13-3.21,6-7.58,5.83.69,2.77.41,5-2.57,6.25-1.51.65-.35,1.11-1.09,2.59-.58,1.18-1.25,2-1,3.38-4.64-.71-4.05,10.48-5.16,13.09a9.91,9.91,0,0,0-1.2,4.32,4.87,4.87,0,0,1-.62,2.38c-1.53,2.38-.12,4.41-.58,7-.72,1.9-3.65,5-1.62,6.85,1.25,1.16.23,4.21-.7,5.37,1,.44,1,5.15.35,5.71s-1.66.23-1.52,1.27c1.46,1-.16,2.75,0,4.07.05.44.74-.76.62.55a2.91,2.91,0,0,0,.55,2.36c2.22-.46,4.83-1.06,7,0,.51-1,0-3.1,1.74-2.91-.25-1.78-1.11-3.4-1.16-5.23,0-.83,1.2-1.71.58-2.33-.86-.86.39-2.1.58-2.91a14.92,14.92,0,0,0,.14-5.8c-.23-1.8.86-3.45,2.18-4.69a7.12,7.12,0,0,1,0-4.49c.63-1.76,1-3.75,1.48-5.59.65-2.31.35-1-.34-2.73,1.61-1.11,4.81-6.84,7.19-4.72,1.62,1.43-.58,7.86-.05,8.07,1.6.6.35.67,1.34,2,.7.93,2.22,1.38,2,2.82-1.53,3.24-1.29,7.14,2.13,7.15.9,0-1.23,6.78-1.36,7.33-.63,2.93.72,5.94-.2,8.79a9.67,9.67,0,0,1,3.19,6.55,6.35,6.35,0,0,1-.28,2.77c1.09.21,1,1.46,1,2.29,0,.53-.1,1.29.61,1.32,1.34.05,0,.92.44,1.87,1.11,2.59.53,6,1.34,8.72a7.4,7.4,0,0,0,1.27,2.66c0,1.82-.3,3,.86,4.37a12.12,12.12,0,0,1,1.87,3.24,17.66,17.66,0,0,1,.78,2.29,12.34,12.34,0,0,1-.58,1.16c.16.32,1.39-.14,1.16.58-2.43,1.81-2.18,2.57-1.74,5.37A5.26,5.26,0,0,0,273,257c.09.12,1.69,1,1.39,1.13.32-.19.26-1,.6-1.25,1-.88.65,1,.88,1.13s.78-.69,1-.35c.8,1.06,2.15-.58,3.05-1.23,2.13-1.59,7-.23,8.24-2,.83-1.16,3.49-2.82,4.88-2.61.91.14,7.12,1.22,7.19,1-1.2-.16,0-1.9-.79-2.18-1.51-.55-1.11-.88-1.3-2.52-.14-1.23.65-1.66.92-2.89.41-1.85-1.37-4-2.08-5.66a4.7,4.7,0,0,1,.21-4.93c.56-1,.81-2.41,0-3.24a3.88,3.88,0,0,1,2.45-6.52m83.8-93.71c.05.12.56-.14.71.28.23.7.37,1.5.65,2.17s.32,1.67.83,1.94c1.34.7.09,1,.23,2,.12.85.88,1.46,1,2.31a1.23,1.23,0,0,1-.51,1.16,4,4,0,0,1,1.29,2c.44,1.46.28,3,.93,4.46.79,1.76,0,2.5,0,4.46,0,2.2,1.25,2.55,1,4.53-.05.35,2.43,3.89,2.66,4.35.62,1.27.74,2.77,1.57,3.91s.16,1.6.37,3.28-.27,4,1,5c-.93.65-.23,2.82-.05,3.35.4,1.23-.41,1.39.71,2,.76.44.83,1.55,1,2.31a14,14,0,0,0,1.27,2.78c-.56,1.36-.26,2.5-.09,3.91.37,2.8,3.28,4.26,3.08,7.36a14.32,14.32,0,0,1-1.55,5.87c-1.25,2.19,1.27,4.86,0,6.91-.3.51.42,3.24.6,4,.46,2.08,1.55,2.82,2.57,4.53-.09-.16-.79.37-.3.83a4,4,0,0,1,1.16,1.53c.16.42.83,4,.9,4.05.05.35,2.36-1.51,2.91-1.74a10,10,0,0,1,4.65-.74c.77,0,1.55.09,2.33.14a5.62,5.62,0,0,1,2.5-1.94c2-.63,1.85.7,3.08-1.3.51-.85,2-1.2,2.34-1.83,1.36-2.73,3.44-2.12,6-3.07,1-.37,1-1.34,2.26-1.59s2,1.2,2.82-.46c.49-1,1.41-2.48,2.77-1.92,2,.83,2-.65,1.59-2.47-.67-2.78-3.24-4.58-4.62-7-.55-.92-1.22-2.27-.55-3.26.3-.44,1.32-2.82.39-3.12-.21,1.3-1.23-1.29-1.76-1.64-2.1-1.41-.54-3.08-.33-5.2s-.37-3.84.53-5.6c.72-1.44,5-.19,6.22-.37.39,1.36,1.16-.33,1.16,1.46,0,1.62.56.41,1.41,1.41.35.42,3.26,2.1,4.19,2,1.62-.23,2-.49,2.48,1.25.27.91-.23,1.9-.42,2.78-.39,1.8,1.92,2.34,3.31,2.89,2.31.9,2.1,4.25,3,6.43.58,1.3,1.11,1.18,2.38,1.52,1.92.51,2.06-.23,3.38-1.07s2.78-.65,2.34-2.91c.71.11,1.34,0,1.53-.76.3-1.23.61-.74,1.37-1.57,1.45-1.6,3.33-1.37,5.27-2.2a10.41,10.41,0,0,0,4.28-2.75,7,7,0,0,1,2.31-1.74c1.46-.64.63-.64,1.16-2,.6-1.53,3.93-1.6,5-2.92-1.64-.3-.09-3.56-1.6-3.63-.78,0-3.31-4.81-3.82-5.85-.7-1.41-1.18-1-2.45-1.87-1.66-1.11-1.58-2.45-1.85-4.26a14.3,14.3,0,0,0-2.12-5.36c-1.18-1.6-1.81-2.29-4.12-2.57-2.64-.3-4.72.26-7.31-.56-1.34-.44-1-.92-2.5-.74a31.69,31.69,0,0,1-3.65.23,14.85,14.85,0,0,1-5.5-1c-.32-.16.35-.55-.41-.79a10,10,0,0,0-2.15-.34c-1.25-.12-2.08-.67-3.67-.58-1,.05-3-1-3.95-1.46-1.43-.65-2.36-2-3.81-2.64.28.12-.28,1.18-.58,1.16s0-2-1.16-1.16c-1.48-.88-1.32.88-2.33,1.16s-1-.69-2.2-.05-1.9-1-2.45-1.69-2,.9-1.74-.6c.07-.41-2.27-1.46-2.93-1.74-1.37-.55-1.9,0-3.42-.19a2.58,2.58,0,0,0-1.81.19,1.67,1.67,0,0,0-1.75-1.16c.69-1.76-1.53-1.36-1.16-2.91-1.73,0-3.46.51-4.23-.81-.37-.64-1.15-.93-1.59-1.52a13.56,13.56,0,0,0-3.65-2.82c-1.66-.51-1.11.48-2.08,1-.81.49-.92-1.37-1.85-1.71s0-.69-.16-1.27a6.32,6.32,0,0,0-2.75-1.06,5.56,5.56,0,0,0-.19.56c-.21.28-1.41-1.53-1.67-1.71-1.36-.91-2-2.22-3.36-2.41s-5.8-3-6.79-2.63c.18-.07.25,2.27.37,2.7m98.38,63.45c.07,3.54-2.31,4.05-5.25,4.05,0,1.66-4.58,2.57-5.87,2.86a14.18,14.18,0,0,0-4,3c-1.13,1.46-.14,2.71-2.27,2.84a2.67,2.67,0,0,0-2.38,1.81c2.54.41-.46,5.3,3.51,5.22.88,0,2.22-.12,2.89.6.65-.86,1.14-1.85,1.81-2.71a3.61,3.61,0,0,1,5.16-.19v-2.91c1.11.3,1.14-.49,1.46-1.25.46-1,2.94-.49,3.79-.49.67-.88.65-2.36,1.74-2.91,2.17,0,3,.42,3.73-1.8,1-3.15,5.53-.14,6.15-3.45-1.87-2.18-2.5-5.57-5.24-7-.71,2.63-3.28,1.74-5.24,2.34M253.09,222.07c.16.86,2.43,6.38,2.92,6.4,0-.25.14-.37.37-.37.05,0,2,2.73,2.06,3,.16.48.34,1,.48,1.45.44,1.76.23.23,1.16,1.16v1.16q.85.61,1.74,1.16c.42-1.46-.88-2.27-.69-3.38.27-1.67.79-1.69-.1-3.68-1.69-3.74-4.42-8.74-4.57-12.86-.07-2.17.34-4.3.34-6.47a12.5,12.5,0,0,0-.23-2.7c-1.37,0-1.64-.44-2,1.07-1,4.56-2.31,9.36-1.51,14.06M440.51,218c-1.18.35-5.07-1.62-4.67,1.73.21,1.81-1.94,2.36-3.35,2.85-1.6.56-4.07.83-5.36,2.42-.62.74-.85-.35-1.36,1-.34.9-2.84-.05-3.31-.39-1.43,1.48-1.46,5.57-4.88,4.6-2.52-.72-3.36.78-5.41.74-6.93-.09,1.29,5,1.57,6.87,2.34-1.3,4.56.81,7,.58-.19-1.57,1-2.26,1.3-3.65.16-.79,2.31-.42,2.8-.44,1.44,0,2.5.81,3.44,0,1.64-1.46,4.51-.25,5.16-1.32,1.18-1.92,2.87-4,5.34-2.71-.67-1.78,1.55-1.37,1.16-2.91,2.12-.07,2.84.58,2.94-2.61a11.25,11.25,0,0,0-2.36-6.71m60,1.74a35.71,35.71,0,0,1-3.51,2.34c-1,.72-.72,1.34-2.27,1.5s-1.64,0-2.89.88c-1.43,1-1,2.27-3,2.27-2.78,0-3,1-5.23,2.33-2.63,1.55-4.33-.63-5.23,3.49,1.57.18,1.5.46,2.7,1.07,1,.55,1.41,1.71,2.48,2.73s.67,2.06,2.45,2.08a7.38,7.38,0,0,0,4.58-1.22c1.27,1.8,4.62-.71,5.64-.92,1.34-.26.72-1.69,2.22-1.41.65.25,1,.05,1.18-.56.51-1.22.58-.16,1.45-.62.55-.28-.87-.78.55-.6a2.47,2.47,0,0,0,1.78-.56c-.63-1.83.09-3.7.86-5.39s1.81-3.51,1.81-5.48c0-3-3.3-1.94-5.59-1.94M316,221.49c-.09,1.73-3,2.77-4.65,3.49-1.39-1.66-4.76,1.18-6.42-.58a.89.89,0,0,1-1.16.58,5.91,5.91,0,0,1-1,1.71,3.51,3.51,0,0,0-.32,3.82c.49,1.09,1.08,2.2.34,3.3-.42.63-1.18,1.39-.64,2.17a9.33,9.33,0,0,1-.16,1.8c-.65,1.43-.81,1.34,0,3,.69,1.45,2.18,3.31,1.28,4.83-.67,1.14-.65,3.82,1.37,2.48a6.76,6.76,0,0,1,4.88-1c.93-.74.85-2.15,1.76-2.91,1.25.19,2.43-1.09,3.49,0a13.87,13.87,0,0,1,.88-3c1-1.62,2.29-.72,3.77-1.11-.3-1.27.34-1.8,1.48-2,1.85-.33,1.3-1.36,2.7-2.36,1.76-1.25,5.12-3,2.5-5.11-.7-.58,0-2.33-.42-3.28a30,30,0,0,0-1.6-3c-1.22-1.83-1.73-2.27-3.86-2.47-1.43-.14-2.86-.33-4.28-.44M246.7,257a5.73,5.73,0,0,1-.58-1.76c0-.3.72.12.58-.56-.19-1-.32-.28.23-1.78.14-.41.26-1.3.65-1.6.74-.55-.56-.72-.3-1.29s1.85.12,1.17-1.16c1.37.37,1.2-1.16,2.32-1.16.09.56,1.92,1.66,1.74.58-3.63-.16-2.13-7.84-.58-9.9-1,.05-.21-1.6-.92-2-1.29-.79-.23-1.37-1.94-1.62a10.4,10.4,0,0,0-3.54.18,3.1,3.1,0,0,0-2.58-1.55c-1.21-.21-2.45-.21-3.65-.51-1.44-.37-1.92,1.45-2.47,2.7s-1.85,5.25-3.52,4.62a9.37,9.37,0,0,1-1,3.35c-.58,1.6.32,3.21-1.2,4.39-.09.07-1.51,3.14-1.32,3.31,1.87.21,1.73-1.66,2.08-2.91.55-1.85,3.49-2.13,4.92-2.91.11,1.67,1.69,2.13,2.33,3.49.3.65-.46,1-.37,1.57,0,.16.86.48,1,.85.39,1.16.14,2.54.76,3.61.78,1.34,3.05.88,4.07,2,.78.88.62,4.51,1.16,6,.26.74.48,2.66,1.53,2.22-.4-2.7-.19-5.45-.58-8.14m83.82-12.81a4.44,4.44,0,0,0-1.18,0c-.6.32.85,1.45-.56,1.18s-4.14,2.55-5.25,3.47c-3.58-.42-4.83,6.84-8.14,4.65a8.94,8.94,0,0,1-4.7,2.1c-2,.41-5.64-.09-4.27,2.77.27.56,1.52,2.75,2.2,2.87.86.18-.05,1.69,1.74,2a.86.86,0,0,1,1,.79,23.5,23.5,0,0,0,3.73-1.15c1.9-.72,4.4-.88,6.15-1.76,0-.39,0-.78,0-1.16.37-.42,1.29.28,1.74,0,.28-.18,3.49-2.61,3.49-2.33a10.33,10.33,0,0,1,2.38-1.41c1.22-.28,1.41-2.2,2.29-2.1,1.08-.19,2,.86,2.91,0-.3-2.18.76-3.37,2.33-4.65-1.51-1.11-1.44-3.59-1.74-5.23-1.52-.81-2.59-.37-4.07,0m115.82,2.33c-1.22-.58-2.36.21-3.49-.58-.11,2.64-3.4,2.36-5.25,2.32,0,2-4.05,2.79-5.46,2.63-1.25-.14-1.8-.79-2.26.48a3,3,0,0,1-2,1.71c-1.57.56-5.22,1-3.49,3,1.9,2.2,2.71,5.15,3.29,7.93,1.92,1.11,3.37-1.45,5.64-.23,1.69.9,3,4.42,4.76,3.06,1.23-.92,1-1.71,2.61-1.29,1,.26,1.69-.28,2.71.19-.11-1.71,3.4-3.31,4.65-2.33-.3-2.31,2.4-3.14,3.35-4.79s.42-2.66.72-4.53c.05-.33,1.09.11.51-1.29a19.59,19.59,0,0,1-.79-2.7c-.41-1.5-1.71-2.57-2-4.16-1.3,0-2.12.9-3.49.58M301.41,264c-.77-.14-1-1-1.74-1.16-.18.69-1.08.65-1.6.63a27,27,0,0,0-4,.26c-1.38.18-1.48-.76-2.36.44-.78,1-1.25.92-2.4.74-1-.12-2-.05-3-.09s-3.31-.33-3.77-.39c-1.54-.16-.56,0-2.1.72-1.2.6-3.56,1.09-4.67,0-.26,2.71.76,5,.6,7.56,1.81-.44,4.12,1.87,5.07.42,1.85-2.77,4.41.16,6,1.34.18-1.15.53-2.5,1.74-2.93,1.11.25,1.67,1.23,2.91,1.16-.26-4.63,4.21-2.11,6.41-.58-.11-2.38,2.75-1.87,4.07-2.91.56-2.17-1.38-3.21-1.17-5.23M339.83,268c-1,.05-1.2,1.32-2.71,1.3-1.18,0-1.71-1.18-2.82-1.34-1.9-.26-1.44,2.59-2.61,3.52a4.43,4.43,0,0,1-2.47.3c-1.64-.39-.85,0-1.87.93-2,1.89-6,1.5-7.1,4.35-.49,1.29,1.35,2.26,2,3.42.85,1.69.76,3.72.74,5.55,2.26-.71,3.72,1.09,5.81,1.16a6.23,6.23,0,0,0,2.87-1c1.07-.49.76.71,1.8.41v-.58a6.4,6.4,0,0,1,1.16,0c.55-.26-.86-.79.55-.6s2.79-1.15,4.41-1.15c1.82,0,1.57-1.22,3.19-1.16a3.18,3.18,0,0,1,1.5-3.16c2.42-1.66,2-5.27,1.36-8-.56-2.24-1.83-5.36-4.6-5.16-.05.86-.3,1.13-1.16,1.16m-39,18.63c-2.18-.9-4.12-.7-6.4-.58a5.26,5.26,0,0,1-3.51-.58,2.76,2.76,0,0,1-2.1,1.57c-1.59.28-3.4-1.22-3.61.86-.19,1.89-4.26.56-5.34-.11-.05,1.69-.4,3.35-.35,5a2.53,2.53,0,0,0,.51,1.78c1,.86.65.55,1,1.9.14.6,1.2.41,1.6.56,1.08.48.63,1.37,1.18,2.2s.43,1.18,1.45,1.45c1.36.33.05.09,1-.12a.6.6,0,0,1,.58.58c1,.05,2,.05,3,0,.58,0,4.76-.49,4.81-.41.53.79,1.06.23,1.51-.21,1.13-1.09,3.08-.69,4.48-.72,1.15,0,2.38-.27,2.5-1.6.76,0,2,.21,2.63-.44.77-.83-.46-1.66-.46-2.63,0-2.64,2-9.36-1.59-10.32-.42,1.22-1.76,1.59-2.91,1.75"/></g></g><path class="cls-7" d="M365.55,62.16c-.07,8.18-7.2,15.66-15.14,16.34a1.71,1.71,0,0,1-1.86-1.82,1.93,1.93,0,0,1,1.78-1.81c6.07-1,11.37-6.09,11.5-12.38.14-6.64-6-10.81-12.27-10.32-3.76.29-10.06,2.34-10.32,3.28-.68,2.51,4.91,11.57,4.91,23.44,0,8.14-1.66,24.37-12.1,24.87-8.51.41-10.3-10.85-9.77-17.6C323.8,66.86,333,56.52,333,54c0-1.19-4.56-4.44-8.71-4.41a1.73,1.73,0,0,1-1.86-1.68A2,2,0,0,1,324.26,46c5.16,0,11.46,6.19,12.86,6.46s7.91-3.54,12.44-3.88C357.8,48,365.63,53.37,365.55,62.16Zm-29.55-4c-2-.34-10.57,17.77-10.71,27.84-.07,4.74,2,15,6.85,14.5,6.4-.67,7.92-14,8.21-20.61C340.65,72.55,336.73,58.23,336,58.11Z"/><path class="cls-7" d="M374.18,73.6a1.54,1.54,0,0,1-.08.43c-2.52,7.22-3,17-3.64,25.48a2.09,2.09,0,0,1-1.86,2,1.72,1.72,0,0,1-1.94-1.76c.29-8.52,2.13-17.9,3.81-26.24a2.09,2.09,0,0,1,2.29-1.58A1.75,1.75,0,0,1,374.18,73.6Zm3.9-13.25-3.39,2.71,5.16,2.77-6.26-.38-2.37,4.89c0-2,.05-2.95.09-4.92l-4.23.06,4.14-2.76-.42-3.85,2.54,2.54Z"/><path class="cls-7" d="M403.62,79.65c0,5.92-1.44,12.82-1.95,15.7a2.12,2.12,0,0,1-1.86,1.9,1.68,1.68,0,0,1-1.94-1.73,1.14,1.14,0,0,1,.09-.35c.9-2.62,1.86-9.6,1.86-15.1,0-4.48-1.19-7.83-3-7.36-7.94,2-11,17-12.69,24.91a2,2,0,0,1-1.78,1.63,1.58,1.58,0,0,1-1.78-1.76c0-1,1.53-7.35,1.86-8.74a51,51,0,0,0,1.78-10.59,7.24,7.24,0,0,0-1.52-4.91,2.08,2.08,0,0,1-.42-1.31,2.13,2.13,0,0,1,1.86-2c1.69-.18,3.64,7.81,3.64,7.81s5.58-8.56,9.39-9C399,68.57,403.62,69.24,403.62,79.65Zm-9.9-18.78a4.33,4.33,0,0,0-3-1.27c-1.18.13-1.94,1.58-2.45,3.23a1.63,1.63,0,0,1-1.35,1,1.53,1.53,0,0,1-1.69-1.68c0-1.44,2.29-5.32,5.42-5.66a5.94,5.94,0,0,1,4.57,1.36A4,4,0,0,0,398,59c1-.11,1.61-1.37,1.95-2.33a2,2,0,0,1,1.52-1.27,1.68,1.68,0,0,1,1,.23,1.8,1.8,0,0,1,.59,1.54c0,1.1-1.69,4.59-4.65,4.92A6.51,6.51,0,0,1,393.72,60.87Z"/><path class="cls-7" d="M432.47,73.35a66.72,66.72,0,0,1-1.1,10.25,52.69,52.69,0,0,0-.85,6.85,2.8,2.8,0,0,0,.17,1.08,2.23,2.23,0,0,1,.34,1,2.19,2.19,0,0,1-1.95,2c-1.86.18-2.37-2.14-2.37-3.83a61.5,61.5,0,0,1,.93-7.28,69,69,0,0,0,1.1-9.5c0-4.06-2.32-5.46-4.4-5.15-7.53,1.13-11.18,11.81-11.25,18.69,0,3.1,1.44,5.17,3.64,4.94s4-2.45,4.82-4.82a2,2,0,0,1,1.61-1.26A1.56,1.56,0,0,1,424.94,88c0,1.44-2.71,7.37-8.8,8-3.38.36-6.92-1.87-6.85-8.14.1-8.9,5.53-21.48,15.4-22.69C429.39,64.56,432.47,67.52,432.47,73.35Z"/><path class="cls-7" d="M447.19,93.3c-.08,0-.51,0-.59,0-3.91,0-6.26-3.67-6.26-10.18,0-4.06,2.51-14.93,2.11-15.4s-3.38.69-4.57.79c-.59.05-1.19-.41-1.19-1.34,0-2.37,5.7-2.28,6.6-3.08s1.63-6.92,2.62-10.26a2.16,2.16,0,0,1,1.69-1.47,1.64,1.64,0,0,1,1.95,1.56,3.16,3.16,0,0,1-.17.94,57.92,57.92,0,0,0-2.37,9c.15.18,3-.27,5.16-.17A1.91,1.91,0,0,1,454,65.37a1.69,1.69,0,0,1-1.61,1.79c-1.61.1-5.62-.21-6.09.15-1.82,1.41-2.28,10.91-2.28,15.23,0,6.68,2.53,7,3.3,7A1.75,1.75,0,0,1,449,91.23,2.19,2.19,0,0,1,447.19,93.3Z"/><path class="cls-7" d="M477.81,71a64.73,64.73,0,0,1-1.1,10.15,50.7,50.7,0,0,0-.85,6.77A3,3,0,0,0,476,89a2.42,2.42,0,0,1,.34,1,2,2,0,0,1-1.94,1.79c-1.86,0-2.37-2.34-2.37-4a59.63,59.63,0,0,1,.93-7.2,66.91,66.91,0,0,0,1.1-9.4c0-4.06-2.31-5.66-4.4-5.51-7.55.53-11.19,11.26-11.25,17.91,0,3.1,1.44,5.26,3.64,5.17s4-2.18,4.82-4.48a1.79,1.79,0,0,1,1.61-1.14,1.71,1.71,0,0,1,1.78,1.82c0,1.44-2.71,7.13-8.8,7.38-3.38.14-6.92-2.27-6.85-8.55.09-8.64,5.49-21.25,15.4-21.67C474.75,61.91,477.81,65.16,477.81,71Z"/><path class="cls-8" d="M244,154.55h3.36l3-17H244l-.65,3.64h-1.06l.81-4.64h16l-.81,4.64h-1.06l.65-3.64h-6.38l-3,17h3.36l-.19,1H243.8Z"/><path class="cls-8" d="M262.54,134.48H260l.19-.93h3.64l-2,11.39c1.46-1.21,3.7-2.8,5.91-2.8s3.42,1.65,2.93,4.48l-1.15,6.75c-.16.87.06,1.49,1,1.49a5.59,5.59,0,0,0,2-.56l-.19,1.06a5.36,5.36,0,0,1-2,.47c-1.46,0-2.18-1-1.9-2.62l1.15-6.57c.34-1.93,0-3.52-2-3.52s-4.42,1.77-6,3.08l-1.62,9.34h-1.09Z"/><path class="cls-8" d="M274.59,150.1c0-4.64,3.33-8,7.1-8,2.12,0,3.36,1.06,3.36,2.83,0,3.61-5.26,4.79-9.4,4.92,0,3.3,1.49,5,4.51,5a8.83,8.83,0,0,0,4-1l-.22,1.15a9.16,9.16,0,0,1-3.86.84C276.61,155.89,274.59,153.75,274.59,150.1ZM284,145c0-1.06-.65-1.87-2.33-1.87-2.93,0-5.48,2.37-6,5.79C279.54,148.8,284,147.71,284,145Z"/><path class="cls-8" d="M291.33,154.55h2.83l9.62-17h-3l.16-1h4.79l3.92,18h2.83l-.19,1H305l.19-1h3.39l-1.25-5.63h-8.78l-3.17,5.63h3.39l-.19,1h-7.44Zm15.81-6.63-2.21-10.24-5.82,10.24Z"/><path class="cls-8" d="M317.07,143.41h-2.55l.16-.93h3.64l-.4,2.3c1.18-1.09,3.08-2.65,5.29-2.65a2.66,2.66,0,0,1,2.93,2.8c1.18-1.06,3.14-2.8,5.48-2.8,2,0,3.33,1.28,2.83,4.14l-1.21,7.1c-.16.87.06,1.49,1,1.49a5.59,5.59,0,0,0,2-.56l-.19,1.06a5.36,5.36,0,0,1-2,.47c-1.46,0-2.18-1-1.9-2.62l1.21-6.91c.34-1.9-.19-3.21-1.87-3.21-1.9,0-3.92,1.62-5.45,3l-1.62,9.46h-1.09l1.62-9.25c.34-1.9-.16-3.21-1.87-3.21-1.9,0-3.92,1.65-5.45,3L316,155.55H315Z"/><path class="cls-8" d="M338.33,150.1c0-4.64,3.33-8,7.1-8,2.12,0,3.36,1.06,3.36,2.83,0,3.61-5.26,4.79-9.4,4.92,0,3.3,1.49,5,4.51,5a8.83,8.83,0,0,0,4-1l-.22,1.15a9.16,9.16,0,0,1-3.86.84C340.35,155.89,338.33,153.75,338.33,150.1Zm9.43-5.14c0-1.06-.65-1.87-2.33-1.87-2.93,0-5.48,2.37-6,5.79C343.28,148.8,347.76,147.71,347.76,145Z"/><path class="cls-8" d="M353.7,143.41h-2.49l.16-.93h3.58l-.5,2.86c1.4-1.62,3.39-3.21,5.26-3.21a1.57,1.57,0,0,1,1.77,1.68,4.84,4.84,0,0,1-.4,1.71l-.93-.09a4.56,4.56,0,0,0,.31-1.49c0-.62-.34-.81-.87-.81-2.21,0-4.89,3.05-5.38,3.61l-1.53,8.81h-1.09Z"/><path class="cls-8" d="M363.29,153.22l1.71-9.8h-2.55l.16-.93h3.64l-1.9,10.89c-.16.87.06,1.49,1,1.49a5.6,5.6,0,0,0,2-.56l-.19,1.06a5.36,5.36,0,0,1-2,.47C363.73,155.83,363,154.83,363.29,153.22Zm1.9-15.81a1,1,0,1,1,1,1A1,1,0,0,1,365.19,137.4Z"/><path class="cls-8" d="M369.58,150c0-4,2.61-7.91,7.22-7.91a8.19,8.19,0,0,1,3.77.9l-.19,1a8,8,0,0,0-3.58-.9c-3.86,0-6.13,3.36-6.13,6.91,0,3,1.59,4.92,4.51,4.92a10.83,10.83,0,0,0,3.8-.81l-.16,1a11.21,11.21,0,0,1-3.77.75C371.66,155.89,369.58,153.68,369.58,150Z"/><path class="cls-8" d="M381.81,150c0-4.61,3.24-7.84,6.94-7.84a4.67,4.67,0,0,1,4.64,3.39l.53-3H395l-1.9,10.89c-.16.87.06,1.49,1,1.49a5.6,5.6,0,0,0,2-.56l-.19,1.06a5.34,5.34,0,0,1-2,.47c-1.4,0-2.21-.9-1.9-2.71a6.39,6.39,0,0,1-5.14,2.77C384,155.89,381.81,153.75,381.81,150Zm11.08-2.05c0-2.74-1.43-4.83-4.14-4.83-3.18,0-5.85,2.89-5.85,6.85,0,3.14,1.68,5,4.14,5C390.34,154.93,392.89,151.57,392.89,147.92Z"/><path class="cls-8" d="M401,143.41H398.4l.16-.93h3.64l-.4,2.33c1.46-1.18,3.61-2.68,5.76-2.68s3.42,1.65,2.93,4.48l-1.15,6.75c-.16.87.06,1.49,1,1.49a5.6,5.6,0,0,0,2-.56l-.19,1.06a5.36,5.36,0,0,1-2,.47c-1.46,0-2.18-1-1.9-2.62l1.15-6.57c.34-1.93,0-3.52-2-3.52s-4.26,1.65-5.85,3l-1.65,9.46h-1.06Z"/><path class="cls-8" d="M419.81,154.55H423l3-17H422.8l.16-1h7.84c2.52,0,6.32.81,6.32,5.11,0,4.86-4.76,6.35-8.19,6.35h-3.61l-1.15,6.51h3.77l-.19,1h-8.12Zm9.12-7.5c4.54,0,7-2.24,7-5.32,0-2.77-2-4.14-5.35-4.14h-3.46l-1.68,9.46Z"/><path class="cls-8" d="M438,150c0-4.61,3.24-7.84,6.94-7.84a4.67,4.67,0,0,1,4.64,3.39l.53-3h1.09l-1.9,10.89c-.16.87.06,1.49,1,1.49a5.59,5.59,0,0,0,2-.56l-.19,1.06a5.34,5.34,0,0,1-2,.47c-1.4,0-2.21-.9-1.9-2.71a6.39,6.39,0,0,1-5.14,2.77C440.2,155.89,438,153.75,438,150Zm11.08-2.05c0-2.74-1.43-4.83-4.14-4.83-3.17,0-5.85,2.89-5.85,6.85,0,3.14,1.68,5,4.14,5C446.55,154.93,449.1,151.57,449.1,147.92Z"/><path class="cls-8" d="M457.16,143.41h-2.49l.16-.93h3.58l-.5,2.86c1.4-1.62,3.39-3.21,5.26-3.21a1.57,1.57,0,0,1,1.77,1.68,4.84,4.84,0,0,1-.4,1.71l-.93-.09a4.57,4.57,0,0,0,.31-1.49c0-.62-.34-.81-.87-.81-2.21,0-4.89,3.05-5.39,3.61l-1.53,8.81H455Z"/><path class="cls-8" d="M466.81,152.22l1.53-8.84h-2.21l.16-.9h2.21l.62-3.42h1.09l-.62,3.42H474l-.16.9h-4.39l-1.53,8.75c-.34,1.93.28,2.83,2,2.83a6.77,6.77,0,0,0,2.77-.75l-.19,1.06a7.44,7.44,0,0,1-2.77.62C469,155.89,466.19,155.74,466.81,152.22Z"/><path class="cls-8" d="M470.23,161.09l.47-.75a3.46,3.46,0,0,0,2.12.81c5.14,0,13.17-13.42,13.17-16.93,0-.78-.41-1.06-1-1.06a3.66,3.66,0,0,0-2.09.87l-.47-.75a4.51,4.51,0,0,1,2.68-1.12,1.88,1.88,0,0,1,2,2.05c0,3.71-8.19,17.87-14.16,17.87A4.34,4.34,0,0,1,470.23,161.09ZM477,143.41h-2.49l.19-.93h3.27l1.34,13.07h-1Z"/><path class="cls-8" d="M495.54,154.9l.62-3.8h1.09l-.5,3.08a15.9,15.9,0,0,0,4.76.75c4,0,5.85-1.71,5.85-4,0-5.23-9.25-3.83-9.25-9.59,0-2.37,1.56-5.07,6.38-5.07a17,17,0,0,1,5.29.9l-.62,3.74H508l.5-3.05a15.65,15.65,0,0,0-4-.59c-4.23,0-5.29,2.4-5.29,4,0,4.83,9.25,3.49,9.25,9.56,0,3-2.27,5.11-6.94,5.11A18.47,18.47,0,0,1,495.54,154.9Z"/><path class="cls-8" d="M512.19,152.22l1.53-8.84H511.5l.16-.9h2.21l.62-3.42h1.09l-.62,3.42h4.39l-.16.9H514.8l-1.53,8.75c-.34,1.93.28,2.83,2,2.83a6.77,6.77,0,0,0,2.77-.75l-.19,1.06a7.44,7.44,0,0,1-2.77.62C514.33,155.89,511.56,155.74,512.19,152.22Z"/><path class="cls-8" d="M520.31,150.07c0-4.61,3.24-7.94,7.25-7.94,3.21,0,5.29,2.15,5.29,5.85,0,4.67-3.33,7.91-7.25,7.91C522.4,155.89,520.31,153.75,520.31,150.07ZM531.76,148c0-3-1.59-4.86-4.23-4.86-3.3,0-6.13,3-6.13,6.91,0,3,1.59,4.86,4.23,4.86C528.93,154.9,531.76,151.94,531.76,148Z"/><path class="cls-8" d="M538.05,143.41h-2.49l.16-.93h3.58l-.5,2.86c1.4-1.62,3.39-3.21,5.26-3.21a1.57,1.57,0,0,1,1.77,1.68,4.84,4.84,0,0,1-.4,1.71l-.93-.09a4.57,4.57,0,0,0,.31-1.49c0-.62-.34-.81-.87-.81-2.21,0-4.89,3.05-5.39,3.61L537,155.55h-1.09Z"/><path class="cls-8" d="M542,161.09l.47-.75a3.46,3.46,0,0,0,2.12.81c5.14,0,13.17-13.42,13.17-16.93,0-.78-.41-1.06-1-1.06a3.66,3.66,0,0,0-2.09.87l-.47-.75a4.51,4.51,0,0,1,2.68-1.12,1.88,1.88,0,0,1,2,2.05c0,3.71-8.19,17.87-14.16,17.87A4.34,4.34,0,0,1,542,161.09Zm6.72-17.68h-2.49l.19-.93h3.27l1.34,13.07h-1Z"/></svg>