<?xml version="1.0" encoding="utf-8"?>
<!-- Generator: Adobe Illustrator 20.0.0, SVG Export Plug-In . SVG Version: 6.00 Build 0)  -->
<svg version="1.1" id="Layer_1" xmlns="http://www.w3.org/2000/svg" xmlns:xlink="http://www.w3.org/1999/xlink" x="0px" y="0px"
	 viewBox="0 0 800 200" style="enable-background:new 0 0 800 200;" xml:space="preserve">
<style type="text/css">
	.st0{fill-rule:evenodd;clip-rule:evenodd;fill:#C04848;}
	.st1{opacity:0.5;clip-path:url(#SVGID_2_);}
	.st2{fill-rule:evenodd;clip-rule:evenodd;fill:#EF7575;}
	.st3{fill-rule:evenodd;clip-rule:evenodd;fill:#8C3434;}
	.st4{fill:#FFFFFF;}
	.st5{fill:#DBD6D1;}
	.st6{font-family:'KlinicSlab-LightItalic';}
	.st7{font-size:31.1244px;}
</style>
<rect class="st0" width="800" height="200"/>
<g>
	<defs>
		<rect id="SVGID_1_" x="205.5" y="0.4" width="389.1" height="199.6"/>
	</defs>
	<clipPath id="SVGID_2_">
		<use xlink:href="#SVGID_1_"  style="overflow:visible;"/>
	</clipPath>
	<g class="st1">
		<g>
			<path class="st2" d="M461.5,38.9c-0.5-3,1.9-4.4,2.5-6.9c0.4-1.6,2.7-1.5,2.7-3c1.3,0.6,2.5,1.1,3.9,1.4c2.3,0.7,1.9,1.7,3.1,3.2
				c0.6,0.7,2.2,1.4,2.3,2.3c0.4,1.9-0.1,3.6-1.1,5.3c-1.1,1.8-5,2.2-7.1,1.7c-0.8-0.2-2.6-1-4.1-0.6c-0.1-0.4-0.1-0.8,0.1-1.3
				c0.1-1.2-0.8,0-1.2-0.5c0-0.4,0-0.8,0-1.2C462.3,39.2,461.4,39.7,461.5,38.9"/>
			<path class="st2" d="M518.5,75c-1.1,0.7-2.2-1.2-3.6-1.1c-0.5,0.1-1.7-3.2-2.1-4c-0.9-2.1-0.6-5.6-2.5-7.1c0.4-1.3,1-2.4,1.7-3.5
				c0.4-0.4,0.7-0.8,1.2-1.2c0-0.4,0-0.8,0-1.2c0.4,0,0.8,0,1.2,0c0-0.6,0-1.2,0-1.8c1.5,0,4.6,0.2,5,2.2c0.2,1.4,1.4,0,1.5,1.1
				c0.2,1.3,0.4,2.4,0.9,3.6c1,2.7,2.7,5.5,1,8.2c-0.7,1.1-1.4,2-2,3.1C520.2,74.2,518.7,74.4,518.5,75"/>
			<path class="st2" d="M483.6-70.5c3.3,0,4.2-0.3,6.2,1.7c0.4,0.4,0.6-0.8,0.9,0c0.4,1.1,1,1.5,2.2,1.2c-0.4,1.5,0.5,2.3,1.2,3.5
				c0.9,1.5,1.6,2.6,2.2,4.2c0.3,0.7,0.5,3.7,1.6,3.2c1.3-0.6,0.7,1,1.2,1.8c0.5,0.9,0,1.8,1.1,2.4c1.2,0.7,1.9,1.1,1.3,2.6
				c-1,2.4-1.3,5.1,0.4,7.2c0.4,0.5,1.2,0,1.7,0.3c0.2,0.1,0.8,2.9,0.8,3.4c0,0.6,0,1.1-0.1,1.7c-0.2,1.7,0.7,1.7,1.6,2.9
				c1.1,1.4,1.2,3.2,2.1,4.6c0.7,1.1,0,2.1-0.2,3.2c-0.2,0.9,0.8,2.6,1.2,3.4c1,1.9,0.6,2.5,0.7,4.6c0,0.7-0.2,1.2-0.8,1.7
				c0.9,0.9,0.4,2,0.1,3c-0.6,2.3,1.5,5.9-0.5,8c-0.4,0.4-0.4,0.8,0.1,1c0.9,1.1-0.3,0.5-0.4,1.3c0,0.4-0.3,1.6-0.4,2
				c-0.2,1.1-1,2-1.4,3c-0.4,0.9-0.3,3.8-0.7,4.2c-1.2,1.1-1,0.5-1.7,2.1c-1.1,2.3,0.8,1.3,1.9,2.7c0.7,0.8,1.6,0.2,2.1,0.9
				c0.1,0.4,0.4,0.6,0.7,0.8c1.1,0.5,0.8,0.9,1.4,2.2c0.4,1,3.5,4.2,3.3,4.8c-0.2,1.4,1.2,2.5,1.2,3.9c0,1.4-0.5,3.6,0.5,4.8
				c0,0.1,4.6,2,5.3,1.7c-0.7,2.1,3.6,2.7,2.3,4.7c2.7-0.3,0.5,0.6,2.7,1.3c2.8,0.9,1.9,3,3.2,5.1c0.8,0,1.1,0.5,1.5,1.1
				c0.9,1.2,1.6,0.2,2,1.5c0.5,1.6,3.1,1.1,2.8,3.3c4,3,6.4,8.8,6.4,13.5c0,3.5,0,7,0,10.6c0,1.4-0.5,3.1-1.2,4.4
				c-0.3,0.7-1.4,0.7-1.4,1.6c0,1.4-0.4,0.6-1.4,1.6c-0.9,0.9-1.3,2.1-1.8,3.2c-2.1-0.8-1.6,0.6-2.6,1.6c-2.6,2.6-7.5,5.5-11.3,6.8
				c-2.9,1-6.3,1.1-9.3,0.2c-1.9-0.6-3.8,1.1-6.1,0.9c-2.4-0.2-3.7-0.5-5.6-2c1-2.3-2.3-1-1.8-2.9c-2.5,0.2-6.4,1.3-8.4-0.8
				c-0.8-0.9-1.7-1.8-2.6-2.6c-1-0.9-2-0.4-2.8-1.2c-0.4-0.4-0.9,0.6-1.1,0.8c-0.8,0.9-1.9,0.1-2.8-0.2c-1-0.4-5.4-2.9-5.7-1.8
				c1.7,0.3,0,1.5,0,2.3c0.1,0.6,0.3,1.3,0.5,1.9c0.6,2.3-1,0.2-1.1,1.7c0,0.9-1.2,2.9-1.7,3.7c-1,1.7-0.9,3.9-1.9,5.1
				c-1.7,2.1-3,7.8-2.2,9.9c0.5,1.4-0.4,2,0.6,2.8c0.9,0.7,0.6,3.4,0.5,4.2c-0.2,1.4-1.7,4.4-0.8,5.5c0.5,0.7-0.5,2.9-0.6,3.9
				c0,0.7-0.1,1.4-0.3,2.1c0.8,0.4,0.8,1.5,1,2.2c0.2,1.1,0.9,1.4,1.1,3.1c0.1,1,1.5,1.7,2.3,2c0.5,0.1,1.2,2.7,1.2,3.4
				c-0.1,0.7-0.2,1.4-0.3,2.1c0.6,0.8,1.4,1.5,2,2.3c0.5,0.6,0.3,1.4,0.8,2c1,1.3,1-0.8,1.4,1.4c0.5,3.1,3.6,4.3,4.1,7.4
				c0.2,1.5,2.4,1.6,3.4,3.2c0.1,1.5,1.6,2.8,2.3,4.1c0.4,0.6,1.5,2.8,1.2,3.5c1.7,1.5,3.8,2.3,4,4.7c0.1,1.6,1.6,2.7,2.2,4.2
				c0.4,1,1.1,3.7,2.1,4c1.4,0.4,1.4,6,2.5,5.5c1.5-0.7,0.2,1.2,1.2,1.8c0.7,0.4,0.5,1.8,0.8,2.5c0.4,0.7,1.1,1.1,1.5,1.8
				c1.2,2.4,3.3,5.2,5.5,7c-0.3,1,0.9,1.6,1.2,2.3c0.6,1.4,0.6,3.4,1.2,4.7c0.3,0.5,0.8-0.9,0.6,0.5c-0.2,1.2,0.9,2.3,1.1,3.5
				c0.4,2,0.9,6.1-0.2,7.6c-0.3,0.4-0.9,0.4-1.3,0.6c-0.4,0.3-0.6,2.4-0.7,2.9c-0.4,2.2-0.4,4.7-2.4,6.3c-2.9,0.3-5.3,1.9-8.1,2.6
				c-1-0.1-1.5,0.2-1.5,1.1c0.1,0.8-0.2,1.1-0.8,0.9c-1-0.2-1.6,1.2-2.3,1.7c-2.6-0.4-4.3,0.7-6.7,1.5c-0.6,0.2-4-0.2-3.8-1.5
				c-1.3,1.3-4.8-0.2-5.2-1.7c0-0.1-2.5-1.5-2.9-1.7c-1.3-0.8-1.6-2.3-3.5-1.7c0.2-1.2-0.1-2.1-1.1-2.8c-1.5-1-1.4-0.8-1.5-2.3
				c-0.1-1.3-2.2-0.8-2-1.9c0.1-1.6-0.9-2.7-1.1-4.2c-0.3-1.6-1.6-1.5-2.8-2.7c-0.7-0.6-3.2-2.1-3.1-2.9c0.3-2.2-0.7-0.4-1.6-1.6
				c-0.7-1,0-2.5-1.4-3.2c-2.4-1.1-0.1-4.7-2.5-5.7c-0.7-0.3-3.4-4.1-3.3-5.5c0.1-1.7-1.6-1.8-3-2.8c-0.6-0.5-1.3-0.9-2-1.3
				c-1.7-0.8-1-1-1.7-2.6c-0.4-0.9-4.8-7-5.4-5.9c2.3,2.1,1.7,6.2,4.1,8.1c0.4,0.3,0.6,3.3,1,4.1c0.8,1.6,1.3,3.2,1.8,4.8
				c0.3,0.8,2.3,6,2.2,6.1c-1.6,1.2-0.4,1.1,0.3,2.7c1,2.1-0.2,4.7,1.1,6.6c1.1,1.5,0.9,1.8,1.3,3.6c0.2,0.7,0.6,3,1.2,3.4
				c0.8,0.4,1.1,3,1.9,3.9c1.7,2,1.6,3,2.5,5.4c1.6,4.3,3.1,7.7,3.3,12.3c0,0.8-0.8,1.4-0.7,2.4c0.1,1.3,0.3,2.5-1.4,1.8
				c0.2,1.4,0.8,2.6,0.6,4.1c-1.6,0.3-1.7,2.3-2.3,3.5c-1.5,0.1-2.8,0.8-4.2,1.4c-0.7,0.1-1.2,0.4-1.5,1c-1.1,0.8-0.1,1.1-0.7,1.7
				c-0.4,0-0.8,0-1.2,0c-0.6,0.5-1.2,1-1.9,1.5c-0.8,0.6-2.8,2-3.9,1.8c-1.3-0.2-1.6,0.8-3,1.2c-0.8,0.2-3-0.6-3.4,0.2
				c0-0.9-4.4-2.7-5.2-2.9c0,0.2,0,0.4,0,0.6c0-0.1-7.1-1.2-7-1.2c0-0.4,0-0.8,0-1.2c-0.4,0-0.8,0-1.2,0c-1.3-0.9-2.4-2.3-3.5-3.5
				c0-0.4,0-0.8,0-1.2c-0.4,0-0.8,0-1.2,0c-1.4-1.2-0.7-1-0.6-1.7c0.1-0.6-0.6-0.7-1-0.8c-1.1-0.3-0.6-0.9-0.9-1.9
				c-0.4-1.3-1.1-2.3-1-3.7c-0.1-0.9-1.2-0.6-1.6-1.2c-0.8-1.1-1.7-2.4-1.8-3.5c-0.1-0.9-0.5-2.2-1.4-2.3c-1.4-0.2-1.3-2-1.6-3.1
				c-0.4-1.3-0.8-2.6-1-3.9c0.3-0.8-1.3,0-1.2-1.1c0.2-1.8-2.8-4.7-3.3-6.8c-0.4-1.9-0.2-1-1.4-2c-1.3-1-1.1-1.8-1.5-3.3
				c-0.4-1.3-1.1-2.4-1.3-3.7c-0.2-1.3-1.3-1.6-1.3-2.9c-1.2,0.4-1.3-0.1-1.9-0.9c-0.9-1.1,0.2-1.5,0.2-2c-0.1-0.4-0.4-0.7-0.8-0.8
				c-0.8-0.4-0.9-2.3-1.1-3c-0.4-1.4-1.2-2.3-1.6-3.7c-0.4-1.4-0.9-2.7-1.4-4.1c-0.6-1.7-2.7,0.7-3.6,1.1c-1.6,0.6-1-1.6-2.9,0
				c-1.8,1.4-1.3-0.6-3-0.2c-0.5,0.2-0.9,0.1-1.3-0.3c-0.5,0.7-1.4,1-2.2,1.3c-1.7,0.5-4.2,2.1-5.9,0.5c-0.3,1.4-4.4,3.1-5.6,3.1
				c-2.2,0-3.2-0.3-5.7,0.8c-4.2,1.9-7.9,1.4-12.4,1.6c-2.2,0.1-2.8,0.4-4.3,1.8c-0.5,0.5-1,0.8-1.7,0.9c-0.7,0.4-0.3-1-0.6-1.2
				c-0.4-0.2-2.5,1.6-2.9,0.9c-1.2-2.3-0.8,0.9-2.7,0.2c-2.1-0.8-3.5-0.1-5.4,0.8c-1.9,0.8-1,1.4-0.4,3.2c0.4,1.3,0.9,2.5,1.4,3.8
				c1.3,3.4,2.2,7.4,5.6,8.9c0.6,0.3,1.3,4.1,1.7,4.9c0.7,1.5,1.1,4.5,2.7,5.1c1.4,0.5,1.1,2.1,1.9,3c0.7,0.8,1.8,1.1,2.5,2.2
				c0.2,0.4,1.5,2,1.4,2.1c-0.1,0.5,1,2.1,1.5,2.2c0.4,0.2,0.5,0.5,0.2,1c-0.3,1.8,0.7,0.4,1.2,1.4c0.7,1.6,0.7,3.7,0.5,5.4
				c-0.2,1.7-0.6,2.5,0.1,4c0.5,1.1,1.1,2.2,1.5,3.4c0.3,1,0.4,1.7-0.1,2.7c-0.8,1.9,0.4,0,0.4,1.4c0,0.1-0.8-0.3-0.8,0.5
				c0,1,0.8,2,0.8,3c-0.2,0-0.4,0-0.6,0c-0.6,0.5,0.4,1.7,0,2.3c-1.9-0.7-2.2,2.6-3.6,3.5c-1.5,1-1.1,0.3-1.7,1.7
				c-0.5,1.1-1.5,2.2-2.5,2.8c-1.9,1-3.2,1.8-5.2,2.6c-1.8,0.7-3.8,1.3-5.5,2.4c-0.8,0.5-4.3-0.4-5.5-0.5c-0.5,0-2.8,0-2.8-0.7
				c0.1-0.9-1.8-0.2-2.3-0.3c-0.6-0.1-2.3-1.4-2.9-1.2c-2,0.8-0.5-0.3-2.3-0.8c-2.1-0.6-2.6-5.8-5.2-6.1c-0.5,1.4-1.3,3-1,4.5
				c0.2,1.1,1.3,0.9,0.7,2c-0.3,0.6-0.7,1.6,0,2.1c1.1,0.8,1.8,2.8,0.6,3.5c-1.2,0.6,0.3,1.8,0.3,1.9c-0.3,1.4-1.1,2.8-2.2,2.9
				c-0.9,0.1-0.1,1.2-0.7,1.8c-1.7-0.7-1.3,0.8-2.3,1.2c-0.8,0.3-1.7-0.7-2.7,0.1c-0.5,0.4,0.2,1.8-0.7,1.9c-1.3,0.1-2.5,0.7-4,0.7
				c-1.8,0.1-3.4,0.1-4.8,1.4c-1.2,0-1.8-1.1-3.1-0.6c-0.3,0.1-0.4,0.3-0.4,0.6c-1.6,0-3.2,0-4.8,0c-1.7,0-2.2-0.9-4-1.1
				c-1.9-0.2-3.7-1.4-5.3-2.3c-1.4-0.8-2.1-0.7-2.2-2.4c-0.1-0.9-0.4-1.7-0.9-2.4c-1.7-2.3-3.7-4.5-4.8-7.2c-0.7-1.7-1-3.7-1.2-5.6
				c-0.1-1.3-0.1-2.6-0.1-3.9c0-1.6-0.6-1.7-0.5-3.1c-1.5,0.5-1.4-2.8-1.7-3.5c-0.2-0.3-0.6,0.4-0.7-0.4c-0.2-0.9,0-1.9,0.1-2.8
				c0.1-0.8,0.7-4.3-0.3-4.8c0.1,0.1-0.2-3.2-0.3-3.7c-0.2-2,0-3.3-0.8-5.2c-0.1-0.4,0-2.2,0.1-2.1c-1.4-1.2-0.5-3.2-0.4-4.9
				c0.1-1.6,0-3.2-0.1-4.8c-0.1-2.1-0.7-0.5-1.2-1.6c-0.4-0.7,0.2-0.9,0.8-1c0.9-0.2-0.2-1.2-0.3-1.8c-0.5-2.6-2.2,0.7-3.4,0.5
				c0-0.4,0-0.8,0-1.2c-0.4-0.4-1.3,0.3-1.7,0c-0.1,0.4,0,0.7,0.4,0.9c0.7,0.7-0.5,1.3-0.4,2c0.1,0.6,1.1,1.7,1.4,2.3
				c1,1.4,1.5,3.5,2,5.1c0.2,0.5,0.7,2.2,0.4,2.4c-0.5,0.4-0.6,1-0.3,1.6c1.3,2.3-0.1,2.6-2.1,3.5c-1.4,0.7-2.7,2-4.2,0.5
				c-0.4-0.4-1.7-2.4-2-1c0.4,0,0.6,2.2,0.6,2.9c0,0.9-0.9,1.3-0.1,2.7c0.5,1-0.1,1.7-0.8,2.3c-0.4,0.3-0.6,0.8-0.5,1.4
				c-0.3,2.8-0.4,0.3-1.5,1.2c-0.5,0.5-0.6,2.4-0.7,3.1c-0.1,0.3-3.1,1.1-3.7,1.5c-1.9,1.2-2.9,0.3-4.7-0.6
				c-1.3-0.7-0.4-1.7-1.8-2.4c-1.5-0.7-1.9-1.3-0.7-2.8c-2-0.1-4.1,1.7-5.8-0.2c-0.2-0.2-1,0.6-1.7,0c-0.7-0.6-0.7-1.3-1.5-1.7
				c-0.8-0.4-1.7-3.5-2.1-4.5c0.2-1.2,2.9-4.3,0.6-5.3c-0.1,1.1-1.5-0.5-2.3,0c-0.2,0.9-1.6-1.3-2.3-1.2c-1.2,0.1,1.2,3.2-2.4,2.4
				c-0.9-0.2-0.8-1.6-1-2.2c-0.2-0.6-0.6-0.8-1.2-0.7c-0.8-0.8-1.7-1.7-2.1-2.9c-0.8-2.3,1.4-3.2,1.6-5.3c0.3-1.9,1.7-0.3,2.6-1
				c0.7-0.5,1.5-3.4,1.6-4.4c0.3-2.3,1.9-3.1,2.5-5.2c0.4-1.3,1.6-1.4,1.6-2.5c0-2.2,1.5-1.2,2-2.7c1.1-2.9-0.3-6.1,0.3-8.9
				c0.3-1.3-0.1-3.9-0.6-5c-0.4-1-1.1-1.9-1.4-3c0-0.8,1-0.5,1.2-1.2c-1.8-0.6-0.8-2.4-0.6-3.7c0.2-0.7,0.2-1.4,0-2.1
				c0.9-0.5,1.5-1.2,1.7-2.1c0.3-1.5-0.4-3-0.5-4.5c-0.2-2,1.1-4.2,1.3-6.2c0.1-0.6-0.5-2,0.1-2.2c0.8-0.3,0.7-4.8,0.7-5.8
				c0.1-1.8-0.6-3.5,1.4-3.9c1.4-0.3-0.2-2.8,1.6-2.6c0.1-3.3,1-6.1,0.7-9.6c-0.2-1.6-0.1-2.8,0.4-4.3c0.6-2.2,0.8-1.7,2.5-3
				c0.2-0.6,0.6-1,1.2-1.2c0.4-1.3,0.6-2.6,0.8-4c0.4-2.3,0.6-4.7,1-7c1.8,0,2.5-4.7,4.6-3.5c-0.5-1.5,0.5-1.7,1.4-2.4
				c0.4-0.3,0.1-0.8-0.2-1c0.9-1.3,2.5-1.8,3.5-2.9c-1.4-0.1,0.8-1.6,0.9-2.3c0.2-1.6,0-1.5,1.5-2.4c1.8-1,0.9-1,1.4-2.5
				c0.1-0.3,4.2-3.3,3.8-3.3c2.2,0.2,1.1-2.9,2.9-2.9c0.1,0.4,3,0.5,3.4,0.3c0.9-0.3,1.8-0.9,2.5-1.6c0.8-0.8,1.5-0.2,2.2-1.2
				c0.4-0.6,0.9-1.6,1.7-1.7c-0.1-1.2-0.1-2.9,1.2-3.5c1.6-1.6,4.5-0.1,5.4-1.8c0.6-1.2,2.6-0.9,3.6-1.4c2.1-1,0.7-0.2,2.4,0.9
				c0.4,0.3,4.8-1.1,5-1.4c0.2-0.5,4.1-1.5,4.9-1.8c1.7-0.7,3.3-1.6,5.1-2.2c1.6-0.5,3.1,0.8,4.2-0.7c0.4-0.6,0.8-1,1.4-0.3
				c0.7-0.1,1.5-0.1,2.2,0.2c0.6,0.7,1,0.6,1.2-0.3c1.3-0.9,0-0.8,0.7-1.6c0.8-0.9,1.8-0.7,2.3-1.2c0.9-0.8,2.2-2,3.5-3.5
				c2.9,0,5.8-2.9,8.7-1.8c0.6-2.3,1.5-0.8,2.9-1.7c0.2-0.1,0.2-2,1.1-0.9c0.8,1.1,1,1.4,2.2,0.1c0.8-0.9,0.5-1,0.9-1.5
				c0.1-0.2,1.9-0.3,2.3-0.6c1.4-0.3,2,0.6,3.1,1c1.3,0.4,2.8-1.1,4.1-1.5c5-1.6,9.5-3.4,14.7-5.5c1-0.4,2.3-1.3,3.4-1.1
				c0.8,0.1,1.2,0.8,2,0c-0.7-2-0.3-5.2,0.6-7c0.3-0.5,0.8,0.9,0.6-0.6c-0.2-1.1,0.8-0.9,1.5-1.3c0.4-0.2,1.3-2.3,1.8-2.9
				c0.5-0.7,1-1.4,1.3-2.2c0.8-0.1,1.5-0.3,2.2-0.7c0.6-0.4,1.2-0.7,1.9-1c-0.2-0.5-0.3-1.1-0.1-1.6c0.4-0.8,1.3-1.1,2-1.6
				c0.9-0.6-0.2-1.4,1-1.8c1.2-0.4,1.1-2.2,1.2-3.2c1.3,0.5,4.2-2.1,3.5-3.5c0.9-0.2,1.8-0.1,2.7-0.4c1.1-0.5,0.4-2.1,2-1.9
				c-1.2-1,1.9-6,2.9-6.5c0.6-0.3,1.3-0.5,1.6-1.1c0.4-0.7-0.2-1.8,0.5-2.2c1.4-0.7,3.2-1.3,2.6-3.5c1.4,1.5,3.6-1.5,4.7-1.7
				c0.6,0,1.6-4.7,2.7-5.4c0.8-0.6-0.9-0.7-0.3-1.6c1.5-0.2,2.5-1.3,3.5-2.3c1-1,2.2-2.2,2.4-3.6c0.1-0.7-0.1-1.2-0.7-1.7
				c-0.4-0.3,0.6-0.7,0.6-0.6c-0.2-2-1.3-4.2-2.1-6.1c-0.7-1.7-0.4-2.2-1.8-3.7c-0.9-1.1-1.9-2.4-2.1-3.8c-0.8-4.6-4.2-9.1-2.9-12.9
				c0.4-1-0.7-1.3-0.4-1.9c0.5-1.1,0.4-1.5,0-2.7c-0.5-1.7,0.7-0.4,1.1-1.4c0.3-0.9-0.7-1-0.1-1.9c0.3-0.5-0.5-1.7,0.5-1.8
				c0.7-0.1,1.8,0.2,1.3-1c0.3-1.3-0.4-2-0.6-3.1c-0.2-1,1.7-1.7,2.4-2.7c0.8-1.1,1.8-1.5,3.1-1.6c0.7-0.1,1.4-0.8,2.1-0.7
				c1.1,0.2,0.3,0.9,1.7,0.1c0.9-0.6,2.2-0.5,3.3-0.7c2-0.4,0.9-0.1,2.7,0.8c1.4,0.7,3.1,0.5,4.6,0.4c-0.4,2.2,3.4,0.6,2.9,2.9
				c0.8,0.3,2.3-1.1,2.8-0.3c0.6,1,1.1,0.8,2.1,1.4c1,0.6,3.6,4.2,3.7,4.2c2-0.3,0.4,0.4,1.2,1.1c0.4,0.3,2,0.7,2.7,1.1
				c0.8,0.4,2,0.3,2.6,0.7c0,0.4,0,0.8,0,1.2c0.3,0.4,1.4,0.4,1.8,0.5c2.6,0.4,4.8,2.9,7.5,2.4c-0.1,0.9,1.1,2.2,2,1.6
				c0.4-0.4,0.5-1,0.4-1.6c1.3-0.4,2-1.4,3.4-1.1c0.9,0.2,1.7,1,2.7,0.9c1.3-0.2,3.1-1.8,4.2-1.7c0.6,0.1,1.7,1.3,2.1,0.5
				c0.6-1.4,1-0.6,2.2-0.3c-0.9-2.2,2.5-0.2,2.3-1.7c-0.4,0-0.8,0-1.2,0c-0.4-0.4,0.6-1.8,1.2-1.7c1.1,0.1,0.9-3.7,1.1-4.7
				c0.5-1.9,1.3-3.4,1.2-5.4c-0.1-1.3-0.4-2.6-0.6-3.9c0.5-0.7,0.9-1.6,1.1-2.4c0.9-3-0.3-7.8,1.3-10.1c1-1.5,1.6-3.2,1.8-5
				c0.1-1.2,0.1-2.5,0-3.7c-0.1-1.7,0.5-1.6,0.5-3.2c0.9,0.3,4.1-3.8,4.7-4.8c0.5-0.8,3.7-1.6,4.6-1.7c1.7-0.1,1.5-0.9,2.5-2.3
				C481.6-68,483.6-69.3,483.6-70.5 M441.1-3c-0.7-0.1-1.3-0.4-1.9-0.2c-1.6,0.4-1.1-1-2.7-1c-0.3-1-0.9-1.7-1.5-2.5
				c-1-1.3-0.8-2.5-2.3-2.6c-2.3,0-7.9-3.8-7.2-6.5c-2.6,0.8-5.1-0.6-7.6-1.2c-0.6-2.1-2-3.9-4.1-4.7c-0.1,1.6-1.8,1.8-2.9,2.3
				c0.1-0.9-1-0.7-1.5-0.6c-1.3,0.2-1.1,0.2-1.5-0.9c-0.6-1.5-2.8-1.2-3.9-2c-0.5,1.8-0.5,3.6-0.2,5.5c0.2,1.3,0.5,2.5,0.7,3.8
				c-0.8,0.3-1.2,0.9-1.2,1.7c-0.7,0.8-2.1,0.2-1.7,1.7c1.5,1.2,3.4,3.2,3.9,5.1c0.4,1.8-1.1,3.7,0.4,4.9c1.9,1.6,2.6,2.7,3.9,4.7
				c0.7,1.1,1.2,2.7,1.7,3.8c0.4,0.9-0.6,1.6,0.5,2.1c1.3,0.5,0,0.7,0.6,1.4c0.4,0,0.8,0,1.2,0c0,0.4,0,0.8,0,1.2
				c0.9,0.7,2,0.5,2.9,1.2c-0.4,1.2,0.5,2.8,1.4,3.1c3.8,1.5,8.3,3.9,12,0.4c-1.5,0.1-3.7-3.9-4.8-4.9c-0.5-0.4-0.9-0.7-1.3-1.2
				c-0.9-1.3-1.4-1-2.9-1.6c-0.8-0.3-1.5-0.7-2.2-1.1c-1.7-0.9-0.6-1-1.4-2.5c-0.6-1.1-1.5-1.7-1.6-3c-0.2-2.4-1.7-3.2-3.7-4.3
				c-2.4-1.2-5.1-5.2-6.2-7.7c-0.6-1.2-0.8-2.6-0.6-3.9c0.2-1.4,1.1-1,1.7-2.5c0.4-1.1,2.1,0.2,2.2-0.8c0.2-1.4,2.5-1.6,3.7-1.9
				c0.9-0.2,4,0.5,4.9,1.6c0.9,1.1,2.4-0.1,3.4,1.2c0.9,1.3,1.8,2.4,3.6,2.3c-0.1,0.3,2.2,2.7,1.9,2.7c1.4-0.4,0.9,1.2,2.6,1.2
				c1.5,0,2,1.6,3.7,1.3c0,2.8,0.8,2.3,3.1,3.6c1.5,0.8,1.3,2.6,2.7,3.4c0-0.2,0.2-0.4,0.4-0.4c1.4,0.6,1,2.4,3.1,1
				C442.5-1,440.6-1.3,441.1-3 M483-55.9c-1.1-0.2-2,0.9-2.9,0c0,0.5-1,2.6-1,2.6c0.3,0.3,0.7,0.6,1,0.9c-3.9,2.1-3.1,3.5-3,7.5
				c0,0.7-0.1,1.5-0.2,2.2c-0.4,2.2-0.6,0.8-1.6,2.1c-1.6,2-1.8,3-1.5,5.7c0.2,1.7,0.6,2.9-0.1,4.6c-0.7,1.9-1.4,2.6-1.1,4.8
				c0.3,2.1,1.1,4.1,1.1,6.3c-0.2,1.8-2.2,2-2.9,3.5c1.9,1,3.8,0.7,5.8,1.2c0.3,1.3,0.1,2.8,0.6,4.1c0.5,0.2,0.7,0.6,0.6,1.2
				c1.1-0.2,1.1,0.7,1.7,1.1c1,0.7,2,2.5,2.9,2.9c0.4-1.5-0.7-3.7-0.6-5.4c0.2-2,0.5-4.1,0.9-6.1c0.2-1-0.1-3.1,0.7-3.6
				c1.6-1-0.3-3.2-0.5-4.7c-0.2-2.3,1.4-4.7,1.7-7c0.2-1-0.7-1.9-0.6-2.9c0-0.7,0.6-1.4,0.7-2.1c0.2-1.6,1.2-2.8,1.3-4.5
				c0.1-1,0-2.1-0.2-3.1c-0.2-1.6,0.5-0.2,0.5-1.4c0-0.2-1.1,0-0.5-1.3c0.4-0.9,0.2-2.6,0.8-3.1c1.1-1,0.8-3,2-3.5
				c1-0.5,2.5-0.5,2.4-2c-1.7,0.2-1.1-1.2-2.3-1.7c0.7,0.3-2,0.2-1.7,0c0.1-0.9-0.6-3.5-1.7-1.7C484.7-58.2,484.6-56.3,483-55.9
				 M466.7-7.6c-0.1-0.6-2.8-1.2-3.2-1.1c-1.4,0.4-1.9-0.5-3.6-0.4c-1.9,0.1-2.7,0.2-4.6,1c-0.9,0.4-1.7,0.1-2.6,0.5
				c-0.9,0.4-1.3,1.2-2.3,1.2c0.6,1.7-0.8,1.1-1.2,2.3c1.1,0.7,1,2.5,1.1,3.6c0.1,1.5,0.5,1.9,0.1,3.3c-0.2,0.8-0.7,3.1,0.5,3.6
				c-0.6-2.2,3.2-0.3,3.8-1.9c1-2.7,2.7-1.7,5-2.2c-0.1,0.5,0.1,0.9,0.6,1.2c0.1-1.7,1.2-2.8,2.9-2.9c0.6,0.2,1.1,0.6,1.4,1.2
				c0.7,0.9,1.5,0.7,1.8,0.8c0.3,0.3,0.6,0.7,0.9,1c0.2-1.7,1.3-2.8,2.3-4.1c1.4,0.2,4-1,3.4-2.8c-0.2-0.5-0.6-1-1.1-1.3
				c-0.8-0.7-0.3-1.4-1-2C469.6-7.9,468.6-9,466.7-7.6 M483-1.2c-2,4-4.9,9.3-9.3,11c-2.9,1.1-7.5,1.4-10.5,1.2
				c-0.5,1.7-1.2,0.8-2.7,1.1c-0.5,0.1-1,0.3-1.5,0.5c-0.7,0.3-1-0.5-1.6-0.5c-0.2,0-2.1,0.9-2.3,1.2c-0.4,0.6-2.2-0.3-2.9,0.6
				c-0.5,0.6-2.2,0.5-2.9,0.6c-3.1,0.3-3.5-0.9-3.5,2.9c-1.6,0.1-1.8,2.2-3.5,2.3c-0.2,0-1.8,0.6-1.8,0.6c2,0.1,2.8,4.3,4.1,5.2
				c0.5,0.2,0.8,0,1-0.5c0.4-0.1,1.8,0.5,2.2,0.6c1.3,0.5,1.1,2.5,0.3,3.4c1.7,0.5,4.4,0.2,4.1,2.5c-0.4,3.2,1.5,1.7,1.4-0.7
				c0-1,0.7-1.7-0.2-2.3c-0.8-0.5-1.9-0.7-2.3-1.6c-0.6-1.5,0.9-4.2,2-4.5c2.4-0.6,3.9-2,6.6-1.6c-0.2-1.6,3.1-2.1,4.2-2.1
				c2.2,0,4.1,0.9,6.4,0.5c1.6-0.3,3.9,1.1,5.1,0.5c-0.4,1.3,1.1,1.4,1.9,1.6c1.1,0.3,0.3,2,1.5,2c1.9,0,0.7,0.9,1.7,2.1
				c0.3,0.4,1.1,0.7,1.3,1.2c0.3,0.7-0.5,1.6,0.3,2.1c0.4,0.2,0.6,0.4,0.8,0.7c0.4,1.1,0.9,1.3,2,2.2c0.5,0.4,2.7,3.5,2,4.3
				c-0.2,0.2,0.2,1.8-0.1,2.5c-0.8,1.8-0.1,3.9-1,5.7c1.4,0.1,3.2-2.6,4.1-3.5c0.9-0.9,4.4-1.9,5.8-1.8c-0.4-1.6,0.9-1.6,1.2-2.9
				c-1.3,0-2.1-0.9-3.5-0.6c0.4-1.8-3.5-3.7-3.5-6.1c0-2.2-1.2-2-2.7-3.3c-2.1-1.7-0.4-2-0.8-4c-2.7-0.1-0.5-5-0.1-6
				c0.4-0.9,0.7-2,1.6-2.4c1.1-0.6,1-3.4,1.4-4.9c-3.8-0.3-2.7-5.6-4.1-8.1c-0.3-0.6-1.1,0.2-1.6-1.2c-0.2-0.5-0.8-2.7-1.3-1.2
				C482.8-1.8,483.1-1.7,483-1.2 M504,31.3c0.4-1.4,1.6-1.8,1.7-3.5c-2,0.2-2,2.3-3.4,2.4c-1,0.1-3.5-1.2-4.2-0.1
				c-0.2-2.9-5.3-7.9-1.5-10.5c1.5-1,3.2-1.7,5-1.8c0.2-1.3-1.8-1.8-0.6-2.9c-2.2,0.4-4.2-0.9-6.4-0.6c-0.6,2.3-2.5,4-2.9,6.4
				c2.7,0.4,1,1,1.2,2.9c2.3-0.2,1.8,3.3,2.2,4.4C496.2,31.2,501.2,30.6,504,31.3 M413.2,23.8c0,0.4,0,0.8,0,1.2
				c0.4,0.2,0.8,0.4,1.2,0.6c0,0.4,0,0.8,0,1.2c0.6,0.7,1.6,0.1,2.2,1.1c0.5,0.9,0.7,1.8,1.9,1.2c0.2,1.6,2,1.9,2.9,2.9
				c0.3-1,0.5-1.9,0.6-2.9c0.2-2.6-0.2-1.9-2.1-3c-0.9-0.5-1.5-1.4-2-2.2c0.4-1.1-0.7-0.7-1.2-1.2c-0.7-0.7,0.6-0.8-0.7-1.6
				c-0.8-0.5-1.5-0.6-2.5-1.1C410.9,18.5,412.1,22.9,413.2,23.8 M477.8,61c-0.8-1.4-2.9-2.7-4.3-3.5c-0.8-0.5-1.6-0.9-2.2-1.7
				c-0.8-1-0.9,0-1.6-0.6c-0.6-0.5-0.6-1.3-1.2-1.7c-0.7-0.5-1,0.6-1.4-0.6c-0.4-1.2-1.7-0.8-2.6-1.2c-0.7-1.1-1.5-2-2.3-2.9
				c-0.3,0.9-4.6-2-5.2-2.1c-2.2-0.3-4.2-5.6-6.5-6.5c-0.8-0.4-1.6-0.8-2.3-1.2c-1.7-1-0.7-1.3-1.2-2.8c-0.6-1.5-2.4-1.7-3.5-2.7
				c-0.5-0.4-0.8-0.9-1-1.6c-1,0.4-1.9-0.3-2.6-0.9c-0.4-0.3-1.6-1-2.1-0.9c-0.6,0.1,0.1,1.3-1.1,0c-1-1.1-2.2-1.9-3.3-2.9
				c-1.3-1.4-1.2-1.8-3.2-1.8c-0.1,1-1.1,1.4-1.8,1.7c-2,1.1,0.4,3,1.3,4.1c0.4,0,0.8,0,1.2,0c0.4,0.4,0.8,0.8,1.2,1.2
				c0,0.4,0,0.8,0,1.1c0.4,0,0.8,0,1.2,0c1.2,1.1,2.2,2.5,3.5,3.5c0,0.4,0,0.8,0,1.2c0.4,0,0.8,0,1.2,0c0.7,0.3,0.5,1.7,1.8,1.7
				c0.9,0.1,1.7,1.2,2.3,1.7c3.5,2.9,7.4,5.2,10.4,8.6c0.7,0.8,1.7,0.4,2.1,1.3c0.4,1.1,1.3,0.3,2,1.2c1.1,1.3,2.2,2.6,3.5,3.5
				c1.3,0.9,2.2,2.2,3.3,3.4c0.9,1,2.8,0.7,3.4,1.6c0.5,0.8,3.4,2.2,3.2,3.4c0-0.2,3.1,2.1,3.5,2.6c1.4,1.6,3.2,2.2,4.8,3.3
				c1.1,0.8,1.9,1.5,3.3,1.3c0.4-1.6,0.7-3.2,0.8-4.9c0.1-1.7,0.2-3.3,0.3-5C480.9,61.4,479.6,60.8,477.8,61 M475.4,32.5
				c0-4-5.5-3.3-7.1-3.9c-0.6-0.2-1.2,0.3-1-0.7c0.2-0.9-0.6-1.1-1.3-1c-1.3,0.1-3.2,1.8-4.5,1c-0.7,2.7-0.9,5.5-1.7,8.2
				c-0.3,1,0.1,2.2,0.4,3.2c0.5,1.3,2,1.7,2.2,2.9c0.2,1.5,2.3,0.8,2.1,2c-0.2,1.2,1.4,0.4,1.1,1.2c2.9,0.3,6.4,0.3,8.7-1.7
				c0.4,1.1,1.1-0.2,1.4-0.6c0.8-1,1.3-1.1,1.3-2.7c0-1.5-0.3-3-0.4-4.5c0-0.6,0.5-3,0.4-3.1C476.9,32.6,476,32.9,475.4,32.5
				 M406.8,29.6c-0.2,0.7-1.3,0.6-1.3,1.5c-0.2,1.7,1.5,0.9,1.4,2c-0.2,1.5,2.6,4.1,4,4.9c0.6,0.3,4.6,5.3,4.2,1.6
				c-0.2-1.5-0.6-3.6-1.7-4.4c-1.8-1.4-3-2-3-4.4c-2.4,0.4-1.7-2.4-3.5-2.9C406.6,28.6,406.1,28.9,406.8,29.6 M508,40.1
				c-0.9,0.3-2.4,0.2-2.9,1.2c2.2,0.6-2.5,1.2-1.7,0.6c0,0.4,0,0.8,0,1.2c-0.6,0.6-0.9-0.4-1.7,0.6c-0.7,1-2.5,1-3.6,1.1
				c0,1-0.8,1.5-1.5,1.9c-1.4,0.8-1.1,1-1.4,2.2c-0.3,1.2-1.7,2.1-2.2,3.2c-0.7,1.6-1.7,1.6-1.8,3.2c-0.1,1.3-0.9,2.3-1.1,3.5
				c-0.1,0.7-1.1,3.2-2.4,2.8c-0.3,2-0.9,4.1-0.2,6.3c0.2,0.8,0.8,1.4,1.4,1.8c0.2,1.3,0.1,2.8,0.2,4.2c0.7,4.8,3.7,0.7,6.2,3.4
				c1.1-2,0.3-4.2,0-6.3c-0.3-2.8,1.6-3.7,1.8-6.1c0.1-2,0.8-3.1,1.8-4.8c0.8-1.4-0.1-1.6,1.5-2.2c1.3-0.5,1.4-2.5,1.9-3.6
				c0.9-2.3,2.2-4.3,4.1-5.8c1.4-1.1,3.5-2.9,5.1-3.5c1.9-0.7,3.2-2.9,4.8-4.1c0.7-0.6,3.4-0.4,3.4-0.8c-1.5-0.4-2.7-1.1-4.1-1.7
				c-0.7-0.3-1.5-0.5-2.3-0.6c0-0.4-0.1-0.8-0.4-1.1c-1.2-0.7-1.6-1-2.1,0.5C510.2,38.5,509.2,39.4,508,40.1 M405.6,43.6
				c0.7,0.8,0.5,2.1,1.7,2.3c-0.2-1,1.3-0.4,1.7-0.7c1.3-0.9-1-1.5-1.2-1.6c0-0.4,0-0.8,0-1.2c-0.5-0.4-1.2-0.1-1.6-0.6
				c-0.5-0.6-0.7-2.3-0.2-2.9c-1.7-0.2-1.8,1.6-2.5-0.5c-0.4-1.2-0.8,0.3-1.3-0.1c-0.4-0.4-3.8-1.6-3.8,0
				C400.9,40.1,403.7,41.3,405.6,43.6 M466.1,72.1c-1.3-1.7-3.8-2.3-5.2-4.1c-0.5-0.6-1.3,0-1.9-1.2c-0.7-1.2-2.4-0.4-3.1-1.4
				c-0.7-1.2-1.2-0.4-1.6-1.7c-0.4-1.1-1.2-1.8-2.1-2.3c-1.8-1.1-4.1-1.7-4.7-3.9c-0.5-1.7-3.9-4-5.7-5.1c-1.5-0.9-2.6-0.7-3.5-2.2
				c-1-1.6-1.5-1.2-2.7-2.1c-0.7-0.5-0.9-1.4-1.8-1.5c-1.3-0.2-1.5-1.2-2.5-2.2c-1.5-1.4-2.7-3.1-4.7-3.6c-0.4,1.4-1.7,1.4-2.9,1.7
				c-0.6,0.2-1.6,1.8-2.1,2.3c-1.9,2-3.7,4.6-5.7,6.7c-1,1.1-1.9,1.1-2.3,2.8c-0.4,1.7-2,1.9-2.9,3.7c-0.3,0.7-0.6,1.4-1.1,1.9
				c-0.4,0.4-1.1-0.2-1.2,0.6c-0.1,1.3-2.5,0.5-1.7,2.3c-1.5-0.4-1.1,1.9-2.9,1.2c-0.2,1.2-0.6,2.3-0.9,3.5
				c-0.4,1.5-1.3,1.4-1.7,2.9c-0.5,1.9-3.3,2.9-4.4,4.3c-4.5,5.6,7,2.2,5.9,6.2c1.6-0.2,3.6,0,4.1,1.7c2-0.9,3.9-0.1,6,0.3
				c1.7,0.4,4.7,0.2,5.2,1.8c0.6,1.8,1.8,1.9,3,3.2c1,1.1,1.3,0.3,2.4,1.1c1.6,1.2,3.2,2.4,5.2,2.4c2.3,0,4.5-0.6,5.9,1.3
				c1.7,2.3,1.7-0.5,3.1-0.2c-0.5,1.8,3.1,1.4,3.6,1.1c1.7-1.3,1.3-0.4,3-0.4c1.2,0,2.2-0.6,3.3-0.7c-0.1,1.1,1.8,2.4,2.7,1.7
				c0.7-0.6-0.4-2.4,1.3-1.7c1.9-0.3,2.4,1.5,4.1,1.7c1.3-1.8,3.3,0.8,4.2-0.3c1-1.1,1.9-0.8,2.8-0.3c0.6,0.3,2-4.1,2-4.9
				c0.1-0.7-0.6-3.6,0.9-3.3c1.6,0.3-0.1-2.4,1.7-1.8c0.4-1.6-0.5-2.2-1.2-3.5c1.6,0.5,1.1-2.1,1.7-3c0.5-0.8,0.7-1.8,0.7-2.8
				C468.5,72.5,467.2,73.5,466.1,72.1 M396.3,48.2c-0.2,2.1,1.3,2.7,2.9,3.2c0.9,0.3,0.8,0.8,0.9,1.6c0.2,1.2,2.9,1,3.8,1.7
				c-0.1-1,0-2.1,0.6-2.9c-1.5-0.1-0.3-2.4-2-2.7c-0.5-0.1-1.9-1.3-1.9-1.7c0,0.4-2.7-2-2.5-2c-1-0.1-0.2-0.8-1.9-0.8
				c-1.3-0.1-2.7,0.3-3.9-0.3C392.1,46.9,395.1,46.5,396.3,48.2 M521.4,51.2c-1.3-0.2-2.2,0.1-3.4,0.5c-0.6,0.2-1.2,0.2-1.8,0.1
				c0,0.7-0.2,1.4-0.7,1.9c-1.2,1.6-3.8,3.6-5.9,4.2c-1.6,0.5-0.8,1-1.3,2.4c-0.5,1.3-1.6,0.7-1.7,2.4c-0.1,1.1-0.4,1.5-0.6,2.4
				c-0.3,1.8-0.3,1.7-2.1,1.7c0.1,1.9-0.1,3.8-0.2,5.7c0,0.7,0,1.3,0,2c0.1,1.3-0.5,1.6-0.7,2.9c-0.2,1.5,0.8,3.1,0.8,4.6
				c0.7,0,2.6,1.1,3.2,0.6c1.1-0.9,2.1-0.2,3.7-0.1c0.8,0.1,2.6-0.7,3.1-0.4c0.4,0.3,2.7-0.4,3.4-0.5c2.3-0.2,4.7,0.4,6.4-1.4
				c0.7-0.7,3.8-1.5,3.9-2c0.5-1.5,1-1.1,2.5-1.2c0.7-0.1,2.1-3.3,2.6-4.1c1.8-2.7-0.8-2.6-2.9-3.9c-1.6-1-2.7-2.7-2.6-4.7
				c0-0.7-0.4-3.6-0.1-3.9c0.7-0.6-0.2-2.3-0.1-3.1c0.1-1.3,2.1-3.5,2.5-5c-1.1,0.2-2.8-2.3-3.5-2.9
				C524.2,47.6,523.3,50.8,521.4,51.2 M397.4,57.6c-1.1,0.2-1.6-0.6-2.2-1.4c-0.7-1.1-1.1-0.8-2.2-1c-0.2-0.1-0.9-2.1-1-2.4
				c-0.3-1.4-0.9-2.1-2.7-1.9c-3.8,0.4-3.6,3.2-2.3,5.8c0.4,0.9,2.6,2.1,2.7,2.7c0.1,0.3-0.7,1.1-0.6,1.2c1,0.9,1.6-0.5,2.6,1.2
				c0.3,0.5,2,1.3,2.7,1.7c0-0.4,0.2-0.6,0.6-0.6c0.3,0.2-0.1,1.4,0.6,1.2c0.5-1.1,1-2.3,1.2-3.5c0.8,0,1.5-0.4,1.7-1.2
				C397.8,59,397.4,58.4,397.4,57.6 M380,62.2c-1.3,1.5-1.6,2.1-3.4,1.2c-1.3-0.7,0.3,1.3,0.3,1.3c1,0.8,1.9,1.6,2.9,2.4
				c2.5,1.7,6.1,2.3,8.4,4.5c-0.5-1.7,1.9-0.9,1.7-2.3c-2.7,0.2-2.8-2.6-4.7-3.7c-2.1-1.2-1.6-4.6-4-5.1
				C381.3,61.5,380.5,61.6,380,62.2 M368.9,73.3c0,1.2-0.4,2.5,0.8,3.1c0.7,0.4,0.3,1.6,1,2.2c0.8,0.6,1.3,1.2,1.1,2.3
				c1.6,0.4,2.2-0.5,3.5-1.2c1.7-0.3,3.2-1,4.7-1.7c0.2-1.5-1.4-2.1-2.5-2.6c-1.1-0.5,0.4-1.7-1.3-1.4c-1.4,0.2-1.5-2.5-2.6-3.5
				C372.8,72.5,371.2,73.5,368.9,73.3 M385.8,80.8c0.1,1.8,1.1,3.4,1.5,5.1c0.5,1.9,0.2,2.5,2,3.6c0.2-0.9,1.2,0.1,1.7,0
				c0.7-0.2,0.6-1.3,1.5-1.3c2.9-0.2,3.6,3.7,4.4,5.6c0.7,1.6,3.6,0,4,1c2.8,0,4.9,1.2,6.4,3.5c2.1-1.1,5.4-0.4,6.2,2.1
				c0.6,1.7-0.1,3.2,2,3.1c1.1-0.1,2.2,0.1,3.2-0.2c1.1-0.3,5.3,3.2,6.6,1.5c-0.3,0.4,2.4,0.6,2,0.6c1.1,0,2.3,0.2,2,1.8
				c2.4-0.6,5.5-0.3,7.2,1.5c1.3,1.4,3-0.1,4.5,1.1c1,0.8,1.4,2.3,2.9,0.9c1.8-1.7,2-0.8,3.7,0.1c1.5,0.8,3.4,0.8,5,0.4
				c1,1.4,3.6,2,4.7,1.1c1.2-1,3-1.3,4,0.1c-0.4-2.4,0.9-4.2,1.2-6.5c0.2-2.5-6.9-2.5-8.7-1.7c-0.4-1.2-1.8-1.5-2.7-1.9
				c-1.2-0.5-2.3,0.5-3.7,0.8c-2,0.4-2.4,0.2-4.3-0.2c-1.4-0.3-1-1.5-2.1-2.1c-0.1,0-0.8,1-1.2,0c-0.1-1-1.8-0.5-2.3-0.6
				c-1.2,1-0.8,3.2-2.9,2.9c-1.6-0.7-2.5-2.3-4.1-2.8c-0.6-0.2-1.3,0.3-1.9,0.5c-1.2,0.2-2.4-0.9-3.5-1.4c-1.9-0.9-2.9-3.3-4.7-3.5
				c-2-0.2-5.5,0.8-6.3-1.2c-0.8-2-0.9-2.4-3.4-2.3c-0.9,0-1.6,0.4-2.4,0.8c-0.6-1-1.8-1.2-2.9-1.2c0.3-2.7-1-1.9-2.6-1.5
				c-1.3,0.4-2,0.3-3.2-0.3c-0.8-0.4-1.6-0.8-2.3-1.2c0.3-0.5,0.4-1.1,0.3-1.6c-0.8-2.2-3-1.6-4.8-1.7c-1.5-0.1-3.2-2.6-3-4.3
				c-1.4,0.4-1.2-0.7-1.9-1.5C387,78.6,387,81.1,385.8,80.8 M359.6,98.9c-0.5,0.7-3.1,1.6-1.7,2.3c0-0.4,0.2-0.6,0.6-0.6
				c0.2,1.4,2.9,2.6,3.5,4.2c0.5,1.1,0.7,2.3,1.1,3.4c-0.2,0.8-1.1,0.7-1.6,1.1c-1.2,1.2,0.9,3.3,1.6,4.1c1.1,1.1,1.6,3.9,0.8,5.4
				c-1.1,2-1,2.9,0.4,4.7c1.8,2.3,2.1,3.3,1.6,5.9c-0.4,1.9,1.9,3.8,2.6,5.4c0.5,1.2,0.8,2.4,1,3.7c-0.9,0.9-2,1.6-2.3,2.9
				c2.1,0.3,1.6,2.4,2.9,3.5c2.5,2.1-0.1,5.8,1.1,7.9c0.4,0.8-0.1,1.4,0.9,1.8c1.3,0.5,1.6,0.6,0.9,1.6c-0.2,0.4,0.6,1.1,0.7,1.4
				c0.3,1-1.4,3.2-1.8,4.1c1.3,0,1.6,1.3,2,2.3c0.1,0.5,0.4,0.8,0.9,1c1.3,0.5,0.1,0.6,0.6,1.4c0.5,0.7,1.5,0.6,1.2,1.7
				c0.3,1.3-0.9,2.1-0.6,3.5c0.1,0.8,1.2,1,1.4,1.9c0.4,1.6,0.3,3.2,0.3,4.8c0.1,1.3,0.7,2.1,0.9,3.2c0.1,0.6,0.1,1.2,0.1,1.7
				c0.1,1.4,0.7,0,1.3,0.6c0.8,0.8-1.3,1.4,1,1.4c1.5,0,2,0.7,2.8-0.5c0.7-1.2,1.7-2.2,2.6-2.9c1.1-0.9,3.9,1.5,4.3-0.3
				c0.5-1.9-1.4-4.2,0.3-5.8c-0.6,0-2-2.4-2.3-2.9c-0.6-2.4-0.6-5.1-0.2-7.6c0.3-2.1-2.3-4.4-3.3-6.4c1.6-0.4-0.3-3.5,1.1-4.1
				c-2.5,0.1-1.5-3-2.1-3.8c-1.6-2.3,1-4-0.2-6.1c-1.1-2-3.7-3.2-3.5-5.8c0.1-0.9,1.1-1.7,0.9-2.5c-0.3-1.7-1.7-1.8-2.4-3.1
				c-1.6-2.7,0.4-3.7,0.9-6.1c0.3-1.6-0.5-2.5-1.6-3.4c-0.7-0.6-0.6-1.7-1.4-2c-1.4-0.4-0.9-0.8-0.4-1.9c0.6-1.5-0.7-2.9-1.5-4.1
				c-1.9-2.6-0.8-8.2-0.8-11.3c-1.1,0.5-0.7-1.2-1.7-1.4c-1.7-0.4-1-1-0.6-2.3c0.3-1.1-1.4-2.1-1.7-3.3c-0.2-0.7,1.1-0.9,0.3-1.4
				c-0.5-0.3-1.3-0.8-0.6-1.5c0.3-0.3-0.1-1.7-0.2-2.3c-0.2-0.7-0.9-0.9-1.1-1.6c-0.3-0.9,0.4-1.1,0.6-1.9c0.4-1.9-0.3-6.2-2.4-7
				c0,0.3-3.8,0.6-4.5,0.6c-1.9,0.1-4.8,0.8-4.5,3c0.2,1.2,0.8,2.1,0.9,3.3c0.1,1.2-0.8,1.6-1.1,2.6c-0.4,1.4,1.6,1.5,2.4,2.2
				C361.4,95.1,360.5,97.4,359.6,98.9 M377.1,87.8c-3.6,0.5,1,3.3-1.2,5.8c0.9,0,1.2,0.4,0.6,1.2c0.9-0.2,1.2,0.5,2,0.7
				c1.4,0.3,1.2,1.3,2.2,2.6c0.9,1.2,3.9,1.3,5.6,1.4c0.6,0,4.4,1.8,4.3,2.9c-0.1,0.9,1.2,1.2,1.7,2.1c0.9,1.6,3.6,0.9,5.2,0.9
				c0.1,1.3,2.6,3.4,3.4,3.7c2.3,0.7,3.3,1.5,4.9,3.2c0.7,0.8,4.3,1.7,5.7,1.8c2,0.1,2.9,2.9,4.7,2.9c3,0,4.1-0.1,6.2,2
				c1.3,1.2,3.9,3.3,5.5,1.6c1.2-1.2,3.1-0.4,4,0.9c0.7,1,1.4,2.4,2.8,2.5c1.3,0.3,1.1-0.8,2.1-1.2c1.6-0.5,3.8,2.6,5.5,2.9
				c0.8-0.2,1.3-0.8,2-1.1c1.3-0.4,2.4,1.1,3.8,1.4c1.2,0.2,2.4,0,3.6-0.3c0,1.1,0.8-0.2,1.2,0c1,0.4,0.5,1.8,2.2,1.6
				c0.8-0.1,2-0.7,1.9,0.7c1.1,0.2,1-0.7,1.7-1.2c0.2,1,1.1,1.1,1.8,1.4c1.8,1,0.4-1.3,0.3-1.8c-0.5-1.9-1.1-5.4,0.2-7
				c0.3-0.4,1-1,1-1.6c0-0.2-1.7-1-1.7-1c-0.9,0.8-1.6,3.2-2.8,3.5c0-0.1-1.8-1.4-2.2-1.8c-0.8-1.2-2.5-1.7-3-0.1
				c-0.5,1.7-2.6,0.2-3.7,0.1c-1.3-0.1-1.4,0.2-1.6-1.2c-0.2-0.7-0.3-1.6-1.2-1.6c-0.3,1.6-0.9,1-1.4,2.1c-0.9,2.3-1.6,0.9-2.7-0.4
				c-0.5-0.6-0.9-1.5-1.8-1.7c-0.5,1.1-2,1.2-3,1.2c-1.9,0-3.9-1.4-3.4-3.5c-1.7-0.4-1,2.3-2.9,1.7c0.1-0.6-0.1-0.9-0.5-1
				c-0.7,0.7-1.1,0.4-1.4-0.8c-0.7-1.1-1.8-3.6-3.3-1.7c0.4-0.5-4.3,0.4-4.9,0.2c-1.3-0.2-0.8-0.9-2-1.3c-1.3-0.4-0.3-1.1-0.1-1.9
				c-3,0.1-8.8,0-8.1-4.7c-0.6-0.1-1,0.1-1.3,0.7c-0.6,0.8-0.8,0.2-1.7,0.2c-0.8-0.1-1.5-0.1-2.3-0.2c-0.3-0.8-0.9-1.2-1.8-1.2
				c1-4.4-6-3.3-8.1-4.7c-2.4-1.5-2.9-0.7-2.9-4.1c-1-1-3,0.3-4.5-0.8c-2.1-1.6-3.9-2.9-4.4-5.6c-0.3-1.2-2.3-2.3-1.5-3.5
				c-1.7,0.6-1.1-0.8-2.3-1.2C379.3,85.5,377.3,86.1,377.1,87.8 M346.2,87.8c-0.6,0.6-1.1,1.3-1.7,1.7c-0.7,0.5-1.8,0.4-2.3,1.2
				c-0.1-1.2-1.2,0.1-1.8-0.2c-1.5-0.9-0.5,1.2-1,2c-1,1.6-1.9,2.3-0.2,3.6c1.2,1,3.3,2.9,4.1,4.2c1.2,1.9-3.9,5.1-1.1,6.7
				c1.1,0.6,1.5,3,1.8,4.2c0.4,1.9-1.7,2.7-1.7,4.5c1.8-0.1,1.4,2,2.3,2.9c-0.5,0.1,0,5.4-0.1,6.4c-0.1,1.3,1,0.2,1.3,1.4
				c0.4,1.7,0.4,0.5,1.8,1.5c1.3,0.9,1.9,4.6,2.3,6.1c0.4,1.3,0.5,2.5,0.5,3.8c0.1,0.7,0.9,0.5,1.2,1.2c0.3,1-0.2,2,0,2.9
				c0.2,1,1.1,1.9,1.2,2.9c0,0.9-0.6,1.4-0.6,2.3c0.8,0.1,0.9,1.1,1,1.7c0.3,1.7,2,2.1,1.4,4.3c-0.5,1.6-1.6,1.9-0.5,3.4
				c0.9,1.1,3,3,2.8,4.5c0.5,1.8-1.5,1.1-1.7,2.3c1.9,1.9,2.6,4.6,3.5,7c0.3,1.7-2,1.7-1.7,3.5c1.6,1.2,1,3.8,1.1,5.5
				c0,0.9,2,4.4,1.3,5c-0.3,0.3,0.7,0.9,0.6,1.2c0,0.8-1,0.5-1.2,1.2c1.4,0.1,0.3,1.7,0,2.3c1.5-0.1,2.6-1.1,4.1-1.2
				c1.1,1.2,3.1,1.2,4.7,1.2c-0.1-0.9,1.5-2.5,2.1-3.1c1-1,2.5-0.7,3.7-0.4c-0.2-1.7-0.7-3.4-0.9-5.1c-0.1-0.5,0-1,0.3-1.3
				c0.4-0.4-0.6-0.6-0.6-0.6c-0.1-1.1-0.9-2.4-0.8-3.4c0.2-1.7,0.7-2-0.7-3.3c-1.7-1.7,2.1-4.8-1.1-6.6c-1-0.6-1.7-0.5-2.1-1.9
				c0-0.8,0-1.6,0-2.3c0.7-0.7,2.1-1.4,1.7-2.6c-0.5-1.2-0.4-1.9-1.4-2.5c-1.8-1.2-2.3-2.4-2-4.5c0.2-1.6,1.3-4,0.1-5.3
				c-0.5-0.5-1-0.9-1.6-1.3c-1.4-1.1-0.1-0.9-0.8-1.9c-0.6-0.9-0.7,0-1.3-1.4c-0.7-1.7,0.1-1.9,0.6-3.5c1.2-3.6-2.5-7.4-1.1-11.4
				c-1.1,0.1-1.3-0.8-1.2-1.7c-1.3-0.2-1.8-1.3-2.2-2.4c-0.6-1.7-0.7-1.5,0.5-2.8c0.6-0.6,1.7-1.3,1-2.3c-0.9-1.3-1.1-2.2-2.1-3.5
				c-1.4-1.7-2.8-3.4-1.1-5.6c2.5-3.2-6.4-5-3-9.4c1.4-1.8,1-3.2-0.7-4.8c-1-0.8-1.3-2.1-1.8-3.3c-0.7-1.7,1.1-1.5,1.4-3.2
				C350.1,87.8,348.2,87.8,346.2,87.8 M329.9,95.4c-2.5,0.3-4.4-1-6.2,1.4c-0.8,1-5,2-6,1c0.1,1.1-0.8,1.3-1.7,1.2
				c0.2,2.1,1.5,3.5,2.5,5.3c1.4,2.4,0.5,3.6,0.3,6c-0.2,2.4,2.2,1.2,2.4,2.8c1.1,1.9,2.7,4.3,1.2,6.4c1.3,0.1,2.9,2.3,3.1,3.6
				c0.2,2-0.7,4.3,0.2,6.1c1,1.9,2.5,3.8,1.3,6c1.3,0.8,2.9,3.9,3.1,5.3c0.5,4.5,0.3,9.9,2.8,13.9c-2,2.1,0.1,3.7,1.2,5.2
				c1.2,1.9,0.7,3.5,1.3,5.5c0.4,1.6,1.5,3,2,4.6c0.5,1.7-0.9,2.9-0.5,4.1c0.4,1.2,0.8,3.5,0.5,4.8c-0.7,2.4,1.2,4,0.8,6.3
				c-0.2,1.3,0.1,1.6,0.2,3c0.1,1.5,1.4,2.3,1.5,3.6c0.1,2.1,4.1,1.2,5.2,2.3c0.6-3.6,4.1-3.2,6.1-1.7c0.5,0.4,1.3-1,2-0.6
				c0.5-1.8,0.4-3.7,0.2-5.4c-0.2-1.8-0.4-3.5-0.6-5.3c-0.1-1-0.1-1.9-0.2-2.9c0-1.6-0.7-1.8-0.6-3.2c-0.5,0-0.7-1.4-1.1-1.8
				c-1.1-0.8,1.2-3.4,1.7-4.6c-2.9,0.2-2.2-5.5-2.5-7.2c-0.2-1.2-0.9-3-0.9-4c0-0.6-0.3-0.8-0.9-0.8c-1,0.1,0.4-2.2,0.5-2.5
				c0.6-1.9-1.5-3.2-1.5-5.4c-1.7-0.2-2.1-0.5-1.3-2.3c0.4-0.6,0.8-1.2,1.3-1.7c-0.7-0.5-1.3-1.3-1.6-2.1c-0.9-2-0.9-4.5-0.7-6.7
				c-3.2-2.5-3.5-5.1-4.5-8.8c-0.4-1.5-2-6.9-3.3-7.2c-2.2-0.6,0.2-7.4,0.6-8.8c0.2-0.8,0.8-3.6-0.3-4.1c-2.1-0.8-0.7-3,0.5-4.4
				c-1.7,0-0.5-2.1-1.7-2.6c-1-0.4-1-1.4-1.8-2c-0.5-0.5-1.4-0.5-1.7-1.2c1.3-0.4-1.7-2.3-1.7-2.3C331.1,95,330.1,94.7,329.9,95.4
				 M299.7,206c0.1-1.5,0.8-2.8,1.4-4.2c0.5-1.3,3-2.3,4.5-2.8c0.5,0.8,5.8,2.7,6.2,2.1c-0.5-0.3-0.5-0.6,0.2-1
				c0.3-0.5,0.6-1,0.9-1.5c0.8-1.4,1.8-1.4,3.3-1.3c1.2,0.1,2.3,0.1,3.4,0.4c1.4-0.7,2.6-1.6,3.9-2.2c1.3-0.6,2.7-0.8,4.2-0.7
				c-0.1-1.5,0.3-2.8,0.8-4.2c0.4-1.1,0.9-2.3,0.7-3.6c-0.3-1.8,0.8-1.4,1-2.9c0.2-2-2.7-2.5-3-4.4c-0.4-3,0.4-5.5,1-8.4
				c0.3-1.5,0.4-2.4-0.6-3.6c-1.1-1.3-3-3.1-2.3-4.8c0.5-1.3,1-5.6-0.1-6.4c-2-1.3-2.5-6.3-3.4-8.7c-0.7-1.9-1.1-2.2-0.2-4
				c0.6-1.1-0.6-1.9-1.5-2.1c-2.5-0.6-0.2-7.3,0.1-9.2c-1.2-0.7-2.3-0.7-3-2.1c-0.7-1.4,0.3-2.9-0.4-4.1c-1.1-2.1-1.8-3.7-2.2-6.2
				c-0.3-1.5-0.9-2.1-2-3c-1.7-1.5-1-3.1-1.7-4.9c-0.5-1.3-1.7-1.6-0.7-3c0.4-0.6-1.1-1.9-1.2-2.7c-0.3-2.4-1.4-4.2-3.8-4.8
				c-0.2,1.8-2.2,0.8-3.6,1.2c-2.3,0.6-4.3,1.7-6.6,2.4c-1.1,0.4-2.2,0.7-3.3,1c-0.2,0.5-1.8,2.3-2.3,2.3c-1.5,0-3.2-0.2-4.3,0.5
				c-0.8,0.5-1.2,1.4-2.1,1.8c-2.6,1.1-5.3,2-8.1,2.3c-0.8,1-1.6,1.9-2.4,2.9c-1.6,1.8-2.2,1.8-4.6,1.8c0.1,1.7-2.6,1.9-3.5,2.9
				c-1.1,1.3-2.1,1.1-2.3,2.8c-0.1,1.1-0.9,1.9-0.7,3c-5.1-1.1-3.2,6-7.6,5.8c0.7,2.8,0.4,5-2.6,6.3c-1.5,0.7-0.4,1.1-1.1,2.6
				c-0.6,1.2-1.2,2-1,3.4c-4.6-0.7-4.1,10.5-5.2,13.1c-0.8,1.8-1.1,2.3-1.2,4.3c0,0.8-0.2,1.7-0.6,2.4c-1.5,2.4-0.1,4.4-0.6,7
				c-0.7,1.9-3.6,5-1.6,6.9c1.3,1.2,0.2,4.2-0.7,5.4c1,0.4,1,5.1,0.4,5.7c-0.5,0.5-1.7,0.2-1.5,1.3c1.5,1-0.2,2.7,0,4.1
				c0.1,0.4,0.7-0.8,0.6,0.5c-0.1,0.7-0.1,1.9,0.5,2.4c2.2-0.5,4.8-1.1,7,0c0.5-1,0-3.1,1.7-2.9c-0.2-1.8-1.1-3.4-1.2-5.2
				c0-0.8,1.2-1.7,0.6-2.3c-0.9-0.9,0.4-2.1,0.6-2.9c0.5-2,0.4-3.8,0.1-5.8c-0.2-1.8,0.9-3.5,2.2-4.7c-0.4-1.7-0.5-2.9,0-4.5
				c0.6-1.8,1-3.8,1.5-5.6c0.7-2.3,0.4-1-0.3-2.7c1.6-1.1,4.8-6.8,7.2-4.7c1.6,1.4-0.6,7.9-0.1,8.1c1.6,0.6,0.4,0.7,1.3,2
				c0.7,0.9,2.2,1.4,2,2.8c-1.5,3.2-1.3,7.1,2.1,7.2c0.9,0-1.2,6.8-1.4,7.3c-0.6,2.9,0.7,5.9-0.2,8.8c1.9,1.6,3,4.2,3.2,6.6
				c0.1,0.9,0,1.9-0.3,2.8c1.1,0.2,1,1.5,1,2.3c0,0.5-0.1,1.3,0.6,1.3c1.3,0.1,0,0.9,0.4,1.9c1.1,2.6,0.5,6,1.3,8.7
				c0.3,1,0.7,1.9,1.3,2.7c0,1.8-0.3,3,0.9,4.4c0.8,1,1.4,2.1,1.9,3.2c0.3,0.7,0.6,1.5,0.8,2.3c-0.2,0.4-0.4,0.8-0.6,1.2
				c0.2,0.3,1.4-0.1,1.2,0.6c-2.4,1.8-2.2,2.6-1.7,5.4c0.1,0.7,0.2,1.6,0.7,2.3c0.1,0.1,1.7,1,1.4,1.1c0.3-0.2,0.3-1,0.6-1.3
				c1-0.9,0.7,1,0.9,1.1c0.3,0.1,0.8-0.7,1-0.4c0.8,1.1,2.2-0.6,3.1-1.2c2.1-1.6,7-0.2,8.2-2c0.8-1.2,3.5-2.8,4.9-2.6
				c0.9,0.1,7.1,1.2,7.2,1c-1.2-0.2,0-1.9-0.8-2.2c-1.5-0.5-1.1-0.9-1.3-2.5c-0.1-1.2,0.7-1.7,0.9-2.9c0.4-1.9-1.4-4-2.1-5.7
				c-0.9-2-0.8-3,0.2-4.9c0.6-1,0.8-2.4,0-3.2C295,210.2,296.5,206.1,299.7,206 M383.5,112.3c0.1,0.1,0.6-0.1,0.7,0.3
				c0.2,0.7,0.4,1.5,0.7,2.2c0.2,0.5,0.3,1.7,0.8,1.9c1.3,0.7,0.1,1,0.2,2c0.1,0.8,0.9,1.5,1,2.3c0.1,0.5-0.1,0.9-0.5,1.2
				c0.6,0.5,1.1,1.2,1.3,2c0.4,1.5,0.3,3,0.9,4.5c0.8,1.8,0,2.5,0,4.5c0,2.2,1.3,2.6,1,4.5c-0.1,0.4,2.4,3.9,2.7,4.4
				c0.6,1.3,0.7,2.8,1.6,3.9c0.9,1.3,0.2,1.6,0.4,3.3c0.2,1.6-0.3,4,1,5c-0.9,0.7-0.2,2.8-0.1,3.3c0.4,1.2-0.4,1.4,0.7,2
				c0.8,0.4,0.8,1.6,1,2.3c0.2,1,0.9,1.9,1.3,2.8c-0.6,1.4-0.3,2.5-0.1,3.9c0.4,2.8,3.3,4.3,3.1,7.4c-0.1,1.9-0.6,4.3-1.5,5.9
				c-1.3,2.2,1.3,4.9,0,6.9c-0.3,0.5,0.4,3.2,0.6,4c0.5,2.1,1.6,2.8,2.6,4.5c-0.1-0.2-0.8,0.4-0.3,0.8c0.5,0.5,0.9,0.8,1.2,1.5
				c0.2,0.4,0.8,4,0.9,4.1c0.1,0.4,2.4-1.5,2.9-1.7c1.5-0.7,3-0.8,4.7-0.7c0.8,0,1.6,0.1,2.3,0.1c0.7-0.8,1.5-1.6,2.5-1.9
				c2-0.6,1.8,0.7,3.1-1.3c0.5-0.8,2-1.2,2.3-1.8c1.4-2.7,3.4-2.1,6-3.1c1-0.4,1-1.3,2.3-1.6c1.4-0.3,2,1.2,2.8-0.5
				c0.5-1,1.4-2.5,2.8-1.9c2,0.8,2-0.7,1.6-2.5c-0.7-2.8-3.2-4.6-4.6-7c-0.5-0.9-1.2-2.3-0.5-3.3c0.3-0.4,1.3-2.8,0.4-3.1
				c-0.2,1.3-1.2-1.3-1.8-1.6c-2.1-1.4-0.5-3.1-0.3-5.2c0.2-2.2-0.4-3.8,0.5-5.6c0.7-1.4,5-0.2,6.2-0.4c0.4,1.4,1.2-0.3,1.2,1.5
				c0,1.6,0.6,0.4,1.4,1.4c0.4,0.4,3.3,2.1,4.2,2c1.6-0.2,2-0.5,2.5,1.3c0.3,0.9-0.2,1.9-0.4,2.8c-0.4,1.8,1.9,2.3,3.3,2.9
				c2.3,0.9,2.1,4.2,3,6.4c0.6,1.3,1.1,1.2,2.4,1.5c1.9,0.5,2.1-0.2,3.4-1.1c1.3-0.8,2.8-0.7,2.3-2.9c0.7,0.1,1.3,0,1.5-0.8
				c0.3-1.2,0.6-0.7,1.4-1.6c1.4-1.6,3.3-1.4,5.3-2.2c1.8-0.8,2.8-1.2,4.3-2.7c0.7-0.7,1.4-1.4,2.3-1.7c1.5-0.6,0.6-0.6,1.2-2
				c0.6-1.5,3.9-1.6,5-2.9c-1.6-0.3-0.1-3.6-1.6-3.6c-0.8,0-3.3-4.8-3.8-5.8c-0.7-1.4-1.2-1-2.4-1.9c-1.7-1.1-1.6-2.4-1.8-4.3
				c-0.3-1.7-1.1-4-2.1-5.4c-1.2-1.6-1.8-2.3-4.1-2.6c-2.6-0.3-4.7,0.3-7.3-0.6c-1.3-0.4-1-0.9-2.5-0.7c-1.2,0.1-2.4,0.2-3.6,0.2
				c-1.7,0-4.1-0.3-5.5-1c-0.3-0.2,0.4-0.5-0.4-0.8c-0.7-0.2-1.4-0.3-2.2-0.3c-1.3-0.1-2.1-0.7-3.7-0.6c-1,0.1-3-1-3.9-1.5
				c-1.4-0.7-2.4-2-3.8-2.6c0.3,0.1-0.3,1.2-0.6,1.2c-0.4,0,0-2-1.2-1.2c-1.5-0.9-1.3,0.9-2.3,1.2c-0.9,0.2-1-0.7-2.2-0.1
				c-1.2,0.6-1.9-1-2.4-1.7c-0.5-0.7-2,0.9-1.7-0.6c0.1-0.4-2.3-1.5-2.9-1.7c-1.4-0.5-1.9,0-3.4-0.2c-0.6-0.2-1.2-0.1-1.8,0.2
				c-0.3-0.8-0.9-1.2-1.7-1.2c0.7-1.8-1.5-1.4-1.2-2.9c-1.7,0-3.5,0.5-4.2-0.8c-0.4-0.6-1.1-0.9-1.6-1.5c-0.4-0.4-2.6-2.5-3.6-2.8
				c-1.7-0.5-1.1,0.5-2.1,1c-0.8,0.5-0.9-1.4-1.8-1.7c-1-0.2,0-0.7-0.2-1.3c-0.1-0.3-2.4-1.1-2.7-1.1c-0.1,0.2-0.1,0.4-0.2,0.6
				c-0.2,0.3-1.4-1.5-1.7-1.7c-1.4-0.9-2-2.2-3.4-2.4c-1.4-0.2-5.8-3-6.8-2.6C383.3,109.5,383.3,111.8,383.5,112.3 M481.9,175.7
				c0.1,3.5-2.3,4.1-5.2,4.1c0,1.7-4.6,2.6-5.9,2.9c-0.6,0.1-3.3,2-4,3c-1.1,1.5-0.1,2.7-2.3,2.8c-1.1,0.1-2,0.8-2.4,1.8
				c2.5,0.4-0.5,5.3,3.5,5.2c0.9,0,2.2-0.1,2.9,0.6c0.7-0.9,1.1-1.9,1.8-2.7c1.1-1.4,3.8-1.7,5.2-0.2c0-1,0-1.9,0-2.9
				c1.1,0.3,1.1-0.5,1.5-1.3c0.5-1,2.9-0.5,3.8-0.5c0.7-0.9,0.7-2.4,1.7-2.9c2.2,0,3,0.4,3.7-1.8c1-3.2,5.5-0.1,6.2-3.5
				c-1.9-2.2-2.5-5.6-5.2-7C486.4,176,483.8,175.1,481.9,175.7 M253.1,203.1c0.2,0.9,2.4,6.4,2.9,6.4c0-0.2,0.1-0.4,0.4-0.4
				c0.1,0,2,2.7,2.1,3c0.2,0.5,0.3,1,0.5,1.4c0.4,1.8,0.2,0.2,1.2,1.2c0,0.4,0,0.8,0,1.2c0.6,0.4,1.1,0.8,1.7,1.2
				c0.4-1.5-0.9-2.3-0.7-3.4c0.3-1.7,0.8-1.7-0.1-3.7c-1.7-3.7-4.4-8.7-4.6-12.9c-0.1-2.2,0.3-4.3,0.3-6.5c0-0.9-0.1-1.8-0.2-2.7
				c-1.4,0-1.6-0.4-2,1.1C253.6,193.6,252.3,198.4,253.1,203.1 M440.5,199c-1.2,0.4-5.1-1.6-4.7,1.7c0.2,1.8-1.9,2.4-3.3,2.9
				c-1.6,0.6-4.1,0.8-5.4,2.4c-0.6,0.7-0.8-0.4-1.4,1c-0.3,0.9-2.8-0.1-3.3-0.4c-1.4,1.5-1.5,5.6-4.9,4.6c-2.5-0.7-3.4,0.8-5.4,0.7
				c-6.9-0.1,1.3,5,1.6,6.9c2.3-1.3,4.6,0.8,7,0.6c-0.2-1.6,1-2.3,1.3-3.6c0.2-0.8,2.3-0.4,2.8-0.4c1.4,0,2.5,0.8,3.4,0
				c1.6-1.5,4.5-0.2,5.2-1.3c1.2-1.9,2.9-4,5.3-2.7c-0.7-1.8,1.6-1.4,1.2-2.9c2.1-0.1,2.8,0.6,2.9-2.6
				C443,203.3,441.9,200.9,440.5,199 M500.5,200.7c-1.2,1.1-2.3,1.5-3.5,2.3c-1,0.7-0.7,1.3-2.3,1.5c-1.5,0.2-1.6,0-2.9,0.9
				c-1.4,1-1,2.3-3,2.3c-2.8,0-3,1-5.2,2.3c-2.6,1.6-4.3-0.6-5.2,3.5c1.6,0.2,1.5,0.5,2.7,1.1c1,0.5,1.4,1.7,2.5,2.7
				c1.1,1.1,0.7,2.1,2.5,2.1c1.6,0,3.3-0.2,4.6-1.2c1.3,1.8,4.6-0.7,5.6-0.9c1.3-0.3,0.7-1.7,2.2-1.4c0.7,0.2,1,0.1,1.2-0.6
				c0.5-1.2,0.6-0.2,1.4-0.6c0.5-0.3-0.9-0.8,0.5-0.6c0.7,0.1,1.2-0.2,1.8-0.6c-0.6-1.8,0.1-3.7,0.9-5.4c0.8-1.7,1.8-3.5,1.8-5.5
				C506.1,199.6,502.8,200.7,500.5,200.7 M316,202.5c-0.1,1.7-3,2.8-4.7,3.5c-1.4-1.7-4.8,1.2-6.4-0.6c-0.2,0.5-0.6,0.7-1.2,0.6
				c-0.2,0.6-0.5,1.2-1,1.7c-0.9,1.3-1,2.4-0.3,3.8c0.5,1.1,1.1,2.2,0.3,3.3c-0.4,0.6-1.2,1.4-0.6,2.2c0.1,0.1-0.1,1.6-0.2,1.8
				c-0.7,1.4-0.8,1.3,0,3c0.7,1.4,2.2,3.3,1.3,4.8c-0.7,1.1-0.7,3.8,1.4,2.5c1.2-0.8,3.2-1.4,4.9-1c0.9-0.7,0.8-2.1,1.8-2.9
				c1.2,0.2,2.4-1.1,3.5,0c0.4-1,0.3-2.1,0.9-3c1-1.6,2.3-0.7,3.8-1.1c-0.3-1.3,0.3-1.8,1.5-2c1.9-0.3,1.3-1.4,2.7-2.4
				c1.8-1.3,5.1-3,2.5-5.1c-0.7-0.6,0-2.3-0.4-3.3c-0.4-0.8-1.1-2.2-1.6-3c-1.2-1.8-1.7-2.3-3.9-2.5
				C318.8,202.8,317.4,202.6,316,202.5 M246.7,238c-0.3-0.6-0.5-1.1-0.6-1.8c0-0.3,0.7,0.1,0.6-0.6c-0.2-1-0.3-0.3,0.2-1.8
				c0.1-0.4,0.3-1.3,0.7-1.6c0.7-0.5-0.6-0.7-0.3-1.3c0.3-0.6,1.9,0.1,1.2-1.2c1.4,0.4,1.2-1.2,2.3-1.2c0.1,0.6,1.9,1.7,1.7,0.6
				c-3.6-0.2-2.1-7.8-0.6-9.9c-1,0.1-0.2-1.6-0.9-2c-1.3-0.8-0.2-1.4-1.9-1.6c-1.2-0.2-2.3,0-3.5,0.2c-0.4-1-1.6-1.4-2.6-1.6
				c-1.2-0.2-2.4-0.2-3.6-0.5c-1.4-0.4-1.9,1.4-2.5,2.7c-0.5,1.2-1.8,5.2-3.5,4.6c0,1.2-0.6,2.2-1,3.3c-0.6,1.6,0.3,3.2-1.2,4.4
				c-0.1,0.1-1.5,3.1-1.3,3.3c1.9,0.2,1.7-1.7,2.1-2.9c0.5-1.8,3.5-2.1,4.9-2.9c0.1,1.7,1.7,2.1,2.3,3.5c0.3,0.7-0.5,1-0.4,1.6
				c0,0.2,0.9,0.5,1,0.8c0.4,1.2,0.1,2.5,0.8,3.6c0.8,1.3,3.1,0.9,4.1,2c0.8,0.9,0.6,4.5,1.2,6c0.3,0.7,0.5,2.7,1.5,2.2
				C246.9,243.4,247.1,240.7,246.7,238 M330.5,225.2c-0.4-0.1-0.8-0.1-1.2,0c-0.6,0.3,0.8,1.4-0.6,1.2c-1.5-0.3-4.1,2.6-5.3,3.5
				c-3.6-0.4-4.8,6.8-8.1,4.7c-1.2,1.3-3,1.7-4.7,2.1c-2,0.4-5.6-0.1-4.3,2.8c0.3,0.6,1.5,2.7,2.2,2.9c0.9,0.2-0.1,1.7,1.7,2
				c0.5,0,0.9,0.3,1,0.8c1.3-0.2,2.5-0.7,3.7-1.1c1.9-0.7,4.4-0.9,6.2-1.8c0-0.4,0-0.8,0-1.2c0.4-0.4,1.3,0.3,1.7,0
				c0.3-0.2,3.5-2.6,3.5-2.3c0-0.2,2.2-1.4,2.4-1.4c1.2-0.3,1.4-2.2,2.3-2.1c1.1-0.2,2,0.9,2.9,0c-0.3-2.2,0.8-3.4,2.3-4.7
				c-1.5-1.1-1.4-3.6-1.7-5.2C333.1,224.4,332,224.8,330.5,225.2 M446.3,227.5c-1.2-0.6-2.4,0.2-3.5-0.6c-0.1,2.6-3.4,2.4-5.3,2.3
				c0,2-4.1,2.8-5.5,2.6c-1.3-0.1-1.8-0.8-2.3,0.5c-0.3,0.9-1.1,1.4-2,1.7c-1.6,0.6-5.2,1-3.5,3c1.9,2.2,2.7,5.1,3.3,7.9
				c1.9,1.1,3.4-1.4,5.6-0.2c1.7,0.9,3,4.4,4.8,3.1c1.2-0.9,1-1.7,2.6-1.3c1,0.3,1.7-0.3,2.7,0.2c-0.1-1.7,3.4-3.3,4.7-2.3
				c-0.3-2.3,2.4-3.1,3.3-4.8c1-1.8,0.4-2.7,0.7-4.5c0.1-0.3,1.1,0.1,0.5-1.3c-0.4-0.9-0.5-1.7-0.8-2.7c-0.4-1.5-1.7-2.6-2-4.2
				C448.5,226.9,447.7,227.8,446.3,227.5 M301.4,245c-0.8-0.1-1-1-1.7-1.2c-0.2,0.7-1.1,0.7-1.6,0.6c-1.5,0-2.7,0.1-4,0.3
				c-1.4,0.2-1.5-0.8-2.4,0.4c-0.8,1-1.3,0.9-2.4,0.7c-1-0.1-2-0.1-3-0.1c-1.1,0-3.3-0.3-3.8-0.4c-1.5-0.2-0.6,0-2.1,0.7
				c-1.2,0.6-3.6,1.1-4.7,0c-0.3,2.7,0.8,5,0.6,7.6c1.8-0.4,4.1,1.9,5.1,0.4c1.9-2.8,4.4,0.2,6,1.3c0.2-1.1,0.5-2.5,1.7-2.9
				c1.1,0.2,1.7,1.2,2.9,1.2c-0.3-4.6,4.2-2.1,6.4-0.6c-0.1-2.4,2.7-1.9,4.1-2.9C303.1,248,301.2,247,301.4,245 M339.8,249
				c-1,0.1-1.2,1.3-2.7,1.3c-1.2,0-1.7-1.2-2.8-1.3c-1.9-0.3-1.4,2.6-2.6,3.5c-0.8,0.3-1.6,0.5-2.5,0.3c-1.6-0.4-0.8,0-1.9,0.9
				c-2,1.9-6,1.5-7.1,4.4c-0.5,1.3,1.4,2.3,2,3.4c0.8,1.7,0.8,3.7,0.7,5.6c2.3-0.7,3.7,1.1,5.8,1.2c1.1,0.1,1.9-0.6,2.9-1
				c1.1-0.5,0.8,0.7,1.8,0.4c0-0.2,0-0.4,0-0.6c0.4,0,0.8,0,1.2,0c0.5-0.3-0.9-0.8,0.5-0.6c1.5,0.2,2.8-1.1,4.4-1.1
				c1.8,0,1.6-1.2,3.2-1.2c-0.1-1.4,0.4-2.4,1.5-3.2c2.4-1.7,2-5.3,1.4-8c-0.6-2.2-1.8-5.4-4.6-5.2C340.9,248.7,340.7,249,339.8,249
				 M300.8,267.7c-2.2-0.9-4.1-0.7-6.4-0.6c-1.3,0.1-2.3,0.2-3.5-0.6c-0.4,0.9-1.2,1.4-2.1,1.6c-1.6,0.3-3.4-1.2-3.6,0.9
				c-0.2,1.9-4.3,0.6-5.3-0.1c-0.1,1.7-0.4,3.3-0.4,5c0,0.5,0.1,1.4,0.5,1.8c1,0.9,0.7,0.5,1,1.9c0.1,0.6,1.2,0.4,1.6,0.6
				c1.1,0.5,0.6,1.4,1.2,2.2c0.6,0.9,0.4,1.2,1.4,1.4c1.4,0.3,0.1,0.1,1-0.1c0.4,0.1,0.6,0.2,0.6,0.6c1,0.1,2,0.1,3,0
				c0.6,0,4.8-0.5,4.8-0.4c0.5,0.8,1.1,0.2,1.5-0.2c1.1-1.1,3.1-0.7,4.5-0.7c1.1,0,2.4-0.3,2.5-1.6c0.8,0,2,0.2,2.6-0.4
				c0.8-0.8-0.5-1.7-0.5-2.6c0-2.6,2-9.4-1.6-10.3C303.3,267.1,302,267.5,300.8,267.7"/>
		</g>
		<g>
			<g>
				<g>
					<path class="st3" d="M461.5,37.9c-0.5-3,1.9-4.4,2.5-6.9c0.4-1.6,2.7-1.5,2.7-3c1.3,0.6,2.5,1.1,3.9,1.4
						c2.3,0.7,1.9,1.7,3.1,3.2c0.6,0.7,2.2,1.4,2.3,2.3c0.4,1.9-0.1,3.6-1.1,5.3c-1.1,1.8-5,2.2-7.1,1.7c-0.8-0.2-2.6-1-4.1-0.6
						c-0.1-0.4-0.1-0.8,0.1-1.3c0.1-1.2-0.8,0-1.2-0.5c0-0.4,0-0.8,0-1.2C462.3,38.2,461.4,38.7,461.5,37.9"/>
					<path class="st3" d="M518.5,74c-1.1,0.7-2.2-1.2-3.6-1.1c-0.5,0.1-1.7-3.2-2.1-4c-0.9-2.1-0.6-5.6-2.5-7.1
						c0.4-1.3,1-2.4,1.7-3.5c0.4-0.4,0.7-0.8,1.2-1.2c0-0.4,0-0.8,0-1.2c0.4,0,0.8,0,1.2,0c0-0.6,0-1.2,0-1.8c1.5,0,4.6,0.2,5,2.2
						c0.2,1.4,1.4,0,1.5,1.1c0.2,1.3,0.4,2.4,0.9,3.6c1,2.7,2.7,5.5,1,8.2c-0.7,1.1-1.4,2-2,3.1C520.2,73.2,518.7,73.4,518.5,74"/>
					<path class="st3" d="M483.6-71.5c3.3,0,4.2-0.3,6.2,1.7c0.4,0.4,0.6-0.8,0.9,0c0.4,1.1,1,1.5,2.2,1.2c-0.4,1.5,0.5,2.3,1.2,3.5
						c0.9,1.5,1.6,2.6,2.2,4.2c0.3,0.7,0.5,3.7,1.6,3.2c1.3-0.6,0.7,1,1.2,1.8c0.5,0.9,0,1.8,1.1,2.4c1.2,0.7,1.9,1.1,1.3,2.6
						c-1,2.4-1.3,5.1,0.4,7.2c0.4,0.5,1.2,0,1.7,0.3c0.2,0.1,0.8,2.9,0.8,3.4c0,0.6,0,1.1-0.1,1.7c-0.2,1.7,0.7,1.7,1.6,2.9
						c1.1,1.4,1.2,3.2,2.1,4.6c0.7,1.1,0,2.1-0.2,3.2c-0.2,0.9,0.8,2.6,1.2,3.4c1,1.9,0.6,2.5,0.7,4.6c0,0.7-0.2,1.2-0.8,1.7
						c0.9,0.9,0.4,2,0.1,3c-0.6,2.3,1.5,5.9-0.5,8c-0.4,0.4-0.4,0.8,0.1,1c0.9,1.1-0.3,0.5-0.4,1.3c0,0.4-0.3,1.6-0.4,2
						c-0.2,1.1-1,2-1.4,3c-0.4,0.9-0.3,3.8-0.7,4.2c-1.2,1.1-1,0.5-1.7,2.1c-1.1,2.3,0.8,1.3,1.9,2.7c0.7,0.8,1.6,0.2,2.1,0.9
						c0.1,0.4,0.4,0.6,0.7,0.8c1.1,0.5,0.8,0.9,1.4,2.2c0.4,1,3.5,4.2,3.3,4.8c-0.2,1.4,1.2,2.5,1.2,3.9c0,1.4-0.5,3.6,0.5,4.8
						c0,0.1,4.6,2,5.3,1.7c-0.7,2.1,3.6,2.7,2.3,4.7c2.7-0.3,0.5,0.6,2.7,1.3c2.8,0.9,1.9,3,3.2,5.1c0.8,0,1.1,0.5,1.5,1.1
						c0.9,1.2,1.6,0.2,2,1.5c0.5,1.6,3.1,1.1,2.8,3.3c4,3,6.4,8.8,6.4,13.5c0,3.5,0,7,0,10.6c0,1.4-0.5,3.1-1.2,4.4
						c-0.3,0.7-1.4,0.7-1.4,1.6c0,1.4-0.4,0.6-1.4,1.6c-0.9,0.9-1.3,2.1-1.8,3.2c-2.1-0.8-1.6,0.6-2.6,1.6
						c-2.6,2.6-7.5,5.5-11.3,6.8c-2.9,1-6.3,1.1-9.3,0.2c-1.9-0.6-3.8,1.1-6.1,0.9c-2.4-0.2-3.7-0.5-5.6-2c1-2.3-2.3-1-1.8-2.9
						c-2.5,0.2-6.4,1.3-8.4-0.8c-0.8-0.9-1.7-1.8-2.6-2.6c-1-0.9-2-0.4-2.8-1.2c-0.4-0.4-0.9,0.6-1.1,0.8c-0.8,0.9-1.9,0.1-2.8-0.2
						c-1-0.4-5.4-2.9-5.7-1.8c1.7,0.3,0,1.5,0,2.3c0.1,0.6,0.3,1.3,0.5,1.9c0.6,2.3-1,0.2-1.1,1.7c0,0.9-1.2,2.9-1.7,3.7
						c-1,1.7-0.9,3.9-1.9,5.1c-1.7,2.1-3,7.8-2.2,9.9c0.5,1.4-0.4,2,0.6,2.8c0.9,0.7,0.6,3.4,0.5,4.2c-0.2,1.4-1.7,4.4-0.8,5.5
						c0.5,0.7-0.5,2.9-0.6,3.9c0,0.7-0.1,1.4-0.3,2.1c0.8,0.4,0.8,1.5,1,2.2c0.2,1.1,0.9,1.4,1.1,3.1c0.1,1,1.5,1.7,2.3,2
						c0.5,0.1,1.2,2.7,1.2,3.4c-0.1,0.7-0.2,1.4-0.3,2.1c0.6,0.8,1.4,1.5,2,2.3c0.5,0.6,0.3,1.4,0.8,2c1,1.3,1-0.8,1.4,1.4
						c0.5,3.1,3.6,4.3,4.1,7.4c0.2,1.5,2.4,1.6,3.4,3.2c0.1,1.5,1.6,2.8,2.3,4.1c0.4,0.6,1.5,2.8,1.2,3.5c1.7,1.5,3.8,2.3,4,4.7
						c0.1,1.6,1.6,2.7,2.2,4.2c0.4,1,1.1,3.7,2.1,4c1.4,0.4,1.4,6,2.5,5.5c1.5-0.7,0.2,1.2,1.2,1.8c0.7,0.4,0.5,1.8,0.8,2.5
						c0.4,0.7,1.1,1.1,1.5,1.8c1.2,2.4,3.3,5.2,5.5,7c-0.3,1,0.9,1.6,1.2,2.3c0.6,1.4,0.6,3.4,1.2,4.7c0.3,0.5,0.8-0.9,0.6,0.5
						c-0.2,1.2,0.9,2.3,1.1,3.5c0.4,2,0.9,6.1-0.2,7.6c-0.3,0.4-0.9,0.4-1.3,0.6c-0.4,0.3-0.6,2.4-0.7,2.9c-0.4,2.2-0.4,4.7-2.4,6.3
						c-2.9,0.3-5.3,1.9-8.1,2.6c-1-0.1-1.5,0.2-1.5,1.1c0.1,0.8-0.2,1.1-0.8,0.9c-1-0.2-1.6,1.2-2.3,1.7c-2.6-0.4-4.3,0.7-6.7,1.5
						c-0.6,0.2-4-0.2-3.8-1.5c-1.3,1.3-4.8-0.2-5.2-1.7c0-0.1-2.5-1.5-2.9-1.7c-1.3-0.8-1.6-2.3-3.5-1.7c0.2-1.2-0.1-2.1-1.1-2.8
						c-1.5-1-1.4-0.8-1.5-2.3c-0.1-1.3-2.2-0.8-2-1.9c0.1-1.6-0.9-2.7-1.1-4.2c-0.3-1.6-1.6-1.5-2.8-2.7c-0.7-0.6-3.2-2.1-3.1-2.9
						c0.3-2.2-0.7-0.4-1.6-1.6c-0.7-1,0-2.5-1.4-3.2c-2.4-1.1-0.1-4.7-2.5-5.7c-0.7-0.3-3.4-4.1-3.3-5.5c0.1-1.7-1.6-1.8-3-2.8
						c-0.6-0.5-1.3-0.9-2-1.3c-1.7-0.8-1-1-1.7-2.6c-0.4-0.9-4.8-7-5.4-5.9c2.3,2.1,1.7,6.2,4.1,8.1c0.4,0.3,0.6,3.3,1,4.1
						c0.8,1.6,1.3,3.2,1.8,4.8c0.3,0.8,2.3,6,2.2,6.1c-1.6,1.2-0.4,1.1,0.3,2.7c1,2.1-0.2,4.7,1.1,6.6c1.1,1.5,0.9,1.8,1.3,3.6
						c0.2,0.7,0.6,3,1.2,3.4c0.8,0.4,1.1,3,1.9,3.9c1.7,2,1.6,3,2.5,5.4c1.6,4.3,3.1,7.7,3.3,12.3c0,0.8-0.8,1.4-0.7,2.4
						c0.1,1.3,0.3,2.5-1.4,1.8c0.2,1.4,0.8,2.6,0.6,4.1c-1.6,0.3-1.7,2.3-2.3,3.5c-1.5,0.1-2.8,0.8-4.2,1.4c-0.7,0.1-1.2,0.4-1.5,1
						c-1.1,0.8-0.1,1.1-0.7,1.7c-0.4,0-0.8,0-1.2,0c-0.6,0.5-1.2,1-1.9,1.5c-0.8,0.6-2.8,2-3.9,1.8c-1.3-0.2-1.6,0.8-3,1.2
						c-0.8,0.2-3-0.6-3.4,0.2c0-0.9-4.4-2.7-5.2-2.9c0,0.2,0,0.4,0,0.6c0-0.1-7.1-1.2-7-1.2c0-0.4,0-0.8,0-1.2c-0.4,0-0.8,0-1.2,0
						c-1.3-0.9-2.4-2.3-3.5-3.5c0-0.4,0-0.8,0-1.2c-0.4,0-0.8,0-1.2,0c-1.4-1.2-0.7-1-0.6-1.7c0.1-0.6-0.6-0.7-1-0.8
						c-1.1-0.3-0.6-0.9-0.9-1.9c-0.4-1.3-1.1-2.3-1-3.7c-0.1-0.9-1.2-0.6-1.6-1.2c-0.8-1.1-1.7-2.4-1.8-3.5
						c-0.1-0.9-0.5-2.2-1.4-2.3c-1.4-0.2-1.3-2-1.6-3.1c-0.4-1.3-0.8-2.6-1-3.9c0.3-0.8-1.3,0-1.2-1.1c0.2-1.8-2.8-4.7-3.3-6.8
						c-0.4-1.9-0.2-1-1.4-2c-1.3-1-1.1-1.8-1.5-3.3c-0.4-1.3-1.1-2.4-1.3-3.7c-0.2-1.3-1.3-1.6-1.3-2.9c-1.2,0.4-1.3-0.1-1.9-0.9
						c-0.9-1.1,0.2-1.5,0.2-2c-0.1-0.4-0.4-0.7-0.8-0.8c-0.8-0.4-0.9-2.3-1.1-3c-0.4-1.4-1.2-2.3-1.6-3.7c-0.4-1.4-0.9-2.7-1.4-4.1
						c-0.6-1.7-2.7,0.7-3.6,1.1c-1.6,0.6-1-1.6-2.9,0c-1.8,1.4-1.3-0.6-3-0.2c-0.5,0.2-0.9,0.1-1.3-0.3c-0.5,0.7-1.4,1-2.2,1.3
						c-1.7,0.5-4.2,2.1-5.9,0.5c-0.3,1.4-4.4,3.1-5.6,3.1c-2.2,0-3.2-0.3-5.7,0.8c-4.2,1.9-7.9,1.4-12.4,1.6
						c-2.2,0.1-2.8,0.4-4.3,1.8c-0.5,0.5-1,0.8-1.7,0.9c-0.7,0.4-0.3-1-0.6-1.2c-0.4-0.2-2.5,1.6-2.9,0.9c-1.2-2.3-0.8,0.9-2.7,0.2
						c-2.1-0.8-3.5-0.1-5.4,0.8c-1.9,0.8-1,1.4-0.4,3.2c0.4,1.3,0.9,2.5,1.4,3.8c1.3,3.4,2.2,7.4,5.6,8.9c0.6,0.3,1.3,4.1,1.7,4.9
						c0.7,1.5,1.1,4.5,2.7,5.1c1.4,0.5,1.1,2.1,1.9,3c0.7,0.8,1.8,1.1,2.5,2.2c0.2,0.4,1.5,2,1.4,2.1c-0.1,0.5,1,2.1,1.5,2.2
						c0.4,0.2,0.5,0.5,0.2,1c-0.3,1.8,0.7,0.4,1.2,1.4c0.7,1.6,0.7,3.7,0.5,5.4c-0.2,1.7-0.6,2.5,0.1,4c0.5,1.1,1.1,2.2,1.5,3.4
						c0.3,1,0.4,1.7-0.1,2.7c-0.8,1.9,0.4,0,0.4,1.4c0,0.1-0.8-0.3-0.8,0.5c0,1,0.8,2,0.8,3c-0.2,0-0.4,0-0.6,0
						c-0.6,0.5,0.4,1.7,0,2.3c-1.9-0.7-2.2,2.6-3.6,3.5c-1.5,1-1.1,0.3-1.7,1.7c-0.5,1.1-1.5,2.2-2.5,2.8c-1.9,1-3.2,1.8-5.2,2.6
						c-1.8,0.7-3.8,1.3-5.5,2.4c-0.8,0.5-4.3-0.4-5.5-0.5c-0.5,0-2.8,0-2.8-0.7c0.1-0.9-1.8-0.2-2.3-0.3c-0.6-0.1-2.3-1.4-2.9-1.2
						c-2,0.8-0.5-0.3-2.3-0.8c-2.1-0.6-2.6-5.8-5.2-6.1c-0.5,1.4-1.3,3-1,4.5c0.2,1.1,1.3,0.9,0.7,2c-0.3,0.6-0.7,1.6,0,2.1
						c1.1,0.8,1.8,2.8,0.6,3.5c-1.2,0.6,0.3,1.8,0.3,1.9c-0.3,1.4-1.1,2.8-2.2,2.9c-0.9,0.1-0.1,1.2-0.7,1.8
						c-1.7-0.7-1.3,0.8-2.3,1.2c-0.8,0.3-1.7-0.7-2.7,0.1c-0.5,0.4,0.2,1.8-0.7,1.9c-1.3,0.1-2.5,0.7-4,0.7
						c-1.8,0.1-3.4,0.1-4.8,1.4c-1.2,0-1.8-1.1-3.1-0.6c-0.3,0.1-0.4,0.3-0.4,0.6c-1.6,0-3.2,0-4.8,0c-1.7,0-2.2-0.9-4-1.1
						c-1.9-0.2-3.7-1.4-5.3-2.3c-1.4-0.8-2.1-0.7-2.2-2.4c-0.1-0.9-0.4-1.7-0.9-2.4c-1.7-2.3-3.7-4.5-4.8-7.2
						c-0.7-1.7-1-3.7-1.2-5.6c-0.1-1.3-0.1-2.6-0.1-3.9c0-1.6-0.6-1.7-0.5-3.1c-1.5,0.5-1.4-2.8-1.7-3.5c-0.2-0.3-0.6,0.4-0.7-0.4
						c-0.2-0.9,0-1.9,0.1-2.8c0.1-0.8,0.7-4.3-0.3-4.8c0.1,0.1-0.2-3.2-0.3-3.7c-0.2-2,0-3.3-0.8-5.2c-0.1-0.4,0-2.2,0.1-2.1
						c-1.4-1.2-0.5-3.2-0.4-4.9c0.1-1.6,0-3.2-0.1-4.8c-0.1-2.1-0.7-0.5-1.2-1.6c-0.4-0.7,0.2-0.9,0.8-1c0.9-0.2-0.2-1.2-0.3-1.8
						c-0.5-2.6-2.2,0.7-3.4,0.5c0-0.4,0-0.8,0-1.2c-0.4-0.4-1.3,0.3-1.7,0c-0.1,0.4,0,0.7,0.4,0.9c0.7,0.7-0.5,1.3-0.4,2
						c0.1,0.6,1.1,1.7,1.4,2.3c1,1.4,1.5,3.5,2,5.1c0.2,0.5,0.7,2.2,0.4,2.4c-0.5,0.4-0.6,1-0.3,1.6c1.3,2.3-0.1,2.6-2.1,3.5
						c-1.4,0.7-2.7,2-4.2,0.5c-0.4-0.4-1.7-2.4-2-1c0.4,0,0.6,2.2,0.6,2.9c0,0.9-0.9,1.3-0.1,2.7c0.5,1-0.1,1.7-0.8,2.3
						c-0.4,0.3-0.6,0.8-0.5,1.4c-0.3,2.8-0.4,0.3-1.5,1.2c-0.5,0.5-0.6,2.4-0.7,3.1c-0.1,0.3-3.1,1.1-3.7,1.5
						c-1.9,1.2-2.9,0.3-4.7-0.6c-1.3-0.7-0.4-1.7-1.8-2.4c-1.5-0.7-1.9-1.3-0.7-2.8c-2-0.1-4.1,1.7-5.8-0.2c-0.2-0.2-1,0.6-1.7,0
						c-0.7-0.6-0.7-1.3-1.5-1.7c-0.8-0.4-1.7-3.5-2.1-4.5c0.2-1.2,2.9-4.3,0.6-5.3c-0.1,1.1-1.5-0.5-2.3,0c-0.2,0.9-1.6-1.3-2.3-1.2
						c-1.2,0.1,1.2,3.2-2.4,2.4c-0.9-0.2-0.8-1.6-1-2.2c-0.2-0.6-0.6-0.8-1.2-0.7c-0.8-0.8-1.7-1.7-2.1-2.9
						c-0.8-2.3,1.4-3.2,1.6-5.3c0.3-1.9,1.7-0.3,2.6-1c0.7-0.5,1.5-3.4,1.6-4.4c0.3-2.3,1.9-3.1,2.5-5.2c0.4-1.3,1.6-1.4,1.6-2.5
						c0-2.2,1.5-1.2,2-2.7c1.1-2.9-0.3-6.1,0.3-8.9c0.3-1.3-0.1-3.9-0.6-5c-0.4-1-1.1-1.9-1.4-3c0-0.8,1-0.5,1.2-1.2
						c-1.8-0.6-0.8-2.4-0.6-3.7c0.2-0.7,0.2-1.4,0-2.1c0.9-0.5,1.5-1.2,1.7-2.1c0.3-1.5-0.4-3-0.5-4.5c-0.2-2,1.1-4.2,1.3-6.2
						c0.1-0.6-0.5-2,0.1-2.2c0.8-0.3,0.7-4.8,0.7-5.8c0.1-1.8-0.6-3.5,1.4-3.9c1.4-0.3-0.2-2.8,1.6-2.6c0.1-3.3,1-6.1,0.7-9.6
						c-0.2-1.6-0.1-2.8,0.4-4.3c0.6-2.2,0.8-1.7,2.5-3c0.2-0.6,0.6-1,1.2-1.2c0.4-1.3,0.6-2.6,0.8-4c0.4-2.3,0.6-4.7,1-7
						c1.8,0,2.5-4.7,4.6-3.5c-0.5-1.5,0.5-1.7,1.4-2.4c0.4-0.3,0.1-0.8-0.2-1c0.9-1.3,2.5-1.8,3.5-2.9c-1.4-0.1,0.8-1.6,0.9-2.3
						c0.2-1.6,0-1.5,1.5-2.4c1.8-1,0.9-1,1.4-2.5c0.1-0.3,4.2-3.3,3.8-3.3c2.2,0.2,1.1-2.9,2.9-2.9c0.1,0.4,3,0.5,3.4,0.3
						c0.9-0.3,1.8-0.9,2.5-1.6c0.8-0.8,1.5-0.2,2.2-1.2c0.4-0.6,0.9-1.6,1.7-1.7c-0.1-1.2-0.1-2.9,1.2-3.5c1.6-1.6,4.5-0.1,5.4-1.8
						c0.6-1.2,2.6-0.9,3.6-1.4c2.1-1,0.7-0.2,2.4,0.9c0.4,0.3,4.8-1.1,5-1.4c0.2-0.5,4.1-1.5,4.9-1.8c1.7-0.7,3.3-1.6,5.1-2.2
						c1.6-0.5,3.1,0.8,4.2-0.7c0.4-0.6,0.8-1,1.4-0.3c0.7-0.1,1.5-0.1,2.2,0.2c0.6,0.7,1,0.6,1.2-0.3c1.3-0.9,0-0.8,0.7-1.6
						c0.8-0.9,1.8-0.7,2.3-1.2c0.9-0.8,2.2-2,3.5-3.5c2.9,0,5.8-2.9,8.7-1.8c0.6-2.3,1.5-0.8,2.9-1.7c0.2-0.1,0.2-2,1.1-0.9
						c0.8,1.1,1,1.4,2.2,0.1c0.8-0.9,0.5-1,0.9-1.5c0.1-0.2,1.9-0.3,2.3-0.6c1.4-0.3,2,0.6,3.1,1c1.3,0.4,2.8-1.1,4.1-1.5
						c5-1.6,9.5-3.4,14.7-5.5c1-0.4,2.3-1.3,3.4-1.1c0.8,0.1,1.2,0.8,2,0c-0.7-2-0.3-5.2,0.6-7c0.3-0.5,0.8,0.9,0.6-0.6
						c-0.2-1.1,0.8-0.9,1.5-1.3c0.4-0.2,1.3-2.3,1.8-2.9c0.5-0.7,1-1.4,1.3-2.2c0.8-0.1,1.5-0.3,2.2-0.7c0.6-0.4,1.2-0.7,1.9-1
						c-0.2-0.5-0.3-1.1-0.1-1.6c0.4-0.8,1.3-1.1,2-1.6c0.9-0.6-0.2-1.4,1-1.8c1.2-0.4,1.1-2.2,1.2-3.2c1.3,0.5,4.2-2.1,3.5-3.5
						c0.9-0.2,1.8-0.1,2.7-0.4c1.1-0.5,0.4-2.1,2-1.9c-1.2-1,1.9-6,2.9-6.5c0.6-0.3,1.3-0.5,1.6-1.1c0.4-0.7-0.2-1.8,0.5-2.2
						c1.4-0.7,3.2-1.3,2.6-3.5c1.4,1.5,3.6-1.5,4.7-1.7c0.6,0,1.6-4.7,2.7-5.4c0.8-0.6-0.9-0.7-0.3-1.6c1.5-0.2,2.5-1.3,3.5-2.3
						c1-1,2.2-2.2,2.4-3.6c0.1-0.7-0.1-1.2-0.7-1.7c-0.4-0.3,0.6-0.7,0.6-0.6c-0.2-2-1.3-4.2-2.1-6.1c-0.7-1.7-0.4-2.2-1.8-3.7
						c-0.9-1.1-1.9-2.4-2.1-3.8c-0.8-4.6-4.2-9.1-2.9-12.9c0.4-1-0.7-1.3-0.4-1.9c0.5-1.1,0.4-1.5,0-2.7c-0.5-1.7,0.7-0.4,1.1-1.4
						c0.3-0.9-0.7-1-0.1-1.9c0.3-0.5-0.5-1.7,0.5-1.8c0.7-0.1,1.8,0.2,1.3-1c0.3-1.3-0.4-2-0.6-3.1c-0.2-1,1.7-1.7,2.4-2.7
						c0.8-1.1,1.8-1.5,3.1-1.6c0.7-0.1,1.4-0.8,2.1-0.7c1.1,0.2,0.3,0.9,1.7,0.1c0.9-0.6,2.2-0.5,3.3-0.7c2-0.4,0.9-0.1,2.7,0.8
						c1.4,0.7,3.1,0.5,4.6,0.4c-0.4,2.2,3.4,0.6,2.9,2.9c0.8,0.3,2.3-1.1,2.8-0.3c0.6,1,1.1,0.8,2.1,1.4c1,0.6,3.6,4.2,3.7,4.2
						c2-0.3,0.4,0.4,1.2,1.1c0.4,0.3,2,0.7,2.7,1.1c0.8,0.4,2,0.3,2.6,0.7c0,0.4,0,0.8,0,1.2c0.3,0.4,1.4,0.4,1.8,0.5
						c2.6,0.4,4.8,2.9,7.5,2.4c-0.1,0.9,1.1,2.2,2,1.6c0.4-0.4,0.5-1,0.4-1.6c1.3-0.4,2-1.4,3.4-1.1c0.9,0.2,1.7,1,2.7,0.9
						c1.3-0.2,3.1-1.8,4.2-1.7c0.6,0.1,1.7,1.3,2.1,0.5c0.6-1.4,1-0.6,2.2-0.3c-0.9-2.2,2.5-0.2,2.3-1.7c-0.4,0-0.8,0-1.2,0
						c-0.4-0.4,0.6-1.8,1.2-1.7c1.1,0.1,0.9-3.7,1.1-4.7c0.5-1.9,1.3-3.4,1.2-5.4c-0.1-1.3-0.4-2.6-0.6-3.9c0.5-0.7,0.9-1.6,1.1-2.4
						c0.9-3-0.3-7.8,1.3-10.1c1-1.5,1.6-3.2,1.8-5c0.1-1.2,0.1-2.5,0-3.7c-0.1-1.7,0.5-1.6,0.5-3.2c0.9,0.3,4.1-3.8,4.7-4.8
						c0.5-0.8,3.7-1.6,4.6-1.7c1.7-0.1,1.5-0.9,2.5-2.3C481.6-69,483.6-70.3,483.6-71.5 M441.1-4c-0.7-0.1-1.3-0.4-1.9-0.2
						c-1.6,0.4-1.1-1-2.7-1c-0.3-1-0.9-1.7-1.5-2.5c-1-1.3-0.8-2.5-2.3-2.6c-2.3,0-7.9-3.8-7.2-6.5c-2.6,0.8-5.1-0.6-7.6-1.2
						c-0.6-2.1-2-3.9-4.1-4.7c-0.1,1.6-1.8,1.8-2.9,2.3c0.1-0.9-1-0.7-1.5-0.6c-1.3,0.2-1.1,0.2-1.5-0.9c-0.6-1.5-2.8-1.2-3.9-2
						c-0.5,1.8-0.5,3.6-0.2,5.5c0.2,1.3,0.5,2.5,0.7,3.8c-0.8,0.3-1.2,0.9-1.2,1.7c-0.7,0.8-2.1,0.2-1.7,1.7
						c1.5,1.2,3.4,3.2,3.9,5.1c0.4,1.8-1.1,3.7,0.4,4.9c1.9,1.6,2.6,2.7,3.9,4.7c0.7,1.1,1.2,2.7,1.7,3.8c0.4,0.9-0.6,1.6,0.5,2.1
						c1.3,0.5,0,0.7,0.6,1.4c0.4,0,0.8,0,1.2,0c0,0.4,0,0.8,0,1.2c0.9,0.7,2,0.5,2.9,1.2c-0.4,1.2,0.5,2.8,1.4,3.1
						c3.8,1.5,8.3,3.9,12,0.4c-1.5,0.1-3.7-3.9-4.8-4.9c-0.5-0.4-0.9-0.7-1.3-1.2c-0.9-1.3-1.4-1-2.9-1.6c-0.8-0.3-1.5-0.7-2.2-1.1
						c-1.7-0.9-0.6-1-1.4-2.5c-0.6-1.1-1.5-1.7-1.6-3c-0.2-2.4-1.7-3.2-3.7-4.3c-2.4-1.2-5.1-5.2-6.2-7.7c-0.6-1.2-0.8-2.6-0.6-3.9
						c0.2-1.4,1.1-1,1.7-2.5c0.4-1.1,2.1,0.2,2.2-0.8c0.2-1.4,2.5-1.6,3.7-1.9c0.9-0.2,4,0.5,4.9,1.6c0.9,1.1,2.4-0.1,3.4,1.2
						c0.9,1.3,1.8,2.4,3.6,2.3c-0.1,0.3,2.2,2.7,1.9,2.7c1.4-0.4,0.9,1.2,2.6,1.2c1.5,0,2,1.6,3.7,1.3c0,2.8,0.8,2.3,3.1,3.6
						c1.5,0.8,1.3,2.6,2.7,3.4c0-0.2,0.2-0.4,0.4-0.4c1.4,0.6,1,2.4,3.1,1C442.5-2,440.6-2.3,441.1-4 M483-56.9
						c-1.1-0.2-2,0.9-2.9,0c0,0.5-1,2.6-1,2.6c0.3,0.3,0.7,0.6,1,0.9c-3.9,2.1-3.1,3.5-3,7.5c0,0.7-0.1,1.5-0.2,2.2
						c-0.4,2.2-0.6,0.8-1.6,2.1c-1.6,2-1.8,3-1.5,5.7c0.2,1.7,0.6,2.9-0.1,4.6c-0.7,1.9-1.4,2.6-1.1,4.8c0.3,2.1,1.1,4.1,1.1,6.3
						c-0.2,1.8-2.2,2-2.9,3.5c1.9,1,3.8,0.7,5.8,1.2c0.3,1.3,0.1,2.8,0.6,4.1c0.5,0.2,0.7,0.6,0.6,1.2c1.1-0.2,1.1,0.7,1.7,1.1
						c1,0.7,2,2.5,2.9,2.9c0.4-1.5-0.7-3.7-0.6-5.4c0.2-2,0.5-4.1,0.9-6.1c0.2-1-0.1-3.1,0.7-3.6c1.6-1-0.3-3.2-0.5-4.7
						c-0.2-2.3,1.4-4.7,1.7-7c0.2-1-0.7-1.9-0.6-2.9c0-0.7,0.6-1.4,0.7-2.1c0.2-1.6,1.2-2.8,1.3-4.5c0.1-1,0-2.1-0.2-3.1
						c-0.2-1.6,0.5-0.2,0.5-1.4c0-0.2-1.1,0-0.5-1.3c0.4-0.9,0.2-2.6,0.8-3.1c1.1-1,0.8-3,2-3.5c1-0.5,2.5-0.5,2.4-2
						c-1.7,0.2-1.1-1.2-2.3-1.7c0.7,0.3-2,0.2-1.7,0c0.1-0.9-0.6-3.5-1.7-1.7C484.7-59.2,484.6-57.3,483-56.9 M466.7-8.6
						c-0.1-0.6-2.8-1.2-3.2-1.1c-1.4,0.4-1.9-0.5-3.6-0.4c-1.9,0.1-2.7,0.2-4.6,1c-0.9,0.4-1.7,0.1-2.6,0.5
						c-0.9,0.4-1.3,1.2-2.3,1.2c0.6,1.7-0.8,1.1-1.2,2.3c1.1,0.7,1,2.5,1.1,3.6c0.1,1.5,0.5,1.9,0.1,3.3c-0.2,0.8-0.7,3.1,0.5,3.6
						c-0.6-2.2,3.2-0.3,3.8-1.9c1-2.7,2.7-1.7,5-2.2c-0.1,0.5,0.1,0.9,0.6,1.2c0.1-1.7,1.2-2.8,2.9-2.9c0.6,0.2,1.1,0.6,1.4,1.2
						c0.7,0.9,1.5,0.7,1.8,0.8c0.3,0.3,0.6,0.7,0.9,1c0.2-1.7,1.3-2.8,2.3-4.1c1.4,0.2,4-1,3.4-2.8c-0.2-0.5-0.6-1-1.1-1.3
						c-0.8-0.7-0.3-1.4-1-2C469.6-8.9,468.6-10,466.7-8.6 M483-2.2c-2,4-4.9,9.3-9.3,11c-2.9,1.1-7.5,1.4-10.5,1.2
						c-0.5,1.7-1.2,0.8-2.7,1.1c-0.5,0.1-1,0.3-1.5,0.5c-0.7,0.3-1-0.5-1.6-0.5c-0.2,0-2.1,0.9-2.3,1.2c-0.4,0.6-2.2-0.3-2.9,0.6
						c-0.5,0.6-2.2,0.5-2.9,0.6c-3.1,0.3-3.5-0.9-3.5,2.9c-1.6,0.1-1.8,2.2-3.5,2.3c-0.2,0-1.8,0.6-1.8,0.6c2,0.1,2.8,4.3,4.1,5.2
						c0.5,0.2,0.8,0,1-0.5c0.4-0.1,1.8,0.5,2.2,0.6c1.3,0.5,1.1,2.5,0.3,3.4c1.7,0.5,4.4,0.2,4.1,2.5c-0.4,3.2,1.5,1.7,1.4-0.7
						c0-1,0.7-1.7-0.2-2.3c-0.8-0.5-1.9-0.7-2.3-1.6c-0.6-1.5,0.9-4.2,2-4.5c2.4-0.6,3.9-2,6.6-1.6c-0.2-1.6,3.1-2.1,4.2-2.1
						c2.2,0,4.1,0.9,6.4,0.5c1.6-0.3,3.9,1.1,5.1,0.5c-0.4,1.3,1.1,1.4,1.9,1.6c1.1,0.3,0.3,2,1.5,2c1.9,0,0.7,0.9,1.7,2.1
						c0.3,0.4,1.1,0.7,1.3,1.2c0.3,0.7-0.5,1.6,0.3,2.1c0.4,0.2,0.6,0.4,0.8,0.7c0.4,1.1,0.9,1.3,2,2.2c0.5,0.4,2.7,3.5,2,4.3
						c-0.2,0.2,0.2,1.8-0.1,2.5c-0.8,1.8-0.1,3.9-1,5.7c1.4,0.1,3.2-2.6,4.1-3.5c0.9-0.9,4.4-1.9,5.8-1.8c-0.4-1.6,0.9-1.6,1.2-2.9
						c-1.3,0-2.1-0.9-3.5-0.6c0.4-1.8-3.5-3.7-3.5-6.1c0-2.2-1.2-2-2.7-3.3c-2.1-1.7-0.4-2-0.8-4c-2.7-0.1-0.5-5-0.1-6
						c0.4-0.9,0.7-2,1.6-2.4c1.1-0.6,1-3.4,1.4-4.9c-3.8-0.3-2.7-5.6-4.1-8.1c-0.3-0.6-1.1,0.2-1.6-1.2c-0.2-0.5-0.8-2.7-1.3-1.2
						C482.8-2.8,483.1-2.7,483-2.2 M504,30.4c0.4-1.4,1.6-1.8,1.7-3.5c-2,0.2-2,2.3-3.4,2.4c-1,0.1-3.5-1.2-4.2-0.1
						c-0.2-2.9-5.3-7.9-1.5-10.5c1.5-1,3.2-1.7,5-1.8c0.2-1.3-1.8-1.8-0.6-2.9c-2.2,0.4-4.2-0.9-6.4-0.6c-0.6,2.3-2.5,4-2.9,6.4
						c2.7,0.4,1,1,1.2,2.9c2.3-0.2,1.8,3.3,2.2,4.4C496.2,30.2,501.2,29.6,504,30.4 M413.2,22.8c0,0.4,0,0.8,0,1.2
						c0.4,0.2,0.8,0.4,1.2,0.6c0,0.4,0,0.8,0,1.2c0.6,0.7,1.6,0.1,2.2,1.1c0.5,0.9,0.7,1.8,1.9,1.2c0.2,1.6,2,1.9,2.9,2.9
						c0.3-1,0.5-1.9,0.6-2.9c0.2-2.6-0.2-1.9-2.1-3c-0.9-0.5-1.5-1.4-2-2.2c0.4-1.1-0.7-0.7-1.2-1.2c-0.7-0.7,0.6-0.8-0.7-1.6
						c-0.8-0.5-1.5-0.6-2.5-1.1C410.9,17.5,412.1,21.9,413.2,22.8 M477.8,60c-0.8-1.4-2.9-2.7-4.3-3.5c-0.8-0.5-1.6-0.9-2.2-1.7
						c-0.8-1-0.9,0-1.6-0.6c-0.6-0.5-0.6-1.3-1.2-1.7c-0.7-0.5-1,0.6-1.4-0.6c-0.4-1.2-1.7-0.8-2.6-1.2c-0.7-1.1-1.5-2-2.3-2.9
						c-0.3,0.9-4.6-2-5.2-2.1c-2.2-0.3-4.2-5.6-6.5-6.5c-0.8-0.4-1.6-0.8-2.3-1.2c-1.7-1-0.7-1.3-1.2-2.8c-0.6-1.5-2.4-1.7-3.5-2.7
						c-0.5-0.4-0.8-0.9-1-1.6c-1,0.4-1.9-0.3-2.6-0.9c-0.4-0.3-1.6-1-2.1-0.9c-0.6,0.1,0.1,1.3-1.1,0c-1-1.1-2.2-1.9-3.3-2.9
						c-1.3-1.4-1.2-1.8-3.2-1.8c-0.1,1-1.1,1.4-1.8,1.7c-2,1.1,0.4,3,1.3,4.1c0.4,0,0.8,0,1.2,0c0.4,0.4,0.8,0.8,1.2,1.2
						c0,0.4,0,0.8,0,1.1c0.4,0,0.8,0,1.2,0c1.2,1.1,2.2,2.5,3.5,3.5c0,0.4,0,0.8,0,1.2c0.4,0,0.8,0,1.2,0c0.7,0.3,0.5,1.7,1.8,1.7
						c0.9,0.1,1.7,1.2,2.3,1.7c3.5,2.9,7.4,5.2,10.4,8.6c0.7,0.8,1.7,0.4,2.1,1.3c0.4,1.1,1.3,0.3,2,1.2c1.1,1.3,2.2,2.6,3.5,3.5
						c1.3,0.9,2.2,2.2,3.3,3.4c0.9,1,2.8,0.7,3.4,1.6c0.5,0.8,3.4,2.2,3.2,3.4c0-0.2,3.1,2.1,3.5,2.6c1.4,1.6,3.2,2.2,4.8,3.3
						c1.1,0.8,1.9,1.5,3.3,1.3c0.4-1.6,0.7-3.2,0.8-4.9c0.1-1.7,0.2-3.3,0.3-5C480.9,60.4,479.6,59.8,477.8,60 M475.4,31.5
						c0-4-5.5-3.3-7.1-3.9c-0.6-0.2-1.2,0.3-1-0.7c0.2-0.9-0.6-1.1-1.3-1c-1.3,0.1-3.2,1.8-4.5,1c-0.7,2.7-0.9,5.5-1.7,8.2
						c-0.3,1,0.1,2.2,0.4,3.2c0.5,1.3,2,1.7,2.2,2.9c0.2,1.5,2.3,0.8,2.1,2c-0.2,1.2,1.4,0.4,1.1,1.2c2.9,0.3,6.4,0.3,8.7-1.7
						c0.4,1.1,1.1-0.2,1.4-0.6c0.8-1,1.3-1.1,1.3-2.7c0-1.5-0.3-3-0.4-4.5c0-0.6,0.5-3,0.4-3.1C476.9,31.6,476,31.9,475.4,31.5
						 M406.8,28.6c-0.2,0.7-1.3,0.6-1.3,1.5c-0.2,1.7,1.5,0.9,1.4,2c-0.2,1.5,2.6,4.1,4,4.9c0.6,0.3,4.6,5.3,4.2,1.6
						c-0.2-1.5-0.6-3.6-1.7-4.4c-1.8-1.4-3-2-3-4.4c-2.4,0.4-1.7-2.4-3.5-2.9C406.6,27.6,406.1,27.9,406.8,28.6 M508,39.1
						c-0.9,0.3-2.4,0.2-2.9,1.2c2.2,0.6-2.5,1.2-1.7,0.6c0,0.4,0,0.8,0,1.2c-0.6,0.6-0.9-0.4-1.7,0.6c-0.7,1-2.5,1-3.6,1.1
						c0,1-0.8,1.5-1.5,1.9c-1.4,0.8-1.1,1-1.4,2.2c-0.3,1.2-1.7,2.1-2.2,3.2c-0.7,1.6-1.7,1.6-1.8,3.2c-0.1,1.3-0.9,2.3-1.1,3.5
						c-0.1,0.7-1.1,3.2-2.4,2.8c-0.3,2-0.9,4.1-0.2,6.3c0.2,0.8,0.8,1.4,1.4,1.8c0.2,1.3,0.1,2.8,0.2,4.2c0.7,4.8,3.7,0.7,6.2,3.4
						c1.1-2,0.3-4.2,0-6.3c-0.3-2.8,1.6-3.7,1.8-6.1c0.1-2,0.8-3.1,1.8-4.8c0.8-1.4-0.1-1.6,1.5-2.2c1.3-0.5,1.4-2.5,1.9-3.6
						c0.9-2.3,2.2-4.3,4.1-5.8c1.4-1.1,3.5-2.9,5.1-3.5c1.9-0.7,3.2-2.9,4.8-4.1c0.7-0.6,3.4-0.4,3.4-0.8c-1.5-0.4-2.7-1.1-4.1-1.7
						c-0.7-0.3-1.5-0.5-2.3-0.6c0-0.4-0.1-0.8-0.4-1.1c-1.2-0.7-1.6-1-2.1,0.5C510.2,37.5,509.2,38.4,508,39.1 M405.6,42.6
						c0.7,0.8,0.5,2.1,1.7,2.3c-0.2-1,1.3-0.4,1.7-0.7c1.3-0.9-1-1.5-1.2-1.6c0-0.4,0-0.8,0-1.2c-0.5-0.4-1.2-0.1-1.6-0.6
						c-0.5-0.6-0.7-2.3-0.2-2.9c-1.7-0.2-1.8,1.6-2.5-0.5c-0.4-1.2-0.8,0.3-1.3-0.1c-0.4-0.4-3.8-1.6-3.8,0
						C400.9,39.1,403.7,40.3,405.6,42.6 M466.1,71.1c-1.3-1.7-3.8-2.3-5.2-4.1c-0.5-0.6-1.3,0-1.9-1.2c-0.7-1.2-2.4-0.4-3.1-1.4
						c-0.7-1.2-1.2-0.4-1.6-1.7c-0.4-1.1-1.2-1.8-2.1-2.3c-1.8-1.1-4.1-1.7-4.7-3.9c-0.5-1.7-3.9-4-5.7-5.1
						c-1.5-0.9-2.6-0.7-3.5-2.2c-1-1.6-1.5-1.2-2.7-2.1c-0.7-0.5-0.9-1.4-1.8-1.5c-1.3-0.2-1.5-1.2-2.5-2.2
						c-1.5-1.4-2.7-3.1-4.7-3.6c-0.4,1.4-1.7,1.4-2.9,1.7c-0.6,0.2-1.6,1.8-2.1,2.3c-1.9,2-3.7,4.6-5.7,6.7c-1,1.1-1.9,1.1-2.3,2.8
						c-0.4,1.7-2,1.9-2.9,3.7c-0.3,0.7-0.6,1.4-1.1,1.9c-0.4,0.4-1.1-0.2-1.2,0.6c-0.1,1.3-2.5,0.5-1.7,2.3
						c-1.5-0.4-1.1,1.9-2.9,1.2c-0.2,1.2-0.6,2.3-0.9,3.5c-0.4,1.5-1.3,1.4-1.7,2.9c-0.5,1.9-3.3,2.9-4.4,4.3
						c-4.5,5.6,7,2.2,5.9,6.2c1.6-0.2,3.6,0,4.1,1.7c2-0.9,3.9-0.1,6,0.3c1.7,0.4,4.7,0.2,5.2,1.8c0.6,1.8,1.8,1.9,3,3.2
						c1,1.1,1.3,0.3,2.4,1.1c1.6,1.2,3.2,2.4,5.2,2.4c2.3,0,4.5-0.6,5.9,1.3c1.7,2.3,1.7-0.5,3.1-0.2c-0.5,1.8,3.1,1.4,3.6,1.1
						c1.7-1.3,1.3-0.4,3-0.4c1.2,0,2.2-0.6,3.3-0.7c-0.1,1.1,1.8,2.4,2.7,1.7c0.7-0.6-0.4-2.4,1.3-1.7c1.9-0.3,2.4,1.5,4.1,1.7
						c1.3-1.8,3.3,0.8,4.2-0.3c1-1.1,1.9-0.8,2.8-0.3c0.6,0.3,2-4.1,2-4.9c0.1-0.7-0.6-3.6,0.9-3.3c1.6,0.3-0.1-2.4,1.7-1.8
						c0.4-1.6-0.5-2.2-1.2-3.5c1.6,0.5,1.1-2.1,1.7-3c0.5-0.8,0.7-1.8,0.7-2.8C468.5,71.5,467.2,72.5,466.1,71.1 M396.3,47.2
						c-0.2,2.1,1.3,2.7,2.9,3.2c0.9,0.3,0.8,0.8,0.9,1.6c0.2,1.2,2.9,1,3.8,1.7c-0.1-1,0-2.1,0.6-2.9c-1.5-0.1-0.3-2.4-2-2.7
						c-0.5-0.1-1.9-1.3-1.9-1.7c0,0.4-2.7-2-2.5-2c-1-0.1-0.2-0.8-1.9-0.8c-1.3-0.1-2.7,0.3-3.9-0.3
						C392.1,45.9,395.1,45.5,396.3,47.2 M521.4,50.2c-1.3-0.2-2.2,0.1-3.4,0.5c-0.6,0.2-1.2,0.2-1.8,0.1c0,0.7-0.2,1.4-0.7,1.9
						c-1.2,1.6-3.8,3.6-5.9,4.2c-1.6,0.5-0.8,1-1.3,2.4c-0.5,1.3-1.6,0.7-1.7,2.4c-0.1,1.1-0.4,1.5-0.6,2.4
						c-0.3,1.8-0.3,1.7-2.1,1.7c0.1,1.9-0.1,3.8-0.2,5.7c0,0.7,0,1.3,0,2c0.1,1.3-0.5,1.6-0.7,2.9c-0.2,1.5,0.8,3.1,0.8,4.6
						c0.7,0,2.6,1.1,3.2,0.6c1.1-0.9,2.1-0.2,3.7-0.1c0.8,0.1,2.6-0.7,3.1-0.4c0.4,0.3,2.7-0.4,3.4-0.5c2.3-0.2,4.7,0.4,6.4-1.4
						c0.7-0.7,3.8-1.5,3.9-2c0.5-1.5,1-1.1,2.5-1.2c0.7-0.1,2.1-3.3,2.6-4.1c1.8-2.7-0.8-2.6-2.9-3.9c-1.6-1-2.7-2.7-2.6-4.7
						c0-0.7-0.4-3.6-0.1-3.9c0.7-0.6-0.2-2.3-0.1-3.1c0.1-1.3,2.1-3.5,2.5-5c-1.1,0.2-2.8-2.3-3.5-2.9
						C524.2,46.6,523.3,49.8,521.4,50.2 M397.4,56.6c-1.1,0.2-1.6-0.6-2.2-1.4c-0.7-1.1-1.1-0.8-2.2-1c-0.2-0.1-0.9-2.1-1-2.4
						c-0.3-1.4-0.9-2.1-2.7-1.9c-3.8,0.4-3.6,3.2-2.3,5.8c0.4,0.9,2.6,2.1,2.7,2.7c0.1,0.3-0.7,1.1-0.6,1.2c1,0.9,1.6-0.5,2.6,1.2
						c0.3,0.5,2,1.3,2.7,1.7c0-0.4,0.2-0.6,0.6-0.6c0.3,0.2-0.1,1.4,0.6,1.2c0.5-1.1,1-2.3,1.2-3.5c0.8,0,1.5-0.4,1.7-1.2
						C397.8,58,397.4,57.4,397.4,56.6 M380,61.2c-1.3,1.5-1.6,2.1-3.4,1.2c-1.3-0.7,0.3,1.3,0.3,1.3c1,0.8,1.9,1.6,2.9,2.4
						c2.5,1.7,6.1,2.3,8.4,4.5c-0.5-1.7,1.9-0.9,1.7-2.3c-2.7,0.2-2.8-2.6-4.7-3.7c-2.1-1.2-1.6-4.6-4-5.1
						C381.3,60.5,380.5,60.6,380,61.2 M368.9,72.3c0,1.2-0.4,2.5,0.8,3.1c0.7,0.4,0.3,1.6,1,2.2c0.8,0.6,1.3,1.2,1.1,2.3
						c1.6,0.4,2.2-0.5,3.5-1.2c1.7-0.3,3.2-1,4.7-1.7c0.2-1.5-1.4-2.1-2.5-2.6c-1.1-0.5,0.4-1.7-1.3-1.4c-1.4,0.2-1.5-2.5-2.6-3.5
						C372.8,71.5,371.2,72.5,368.9,72.3 M385.8,79.8c0.1,1.8,1.1,3.4,1.5,5.1c0.5,1.9,0.2,2.5,2,3.6c0.2-0.9,1.2,0.1,1.7,0
						c0.7-0.2,0.6-1.3,1.5-1.3c2.9-0.2,3.6,3.7,4.4,5.6c0.7,1.6,3.6,0,4,1c2.8,0,4.9,1.2,6.4,3.5c2.1-1.1,5.4-0.4,6.2,2.1
						c0.6,1.7-0.1,3.2,2,3.1c1.1-0.1,2.2,0.1,3.2-0.2c1.1-0.3,5.3,3.2,6.6,1.5c-0.3,0.4,2.4,0.6,2,0.6c1.1,0,2.3,0.2,2,1.8
						c2.4-0.6,5.5-0.3,7.2,1.5c1.3,1.4,3-0.1,4.5,1.1c1,0.8,1.4,2.3,2.9,0.9c1.8-1.7,2-0.8,3.7,0.1c1.5,0.8,3.4,0.8,5,0.4
						c1,1.4,3.6,2,4.7,1.1c1.2-1,3-1.3,4,0.1c-0.4-2.4,0.9-4.2,1.2-6.5c0.2-2.5-6.9-2.5-8.7-1.7c-0.4-1.2-1.8-1.5-2.7-1.9
						c-1.2-0.5-2.3,0.5-3.7,0.8c-2,0.4-2.4,0.2-4.3-0.2c-1.4-0.3-1-1.5-2.1-2.1c-0.1,0-0.8,1-1.2,0c-0.1-1-1.8-0.5-2.3-0.6
						c-1.2,1-0.8,3.2-2.9,2.9c-1.6-0.7-2.5-2.3-4.1-2.8c-0.6-0.2-1.3,0.3-1.9,0.5c-1.2,0.2-2.4-0.9-3.5-1.4
						c-1.9-0.9-2.9-3.3-4.7-3.5c-2-0.2-5.5,0.8-6.3-1.2c-0.8-2-0.9-2.4-3.4-2.3c-0.9,0-1.6,0.4-2.4,0.8c-0.6-1-1.8-1.2-2.9-1.2
						c0.3-2.7-1-1.9-2.6-1.5c-1.3,0.4-2,0.3-3.2-0.3c-0.8-0.4-1.6-0.8-2.3-1.2c0.3-0.5,0.4-1.1,0.3-1.6c-0.8-2.2-3-1.6-4.8-1.7
						c-1.5-0.1-3.2-2.6-3-4.3c-1.4,0.4-1.2-0.7-1.9-1.5C387,77.6,387,80.1,385.8,79.8 M359.6,97.9c-0.5,0.7-3.1,1.6-1.7,2.3
						c0-0.4,0.2-0.6,0.6-0.6c0.2,1.4,2.9,2.6,3.5,4.2c0.5,1.1,0.7,2.3,1.1,3.4c-0.2,0.8-1.1,0.7-1.6,1.1c-1.2,1.2,0.9,3.3,1.6,4.1
						c1.1,1.1,1.6,3.9,0.8,5.4c-1.1,2-1,2.9,0.4,4.7c1.8,2.3,2.1,3.3,1.6,5.9c-0.4,1.9,1.9,3.8,2.6,5.4c0.5,1.2,0.8,2.4,1,3.7
						c-0.9,0.9-2,1.6-2.3,2.9c2.1,0.3,1.6,2.4,2.9,3.5c2.5,2.1-0.1,5.8,1.1,7.9c0.4,0.8-0.1,1.4,0.9,1.8c1.3,0.5,1.6,0.6,0.9,1.6
						c-0.2,0.4,0.6,1.1,0.7,1.4c0.3,1-1.4,3.2-1.8,4.1c1.3,0,1.6,1.3,2,2.3c0.1,0.5,0.4,0.8,0.9,1c1.3,0.5,0.1,0.6,0.6,1.4
						c0.5,0.7,1.5,0.6,1.2,1.7c0.3,1.3-0.9,2.1-0.6,3.5c0.1,0.8,1.2,1,1.4,1.9c0.4,1.6,0.3,3.2,0.3,4.8c0.1,1.3,0.7,2.1,0.9,3.2
						c0.1,0.6,0.1,1.2,0.1,1.7c0.1,1.4,0.7,0,1.3,0.6c0.8,0.8-1.3,1.4,1,1.4c1.5,0,2,0.7,2.8-0.5c0.7-1.2,1.7-2.2,2.6-2.9
						c1.1-0.9,3.9,1.5,4.3-0.3c0.5-1.9-1.4-4.2,0.3-5.8c-0.6,0-2-2.4-2.3-2.9c-0.6-2.4-0.6-5.1-0.2-7.6c0.3-2.1-2.3-4.4-3.3-6.4
						c1.6-0.4-0.3-3.5,1.1-4.1c-2.5,0.1-1.5-3-2.1-3.8c-1.6-2.3,1-4-0.2-6.1c-1.1-2-3.7-3.2-3.5-5.8c0.1-0.9,1.1-1.7,0.9-2.5
						c-0.3-1.7-1.7-1.8-2.4-3.1c-1.6-2.7,0.4-3.7,0.9-6.1c0.3-1.6-0.5-2.5-1.6-3.4c-0.7-0.6-0.6-1.7-1.4-2c-1.4-0.4-0.9-0.8-0.4-1.9
						c0.6-1.5-0.7-2.9-1.5-4.1c-1.9-2.6-0.8-8.2-0.8-11.3c-1.1,0.5-0.7-1.2-1.7-1.4c-1.7-0.4-1-1-0.6-2.3c0.3-1.1-1.4-2.1-1.7-3.3
						c-0.2-0.7,1.1-0.9,0.3-1.4c-0.5-0.3-1.3-0.8-0.6-1.5c0.3-0.3-0.1-1.7-0.2-2.3c-0.2-0.7-0.9-0.9-1.1-1.6
						c-0.3-0.9,0.4-1.1,0.6-1.9c0.4-1.9-0.3-6.2-2.4-7c0,0.3-3.8,0.6-4.5,0.6c-1.9,0.1-4.8,0.8-4.5,3c0.2,1.2,0.8,2.1,0.9,3.3
						c0.1,1.2-0.8,1.6-1.1,2.6c-0.4,1.4,1.6,1.5,2.4,2.2C361.4,94.1,360.5,96.4,359.6,97.9 M377.1,86.8c-3.6,0.5,1,3.3-1.2,5.8
						c0.9,0,1.2,0.4,0.6,1.2c0.9-0.2,1.2,0.5,2,0.7c1.4,0.3,1.2,1.3,2.2,2.6c0.9,1.2,3.9,1.3,5.6,1.4c0.6,0,4.4,1.8,4.3,2.9
						c-0.1,0.9,1.2,1.2,1.7,2.1c0.9,1.6,3.6,0.9,5.2,0.9c0.1,1.3,2.6,3.4,3.4,3.7c2.3,0.7,3.3,1.5,4.9,3.2c0.7,0.8,4.3,1.7,5.7,1.8
						c2,0.1,2.9,2.9,4.7,2.9c3,0,4.1-0.1,6.2,2c1.3,1.2,3.9,3.3,5.5,1.6c1.2-1.2,3.1-0.4,4,0.9c0.7,1,1.4,2.4,2.8,2.5
						c1.3,0.3,1.1-0.8,2.1-1.2c1.6-0.5,3.8,2.6,5.5,2.9c0.8-0.2,1.3-0.8,2-1.1c1.3-0.4,2.4,1.1,3.8,1.4c1.2,0.2,2.4,0,3.6-0.3
						c0,1.1,0.8-0.2,1.2,0c1,0.4,0.5,1.8,2.2,1.6c0.8-0.1,2-0.7,1.9,0.7c1.1,0.2,1-0.7,1.7-1.2c0.2,1,1.1,1.1,1.8,1.4
						c1.8,1,0.4-1.3,0.3-1.8c-0.5-1.9-1.1-5.4,0.2-7c0.3-0.4,1-1,1-1.6c0-0.2-1.7-1-1.7-1c-0.9,0.8-1.6,3.2-2.8,3.5
						c0-0.1-1.8-1.4-2.2-1.8c-0.8-1.2-2.5-1.7-3-0.1c-0.5,1.7-2.6,0.2-3.7,0.1c-1.3-0.1-1.4,0.2-1.6-1.2c-0.2-0.7-0.3-1.6-1.2-1.6
						c-0.3,1.6-0.9,1-1.4,2.1c-0.9,2.3-1.6,0.9-2.7-0.4c-0.5-0.6-0.9-1.5-1.8-1.7c-0.5,1.1-2,1.2-3,1.2c-1.9,0-3.9-1.4-3.4-3.5
						c-1.7-0.4-1,2.3-2.9,1.7c0.1-0.6-0.1-0.9-0.5-1c-0.7,0.7-1.1,0.4-1.4-0.8c-0.7-1.1-1.8-3.6-3.3-1.7c0.4-0.5-4.3,0.4-4.9,0.2
						c-1.3-0.2-0.8-0.9-2-1.3c-1.3-0.4-0.3-1.1-0.1-1.9c-3,0.1-8.8,0-8.1-4.7c-0.6-0.1-1,0.1-1.3,0.7c-0.6,0.8-0.8,0.2-1.7,0.2
						c-0.8-0.1-1.5-0.1-2.3-0.2c-0.3-0.8-0.9-1.2-1.8-1.2c1-4.4-6-3.3-8.1-4.7c-2.4-1.5-2.9-0.7-2.9-4.1c-1-1-3,0.3-4.5-0.8
						c-2.1-1.6-3.9-2.9-4.4-5.6c-0.3-1.2-2.3-2.3-1.5-3.5c-1.7,0.6-1.1-0.8-2.3-1.2C379.3,84.5,377.3,85.1,377.1,86.8 M346.2,86.8
						c-0.6,0.6-1.1,1.3-1.7,1.7c-0.7,0.5-1.8,0.4-2.3,1.2c-0.1-1.2-1.2,0.1-1.8-0.2c-1.5-0.9-0.5,1.2-1,2c-1,1.6-1.9,2.3-0.2,3.6
						c1.2,1,3.3,2.9,4.1,4.2c1.2,1.9-3.9,5.1-1.1,6.7c1.1,0.6,1.5,3,1.8,4.2c0.4,1.9-1.7,2.7-1.7,4.5c1.8-0.1,1.4,2,2.3,2.9
						c-0.5,0.1,0,5.4-0.1,6.4c-0.1,1.3,1,0.2,1.3,1.4c0.4,1.7,0.4,0.5,1.8,1.5c1.3,0.9,1.9,4.6,2.3,6.1c0.4,1.3,0.5,2.5,0.5,3.8
						c0.1,0.7,0.9,0.5,1.2,1.2c0.3,1-0.2,2,0,2.9c0.2,1,1.1,1.9,1.2,2.9c0,0.9-0.6,1.4-0.6,2.3c0.8,0.1,0.9,1.1,1,1.7
						c0.3,1.7,2,2.1,1.4,4.3c-0.5,1.6-1.6,1.9-0.5,3.4c0.9,1.1,3,3,2.8,4.5c0.5,1.8-1.5,1.1-1.7,2.3c1.9,1.9,2.6,4.6,3.5,7
						c0.3,1.7-2,1.7-1.7,3.5c1.6,1.2,1,3.8,1.1,5.5c0,0.9,2,4.4,1.3,5c-0.3,0.3,0.7,0.9,0.6,1.2c0,0.8-1,0.5-1.2,1.2
						c1.4,0.1,0.3,1.7,0,2.3c1.5-0.1,2.6-1.1,4.1-1.2c1.1,1.2,3.1,1.2,4.7,1.2c-0.1-0.9,1.5-2.5,2.1-3.1c1-1,2.5-0.7,3.7-0.4
						c-0.2-1.7-0.7-3.4-0.9-5.1c-0.1-0.5,0-1,0.3-1.3c0.4-0.4-0.6-0.6-0.6-0.6c-0.1-1.1-0.9-2.4-0.8-3.4c0.2-1.7,0.7-2-0.7-3.3
						c-1.7-1.7,2.1-4.8-1.1-6.6c-1-0.6-1.7-0.5-2.1-1.9c0-0.8,0-1.6,0-2.3c0.7-0.7,2.1-1.4,1.7-2.6c-0.5-1.2-0.4-1.9-1.4-2.5
						c-1.8-1.2-2.3-2.4-2-4.5c0.2-1.6,1.3-4,0.1-5.3c-0.5-0.5-1-0.9-1.6-1.3c-1.4-1.1-0.1-0.9-0.8-1.9c-0.6-0.9-0.7,0-1.3-1.4
						c-0.7-1.7,0.1-1.9,0.6-3.5c1.2-3.6-2.5-7.4-1.1-11.4c-1.1,0.1-1.3-0.8-1.2-1.7c-1.3-0.2-1.8-1.3-2.2-2.4
						c-0.6-1.7-0.7-1.5,0.5-2.8c0.6-0.6,1.7-1.3,1-2.3c-0.9-1.3-1.1-2.2-2.1-3.5c-1.4-1.7-2.8-3.4-1.1-5.6c2.5-3.2-6.4-5-3-9.4
						c1.4-1.8,1-3.2-0.7-4.8c-1-0.8-1.3-2.1-1.8-3.3c-0.7-1.7,1.1-1.5,1.4-3.2C350.1,86.8,348.2,86.8,346.2,86.8 M329.9,94.4
						c-2.5,0.3-4.4-1-6.2,1.4c-0.8,1-5,2-6,1c0.1,1.1-0.8,1.3-1.7,1.2c0.2,2.1,1.5,3.5,2.5,5.3c1.4,2.4,0.5,3.6,0.3,6
						c-0.2,2.4,2.2,1.2,2.4,2.8c1.1,1.9,2.7,4.3,1.2,6.4c1.3,0.1,2.9,2.3,3.1,3.6c0.2,2-0.7,4.3,0.2,6.1c1,1.9,2.5,3.8,1.3,6
						c1.3,0.8,2.9,3.9,3.1,5.3c0.5,4.5,0.3,9.9,2.8,13.9c-2,2.1,0.1,3.7,1.2,5.2c1.2,1.9,0.7,3.5,1.3,5.5c0.4,1.6,1.5,3,2,4.6
						c0.5,1.7-0.9,2.9-0.5,4.1c0.4,1.2,0.8,3.5,0.5,4.8c-0.7,2.4,1.2,4,0.8,6.3c-0.2,1.3,0.1,1.6,0.2,3c0.1,1.5,1.4,2.3,1.5,3.6
						c0.1,2.1,4.1,1.2,5.2,2.3c0.6-3.6,4.1-3.2,6.1-1.7c0.5,0.4,1.3-1,2-0.6c0.5-1.8,0.4-3.7,0.2-5.4c-0.2-1.8-0.4-3.5-0.6-5.3
						c-0.1-1-0.1-1.9-0.2-2.9c0-1.6-0.7-1.8-0.6-3.2c-0.5,0-0.7-1.4-1.1-1.8c-1.1-0.8,1.2-3.4,1.7-4.6c-2.9,0.2-2.2-5.5-2.5-7.2
						c-0.2-1.2-0.9-3-0.9-4c0-0.6-0.3-0.8-0.9-0.8c-1,0.1,0.4-2.2,0.5-2.5c0.6-1.9-1.5-3.2-1.5-5.4c-1.7-0.2-2.1-0.5-1.3-2.3
						c0.4-0.6,0.8-1.2,1.3-1.7c-0.7-0.5-1.3-1.3-1.6-2.1c-0.9-2-0.9-4.5-0.7-6.7c-3.2-2.5-3.5-5.1-4.5-8.8c-0.4-1.5-2-6.9-3.3-7.2
						c-2.2-0.6,0.2-7.4,0.6-8.8c0.2-0.8,0.8-3.6-0.3-4.1c-2.1-0.8-0.7-3,0.5-4.4c-1.7,0-0.5-2.1-1.7-2.6c-1-0.4-1-1.4-1.8-2
						c-0.5-0.5-1.4-0.5-1.7-1.2c1.3-0.4-1.7-2.3-1.7-2.3C331.1,94,330.1,93.7,329.9,94.4 M299.7,205c0.1-1.5,0.8-2.8,1.4-4.2
						c0.5-1.3,3-2.3,4.5-2.8c0.5,0.8,5.8,2.7,6.2,2.1c-0.5-0.3-0.5-0.6,0.2-1c0.3-0.5,0.6-1,0.9-1.5c0.8-1.4,1.8-1.4,3.3-1.3
						c1.2,0.1,2.3,0.1,3.4,0.4c1.4-0.7,2.6-1.6,3.9-2.2c1.3-0.6,2.7-0.8,4.2-0.7c-0.1-1.5,0.3-2.8,0.8-4.2c0.4-1.1,0.9-2.3,0.7-3.6
						c-0.3-1.8,0.8-1.4,1-2.9c0.2-2-2.7-2.5-3-4.4c-0.4-3,0.4-5.5,1-8.4c0.3-1.5,0.4-2.4-0.6-3.6c-1.1-1.3-3-3.1-2.3-4.8
						c0.5-1.3,1-5.6-0.1-6.4c-2-1.3-2.5-6.3-3.4-8.7c-0.7-1.9-1.1-2.2-0.2-4c0.6-1.1-0.6-1.9-1.5-2.1c-2.5-0.6-0.2-7.3,0.1-9.2
						c-1.2-0.7-2.3-0.7-3-2.1c-0.7-1.4,0.3-2.9-0.4-4.1c-1.1-2.1-1.8-3.7-2.2-6.2c-0.3-1.5-0.9-2.1-2-3c-1.7-1.5-1-3.1-1.7-4.9
						c-0.5-1.3-1.7-1.6-0.7-3c0.4-0.6-1.1-1.9-1.2-2.7c-0.3-2.4-1.4-4.2-3.8-4.8c-0.2,1.8-2.2,0.8-3.6,1.2c-2.3,0.6-4.3,1.7-6.6,2.4
						c-1.1,0.4-2.2,0.7-3.3,1c-0.2,0.5-1.8,2.3-2.3,2.3c-1.5,0-3.2-0.2-4.3,0.5c-0.8,0.5-1.2,1.4-2.1,1.8c-2.6,1.1-5.3,2-8.1,2.3
						c-0.8,1-1.6,1.9-2.4,2.9c-1.6,1.8-2.2,1.8-4.6,1.8c0.1,1.7-2.6,1.9-3.5,2.9c-1.1,1.3-2.1,1.1-2.3,2.8c-0.1,1.1-0.9,1.9-0.7,3
						c-5.1-1.1-3.2,6-7.6,5.8c0.7,2.8,0.4,5-2.6,6.3c-1.5,0.7-0.4,1.1-1.1,2.6c-0.6,1.2-1.2,2-1,3.4c-4.6-0.7-4.1,10.5-5.2,13.1
						c-0.8,1.8-1.1,2.3-1.2,4.3c0,0.8-0.2,1.7-0.6,2.4c-1.5,2.4-0.1,4.4-0.6,7c-0.7,1.9-3.6,5-1.6,6.9c1.3,1.2,0.2,4.2-0.7,5.4
						c1,0.4,1,5.1,0.4,5.7c-0.5,0.5-1.7,0.2-1.5,1.3c1.5,1-0.2,2.7,0,4.1c0.1,0.4,0.7-0.8,0.6,0.5c-0.1,0.7-0.1,1.9,0.5,2.4
						c2.2-0.5,4.8-1.1,7,0c0.5-1,0-3.1,1.7-2.9c-0.2-1.8-1.1-3.4-1.2-5.2c0-0.8,1.2-1.7,0.6-2.3c-0.9-0.9,0.4-2.1,0.6-2.9
						c0.5-2,0.4-3.8,0.1-5.8c-0.2-1.8,0.9-3.5,2.2-4.7c-0.4-1.7-0.5-2.9,0-4.5c0.6-1.8,1-3.8,1.5-5.6c0.7-2.3,0.4-1-0.3-2.7
						c1.6-1.1,4.8-6.8,7.2-4.7c1.6,1.4-0.6,7.9-0.1,8.1c1.6,0.6,0.4,0.7,1.3,2c0.7,0.9,2.2,1.4,2,2.8c-1.5,3.2-1.3,7.1,2.1,7.2
						c0.9,0-1.2,6.8-1.4,7.3c-0.6,2.9,0.7,5.9-0.2,8.8c1.9,1.6,3,4.2,3.2,6.6c0.1,0.9,0,1.9-0.3,2.8c1.1,0.2,1,1.5,1,2.3
						c0,0.5-0.1,1.3,0.6,1.3c1.3,0.1,0,0.9,0.4,1.9c1.1,2.6,0.5,6,1.3,8.7c0.3,1,0.7,1.9,1.3,2.7c0,1.8-0.3,3,0.9,4.4
						c0.8,1,1.4,2.1,1.9,3.2c0.3,0.7,0.6,1.5,0.8,2.3c-0.2,0.4-0.4,0.8-0.6,1.2c0.2,0.3,1.4-0.1,1.2,0.6c-2.4,1.8-2.2,2.6-1.7,5.4
						c0.1,0.7,0.2,1.6,0.7,2.3c0.1,0.1,1.7,1,1.4,1.1c0.3-0.2,0.3-1,0.6-1.3c1-0.9,0.7,1,0.9,1.1c0.3,0.1,0.8-0.7,1-0.4
						c0.8,1.1,2.2-0.6,3.1-1.2c2.1-1.6,7-0.2,8.2-2c0.8-1.2,3.5-2.8,4.9-2.6c0.9,0.1,7.1,1.2,7.2,1c-1.2-0.2,0-1.9-0.8-2.2
						c-1.5-0.5-1.1-0.9-1.3-2.5c-0.1-1.2,0.7-1.7,0.9-2.9c0.4-1.9-1.4-4-2.1-5.7c-0.9-2-0.8-3,0.2-4.9c0.6-1,0.8-2.4,0-3.2
						C295,209.2,296.5,205.1,299.7,205 M383.5,111.3c0.1,0.1,0.6-0.1,0.7,0.3c0.2,0.7,0.4,1.5,0.7,2.2c0.2,0.5,0.3,1.7,0.8,1.9
						c1.3,0.7,0.1,1,0.2,2c0.1,0.8,0.9,1.5,1,2.3c0.1,0.5-0.1,0.9-0.5,1.2c0.6,0.5,1.1,1.2,1.3,2c0.4,1.5,0.3,3,0.9,4.5
						c0.8,1.8,0,2.5,0,4.5c0,2.2,1.3,2.6,1,4.5c-0.1,0.4,2.4,3.9,2.7,4.4c0.6,1.3,0.7,2.8,1.6,3.9c0.9,1.3,0.2,1.6,0.4,3.3
						c0.2,1.6-0.3,4,1,5c-0.9,0.7-0.2,2.8-0.1,3.3c0.4,1.2-0.4,1.4,0.7,2c0.8,0.4,0.8,1.6,1,2.3c0.2,1,0.9,1.9,1.3,2.8
						c-0.6,1.4-0.3,2.5-0.1,3.9c0.4,2.8,3.3,4.3,3.1,7.4c-0.1,1.9-0.6,4.3-1.5,5.9c-1.3,2.2,1.3,4.9,0,6.9c-0.3,0.5,0.4,3.2,0.6,4
						c0.5,2.1,1.6,2.8,2.6,4.5c-0.1-0.2-0.8,0.4-0.3,0.8c0.5,0.5,0.9,0.8,1.2,1.5c0.2,0.4,0.8,4,0.9,4.1c0.1,0.4,2.4-1.5,2.9-1.7
						c1.5-0.7,3-0.8,4.7-0.7c0.8,0,1.6,0.1,2.3,0.1c0.7-0.8,1.5-1.6,2.5-1.9c2-0.6,1.8,0.7,3.1-1.3c0.5-0.8,2-1.2,2.3-1.8
						c1.4-2.7,3.4-2.1,6-3.1c1-0.4,1-1.3,2.3-1.6c1.4-0.3,2,1.2,2.8-0.5c0.5-1,1.4-2.5,2.8-1.9c2,0.8,2-0.7,1.6-2.5
						c-0.7-2.8-3.2-4.6-4.6-7c-0.5-0.9-1.2-2.3-0.5-3.3c0.3-0.4,1.3-2.8,0.4-3.1c-0.2,1.3-1.2-1.3-1.8-1.6c-2.1-1.4-0.5-3.1-0.3-5.2
						c0.2-2.2-0.4-3.8,0.5-5.6c0.7-1.4,5-0.2,6.2-0.4c0.4,1.4,1.2-0.3,1.2,1.5c0,1.6,0.6,0.4,1.4,1.4c0.4,0.4,3.3,2.1,4.2,2
						c1.6-0.2,2-0.5,2.5,1.3c0.3,0.9-0.2,1.9-0.4,2.8c-0.4,1.8,1.9,2.3,3.3,2.9c2.3,0.9,2.1,4.2,3,6.4c0.6,1.3,1.1,1.2,2.4,1.5
						c1.9,0.5,2.1-0.2,3.4-1.1c1.3-0.8,2.8-0.7,2.3-2.9c0.7,0.1,1.3,0,1.5-0.8c0.3-1.2,0.6-0.7,1.4-1.6c1.4-1.6,3.3-1.4,5.3-2.2
						c1.8-0.8,2.8-1.2,4.3-2.7c0.7-0.7,1.4-1.4,2.3-1.7c1.5-0.6,0.6-0.6,1.2-2c0.6-1.5,3.9-1.6,5-2.9c-1.6-0.3-0.1-3.6-1.6-3.6
						c-0.8,0-3.3-4.8-3.8-5.8c-0.7-1.4-1.2-1-2.4-1.9c-1.7-1.1-1.6-2.4-1.8-4.3c-0.3-1.7-1.1-4-2.1-5.4c-1.2-1.6-1.8-2.3-4.1-2.6
						c-2.6-0.3-4.7,0.3-7.3-0.6c-1.3-0.4-1-0.9-2.5-0.7c-1.2,0.1-2.4,0.2-3.6,0.2c-1.7,0-4.1-0.3-5.5-1c-0.3-0.2,0.4-0.5-0.4-0.8
						c-0.7-0.2-1.4-0.3-2.2-0.3c-1.3-0.1-2.1-0.7-3.7-0.6c-1,0.1-3-1-3.9-1.5c-1.4-0.7-2.4-2-3.8-2.6c0.3,0.1-0.3,1.2-0.6,1.2
						c-0.4,0,0-2-1.2-1.2c-1.5-0.9-1.3,0.9-2.3,1.2c-0.9,0.2-1-0.7-2.2-0.1c-1.2,0.6-1.9-1-2.4-1.7c-0.5-0.7-2,0.9-1.7-0.6
						c0.1-0.4-2.3-1.5-2.9-1.7c-1.4-0.5-1.9,0-3.4-0.2c-0.6-0.2-1.2-0.1-1.8,0.2c-0.3-0.8-0.9-1.2-1.7-1.2c0.7-1.8-1.5-1.4-1.2-2.9
						c-1.7,0-3.5,0.5-4.2-0.8c-0.4-0.6-1.1-0.9-1.6-1.5c-0.4-0.4-2.6-2.5-3.6-2.8c-1.7-0.5-1.1,0.5-2.1,1c-0.8,0.5-0.9-1.4-1.8-1.7
						c-1-0.2,0-0.7-0.2-1.3c-0.1-0.3-2.4-1.1-2.7-1.1c-0.1,0.2-0.1,0.4-0.2,0.6c-0.2,0.3-1.4-1.5-1.7-1.7c-1.4-0.9-2-2.2-3.4-2.4
						c-1.4-0.2-5.8-3-6.8-2.6C383.3,108.5,383.3,110.8,383.5,111.3 M481.9,174.7c0.1,3.5-2.3,4.1-5.2,4.1c0,1.7-4.6,2.6-5.9,2.9
						c-0.6,0.1-3.3,2-4,3c-1.1,1.5-0.1,2.7-2.3,2.8c-1.1,0.1-2,0.8-2.4,1.8c2.5,0.4-0.5,5.3,3.5,5.2c0.9,0,2.2-0.1,2.9,0.6
						c0.7-0.9,1.1-1.9,1.8-2.7c1.1-1.4,3.8-1.7,5.2-0.2c0-1,0-1.9,0-2.9c1.1,0.3,1.1-0.5,1.5-1.3c0.5-1,2.9-0.5,3.8-0.5
						c0.7-0.9,0.7-2.4,1.7-2.9c2.2,0,3,0.4,3.7-1.8c1-3.2,5.5-0.1,6.2-3.5c-1.9-2.2-2.5-5.6-5.2-7
						C486.4,175,483.8,174.1,481.9,174.7 M253.1,202.1c0.2,0.9,2.4,6.4,2.9,6.4c0-0.2,0.1-0.4,0.4-0.4c0.1,0,2,2.7,2.1,3
						c0.2,0.5,0.3,1,0.5,1.4c0.4,1.8,0.2,0.2,1.2,1.2c0,0.4,0,0.8,0,1.2c0.6,0.4,1.1,0.8,1.7,1.2c0.4-1.5-0.9-2.3-0.7-3.4
						c0.3-1.7,0.8-1.7-0.1-3.7c-1.7-3.7-4.4-8.7-4.6-12.9c-0.1-2.2,0.3-4.3,0.3-6.5c0-0.9-0.1-1.8-0.2-2.7c-1.4,0-1.6-0.4-2,1.1
						C253.6,192.6,252.3,197.4,253.1,202.1 M440.5,198c-1.2,0.4-5.1-1.6-4.7,1.7c0.2,1.8-1.9,2.4-3.3,2.9c-1.6,0.6-4.1,0.8-5.4,2.4
						c-0.6,0.7-0.8-0.4-1.4,1c-0.3,0.9-2.8-0.1-3.3-0.4c-1.4,1.5-1.5,5.6-4.9,4.6c-2.5-0.7-3.4,0.8-5.4,0.7c-6.9-0.1,1.3,5,1.6,6.9
						c2.3-1.3,4.6,0.8,7,0.6c-0.2-1.6,1-2.3,1.3-3.6c0.2-0.8,2.3-0.4,2.8-0.4c1.4,0,2.5,0.8,3.4,0c1.6-1.5,4.5-0.2,5.2-1.3
						c1.2-1.9,2.9-4,5.3-2.7c-0.7-1.8,1.6-1.4,1.2-2.9c2.1-0.1,2.8,0.6,2.9-2.6C443,202.3,441.9,199.9,440.5,198 M500.5,199.7
						c-1.2,1.1-2.3,1.5-3.5,2.3c-1,0.7-0.7,1.3-2.3,1.5c-1.5,0.2-1.6,0-2.9,0.9c-1.4,1-1,2.3-3,2.3c-2.8,0-3,1-5.2,2.3
						c-2.6,1.6-4.3-0.6-5.2,3.5c1.6,0.2,1.5,0.5,2.7,1.1c1,0.5,1.4,1.7,2.5,2.7c1.1,1.1,0.7,2.1,2.5,2.1c1.6,0,3.3-0.2,4.6-1.2
						c1.3,1.8,4.6-0.7,5.6-0.9c1.3-0.3,0.7-1.7,2.2-1.4c0.7,0.2,1,0.1,1.2-0.6c0.5-1.2,0.6-0.2,1.4-0.6c0.5-0.3-0.9-0.8,0.5-0.6
						c0.7,0.1,1.2-0.2,1.8-0.6c-0.6-1.8,0.1-3.7,0.9-5.4c0.8-1.7,1.8-3.5,1.8-5.5C506.1,198.7,502.8,199.7,500.5,199.7 M316,201.5
						c-0.1,1.7-3,2.8-4.7,3.5c-1.4-1.7-4.8,1.2-6.4-0.6c-0.2,0.5-0.6,0.7-1.2,0.6c-0.2,0.6-0.5,1.2-1,1.7c-0.9,1.3-1,2.4-0.3,3.8
						c0.5,1.1,1.1,2.2,0.3,3.3c-0.4,0.6-1.2,1.4-0.6,2.2c0.1,0.1-0.1,1.6-0.2,1.8c-0.7,1.4-0.8,1.3,0,3c0.7,1.4,2.2,3.3,1.3,4.8
						c-0.7,1.1-0.7,3.8,1.4,2.5c1.2-0.8,3.2-1.4,4.9-1c0.9-0.7,0.8-2.1,1.8-2.9c1.2,0.2,2.4-1.1,3.5,0c0.4-1,0.3-2.1,0.9-3
						c1-1.6,2.3-0.7,3.8-1.1c-0.3-1.3,0.3-1.8,1.5-2c1.9-0.3,1.3-1.4,2.7-2.4c1.8-1.3,5.1-3,2.5-5.1c-0.7-0.6,0-2.3-0.4-3.3
						c-0.4-0.8-1.1-2.2-1.6-3c-1.2-1.8-1.7-2.3-3.9-2.5C318.8,201.8,317.4,201.6,316,201.5 M246.7,237c-0.3-0.6-0.5-1.1-0.6-1.8
						c0-0.3,0.7,0.1,0.6-0.6c-0.2-1-0.3-0.3,0.2-1.8c0.1-0.4,0.3-1.3,0.7-1.6c0.7-0.5-0.6-0.7-0.3-1.3c0.3-0.6,1.9,0.1,1.2-1.2
						c1.4,0.4,1.2-1.2,2.3-1.2c0.1,0.6,1.9,1.7,1.7,0.6c-3.6-0.2-2.1-7.8-0.6-9.9c-1,0.1-0.2-1.6-0.9-2c-1.3-0.8-0.2-1.4-1.9-1.6
						c-1.2-0.2-2.3,0-3.5,0.2c-0.4-1-1.6-1.4-2.6-1.6c-1.2-0.2-2.4-0.2-3.6-0.5c-1.4-0.4-1.9,1.4-2.5,2.7c-0.5,1.2-1.8,5.2-3.5,4.6
						c0,1.2-0.6,2.2-1,3.3c-0.6,1.6,0.3,3.2-1.2,4.4c-0.1,0.1-1.5,3.1-1.3,3.3c1.9,0.2,1.7-1.7,2.1-2.9c0.5-1.8,3.5-2.1,4.9-2.9
						c0.1,1.7,1.7,2.1,2.3,3.5c0.3,0.7-0.5,1-0.4,1.6c0,0.2,0.9,0.5,1,0.8c0.4,1.2,0.1,2.5,0.8,3.6c0.8,1.3,3.1,0.9,4.1,2
						c0.8,0.9,0.6,4.5,1.2,6c0.3,0.7,0.5,2.7,1.5,2.2C246.9,242.4,247.1,239.7,246.7,237 M330.5,224.2c-0.4-0.1-0.8-0.1-1.2,0
						c-0.6,0.3,0.8,1.4-0.6,1.2c-1.5-0.3-4.1,2.6-5.3,3.5c-3.6-0.4-4.8,6.8-8.1,4.7c-1.2,1.3-3,1.7-4.7,2.1c-2,0.4-5.6-0.1-4.3,2.8
						c0.3,0.6,1.5,2.7,2.2,2.9c0.9,0.2-0.1,1.7,1.7,2c0.5,0,0.9,0.3,1,0.8c1.3-0.2,2.5-0.7,3.7-1.1c1.9-0.7,4.4-0.9,6.2-1.8
						c0-0.4,0-0.8,0-1.2c0.4-0.4,1.3,0.3,1.7,0c0.3-0.2,3.5-2.6,3.5-2.3c0-0.2,2.2-1.4,2.4-1.4c1.2-0.3,1.4-2.2,2.3-2.1
						c1.1-0.2,2,0.9,2.9,0c-0.3-2.2,0.8-3.4,2.3-4.7c-1.5-1.1-1.4-3.6-1.7-5.2C333.1,223.4,332,223.8,330.5,224.2 M446.3,226.5
						c-1.2-0.6-2.4,0.2-3.5-0.6c-0.1,2.6-3.4,2.4-5.3,2.3c0,2-4.1,2.8-5.5,2.6c-1.3-0.1-1.8-0.8-2.3,0.5c-0.3,0.9-1.1,1.4-2,1.7
						c-1.6,0.6-5.2,1-3.5,3c1.9,2.2,2.7,5.1,3.3,7.9c1.9,1.1,3.4-1.4,5.6-0.2c1.7,0.9,3,4.4,4.8,3.1c1.2-0.9,1-1.7,2.6-1.3
						c1,0.3,1.7-0.3,2.7,0.2c-0.1-1.7,3.4-3.3,4.7-2.3c-0.3-2.3,2.4-3.1,3.3-4.8c1-1.8,0.4-2.7,0.7-4.5c0.1-0.3,1.1,0.1,0.5-1.3
						c-0.4-0.9-0.5-1.7-0.8-2.7c-0.4-1.5-1.7-2.6-2-4.2C448.5,225.9,447.7,226.8,446.3,226.5 M301.4,244c-0.8-0.1-1-1-1.7-1.2
						c-0.2,0.7-1.1,0.7-1.6,0.6c-1.5,0-2.7,0.1-4,0.3c-1.4,0.2-1.5-0.8-2.4,0.4c-0.8,1-1.3,0.9-2.4,0.7c-1-0.1-2-0.1-3-0.1
						c-1.1,0-3.3-0.3-3.8-0.4c-1.5-0.2-0.6,0-2.1,0.7c-1.2,0.6-3.6,1.1-4.7,0c-0.3,2.7,0.8,5,0.6,7.6c1.8-0.4,4.1,1.9,5.1,0.4
						c1.9-2.8,4.4,0.2,6,1.3c0.2-1.1,0.5-2.5,1.7-2.9c1.1,0.2,1.7,1.2,2.9,1.2c-0.3-4.6,4.2-2.1,6.4-0.6c-0.1-2.4,2.7-1.9,4.1-2.9
						C303.1,247,301.2,246,301.4,244 M339.8,248c-1,0.1-1.2,1.3-2.7,1.3c-1.2,0-1.7-1.2-2.8-1.3c-1.9-0.3-1.4,2.6-2.6,3.5
						c-0.8,0.3-1.6,0.5-2.5,0.3c-1.6-0.4-0.8,0-1.9,0.9c-2,1.9-6,1.5-7.1,4.4c-0.5,1.3,1.4,2.3,2,3.4c0.8,1.7,0.8,3.7,0.7,5.6
						c2.3-0.7,3.7,1.1,5.8,1.2c1.1,0.1,1.9-0.6,2.9-1c1.1-0.5,0.8,0.7,1.8,0.4c0-0.2,0-0.4,0-0.6c0.4,0,0.8,0,1.2,0
						c0.5-0.3-0.9-0.8,0.5-0.6c1.5,0.2,2.8-1.1,4.4-1.1c1.8,0,1.6-1.2,3.2-1.2c-0.1-1.4,0.4-2.4,1.5-3.2c2.4-1.7,2-5.3,1.4-8
						c-0.6-2.2-1.8-5.4-4.6-5.2C340.9,247.7,340.7,248,339.8,248 M300.8,266.7c-2.2-0.9-4.1-0.7-6.4-0.6c-1.3,0.1-2.3,0.2-3.5-0.6
						c-0.4,0.9-1.2,1.4-2.1,1.6c-1.6,0.3-3.4-1.2-3.6,0.9c-0.2,1.9-4.3,0.6-5.3-0.1c-0.1,1.7-0.4,3.3-0.4,5c0,0.5,0.1,1.4,0.5,1.8
						c1,0.9,0.7,0.5,1,1.9c0.1,0.6,1.2,0.4,1.6,0.6c1.1,0.5,0.6,1.4,1.2,2.2c0.6,0.9,0.4,1.2,1.4,1.4c1.4,0.3,0.1,0.1,1-0.1
						c0.4,0.1,0.6,0.2,0.6,0.6c1,0.1,2,0.1,3,0c0.6,0,4.8-0.5,4.8-0.4c0.5,0.8,1.1,0.2,1.5-0.2c1.1-1.1,3.1-0.7,4.5-0.7
						c1.1,0,2.4-0.3,2.5-1.6c0.8,0,2,0.2,2.6-0.4c0.8-0.8-0.5-1.7-0.5-2.6c0-2.6,2-9.4-1.6-10.3C303.3,266.1,302,266.5,300.8,266.7"
						/>
				</g>
			</g>
		</g>
	</g>
</g>
<g>
	<g>
		<path class="st4" d="M365.5,62.2c-0.1,8.2-7.2,15.7-15.1,16.3c-1.1,0.1-1.9-0.7-1.9-1.8c0-0.9,0.8-1.6,1.8-1.8
			c6.1-1,11.4-6.1,11.5-12.4c0.1-6.6-6-10.8-12.3-10.3c-3.8,0.3-10.1,2.3-10.3,3.3c-0.7,2.5,4.9,11.6,4.9,23.4
			c0,8.1-1.7,24.4-12.1,24.9c-8.5,0.4-10.3-10.8-9.8-17.6C323.8,66.9,333,56.5,333,54c0-1.2-4.6-4.4-8.7-4.4c-1,0-1.9-0.7-1.9-1.7
			c0-1,0.9-1.9,1.9-1.9c5.2,0,11.5,6.2,12.9,6.5c1.4,0.3,7.9-3.5,12.4-3.9C357.8,48,365.6,53.4,365.5,62.2z M336,58.1
			c-2-0.3-10.6,17.8-10.7,27.8c-0.1,4.7,2,15,6.8,14.5c6.4-0.7,7.9-14,8.2-20.6C340.7,72.5,336.7,58.2,336,58.1z"/>
		<path class="st4" d="M374.2,73.6c0,0.1,0,0.3-0.1,0.4c-2.5,7.2-3,17-3.6,25.5c-0.1,1-0.8,1.9-1.9,2c-1.1,0.1-2-0.7-1.9-1.8
			c0.3-8.5,2.1-17.9,3.8-26.2c0.2-1,1.3-1.7,2.3-1.6C373.6,72,374.2,72.8,374.2,73.6z M378.1,60.4c-1.4,1.1-2,1.6-3.4,2.7
			c2.1,1.1,3.1,1.7,5.2,2.8c-2.5-0.1-3.8-0.2-6.3-0.4c-0.9,2-1.4,2.9-2.4,4.9c0-2,0.1-2.9,0.1-4.9c-1.7,0-2.5,0-4.2,0.1
			c1.7-1.1,2.5-1.7,4.1-2.8c-0.2-1.5-0.3-2.3-0.4-3.9c1,1,1.5,1.5,2.5,2.5C375.2,61,376.2,60.8,378.1,60.4z"/>
		<path class="st4" d="M403.6,79.7c0,5.9-1.4,12.8-1.9,15.7c-0.3,1.7-1.6,1.9-1.9,1.9c-1.1,0.1-1.9-0.6-1.9-1.7c0-0.1,0-0.2,0.1-0.3
			c0.9-2.6,1.9-9.6,1.9-15.1c0-4.5-1.2-7.8-3-7.4c-7.9,2-11,17-12.7,24.9c-0.2,0.8-0.8,1.5-1.8,1.6c-1.1,0.1-1.8-0.7-1.8-1.8
			c0-1,1.5-7.4,1.9-8.7c0.9-3.9,1.8-7.8,1.8-10.6c0-2.5-0.7-3.9-1.5-4.9c-0.3-0.3-0.4-0.8-0.4-1.3c0-0.9,0.8-1.9,1.9-2
			c1.7-0.2,3.6,7.8,3.6,7.8c0.1,0,5.6-8.6,9.4-9C399,68.6,403.6,69.2,403.6,79.7z M393.7,60.9c-1.2-1-2.2-1.4-3-1.3
			c-1.2,0.1-1.9,1.6-2.5,3.2c-0.2,0.5-0.8,0.9-1.4,1c-1,0.1-1.7-0.7-1.7-1.7c0-1.4,2.3-5.3,5.4-5.7c1.4-0.2,3,0.1,4.6,1.4
			c1.1,0.9,2,1.2,2.9,1.1c1-0.1,1.6-1.4,1.9-2.3c0.3-0.7,0.9-1.2,1.5-1.3c0.3,0,0.7,0,1,0.2c0.4,0.2,0.6,0.9,0.6,1.5
			c0,1.1-1.7,4.6-4.7,4.9C396.8,62.2,395,61.9,393.7,60.9z"/>
		<path class="st4" d="M432.5,73.4c0,3.2-0.6,7-1.1,10.3c-0.4,2.2-0.8,5.2-0.8,6.8c0,0.5,0.1,0.9,0.2,1.1c0.1,0.3,0.3,0.6,0.3,1
			c0,0.9-0.9,1.9-1.9,2c-1.9,0.2-2.4-2.1-2.4-3.8c0-1.8,0.5-4.2,0.9-7.3c0.5-3.1,1.1-6.5,1.1-9.5c0-4.1-2.3-5.5-4.4-5.2
			c-7.5,1.1-11.2,11.8-11.3,18.7c0,3.1,1.4,5.2,3.6,4.9c2.3-0.2,4-2.5,4.8-4.8c0.3-0.7,0.9-1.2,1.6-1.3c1.1-0.1,1.8,0.7,1.8,1.7
			c0,1.4-2.7,7.4-8.8,8c-3.4,0.4-6.9-1.9-6.9-8.1c0.1-8.9,5.5-21.5,15.4-22.7C429.4,64.6,432.5,67.5,432.5,73.4z"/>
		<path class="st4" d="M447.2,93.3c-0.1,0-0.5,0-0.6,0c-3.9,0-6.3-3.7-6.3-10.2c0-4.1,2.5-14.9,2.1-15.4c-0.3-0.4-3.4,0.7-4.6,0.8
			c-0.6,0.1-1.2-0.4-1.2-1.3c0-2.4,5.7-2.3,6.6-3.1c0.9-0.8,1.6-6.9,2.6-10.3c0.2-0.8,1-1.4,1.7-1.5c1-0.1,1.9,0.5,1.9,1.6
			c0,0.3-0.1,0.8-0.2,0.9c-1,2.4-2.5,8.9-2.4,9c0.2,0.2,3-0.3,5.2-0.2c0.9,0,1.9,0.7,1.9,1.7c0,1-0.7,1.7-1.6,1.8
			c-1.6,0.1-5.6-0.2-6.1,0.1c-1.8,1.4-2.3,10.9-2.3,15.2c0,6.7,2.5,7,3.3,7c0.8,0,1.7,0.7,1.7,1.7C449,92.2,448.2,93.2,447.2,93.3z"
			/>
		<path class="st4" d="M477.8,71c0,3.2-0.6,7-1.1,10.2c-0.4,2.2-0.8,5.1-0.8,6.8c0,0.5,0.1,0.9,0.2,1.1c0.1,0.3,0.3,0.6,0.3,1
			c0,0.9-0.9,1.8-1.9,1.8c-1.9,0-2.4-2.3-2.4-4c0-1.8,0.5-4.2,0.9-7.2c0.5-3.1,1.1-6.4,1.1-9.4c0-4.1-2.3-5.7-4.4-5.5
			c-7.5,0.5-11.2,11.3-11.2,17.9c0,3.1,1.4,5.3,3.6,5.2c2.3-0.1,4-2.2,4.8-4.5c0.3-0.7,0.9-1.1,1.6-1.1c1.1,0,1.8,0.8,1.8,1.8
			c0,1.4-2.7,7.1-8.8,7.4c-3.4,0.1-6.9-2.3-6.9-8.5c0.1-8.6,5.5-21.3,15.4-21.7C474.7,61.9,477.8,65.2,477.8,71z"/>
	</g>
</g>
<text transform="matrix(1 0 0 1 239.2139 155.5509)" class="st5 st6 st7">The American Party Story</text>
</svg>
